<?xml version="1.0" encoding="utf-8" standalone="no"?>
<!DOCTYPE svg PUBLIC "-//W3C//DTD SVG 1.1//EN"
  "http://www.w3.org/Graphics/SVG/1.1/DTD/svg11.dtd">
<svg height="566.8pt" version="1.1" viewBox="0 0 638.8 566.8" width="638.8pt" xmlns="http://www.w3.org/2000/svg" xmlns:xlink="http://www.w3.org/1999/xlink">
 <metadata>
  <rdf:RDF xmlns:cc="http://creativecommons.org/ns#" xmlns:dc="http://purl.org/dc/elements/1.1/" xmlns:rdf="http://www.w3.org/1999/02/22-rdf-syntax-ns#">
   <cc:Work>
    <dc:type rdf:resource="http://purl.org/dc/dcmitype/StillImage"/>
    <dc:date>2021-10-04T17:00:12.008840</dc:date>
    <dc:format>image/svg+xml</dc:format>
    <dc:creator>
     <cc:Agent>
      <dc:title>Matplotlib v3.4.2, https://matplotlib.org/</dc:title>
     </cc:Agent>
    </dc:creator>
   </cc:Work>
  </rdf:RDF>
 </metadata>
 <defs>
  <style type="text/css">*{stroke-linecap:butt;stroke-linejoin:round;}</style>
 </defs>
 <g id="figure_1">
  <g id="patch_1">
   <path d="M -0 566.8 
L 638.8 566.8 
L 638.8 0 
L -0 0 
z
" style="fill:none;"/>
  </g>
  <g id="axes_1">
   <g id="patch_2">
    <path d="M 78.2 410.5 
L 560.6 410.5 
L 560.6 97.7 
L 78.2 97.7 
z
" style="fill:none;"/>
   </g>
   <g id="matplotlib.axis_1">
    <g id="xtick_1">
     <g id="line2d_1"/>
     <g id="text_1">
      <!-- −3 -->
      <g style="fill:#262626;" transform="translate(94.426491 421.157812)scale(0.1 -0.1)">
       <defs>
        <path d="M 3381 1997 
L 356 1997 
L 356 2522 
L 3381 2522 
L 3381 1997 
z
" id="ArialMT-2212" transform="scale(0.015625)"/>
        <path d="M 269 1209 
L 831 1284 
Q 928 806 1161 595 
Q 1394 384 1728 384 
Q 2125 384 2398 659 
Q 2672 934 2672 1341 
Q 2672 1728 2419 1979 
Q 2166 2231 1775 2231 
Q 1616 2231 1378 2169 
L 1441 2663 
Q 1497 2656 1531 2656 
Q 1891 2656 2178 2843 
Q 2466 3031 2466 3422 
Q 2466 3731 2256 3934 
Q 2047 4138 1716 4138 
Q 1388 4138 1169 3931 
Q 950 3725 888 3313 
L 325 3413 
Q 428 3978 793 4289 
Q 1159 4600 1703 4600 
Q 2078 4600 2393 4439 
Q 2709 4278 2876 4000 
Q 3044 3722 3044 3409 
Q 3044 3113 2884 2869 
Q 2725 2625 2413 2481 
Q 2819 2388 3044 2092 
Q 3269 1797 3269 1353 
Q 3269 753 2831 336 
Q 2394 -81 1725 -81 
Q 1122 -81 723 278 
Q 325 638 269 1209 
z
" id="ArialMT-33" transform="scale(0.015625)"/>
       </defs>
       <use xlink:href="#ArialMT-2212"/>
       <use x="58.398438" xlink:href="#ArialMT-33"/>
      </g>
     </g>
    </g>
    <g id="xtick_2">
     <g id="line2d_2"/>
     <g id="text_2">
      <!-- −2 -->
      <g style="fill:#262626;" transform="translate(167.517401 421.157812)scale(0.1 -0.1)">
       <defs>
        <path d="M 3222 541 
L 3222 0 
L 194 0 
Q 188 203 259 391 
Q 375 700 629 1000 
Q 884 1300 1366 1694 
Q 2113 2306 2375 2664 
Q 2638 3022 2638 3341 
Q 2638 3675 2398 3904 
Q 2159 4134 1775 4134 
Q 1369 4134 1125 3890 
Q 881 3647 878 3216 
L 300 3275 
Q 359 3922 746 4261 
Q 1134 4600 1788 4600 
Q 2447 4600 2831 4234 
Q 3216 3869 3216 3328 
Q 3216 3053 3103 2787 
Q 2991 2522 2730 2228 
Q 2469 1934 1863 1422 
Q 1356 997 1212 845 
Q 1069 694 975 541 
L 3222 541 
z
" id="ArialMT-32" transform="scale(0.015625)"/>
       </defs>
       <use xlink:href="#ArialMT-2212"/>
       <use x="58.398438" xlink:href="#ArialMT-32"/>
      </g>
     </g>
    </g>
    <g id="xtick_3">
     <g id="line2d_3"/>
     <g id="text_3">
      <!-- −1 -->
      <g style="fill:#262626;" transform="translate(240.60831 421.157812)scale(0.1 -0.1)">
       <defs>
        <path d="M 2384 0 
L 1822 0 
L 1822 3584 
Q 1619 3391 1289 3197 
Q 959 3003 697 2906 
L 697 3450 
Q 1169 3672 1522 3987 
Q 1875 4303 2022 4600 
L 2384 4600 
L 2384 0 
z
" id="ArialMT-31" transform="scale(0.015625)"/>
       </defs>
       <use xlink:href="#ArialMT-2212"/>
       <use x="58.398438" xlink:href="#ArialMT-31"/>
      </g>
     </g>
    </g>
    <g id="xtick_4">
     <g id="line2d_4"/>
     <g id="text_4">
      <!-- 0 -->
      <g style="fill:#262626;" transform="translate(316.619531 421.157812)scale(0.1 -0.1)">
       <defs>
        <path d="M 266 2259 
Q 266 3072 433 3567 
Q 600 4063 929 4331 
Q 1259 4600 1759 4600 
Q 2128 4600 2406 4451 
Q 2684 4303 2865 4023 
Q 3047 3744 3150 3342 
Q 3253 2941 3253 2259 
Q 3253 1453 3087 958 
Q 2922 463 2592 192 
Q 2263 -78 1759 -78 
Q 1097 -78 719 397 
Q 266 969 266 2259 
z
M 844 2259 
Q 844 1131 1108 757 
Q 1372 384 1759 384 
Q 2147 384 2411 759 
Q 2675 1134 2675 2259 
Q 2675 3391 2411 3762 
Q 2147 4134 1753 4134 
Q 1366 4134 1134 3806 
Q 844 3388 844 2259 
z
" id="ArialMT-30" transform="scale(0.015625)"/>
       </defs>
       <use xlink:href="#ArialMT-30"/>
      </g>
     </g>
    </g>
    <g id="xtick_5">
     <g id="line2d_5"/>
     <g id="text_5">
      <!-- 1 -->
      <g style="fill:#262626;" transform="translate(389.71044 421.157812)scale(0.1 -0.1)">
       <use xlink:href="#ArialMT-31"/>
      </g>
     </g>
    </g>
    <g id="xtick_6">
     <g id="line2d_6"/>
     <g id="text_6">
      <!-- 2 -->
      <g style="fill:#262626;" transform="translate(462.801349 421.157812)scale(0.1 -0.1)">
       <use xlink:href="#ArialMT-32"/>
      </g>
     </g>
    </g>
    <g id="xtick_7">
     <g id="line2d_7"/>
     <g id="text_7">
      <!-- 3 -->
      <g style="fill:#262626;" transform="translate(535.892259 421.157812)scale(0.1 -0.1)">
       <use xlink:href="#ArialMT-33"/>
      </g>
     </g>
    </g>
    <g id="text_8">
     <!-- Simulator parameter $\theta$ -->
     <g style="fill:#262626;" transform="translate(219.9 442.545312)scale(0.2 -0.2)">
      <defs>
       <path d="M 288 1472 
L 859 1522 
Q 900 1178 1048 958 
Q 1197 738 1509 602 
Q 1822 466 2213 466 
Q 2559 466 2825 569 
Q 3091 672 3220 851 
Q 3350 1031 3350 1244 
Q 3350 1459 3225 1620 
Q 3100 1781 2813 1891 
Q 2628 1963 1997 2114 
Q 1366 2266 1113 2400 
Q 784 2572 623 2826 
Q 463 3081 463 3397 
Q 463 3744 659 4045 
Q 856 4347 1234 4503 
Q 1613 4659 2075 4659 
Q 2584 4659 2973 4495 
Q 3363 4331 3572 4012 
Q 3781 3694 3797 3291 
L 3216 3247 
Q 3169 3681 2898 3903 
Q 2628 4125 2100 4125 
Q 1550 4125 1298 3923 
Q 1047 3722 1047 3438 
Q 1047 3191 1225 3031 
Q 1400 2872 2139 2705 
Q 2878 2538 3153 2413 
Q 3553 2228 3743 1945 
Q 3934 1663 3934 1294 
Q 3934 928 3725 604 
Q 3516 281 3123 101 
Q 2731 -78 2241 -78 
Q 1619 -78 1198 103 
Q 778 284 539 648 
Q 300 1013 288 1472 
z
" id="ArialMT-53" transform="scale(0.015625)"/>
       <path d="M 425 3934 
L 425 4581 
L 988 4581 
L 988 3934 
L 425 3934 
z
M 425 0 
L 425 3319 
L 988 3319 
L 988 0 
L 425 0 
z
" id="ArialMT-69" transform="scale(0.015625)"/>
       <path d="M 422 0 
L 422 3319 
L 925 3319 
L 925 2853 
Q 1081 3097 1340 3245 
Q 1600 3394 1931 3394 
Q 2300 3394 2536 3241 
Q 2772 3088 2869 2813 
Q 3263 3394 3894 3394 
Q 4388 3394 4653 3120 
Q 4919 2847 4919 2278 
L 4919 0 
L 4359 0 
L 4359 2091 
Q 4359 2428 4304 2576 
Q 4250 2725 4106 2815 
Q 3963 2906 3769 2906 
Q 3419 2906 3187 2673 
Q 2956 2441 2956 1928 
L 2956 0 
L 2394 0 
L 2394 2156 
Q 2394 2531 2256 2718 
Q 2119 2906 1806 2906 
Q 1569 2906 1367 2781 
Q 1166 2656 1075 2415 
Q 984 2175 984 1722 
L 984 0 
L 422 0 
z
" id="ArialMT-6d" transform="scale(0.015625)"/>
       <path d="M 2597 0 
L 2597 488 
Q 2209 -75 1544 -75 
Q 1250 -75 995 37 
Q 741 150 617 320 
Q 494 491 444 738 
Q 409 903 409 1263 
L 409 3319 
L 972 3319 
L 972 1478 
Q 972 1038 1006 884 
Q 1059 663 1231 536 
Q 1403 409 1656 409 
Q 1909 409 2131 539 
Q 2353 669 2445 892 
Q 2538 1116 2538 1541 
L 2538 3319 
L 3100 3319 
L 3100 0 
L 2597 0 
z
" id="ArialMT-75" transform="scale(0.015625)"/>
       <path d="M 409 0 
L 409 4581 
L 972 4581 
L 972 0 
L 409 0 
z
" id="ArialMT-6c" transform="scale(0.015625)"/>
       <path d="M 2588 409 
Q 2275 144 1986 34 
Q 1697 -75 1366 -75 
Q 819 -75 525 192 
Q 231 459 231 875 
Q 231 1119 342 1320 
Q 453 1522 633 1644 
Q 813 1766 1038 1828 
Q 1203 1872 1538 1913 
Q 2219 1994 2541 2106 
Q 2544 2222 2544 2253 
Q 2544 2597 2384 2738 
Q 2169 2928 1744 2928 
Q 1347 2928 1158 2789 
Q 969 2650 878 2297 
L 328 2372 
Q 403 2725 575 2942 
Q 747 3159 1072 3276 
Q 1397 3394 1825 3394 
Q 2250 3394 2515 3294 
Q 2781 3194 2906 3042 
Q 3031 2891 3081 2659 
Q 3109 2516 3109 2141 
L 3109 1391 
Q 3109 606 3145 398 
Q 3181 191 3288 0 
L 2700 0 
Q 2613 175 2588 409 
z
M 2541 1666 
Q 2234 1541 1622 1453 
Q 1275 1403 1131 1340 
Q 988 1278 909 1158 
Q 831 1038 831 891 
Q 831 666 1001 516 
Q 1172 366 1500 366 
Q 1825 366 2078 508 
Q 2331 650 2450 897 
Q 2541 1088 2541 1459 
L 2541 1666 
z
" id="ArialMT-61" transform="scale(0.015625)"/>
       <path d="M 1650 503 
L 1731 6 
Q 1494 -44 1306 -44 
Q 1000 -44 831 53 
Q 663 150 594 308 
Q 525 466 525 972 
L 525 2881 
L 113 2881 
L 113 3319 
L 525 3319 
L 525 4141 
L 1084 4478 
L 1084 3319 
L 1650 3319 
L 1650 2881 
L 1084 2881 
L 1084 941 
Q 1084 700 1114 631 
Q 1144 563 1211 522 
Q 1278 481 1403 481 
Q 1497 481 1650 503 
z
" id="ArialMT-74" transform="scale(0.015625)"/>
       <path d="M 213 1659 
Q 213 2581 725 3025 
Q 1153 3394 1769 3394 
Q 2453 3394 2887 2945 
Q 3322 2497 3322 1706 
Q 3322 1066 3130 698 
Q 2938 331 2570 128 
Q 2203 -75 1769 -75 
Q 1072 -75 642 372 
Q 213 819 213 1659 
z
M 791 1659 
Q 791 1022 1069 705 
Q 1347 388 1769 388 
Q 2188 388 2466 706 
Q 2744 1025 2744 1678 
Q 2744 2294 2464 2611 
Q 2184 2928 1769 2928 
Q 1347 2928 1069 2612 
Q 791 2297 791 1659 
z
" id="ArialMT-6f" transform="scale(0.015625)"/>
       <path d="M 416 0 
L 416 3319 
L 922 3319 
L 922 2816 
Q 1116 3169 1280 3281 
Q 1444 3394 1641 3394 
Q 1925 3394 2219 3213 
L 2025 2691 
Q 1819 2813 1613 2813 
Q 1428 2813 1281 2702 
Q 1134 2591 1072 2394 
Q 978 2094 978 1738 
L 978 0 
L 416 0 
z
" id="ArialMT-72" transform="scale(0.015625)"/>
       <path id="ArialMT-20" transform="scale(0.015625)"/>
       <path d="M 422 -1272 
L 422 3319 
L 934 3319 
L 934 2888 
Q 1116 3141 1344 3267 
Q 1572 3394 1897 3394 
Q 2322 3394 2647 3175 
Q 2972 2956 3137 2557 
Q 3303 2159 3303 1684 
Q 3303 1175 3120 767 
Q 2938 359 2589 142 
Q 2241 -75 1856 -75 
Q 1575 -75 1351 44 
Q 1128 163 984 344 
L 984 -1272 
L 422 -1272 
z
M 931 1641 
Q 931 1000 1190 694 
Q 1450 388 1819 388 
Q 2194 388 2461 705 
Q 2728 1022 2728 1688 
Q 2728 2322 2467 2637 
Q 2206 2953 1844 2953 
Q 1484 2953 1207 2617 
Q 931 2281 931 1641 
z
" id="ArialMT-70" transform="scale(0.015625)"/>
       <path d="M 2694 1069 
L 3275 997 
Q 3138 488 2766 206 
Q 2394 -75 1816 -75 
Q 1088 -75 661 373 
Q 234 822 234 1631 
Q 234 2469 665 2931 
Q 1097 3394 1784 3394 
Q 2450 3394 2872 2941 
Q 3294 2488 3294 1666 
Q 3294 1616 3291 1516 
L 816 1516 
Q 847 969 1125 678 
Q 1403 388 1819 388 
Q 2128 388 2347 550 
Q 2566 713 2694 1069 
z
M 847 1978 
L 2700 1978 
Q 2663 2397 2488 2606 
Q 2219 2931 1791 2931 
Q 1403 2931 1139 2672 
Q 875 2413 847 1978 
z
" id="ArialMT-65" transform="scale(0.015625)"/>
       <path d="M 2913 2219 
L 925 2219 
Q 791 1284 928 888 
Q 1100 400 1566 400 
Q 2034 400 2391 891 
Q 2703 1322 2913 2219 
z
M 3009 2750 
Q 3094 3638 2984 3950 
Q 2813 4444 2353 4444 
Q 1875 4444 1525 3956 
Q 1250 3563 1034 2750 
L 3009 2750 
z
M 2444 4913 
Q 3194 4913 3494 4250 
Q 3794 3591 3566 2422 
Q 3341 1256 2781 594 
Q 2225 -72 1475 -72 
Q 722 -72 425 594 
Q 128 1256 353 2422 
Q 581 3591 1134 4250 
Q 1691 4913 2444 4913 
z
" id="DejaVuSans-Oblique-3b8" transform="scale(0.015625)"/>
      </defs>
      <use transform="translate(0 0.234375)" xlink:href="#ArialMT-53"/>
      <use transform="translate(66.699219 0.234375)" xlink:href="#ArialMT-69"/>
      <use transform="translate(88.916016 0.234375)" xlink:href="#ArialMT-6d"/>
      <use transform="translate(172.216797 0.234375)" xlink:href="#ArialMT-75"/>
      <use transform="translate(227.832031 0.234375)" xlink:href="#ArialMT-6c"/>
      <use transform="translate(250.048828 0.234375)" xlink:href="#ArialMT-61"/>
      <use transform="translate(305.664062 0.234375)" xlink:href="#ArialMT-74"/>
      <use transform="translate(333.447266 0.234375)" xlink:href="#ArialMT-6f"/>
      <use transform="translate(389.0625 0.234375)" xlink:href="#ArialMT-72"/>
      <use transform="translate(422.363281 0.234375)" xlink:href="#ArialMT-20"/>
      <use transform="translate(450.146484 0.234375)" xlink:href="#ArialMT-70"/>
      <use transform="translate(505.761719 0.234375)" xlink:href="#ArialMT-61"/>
      <use transform="translate(561.376953 0.234375)" xlink:href="#ArialMT-72"/>
      <use transform="translate(594.677734 0.234375)" xlink:href="#ArialMT-61"/>
      <use transform="translate(650.292969 0.234375)" xlink:href="#ArialMT-6d"/>
      <use transform="translate(733.59375 0.234375)" xlink:href="#ArialMT-65"/>
      <use transform="translate(789.208984 0.234375)" xlink:href="#ArialMT-74"/>
      <use transform="translate(816.992188 0.234375)" xlink:href="#ArialMT-65"/>
      <use transform="translate(872.607422 0.234375)" xlink:href="#ArialMT-72"/>
      <use transform="translate(905.908203 0.234375)" xlink:href="#ArialMT-20"/>
      <use transform="translate(933.691406 0.234375)" xlink:href="#DejaVuSans-Oblique-3b8"/>
     </g>
    </g>
   </g>
   <g id="matplotlib.axis_2">
    <g id="ytick_1"/>
    <g id="ytick_2"/>
    <g id="ytick_3"/>
    <g id="ytick_4"/>
    <g id="ytick_5"/>
    <g id="ytick_6"/>
    <g id="ytick_7"/>
    <g id="ytick_8"/>
    <g id="ytick_9"/>
   </g>
   <g id="PolyCollection_1">
    <path clip-path="url(#p31e09ecede)" d="M 100.127273 396.281818 
L 100.127273 396.281818 
L 100.566257 396.281818 
L 101.005241 396.281818 
L 101.444225 396.281818 
L 101.883209 396.281818 
L 102.322194 396.281818 
L 102.761178 396.281818 
L 103.200162 396.281818 
L 103.639146 396.281818 
L 104.07813 396.281818 
L 104.517115 396.281818 
L 104.956099 396.281818 
L 105.395083 396.281818 
L 105.834067 396.281818 
L 106.273051 396.281818 
L 106.712035 396.281818 
L 107.15102 396.281818 
L 107.590004 396.281818 
L 108.028988 396.281818 
L 108.467972 396.281818 
L 108.906956 396.281818 
L 109.34594 396.281818 
L 109.784925 396.281818 
L 110.223909 396.281818 
L 110.662893 396.281818 
L 111.101877 396.281818 
L 111.540861 396.281818 
L 111.979846 396.281818 
L 112.41883 396.281818 
L 112.857814 396.281818 
L 113.296798 396.281818 
L 113.735782 396.281818 
L 114.174766 396.281818 
L 114.613751 396.281818 
L 115.052735 396.281818 
L 115.491719 396.281818 
L 115.930703 396.281818 
L 116.369687 396.281818 
L 116.808671 396.281818 
L 117.247656 396.281818 
L 117.686657 396.281818 
L 118.125641 396.281818 
L 118.564626 396.281818 
L 119.00361 396.281818 
L 119.442594 396.281818 
L 119.881578 396.281818 
L 120.320562 396.281818 
L 120.759546 396.281818 
L 121.198531 396.281818 
L 121.637515 396.281818 
L 122.076499 396.281818 
L 122.515483 396.281818 
L 122.954467 396.281818 
L 123.393452 396.281818 
L 123.832436 396.281818 
L 124.27142 396.281818 
L 124.710404 396.281818 
L 125.149388 396.281818 
L 125.588372 396.281818 
L 126.027357 396.281818 
L 126.466341 396.281818 
L 126.905325 396.281818 
L 127.344309 396.281818 
L 127.783293 396.281818 
L 128.222278 396.281818 
L 128.661262 396.281818 
L 129.100246 396.281818 
L 129.53923 396.281818 
L 129.978214 396.281818 
L 130.417198 396.281818 
L 130.856183 396.281818 
L 131.295167 396.281818 
L 131.734151 396.281818 
L 132.173135 396.281818 
L 132.612119 396.281818 
L 133.051103 396.281818 
L 133.490088 396.281818 
L 133.929072 396.281818 
L 134.368056 396.281818 
L 134.80704 396.281818 
L 135.246024 396.281818 
L 135.685009 396.281818 
L 136.123993 396.281818 
L 136.562977 396.281818 
L 137.001961 396.281818 
L 137.440945 396.281818 
L 137.879929 396.281818 
L 138.318914 396.281818 
L 138.757915 396.281818 
L 139.196899 396.281818 
L 139.635884 396.281818 
L 140.074868 396.281818 
L 140.513852 396.281818 
L 140.952836 396.281818 
L 141.39182 396.281818 
L 141.830804 396.281818 
L 142.269789 396.281818 
L 142.708773 396.281818 
L 143.147757 396.281818 
L 143.586741 396.281818 
L 144.025725 396.281818 
L 144.464709 396.281818 
L 144.903694 396.281818 
L 145.342678 396.281818 
L 145.781662 396.281818 
L 146.220646 396.281818 
L 146.65963 396.281818 
L 147.098615 396.281818 
L 147.537599 396.281818 
L 147.976583 396.281818 
L 148.415567 396.281818 
L 148.854551 396.281818 
L 149.293535 396.281818 
L 149.73252 396.281818 
L 150.171504 396.281818 
L 150.610488 396.281818 
L 151.049472 396.281818 
L 151.488456 396.281818 
L 151.927441 396.281818 
L 152.366425 396.281818 
L 152.805409 396.281818 
L 153.244393 396.281818 
L 153.683377 396.281818 
L 154.122361 396.281818 
L 154.561346 396.281818 
L 155.00033 396.281818 
L 155.439314 396.281818 
L 155.878298 396.281818 
L 156.317282 396.281818 
L 156.756266 396.281818 
L 157.195251 396.281818 
L 157.634235 396.281818 
L 158.073219 396.281818 
L 158.512203 396.281818 
L 158.951187 396.281818 
L 159.390172 396.281818 
L 159.829156 396.281818 
L 160.26814 396.281818 
L 160.707124 396.281818 
L 161.146108 396.281818 
L 161.585092 396.281818 
L 162.024077 396.281818 
L 162.463061 396.281818 
L 162.902045 396.281818 
L 163.341029 396.281818 
L 163.780013 396.281818 
L 164.218997 396.281818 
L 164.657982 396.281818 
L 165.096966 396.281818 
L 165.53595 396.281818 
L 165.974934 396.281818 
L 166.413918 396.281818 
L 166.852903 396.281818 
L 167.291887 396.281818 
L 167.730871 396.281818 
L 168.169855 396.281818 
L 168.608839 396.281818 
L 169.047823 396.281818 
L 169.486808 396.281818 
L 169.925792 396.281818 
L 170.364776 396.281818 
L 170.80376 396.281818 
L 171.242744 396.281818 
L 171.681728 396.281818 
L 172.120713 396.281818 
L 172.559697 396.281818 
L 172.998681 396.281818 
L 173.437665 396.281818 
L 173.876658 396.281818 
L 174.315642 396.281818 
L 174.754626 396.281818 
L 175.193611 396.281818 
L 175.632595 396.281818 
L 176.071579 396.281818 
L 176.510563 396.281818 
L 176.949547 396.281818 
L 177.38854 396.281818 
L 177.827524 396.281818 
L 178.266509 396.281818 
L 178.705493 396.281818 
L 179.144477 396.281818 
L 179.583461 396.281818 
L 180.022445 396.281818 
L 180.461429 396.281818 
L 180.900414 396.281818 
L 181.339398 396.281818 
L 181.778382 396.281818 
L 182.217366 396.281818 
L 182.65635 396.281818 
L 183.095335 396.281818 
L 183.534319 396.281818 
L 183.973303 396.281818 
L 184.412287 396.281818 
L 184.851271 396.281818 
L 185.290255 396.281818 
L 185.72924 396.281818 
L 186.168224 396.281818 
L 186.607208 396.281818 
L 187.046192 396.281818 
L 187.485176 396.281818 
L 187.92416 396.281818 
L 188.363145 396.281818 
L 188.802129 396.281818 
L 189.241113 396.281818 
L 189.680097 396.281818 
L 190.119081 396.281818 
L 190.558066 396.281818 
L 190.99705 396.281818 
L 191.436034 396.281818 
L 191.875018 396.281818 
L 192.314002 396.281818 
L 192.752986 396.281818 
L 193.191971 396.281818 
L 193.630955 396.281818 
L 194.069939 396.281818 
L 194.508923 396.281818 
L 194.947916 396.281818 
L 195.3869 396.281818 
L 195.825884 396.281818 
L 196.264869 396.281818 
L 196.703853 396.281818 
L 197.142837 396.281818 
L 197.581821 396.281818 
L 198.020805 396.281818 
L 198.459789 396.281818 
L 198.898774 396.281818 
L 199.337758 396.281818 
L 199.776742 396.281818 
L 200.215726 396.281818 
L 200.65471 396.281818 
L 201.093695 396.281818 
L 201.532679 396.281818 
L 201.971663 396.281818 
L 202.410647 396.281818 
L 202.849631 396.281818 
L 203.288615 396.281818 
L 203.7276 396.281818 
L 204.166584 396.281818 
L 204.605568 396.281818 
L 205.044552 396.281818 
L 205.483545 396.281818 
L 205.922529 396.281818 
L 206.361513 396.281818 
L 206.800498 396.281818 
L 207.239482 396.281818 
L 207.678466 396.281818 
L 208.11745 396.281818 
L 208.556434 396.281818 
L 208.995418 396.281818 
L 209.434403 396.281818 
L 209.873387 396.281818 
L 210.312371 396.281818 
L 210.751355 396.281818 
L 211.190339 396.281818 
L 211.629323 396.281818 
L 212.068308 396.281818 
L 212.507292 396.281818 
L 212.946276 396.281818 
L 213.38526 396.281818 
L 213.824244 396.281818 
L 214.263229 396.281818 
L 214.702213 396.281818 
L 215.141197 396.281818 
L 215.580181 396.281818 
L 216.019165 396.281818 
L 216.458149 396.281818 
L 216.897134 396.281818 
L 217.336118 396.281818 
L 217.775102 396.281818 
L 218.214086 396.281818 
L 218.65307 396.281818 
L 219.092054 396.281818 
L 219.531039 396.281818 
L 219.970023 396.281818 
L 220.409007 396.281818 
L 220.847991 396.281818 
L 221.286975 396.281818 
L 221.72596 396.281818 
L 222.164944 396.281818 
L 222.603928 396.281818 
L 223.042921 396.281818 
L 223.481905 396.281818 
L 223.920889 396.281818 
L 224.359873 396.281818 
L 224.798858 396.281818 
L 225.237842 396.281818 
L 225.676826 396.281818 
L 226.11581 396.281818 
L 226.554794 396.281818 
L 226.993778 396.281818 
L 227.432763 396.281818 
L 227.871747 396.281818 
L 228.310731 396.281818 
L 228.749715 396.281818 
L 229.188699 396.281818 
L 229.627683 396.281818 
L 230.066668 396.281818 
L 230.505652 396.281818 
L 230.944636 396.281818 
L 231.38362 396.281818 
L 231.822604 396.281818 
L 232.261589 396.281818 
L 232.700573 396.281818 
L 233.139557 396.281818 
L 233.57855 396.281818 
L 234.017534 396.281818 
L 234.456518 396.281818 
L 234.895502 396.281818 
L 235.334486 396.281818 
L 235.773471 396.281818 
L 236.212455 396.281818 
L 236.651439 396.281818 
L 237.090423 396.281818 
L 237.529407 396.281818 
L 237.968392 396.281818 
L 238.407376 396.281818 
L 238.84636 396.281818 
L 239.285344 396.281818 
L 239.724328 396.281818 
L 240.163312 396.281818 
L 240.602297 396.281818 
L 241.041281 396.281818 
L 241.480265 396.281818 
L 241.919249 396.281818 
L 242.358233 396.281818 
L 242.797217 396.281818 
L 243.236202 396.281818 
L 243.675186 396.281818 
L 244.11417 396.281818 
L 244.553154 396.281818 
L 244.992138 396.281818 
L 245.431123 396.281818 
L 245.870107 396.281818 
L 246.309091 396.281818 
L 246.748075 396.281818 
L 247.187059 396.281818 
L 247.626043 396.281818 
L 248.065028 396.281818 
L 248.504012 396.281818 
L 248.942996 396.281818 
L 249.38198 396.281818 
L 249.820964 396.281818 
L 250.259949 396.281818 
L 250.698933 396.281818 
L 251.137917 396.281818 
L 251.576901 396.281818 
L 252.015885 396.281818 
L 252.454869 396.281818 
L 252.893854 396.281818 
L 253.332838 396.281818 
L 253.771822 396.281818 
L 254.210806 396.281818 
L 254.649808 396.281818 
L 255.088792 396.281818 
L 255.527776 396.281818 
L 255.96676 396.281818 
L 256.405744 396.281818 
L 256.844729 396.281818 
L 257.283713 396.281818 
L 257.722697 396.281818 
L 258.161681 396.281818 
L 258.600665 396.281818 
L 259.039649 396.281818 
L 259.478634 396.281818 
L 259.917618 396.281818 
L 260.356602 396.281818 
L 260.795586 396.281818 
L 261.23457 396.281818 
L 261.673555 396.281818 
L 262.112539 396.281818 
L 262.551523 396.281818 
L 262.990507 396.281818 
L 263.429491 396.281818 
L 263.868475 396.281818 
L 264.30746 396.281818 
L 264.746444 396.281818 
L 265.185428 396.281818 
L 265.624412 396.281818 
L 266.063396 396.281818 
L 266.50238 396.281818 
L 266.941365 396.281818 
L 267.380349 396.281818 
L 267.819333 396.281818 
L 268.258317 396.281818 
L 268.697301 396.281818 
L 269.136286 396.281818 
L 269.57527 396.281818 
L 270.014254 396.281818 
L 270.453238 396.281818 
L 270.892222 396.281818 
L 271.331206 396.281818 
L 271.770191 396.281818 
L 272.209175 396.281818 
L 272.648159 396.281818 
L 273.087143 396.281818 
L 273.526127 396.281818 
L 273.965112 396.281818 
L 274.404096 396.281818 
L 274.84308 396.281818 
L 275.282064 396.281818 
L 275.721048 396.281818 
L 276.160032 396.281818 
L 276.599017 396.281818 
L 277.038001 396.281818 
L 277.476985 396.281818 
L 277.915969 396.281818 
L 278.354953 396.281818 
L 278.793937 396.281818 
L 279.232922 396.281818 
L 279.671906 396.281818 
L 280.11089 396.281818 
L 280.549874 396.281818 
L 280.988858 396.281818 
L 281.427843 396.281818 
L 281.866827 396.281818 
L 282.305811 396.281818 
L 282.744795 396.281818 
L 283.183779 396.281818 
L 283.622763 396.281818 
L 284.061748 396.281818 
L 284.500732 396.281818 
L 284.939718 396.281818 
L 285.378702 396.281818 
L 285.817686 396.281818 
L 286.256686 396.281818 
L 286.69567 396.281818 
L 287.134654 396.281818 
L 287.573638 396.281818 
L 288.012623 396.281818 
L 288.451609 396.281818 
L 288.890593 396.281818 
L 289.329577 396.281818 
L 289.768559 396.281818 
L 290.207543 396.281818 
L 290.646528 396.281818 
L 291.085512 396.281818 
L 291.524496 396.281818 
L 291.963482 396.281818 
L 292.402467 396.281818 
L 292.841451 396.281818 
L 293.280433 396.281818 
L 293.719417 396.281818 
L 294.158401 396.281818 
L 294.597385 396.281818 
L 295.036369 396.281818 
L 295.475356 396.281818 
L 295.91434 396.281818 
L 296.353324 396.281818 
L 296.792306 396.281818 
L 297.23129 396.281818 
L 297.670275 396.281818 
L 298.109259 396.281818 
L 298.548243 396.281818 
L 298.987229 396.281818 
L 299.426213 396.281818 
L 299.865198 396.281818 
L 300.30418 396.281818 
L 300.743164 396.281818 
L 301.182148 396.281818 
L 301.621133 396.281818 
L 302.060117 396.281818 
L 302.499102 396.281818 
L 302.938087 396.281818 
L 303.377071 396.281818 
L 303.816053 396.281818 
L 304.255037 396.281818 
L 304.694021 396.281818 
L 305.133007 396.281818 
L 305.571991 396.281818 
L 306.010975 396.281818 
L 306.44996 396.281818 
L 306.888944 396.281818 
L 307.327926 396.281818 
L 307.766911 396.281818 
L 308.205895 396.281818 
L 308.64488 396.281818 
L 309.083864 396.281818 
L 309.522848 396.281818 
L 309.961834 396.281818 
L 310.400818 396.281818 
L 310.839817 396.281818 
L 311.278801 396.281818 
L 311.717786 396.281818 
L 312.156771 396.281818 
L 312.595755 396.281818 
L 313.034739 396.281818 
L 313.473724 396.281818 
L 313.912709 396.281818 
L 314.351691 396.281818 
L 314.790675 396.281818 
L 315.22966 396.281818 
L 315.668644 396.281818 
L 316.107628 396.281818 
L 316.546613 396.281818 
L 316.985597 396.281818 
L 317.424582 396.281818 
L 317.863564 396.281818 
L 318.302549 396.281818 
L 318.741533 396.281818 
L 319.180517 396.281818 
L 319.619502 396.281818 
L 320.058486 396.281818 
L 320.497471 396.281818 
L 320.936455 396.281818 
L 321.37542 396.281818 
L 321.814405 396.281818 
L 322.253389 396.281818 
L 322.692373 396.281818 
L 323.131358 396.281818 
L 323.570342 396.281818 
L 324.009327 396.281818 
L 324.448312 396.281818 
L 324.887294 396.281818 
L 325.326278 396.281818 
L 325.765262 396.281818 
L 326.204247 396.281818 
L 326.643231 396.281818 
L 327.082215 396.281818 
L 327.5212 396.281818 
L 327.960185 396.281818 
L 328.399184 396.281818 
L 328.838169 396.281818 
L 329.277153 396.281818 
L 329.716138 396.281818 
L 330.155122 396.281818 
L 330.594106 396.281818 
L 331.033092 396.281818 
L 331.472076 396.281818 
L 331.911058 396.281818 
L 332.350042 396.281818 
L 332.789026 396.281818 
L 333.228011 396.281818 
L 333.666996 396.281818 
L 334.10598 396.281818 
L 334.544965 396.281818 
L 334.983949 396.281818 
L 335.422931 396.281818 
L 335.861915 396.281818 
L 336.3009 396.281818 
L 336.739885 396.281818 
L 337.178869 396.281818 
L 337.617853 396.281818 
L 338.056838 396.281818 
L 338.495823 396.281818 
L 338.934805 396.281818 
L 339.373789 396.281818 
L 339.812773 396.281818 
L 340.251757 396.281818 
L 340.690741 396.281818 
L 341.129728 396.281818 
L 341.568712 396.281818 
L 342.007696 396.281818 
L 342.446678 396.281818 
L 342.885662 396.281818 
L 343.324646 396.281818 
L 343.763631 396.281818 
L 344.202615 396.281818 
L 344.641601 396.281818 
L 345.080585 396.281818 
L 345.519569 396.281818 
L 345.958551 396.281818 
L 346.397536 396.281818 
L 346.83652 396.281818 
L 347.275504 396.281818 
L 347.714488 396.281818 
L 348.153475 396.281818 
L 348.592459 396.281818 
L 349.031443 396.281818 
L 349.470425 396.281818 
L 349.909409 396.281818 
L 350.348393 396.281818 
L 350.787377 396.281818 
L 351.226362 396.281818 
L 351.665348 396.281818 
L 352.104332 396.281818 
L 352.543316 396.281818 
L 352.982298 396.281818 
L 353.421282 396.281818 
L 353.860267 396.281818 
L 354.299251 396.281818 
L 354.738235 396.281818 
L 355.177221 396.281818 
L 355.616206 396.281818 
L 356.055188 396.281818 
L 356.494189 396.281818 
L 356.933173 396.281818 
L 357.372157 396.281818 
L 357.811142 396.281818 
L 358.250126 396.281818 
L 358.68911 396.281818 
L 359.128094 396.281818 
L 359.567078 396.281818 
L 360.006063 396.281818 
L 360.445047 396.281818 
L 360.884031 396.281818 
L 361.323015 396.281818 
L 361.761999 396.281818 
L 362.200983 396.281818 
L 362.639968 396.281818 
L 363.078952 396.281818 
L 363.517936 396.281818 
L 363.95692 396.281818 
L 364.395904 396.281818 
L 364.834888 396.281818 
L 365.273873 396.281818 
L 365.712857 396.281818 
L 366.151841 396.281818 
L 366.590825 396.281818 
L 367.029809 396.281818 
L 367.468794 396.281818 
L 367.907778 396.281818 
L 368.346762 396.281818 
L 368.785746 396.281818 
L 369.22473 396.281818 
L 369.663714 396.281818 
L 370.102699 396.281818 
L 370.541683 396.281818 
L 370.980667 396.281818 
L 371.419651 396.281818 
L 371.858635 396.281818 
L 372.29762 396.281818 
L 372.736604 396.281818 
L 373.175588 396.281818 
L 373.614572 396.281818 
L 374.053556 396.281818 
L 374.49254 396.281818 
L 374.931525 396.281818 
L 375.370509 396.281818 
L 375.809493 396.281818 
L 376.248477 396.281818 
L 376.687461 396.281818 
L 377.126445 396.281818 
L 377.56543 396.281818 
L 378.004414 396.281818 
L 378.443398 396.281818 
L 378.882382 396.281818 
L 379.321366 396.281818 
L 379.760351 396.281818 
L 380.199335 396.281818 
L 380.638319 396.281818 
L 381.077303 396.281818 
L 381.516287 396.281818 
L 381.955271 396.281818 
L 382.394256 396.281818 
L 382.83324 396.281818 
L 383.272224 396.281818 
L 383.711208 396.281818 
L 384.150192 396.281818 
L 384.589194 396.281818 
L 385.028178 396.281818 
L 385.467162 396.281818 
L 385.906146 396.281818 
L 386.345131 396.281818 
L 386.784115 396.281818 
L 387.223099 396.281818 
L 387.662083 396.281818 
L 388.101067 396.281818 
L 388.540051 396.281818 
L 388.979036 396.281818 
L 389.41802 396.281818 
L 389.857004 396.281818 
L 390.295988 396.281818 
L 390.734972 396.281818 
L 391.173957 396.281818 
L 391.612941 396.281818 
L 392.051925 396.281818 
L 392.490909 396.281818 
L 392.929893 396.281818 
L 393.368877 396.281818 
L 393.807862 396.281818 
L 394.246846 396.281818 
L 394.68583 396.281818 
L 395.124814 396.281818 
L 395.563798 396.281818 
L 396.002783 396.281818 
L 396.441767 396.281818 
L 396.880751 396.281818 
L 397.319735 396.281818 
L 397.758719 396.281818 
L 398.197703 396.281818 
L 398.636688 396.281818 
L 399.075672 396.281818 
L 399.514656 396.281818 
L 399.95364 396.281818 
L 400.392624 396.281818 
L 400.831608 396.281818 
L 401.270593 396.281818 
L 401.709577 396.281818 
L 402.148561 396.281818 
L 402.587545 396.281818 
L 403.026529 396.281818 
L 403.465514 396.281818 
L 403.904498 396.281818 
L 404.343482 396.281818 
L 404.782466 396.281818 
L 405.22145 396.281818 
L 405.660443 396.281818 
L 406.099427 396.281818 
L 406.538411 396.281818 
L 406.977396 396.281818 
L 407.41638 396.281818 
L 407.855364 396.281818 
L 408.294348 396.281818 
L 408.733332 396.281818 
L 409.172317 396.281818 
L 409.611301 396.281818 
L 410.050285 396.281818 
L 410.489269 396.281818 
L 410.928253 396.281818 
L 411.367237 396.281818 
L 411.806222 396.281818 
L 412.245206 396.281818 
L 412.68419 396.281818 
L 413.123174 396.281818 
L 413.562158 396.281818 
L 414.001142 396.281818 
L 414.440127 396.281818 
L 414.879111 396.281818 
L 415.318095 396.281818 
L 415.757079 396.281818 
L 416.196063 396.281818 
L 416.635048 396.281818 
L 417.074032 396.281818 
L 417.513016 396.281818 
L 417.952 396.281818 
L 418.390984 396.281818 
L 418.829968 396.281818 
L 419.268953 396.281818 
L 419.707946 396.281818 
L 420.14693 396.281818 
L 420.585914 396.281818 
L 421.024898 396.281818 
L 421.463882 396.281818 
L 421.902866 396.281818 
L 422.341851 396.281818 
L 422.780835 396.281818 
L 423.219819 396.281818 
L 423.658803 396.281818 
L 424.097787 396.281818 
L 424.536771 396.281818 
L 424.975756 396.281818 
L 425.41474 396.281818 
L 425.853724 396.281818 
L 426.292708 396.281818 
L 426.731692 396.281818 
L 427.170677 396.281818 
L 427.609661 396.281818 
L 428.048645 396.281818 
L 428.487629 396.281818 
L 428.926613 396.281818 
L 429.365597 396.281818 
L 429.804582 396.281818 
L 430.243566 396.281818 
L 430.68255 396.281818 
L 431.121534 396.281818 
L 431.560518 396.281818 
L 431.999502 396.281818 
L 432.438487 396.281818 
L 432.877471 396.281818 
L 433.316455 396.281818 
L 433.755448 396.281818 
L 434.194432 396.281818 
L 434.633416 396.281818 
L 435.0724 396.281818 
L 435.511385 396.281818 
L 435.950369 396.281818 
L 436.389353 396.281818 
L 436.828337 396.281818 
L 437.267321 396.281818 
L 437.706305 396.281818 
L 438.14529 396.281818 
L 438.584274 396.281818 
L 439.023258 396.281818 
L 439.462242 396.281818 
L 439.901226 396.281818 
L 440.340211 396.281818 
L 440.779195 396.281818 
L 441.218179 396.281818 
L 441.657163 396.281818 
L 442.096147 396.281818 
L 442.535131 396.281818 
L 442.974116 396.281818 
L 443.4131 396.281818 
L 443.852084 396.281818 
L 444.291068 396.281818 
L 444.730052 396.281818 
L 445.169037 396.281818 
L 445.608021 396.281818 
L 446.047005 396.281818 
L 446.485989 396.281818 
L 446.924973 396.281818 
L 447.363957 396.281818 
L 447.80295 396.281818 
L 448.241934 396.281818 
L 448.680919 396.281818 
L 449.119903 396.281818 
L 449.558887 396.281818 
L 449.997871 396.281818 
L 450.436855 396.281818 
L 450.87584 396.281818 
L 451.314824 396.281818 
L 451.753808 396.281818 
L 452.192792 396.281818 
L 452.631776 396.281818 
L 453.07076 396.281818 
L 453.509745 396.281818 
L 453.948729 396.281818 
L 454.387713 396.281818 
L 454.826697 396.281818 
L 455.265681 396.281818 
L 455.704665 396.281818 
L 456.14365 396.281818 
L 456.582634 396.281818 
L 457.021618 396.281818 
L 457.460602 396.281818 
L 457.899586 396.281818 
L 458.338571 396.281818 
L 458.777555 396.281818 
L 459.216539 396.281818 
L 459.655523 396.281818 
L 460.094507 396.281818 
L 460.533491 396.281818 
L 460.972476 396.281818 
L 461.41146 396.281818 
L 461.850453 396.281818 
L 462.289437 396.281818 
L 462.728421 396.281818 
L 463.167405 396.281818 
L 463.606389 396.281818 
L 464.045374 396.281818 
L 464.484358 396.281818 
L 464.923342 396.281818 
L 465.362326 396.281818 
L 465.801319 396.281818 
L 466.240303 396.281818 
L 466.679287 396.281818 
L 467.118272 396.281818 
L 467.557256 396.281818 
L 467.99624 396.281818 
L 468.435224 396.281818 
L 468.874191 396.281818 
L 469.313175 396.281818 
L 469.752159 396.281818 
L 470.191143 396.281818 
L 470.630128 396.281818 
L 471.069112 396.281818 
L 471.508096 396.281818 
L 471.94708 396.281818 
L 472.386082 396.281818 
L 472.825066 396.281818 
L 473.26405 396.281818 
L 473.703034 396.281818 
L 474.142018 396.281818 
L 474.581003 396.281818 
L 475.019987 396.281818 
L 475.458971 396.281818 
L 475.897955 396.281818 
L 476.336939 396.281818 
L 476.775923 396.281818 
L 477.214908 396.281818 
L 477.653892 396.281818 
L 478.092876 396.281818 
L 478.53186 396.281818 
L 478.970844 396.281818 
L 479.409828 396.281818 
L 479.848813 396.281818 
L 480.287797 396.281818 
L 480.726781 396.281818 
L 481.165765 396.281818 
L 481.604749 396.281818 
L 482.043734 396.281818 
L 482.482718 396.281818 
L 482.921702 396.281818 
L 483.360686 396.281818 
L 483.79967 396.281818 
L 484.238654 396.281818 
L 484.677639 396.281818 
L 485.116623 396.281818 
L 485.555607 396.281818 
L 485.994591 396.281818 
L 486.433575 396.281818 
L 486.872559 396.281818 
L 487.311544 396.281818 
L 487.750528 396.281818 
L 488.189512 396.281818 
L 488.628496 396.281818 
L 489.06748 396.281818 
L 489.506465 396.281818 
L 489.945449 396.281818 
L 490.384433 396.281818 
L 490.823417 396.281818 
L 491.262401 396.281818 
L 491.701385 396.281818 
L 492.14037 396.281818 
L 492.579354 396.281818 
L 493.018338 396.281818 
L 493.45734 396.281818 
L 493.896324 396.281818 
L 494.335308 396.281818 
L 494.774292 396.281818 
L 495.213276 396.281818 
L 495.65226 396.281818 
L 496.091245 396.281818 
L 496.530229 396.281818 
L 496.969213 396.281818 
L 497.408197 396.281818 
L 497.847181 396.281818 
L 498.286166 396.281818 
L 498.72515 396.281818 
L 499.164134 396.281818 
L 499.603118 396.281818 
L 500.042102 396.281818 
L 500.481086 396.281818 
L 500.920071 396.281818 
L 501.359055 396.281818 
L 501.798039 396.281818 
L 502.237023 396.281818 
L 502.676007 396.281818 
L 503.114991 396.281818 
L 503.553976 396.281818 
L 503.99296 396.281818 
L 504.431944 396.281818 
L 504.870928 396.281818 
L 505.309912 396.281818 
L 505.748897 396.281818 
L 506.187881 396.281818 
L 506.626865 396.281818 
L 507.065849 396.281818 
L 507.504833 396.281818 
L 507.943817 396.281818 
L 508.382802 396.281818 
L 508.821786 396.281818 
L 509.26077 396.281818 
L 509.699754 396.281818 
L 510.138738 396.281818 
L 510.577722 396.281818 
L 511.016707 396.281818 
L 511.455691 396.281818 
L 511.894675 396.281818 
L 512.333659 396.281818 
L 512.772643 396.281818 
L 513.211628 396.281818 
L 513.650612 396.281818 
L 514.089596 396.281818 
L 514.52858 396.281818 
L 514.967564 396.281818 
L 515.406548 396.281818 
L 515.845533 396.281818 
L 516.284517 396.281818 
L 516.723501 396.281818 
L 517.162485 396.281818 
L 517.601469 396.281818 
L 518.040454 396.281818 
L 518.479438 396.281818 
L 518.918422 396.281818 
L 519.357406 396.281818 
L 519.79639 396.281818 
L 520.235374 396.281818 
L 520.674359 396.281818 
L 521.113343 396.281818 
L 521.552327 396.281818 
L 521.991311 396.281818 
L 522.430295 396.281818 
L 522.869279 396.281818 
L 523.308264 396.281818 
L 523.747248 396.281818 
L 524.186232 396.281818 
L 524.625216 396.281818 
L 525.0642 396.281818 
L 525.503185 396.281818 
L 525.942169 396.281818 
L 526.381153 396.281818 
L 526.820137 396.281818 
L 527.259121 396.281818 
L 527.698105 396.281818 
L 528.13709 396.281818 
L 528.576091 396.281818 
L 529.015075 396.281818 
L 529.45406 396.281818 
L 529.893044 396.281818 
L 530.332028 396.281818 
L 530.771012 396.281818 
L 531.209996 396.281818 
L 531.64898 396.281818 
L 532.087965 396.281818 
L 532.526949 396.281818 
L 532.965933 396.281818 
L 533.404917 396.281818 
L 533.843901 396.281818 
L 534.282885 396.281818 
L 534.72187 396.281818 
L 535.160854 396.281818 
L 535.599838 396.281818 
L 536.038822 396.281818 
L 536.477806 396.281818 
L 536.916791 396.281818 
L 537.355775 396.281818 
L 537.794759 396.281818 
L 538.233743 396.281818 
L 538.672727 396.281818 
L 538.672727 396.281818 
L 538.672727 396.281818 
L 538.233743 396.281818 
L 537.794759 396.281818 
L 537.355775 396.281818 
L 536.916791 396.281818 
L 536.477806 396.281818 
L 536.038822 396.281817 
L 535.599838 396.281817 
L 535.160854 396.281817 
L 534.72187 396.281817 
L 534.282885 396.281816 
L 533.843901 396.281816 
L 533.404917 396.281815 
L 532.965933 396.281815 
L 532.526949 396.281814 
L 532.087965 396.281813 
L 531.64898 396.281812 
L 531.209996 396.28181 
L 530.771012 396.281808 
L 530.332028 396.281806 
L 529.893044 396.281804 
L 529.45406 396.2818 
L 529.015075 396.281796 
L 528.576091 396.281792 
L 528.13709 396.281786 
L 527.698105 396.281779 
L 527.259121 396.281771 
L 526.820137 396.281761 
L 526.381153 396.281749 
L 525.942169 396.281735 
L 525.503185 396.281718 
L 525.0642 396.281698 
L 524.625216 396.281674 
L 524.186232 396.281645 
L 523.747248 396.281611 
L 523.308264 396.281571 
L 522.869279 396.281523 
L 522.430295 396.281467 
L 521.991311 396.2814 
L 521.552327 396.281322 
L 521.113343 396.28123 
L 520.674359 396.281121 
L 520.235374 396.280994 
L 519.79639 396.280846 
L 519.357406 396.280672 
L 518.918422 396.280469 
L 518.479438 396.280232 
L 518.040454 396.279956 
L 517.601469 396.279636 
L 517.162485 396.279264 
L 516.723501 396.278833 
L 516.284517 396.278334 
L 515.845533 396.277757 
L 515.406548 396.277091 
L 514.967564 396.276324 
L 514.52858 396.27544 
L 514.089596 396.274425 
L 513.650612 396.27326 
L 513.211628 396.271925 
L 512.772643 396.270396 
L 512.333659 396.268649 
L 511.894675 396.266655 
L 511.455691 396.264382 
L 511.016707 396.261795 
L 510.577722 396.258854 
L 510.138738 396.255515 
L 509.699754 396.251729 
L 509.26077 396.247443 
L 508.821786 396.242597 
L 508.382802 396.237124 
L 507.943817 396.230952 
L 507.504833 396.224 
L 507.065849 396.216181 
L 506.626865 396.207398 
L 506.187881 396.197543 
L 505.748897 396.186501 
L 505.309912 396.174145 
L 504.870928 396.160335 
L 504.431944 396.14492 
L 503.99296 396.127735 
L 503.553976 396.108601 
L 503.114991 396.087322 
L 502.676007 396.06369 
L 502.237023 396.037474 
L 501.798039 396.008428 
L 501.359055 395.976288 
L 500.920071 395.940764 
L 500.481086 395.901549 
L 500.042102 395.858312 
L 499.603118 395.810697 
L 499.164134 395.758323 
L 498.72515 395.700784 
L 498.286166 395.637643 
L 497.847181 395.568437 
L 497.408197 395.492673 
L 496.969213 395.409824 
L 496.530229 395.319334 
L 496.091245 395.220613 
L 495.65226 395.113033 
L 495.213276 394.995936 
L 494.774292 394.868621 
L 494.335308 394.730355 
L 493.896324 394.580367 
L 493.45734 394.41784 
L 493.018338 394.241918 
L 492.579354 394.051724 
L 492.14037 393.846317 
L 491.701385 393.624726 
L 491.262401 393.385938 
L 490.823417 393.128891 
L 490.384433 392.852497 
L 489.945449 392.555621 
L 489.506465 392.237075 
L 489.06748 391.895654 
L 488.628496 391.530106 
L 488.189512 391.139124 
L 487.750528 390.721394 
L 487.311544 390.275549 
L 486.872559 389.800196 
L 486.433575 389.293896 
L 485.994591 388.755203 
L 485.555607 388.182644 
L 485.116623 387.574685 
L 484.677639 386.929825 
L 484.238654 386.246498 
L 483.79967 385.523159 
L 483.360686 384.758219 
L 482.921702 383.9501 
L 482.482718 383.097223 
L 482.043734 382.198003 
L 481.604749 381.250865 
L 481.165765 380.254222 
L 480.726781 379.206524 
L 480.287797 378.106241 
L 479.848813 376.951842 
L 479.409828 375.741839 
L 478.970844 374.474807 
L 478.53186 373.149304 
L 478.092876 371.764004 
L 477.653892 370.317494 
L 477.214908 368.808631 
L 476.775923 367.23615 
L 476.336939 365.598914 
L 475.897955 363.895887 
L 475.458971 362.126067 
L 475.019987 360.28858 
L 474.581003 358.382575 
L 474.142018 356.407372 
L 473.703034 354.362376 
L 473.26405 352.246993 
L 472.825066 350.06091 
L 472.386082 347.803812 
L 471.94708 345.475391 
L 471.508096 343.075843 
L 471.069112 340.605118 
L 470.630128 338.063423 
L 470.191143 335.451111 
L 469.752159 332.768634 
L 469.313175 330.016699 
L 468.874191 327.195857 
L 468.435224 324.30732 
L 467.99624 321.351837 
L 467.557256 318.33066 
L 467.118272 315.245111 
L 466.679287 312.096736 
L 466.240303 308.88707 
L 465.801319 305.617875 
L 465.362326 302.291081 
L 464.923342 298.908681 
L 464.484358 295.473038 
L 464.045374 291.986212 
L 463.606389 288.450796 
L 463.167405 284.869304 
L 462.728421 281.244455 
L 462.289437 277.579143 
L 461.850453 273.876213 
L 461.41146 270.138691 
L 460.972476 266.369842 
L 460.533491 262.572865 
L 460.094507 258.751141 
L 459.655523 254.908055 
L 459.216539 251.047173 
L 458.777555 247.172075 
L 458.338571 243.286487 
L 457.899586 239.394001 
L 457.460602 235.498501 
L 457.021618 231.603752 
L 456.582634 227.713635 
L 456.14365 223.831969 
L 455.704665 219.962768 
L 455.265681 216.109889 
L 454.826697 212.277333 
L 454.387713 208.468878 
L 453.948729 204.688564 
L 453.509745 200.940222 
L 453.07076 197.227657 
L 452.631776 193.554803 
L 452.192792 189.925347 
L 451.753808 186.343118 
L 451.314824 182.81171 
L 450.87584 179.334677 
L 450.436855 175.915692 
L 449.997871 172.55815 
L 449.558887 169.265328 
L 449.119903 166.04061 
L 448.680919 162.887207 
L 448.241934 159.807936 
L 447.80295 156.806062 
L 447.363957 153.884217 
L 446.924973 151.04527 
L 446.485989 148.291774 
L 446.047005 145.62618 
L 445.608021 143.050854 
L 445.169037 140.567957 
L 444.730052 138.179594 
L 444.291068 135.887713 
L 443.852084 133.694078 
L 443.4131 131.600374 
L 442.974116 129.608022 
L 442.535131 127.718418 
L 442.096147 125.932668 
L 441.657163 124.252034 
L 441.218179 122.677307 
L 440.779195 121.209197 
L 440.340211 119.848337 
L 439.901226 118.595332 
L 439.462242 117.450339 
L 439.023258 116.413675 
L 438.584274 115.485234 
L 438.14529 114.665017 
L 437.706305 113.952865 
L 437.267321 113.348304 
L 436.828337 112.850835 
L 436.389353 112.45993 
L 435.950369 112.174748 
L 435.511385 111.994525 
L 435.0724 111.918182 
L 434.633416 111.944823 
L 434.194432 112.073001 
L 433.755448 112.301531 
L 433.316455 112.629044 
L 432.877471 113.053961 
L 432.438487 113.574807 
L 431.999502 114.189792 
L 431.560518 114.897364 
L 431.121534 115.695521 
L 430.68255 116.582367 
L 430.243566 117.556009 
L 429.804582 118.61447 
L 429.365597 119.755541 
L 428.926613 120.977193 
L 428.487629 122.277162 
L 428.048645 123.653291 
L 427.609661 125.103315 
L 427.170677 126.624944 
L 426.731692 128.215809 
L 426.292708 129.873513 
L 425.853724 131.595846 
L 425.41474 133.380359 
L 424.975756 135.224578 
L 424.536771 137.12616 
L 424.097787 139.08271 
L 423.658803 141.091804 
L 423.219819 143.150996 
L 422.780835 145.257968 
L 422.341851 147.410298 
L 421.902866 149.605512 
L 421.463882 151.841373 
L 421.024898 154.115511 
L 420.585914 156.425609 
L 420.14693 158.769298 
L 419.707946 161.144472 
L 419.268953 163.548762 
L 418.829968 165.979956 
L 418.390984 168.435923 
L 417.952 170.914556 
L 417.513016 173.413748 
L 417.074032 175.931342 
L 416.635048 178.465429 
L 416.196063 181.013995 
L 415.757079 183.575197 
L 415.318095 186.147008 
L 414.879111 188.727664 
L 414.440127 191.315441 
L 414.001142 193.908444 
L 413.562158 196.505028 
L 413.123174 199.103559 
L 412.68419 201.702537 
L 412.245206 204.300213 
L 411.806222 206.895269 
L 411.367237 209.486114 
L 410.928253 212.071429 
L 410.489269 214.649888 
L 410.050285 217.220132 
L 409.611301 219.780952 
L 409.172317 222.331098 
L 408.733332 224.869463 
L 408.294348 227.394902 
L 407.855364 229.906428 
L 407.41638 232.402988 
L 406.977396 234.883674 
L 406.538411 237.347472 
L 406.099427 239.793567 
L 405.660443 242.221233 
L 405.22145 244.629577 
L 404.782466 247.017848 
L 404.343482 249.385428 
L 403.904498 251.731578 
L 403.465514 254.055826 
L 403.026529 256.357487 
L 402.587545 258.6361 
L 402.148561 260.891139 
L 401.709577 263.122116 
L 401.270593 265.328703 
L 400.831608 267.510452 
L 400.392624 269.667021 
L 399.95364 271.798107 
L 399.514656 273.903473 
L 399.075672 275.98275 
L 398.636688 278.035835 
L 398.197703 280.062409 
L 397.758719 282.062434 
L 397.319735 284.03574 
L 396.880751 285.98216 
L 396.441767 287.90165 
L 396.002783 289.794137 
L 395.563798 291.659561 
L 395.124814 293.497949 
L 394.68583 295.309274 
L 394.246846 297.093557 
L 393.807862 298.850857 
L 393.368877 300.581226 
L 392.929893 302.284762 
L 392.490909 303.96154 
L 392.051925 305.611649 
L 391.612941 307.235282 
L 391.173957 308.832504 
L 390.734972 310.403539 
L 390.295988 311.948518 
L 389.857004 313.467639 
L 389.41802 314.961061 
L 388.979036 316.428999 
L 388.540051 317.871711 
L 388.101067 319.289349 
L 387.662083 320.682227 
L 387.223099 322.050498 
L 386.784115 323.394497 
L 386.345131 324.714329 
L 385.906146 326.010403 
L 385.467162 327.282902 
L 385.028178 328.532097 
L 384.589194 329.758362 
L 384.150192 330.96187 
L 383.711208 332.142935 
L 383.272224 333.301801 
L 382.83324 334.43881 
L 382.394256 335.55426 
L 381.955271 336.648359 
L 381.516287 337.721523 
L 381.077303 338.774002 
L 380.638319 339.806053 
L 380.199335 340.817997 
L 379.760351 341.810178 
L 379.321366 342.782819 
L 378.882382 343.736292 
L 378.443398 344.67085 
L 378.004414 345.586783 
L 377.56543 346.48444 
L 377.126445 347.364057 
L 376.687461 348.225961 
L 376.248477 349.07047 
L 375.809493 349.897795 
L 375.370509 350.708318 
L 374.931525 351.502286 
L 374.49254 352.279988 
L 374.053556 353.041668 
L 373.614572 353.787671 
L 373.175588 354.518218 
L 372.736604 355.233618 
L 372.29762 355.934148 
L 371.858635 356.620077 
L 371.419651 357.291665 
L 370.980667 357.949143 
L 370.541683 358.59278 
L 370.102699 359.222892 
L 369.663714 359.839688 
L 369.22473 360.443432 
L 368.785746 361.034317 
L 368.346762 361.612651 
L 367.907778 362.178681 
L 367.468794 362.732588 
L 367.029809 363.274669 
L 366.590825 363.805081 
L 366.151841 364.324088 
L 365.712857 364.831936 
L 365.273873 365.328819 
L 364.834888 365.814965 
L 364.395904 366.290542 
L 363.95692 366.755796 
L 363.517936 367.21096 
L 363.078952 367.656177 
L 362.639968 368.091683 
L 362.200983 368.51764 
L 361.761999 368.934289 
L 361.323015 369.341745 
L 360.884031 369.740257 
L 360.445047 370.129982 
L 360.006063 370.511097 
L 359.567078 370.883764 
L 359.128094 371.248164 
L 358.68911 371.604477 
L 358.250126 371.952832 
L 357.811142 372.293419 
L 357.372157 372.626396 
L 356.933173 372.951892 
L 356.494189 373.270091 
L 356.055188 373.581124 
L 355.616206 373.885101 
L 355.177221 374.182226 
L 354.738235 374.472593 
L 354.299251 374.75634 
L 353.860267 375.033631 
L 353.421282 375.304569 
L 352.982298 375.569278 
L 352.543316 375.827915 
L 352.104332 376.080559 
L 351.665348 376.32735 
L 351.226362 376.568421 
L 350.787377 376.80384 
L 350.348393 377.033767 
L 349.909409 377.258267 
L 349.470425 377.477476 
L 349.031443 377.691493 
L 348.592459 377.900392 
L 348.153475 378.104325 
L 347.714488 378.303322 
L 347.275504 378.497529 
L 346.83652 378.687029 
L 346.397536 378.871885 
L 345.958551 379.052197 
L 345.519569 379.228069 
L 345.080585 379.399557 
L 344.641601 379.566745 
L 344.202615 379.729736 
L 343.763631 379.888575 
L 343.324646 380.043364 
L 342.885662 380.19416 
L 342.446678 380.341042 
L 342.007696 380.484066 
L 341.568712 380.623306 
L 341.129728 380.75883 
L 340.690741 380.890703 
L 340.251757 381.018973 
L 339.812773 381.143721 
L 339.373789 381.265 
L 338.934805 381.382842 
L 338.495823 381.49734 
L 338.056838 381.608519 
L 337.617853 381.716444 
L 337.178869 381.821156 
L 336.739885 381.922711 
L 336.3009 382.021159 
L 335.861915 382.116543 
L 335.422931 382.208905 
L 334.983949 382.298279 
L 334.544965 382.384727 
L 334.10598 382.468268 
L 333.666996 382.548965 
L 333.228011 382.626832 
L 332.789026 382.70192 
L 332.350042 382.774238 
L 331.911058 382.843865 
L 331.472076 382.91078 
L 331.033092 382.975053 
L 330.594106 383.036705 
L 330.155122 383.095764 
L 329.716138 383.152238 
L 329.277153 383.206182 
L 328.838169 383.257599 
L 328.399184 383.30652 
L 327.960185 383.35297 
L 327.5212 383.396974 
L 327.082215 383.438532 
L 326.643231 383.477692 
L 326.204247 383.514455 
L 325.765262 383.548836 
L 325.326278 383.580853 
L 324.887294 383.610531 
L 324.448312 383.637866 
L 324.009327 383.662892 
L 323.570342 383.685587 
L 323.131358 383.706004 
L 322.692373 383.724112 
L 322.253389 383.739947 
L 321.814405 383.753503 
L 321.37542 383.764795 
L 320.936455 383.773822 
L 320.497471 383.780577 
L 320.058486 383.785095 
L 319.619502 383.787341 
L 319.180517 383.787341 
L 318.741533 383.785095 
L 318.302549 383.780577 
L 317.863564 383.773822 
L 317.424582 383.764795 
L 316.985597 383.753503 
L 316.546613 383.739947 
L 316.107628 383.724112 
L 315.668644 383.706004 
L 315.22966 383.685587 
L 314.790675 383.662892 
L 314.351691 383.637866 
L 313.912709 383.610531 
L 313.473724 383.580853 
L 313.034739 383.548836 
L 312.595755 383.514455 
L 312.156771 383.477692 
L 311.717786 383.438532 
L 311.278801 383.396974 
L 310.839817 383.35297 
L 310.400818 383.306514 
L 309.961834 383.257599 
L 309.522848 383.206182 
L 309.083864 383.152238 
L 308.64488 383.095764 
L 308.205895 383.036705 
L 307.766911 382.975053 
L 307.327926 382.91078 
L 306.888944 382.843865 
L 306.44996 382.774238 
L 306.010975 382.70192 
L 305.571991 382.626832 
L 305.133007 382.548965 
L 304.694021 382.468282 
L 304.255037 382.384727 
L 303.816053 382.298279 
L 303.377071 382.208905 
L 302.938087 382.116543 
L 302.499102 382.021174 
L 302.060117 381.922711 
L 301.621133 381.821163 
L 301.182148 381.716444 
L 300.743164 381.608519 
L 300.30418 381.49734 
L 299.865198 381.382848 
L 299.426213 381.264991 
L 298.987229 381.143721 
L 298.548243 381.018973 
L 298.109259 380.890703 
L 297.670275 380.75883 
L 297.23129 380.623306 
L 296.792306 380.484066 
L 296.353324 380.341042 
L 295.91434 380.194154 
L 295.475356 380.043364 
L 295.036369 379.888575 
L 294.597385 379.729736 
L 294.158401 379.566745 
L 293.719417 379.399557 
L 293.280433 379.228069 
L 292.841451 379.052197 
L 292.402467 378.871885 
L 291.963482 378.687029 
L 291.524496 378.497529 
L 291.085512 378.303322 
L 290.646528 378.104316 
L 290.207543 377.900409 
L 289.768559 377.691493 
L 289.329577 377.477476 
L 288.890593 377.258267 
L 288.451609 377.033767 
L 288.012623 376.80384 
L 287.573638 376.568421 
L 287.134654 376.32735 
L 286.69567 376.080559 
L 286.256686 375.827915 
L 285.817686 375.569278 
L 285.378702 375.304559 
L 284.939718 375.033631 
L 284.500732 374.75633 
L 284.061748 374.472581 
L 283.622763 374.182205 
L 283.183779 373.885101 
L 282.744795 373.581101 
L 282.305811 373.270091 
L 281.866827 372.951892 
L 281.427843 372.626396 
L 280.988858 372.293419 
L 280.549874 371.952832 
L 280.11089 371.604477 
L 279.671906 371.248164 
L 279.232922 370.883764 
L 278.793937 370.511097 
L 278.354953 370.129982 
L 277.915969 369.740257 
L 277.476985 369.341745 
L 277.038001 368.934289 
L 276.599017 368.51764 
L 276.160032 368.091683 
L 275.721048 367.656177 
L 275.282064 367.21096 
L 274.84308 366.755796 
L 274.404096 366.290542 
L 273.965112 365.814965 
L 273.526127 365.328819 
L 273.087143 364.831936 
L 272.648159 364.324088 
L 272.209175 363.805081 
L 271.770191 363.274669 
L 271.331206 362.732588 
L 270.892222 362.178681 
L 270.453238 361.612651 
L 270.014254 361.034317 
L 269.57527 360.443432 
L 269.136286 359.839688 
L 268.697301 359.222892 
L 268.258317 358.59278 
L 267.819333 357.949143 
L 267.380349 357.291665 
L 266.941365 356.620077 
L 266.50238 355.934148 
L 266.063396 355.233618 
L 265.624412 354.518218 
L 265.185428 353.787671 
L 264.746444 353.041668 
L 264.30746 352.279988 
L 263.868475 351.502286 
L 263.429491 350.708318 
L 262.990507 349.897795 
L 262.551523 349.07047 
L 262.112539 348.225961 
L 261.673555 347.364057 
L 261.23457 346.48444 
L 260.795586 345.586783 
L 260.356602 344.67085 
L 259.917618 343.736292 
L 259.478634 342.782819 
L 259.039649 341.810178 
L 258.600665 340.817997 
L 258.161681 339.806053 
L 257.722697 338.774002 
L 257.283713 337.721523 
L 256.844729 336.648359 
L 256.405744 335.55426 
L 255.96676 334.43881 
L 255.527776 333.301801 
L 255.088792 332.142935 
L 254.649808 330.96187 
L 254.210806 329.758362 
L 253.771822 328.532097 
L 253.332838 327.282902 
L 252.893854 326.010403 
L 252.454869 324.714329 
L 252.015885 323.394497 
L 251.576901 322.050498 
L 251.137917 320.682227 
L 250.698933 319.289349 
L 250.259949 317.871711 
L 249.820964 316.428999 
L 249.38198 314.961061 
L 248.942996 313.467639 
L 248.504012 311.948518 
L 248.065028 310.403539 
L 247.626043 308.832504 
L 247.187059 307.235282 
L 246.748075 305.611649 
L 246.309091 303.96154 
L 245.870107 302.284762 
L 245.431123 300.581226 
L 244.992138 298.850857 
L 244.553154 297.093557 
L 244.11417 295.309274 
L 243.675186 293.497949 
L 243.236202 291.659561 
L 242.797217 289.794137 
L 242.358233 287.90165 
L 241.919249 285.98216 
L 241.480265 284.03574 
L 241.041281 282.062434 
L 240.602297 280.062409 
L 240.163312 278.035835 
L 239.724328 275.98275 
L 239.285344 273.903473 
L 238.84636 271.798107 
L 238.407376 269.667021 
L 237.968392 267.510452 
L 237.529407 265.328703 
L 237.090423 263.122116 
L 236.651439 260.891139 
L 236.212455 258.6361 
L 235.773471 256.357487 
L 235.334486 254.055826 
L 234.895502 251.731578 
L 234.456518 249.385428 
L 234.017534 247.017848 
L 233.57855 244.629577 
L 233.139557 242.221233 
L 232.700573 239.793567 
L 232.261589 237.347472 
L 231.822604 234.883674 
L 231.38362 232.402988 
L 230.944636 229.906428 
L 230.505652 227.394902 
L 230.066668 224.869463 
L 229.627683 222.331098 
L 229.188699 219.780952 
L 228.749715 217.220132 
L 228.310731 214.649888 
L 227.871747 212.071429 
L 227.432763 209.486114 
L 226.993778 206.895269 
L 226.554794 204.300213 
L 226.11581 201.702537 
L 225.676826 199.103559 
L 225.237842 196.505028 
L 224.798858 193.908444 
L 224.359873 191.315441 
L 223.920889 188.727664 
L 223.481905 186.147008 
L 223.042921 183.575197 
L 222.603928 181.013995 
L 222.164944 178.465429 
L 221.72596 175.931342 
L 221.286975 173.413643 
L 220.847991 170.914503 
L 220.409007 168.43587 
L 219.970023 165.979904 
L 219.531039 163.548657 
L 219.092054 161.144472 
L 218.65307 158.769298 
L 218.214086 156.425609 
L 217.775102 154.115511 
L 217.336118 151.841373 
L 216.897134 149.605512 
L 216.458149 147.410298 
L 216.019165 145.257968 
L 215.580181 143.150996 
L 215.141197 141.091804 
L 214.702213 139.08271 
L 214.263229 137.12616 
L 213.824244 135.224578 
L 213.38526 133.380359 
L 212.946276 131.595846 
L 212.507292 129.873513 
L 212.068308 128.215809 
L 211.629323 126.624944 
L 211.190339 125.103315 
L 210.751355 123.653291 
L 210.312371 122.277162 
L 209.873387 120.977193 
L 209.434403 119.755541 
L 208.995418 118.61447 
L 208.556434 117.556009 
L 208.11745 116.582367 
L 207.678466 115.695521 
L 207.239482 114.897364 
L 206.800498 114.189792 
L 206.361513 113.574807 
L 205.922529 113.053961 
L 205.483545 112.629044 
L 205.044552 112.301531 
L 204.605568 112.073001 
L 204.166584 111.944823 
L 203.7276 111.918182 
L 203.288615 111.994525 
L 202.849631 112.174748 
L 202.410647 112.45993 
L 201.971663 112.850835 
L 201.532679 113.348304 
L 201.093695 113.952865 
L 200.65471 114.665017 
L 200.215726 115.485234 
L 199.776742 116.413675 
L 199.337758 117.450339 
L 198.898774 118.595332 
L 198.459789 119.848337 
L 198.020805 121.209197 
L 197.581821 122.677307 
L 197.142837 124.252034 
L 196.703853 125.932668 
L 196.264869 127.718418 
L 195.825884 129.608022 
L 195.3869 131.600374 
L 194.947916 133.694078 
L 194.508923 135.887765 
L 194.069939 138.179646 
L 193.630955 140.568036 
L 193.191971 143.050907 
L 192.752986 145.626232 
L 192.314002 148.29188 
L 191.875018 151.045322 
L 191.436034 153.884322 
L 190.99705 156.806062 
L 190.558066 159.807936 
L 190.119081 162.887207 
L 189.680097 166.04061 
L 189.241113 169.265328 
L 188.802129 172.55815 
L 188.363145 175.915692 
L 187.92416 179.334677 
L 187.485176 182.81171 
L 187.046192 186.343118 
L 186.607208 189.925347 
L 186.168224 193.554803 
L 185.72924 197.227657 
L 185.290255 200.940222 
L 184.851271 204.688564 
L 184.412287 208.468878 
L 183.973303 212.277333 
L 183.534319 216.109889 
L 183.095335 219.962768 
L 182.65635 223.831969 
L 182.217366 227.713635 
L 181.778382 231.603752 
L 181.339398 235.498501 
L 180.900414 239.394001 
L 180.461429 243.286487 
L 180.022445 247.172075 
L 179.583461 251.047173 
L 179.144477 254.908055 
L 178.705493 258.751141 
L 178.266509 262.572865 
L 177.827524 266.369842 
L 177.38854 270.138691 
L 176.949547 273.876213 
L 176.510563 277.579143 
L 176.071579 281.244455 
L 175.632595 284.869304 
L 175.193611 288.450796 
L 174.754626 291.986212 
L 174.315642 295.473038 
L 173.876658 298.908681 
L 173.437665 302.291127 
L 172.998681 305.617875 
L 172.559697 308.88707 
L 172.120713 312.096736 
L 171.681728 315.245111 
L 171.242744 318.33066 
L 170.80376 321.351837 
L 170.364776 324.30732 
L 169.925792 327.195989 
L 169.486808 330.016798 
L 169.047823 332.768727 
L 168.608839 335.451196 
L 168.169855 338.063535 
L 167.730871 340.605223 
L 167.291887 343.075945 
L 166.852903 345.475487 
L 166.413918 347.803812 
L 165.974934 350.06091 
L 165.53595 352.246993 
L 165.096966 354.362376 
L 164.657982 356.407372 
L 164.218997 358.382575 
L 163.780013 360.28858 
L 163.341029 362.126067 
L 162.902045 363.895887 
L 162.463061 365.598914 
L 162.024077 367.23615 
L 161.585092 368.808631 
L 161.146108 370.317494 
L 160.707124 371.764004 
L 160.26814 373.149304 
L 159.829156 374.474807 
L 159.390172 375.741839 
L 158.951187 376.951842 
L 158.512203 378.106241 
L 158.073219 379.206524 
L 157.634235 380.254222 
L 157.195251 381.250865 
L 156.756266 382.198003 
L 156.317282 383.097223 
L 155.878298 383.9501 
L 155.439314 384.758219 
L 155.00033 385.523159 
L 154.561346 386.246498 
L 154.122361 386.929825 
L 153.683377 387.574685 
L 153.244393 388.182644 
L 152.805409 388.755203 
L 152.366425 389.293896 
L 151.927441 389.800196 
L 151.488456 390.275549 
L 151.049472 390.721394 
L 150.610488 391.139124 
L 150.171504 391.530106 
L 149.73252 391.895654 
L 149.293535 392.237075 
L 148.854551 392.555621 
L 148.415567 392.852497 
L 147.976583 393.128891 
L 147.537599 393.385938 
L 147.098615 393.624726 
L 146.65963 393.846317 
L 146.220646 394.051724 
L 145.781662 394.241918 
L 145.342678 394.417831 
L 144.903694 394.580357 
L 144.464709 394.730351 
L 144.025725 394.868615 
L 143.586741 394.99593 
L 143.147757 395.113029 
L 142.708773 395.220609 
L 142.269789 395.319332 
L 141.830804 395.409821 
L 141.39182 395.492669 
L 140.952836 395.568434 
L 140.513852 395.63764 
L 140.074868 395.700781 
L 139.635884 395.758321 
L 139.196899 395.810696 
L 138.757915 395.85831 
L 138.318914 395.901549 
L 137.879929 395.940764 
L 137.440945 395.976288 
L 137.001961 396.008428 
L 136.562977 396.037474 
L 136.123993 396.06369 
L 135.685009 396.087322 
L 135.246024 396.108601 
L 134.80704 396.127735 
L 134.368056 396.14492 
L 133.929072 396.160335 
L 133.490088 396.174145 
L 133.051103 396.186501 
L 132.612119 396.197543 
L 132.173135 396.207398 
L 131.734151 396.216181 
L 131.295167 396.224 
L 130.856183 396.230952 
L 130.417198 396.237124 
L 129.978214 396.242597 
L 129.53923 396.247443 
L 129.100246 396.251729 
L 128.661262 396.255515 
L 128.222278 396.258854 
L 127.783293 396.261795 
L 127.344309 396.264382 
L 126.905325 396.266655 
L 126.466341 396.268649 
L 126.027357 396.270396 
L 125.588372 396.271925 
L 125.149388 396.27326 
L 124.710404 396.274425 
L 124.27142 396.27544 
L 123.832436 396.276324 
L 123.393452 396.277091 
L 122.954467 396.277757 
L 122.515483 396.278334 
L 122.076499 396.278833 
L 121.637515 396.279264 
L 121.198531 396.279636 
L 120.759546 396.279956 
L 120.320562 396.280232 
L 119.881578 396.280469 
L 119.442594 396.280672 
L 119.00361 396.280846 
L 118.564626 396.280994 
L 118.125641 396.281121 
L 117.686657 396.28123 
L 117.247656 396.281322 
L 116.808671 396.2814 
L 116.369687 396.281467 
L 115.930703 396.281523 
L 115.491719 396.281571 
L 115.052735 396.281611 
L 114.613751 396.281645 
L 114.174766 396.281674 
L 113.735782 396.281698 
L 113.296798 396.281718 
L 112.857814 396.281735 
L 112.41883 396.281749 
L 111.979846 396.281761 
L 111.540861 396.281771 
L 111.101877 396.281779 
L 110.662893 396.281786 
L 110.223909 396.281792 
L 109.784925 396.281796 
L 109.34594 396.2818 
L 108.906956 396.281804 
L 108.467972 396.281806 
L 108.028988 396.281808 
L 107.590004 396.28181 
L 107.15102 396.281812 
L 106.712035 396.281813 
L 106.273051 396.281814 
L 105.834067 396.281815 
L 105.395083 396.281815 
L 104.956099 396.281816 
L 104.517115 396.281816 
L 104.07813 396.281817 
L 103.639146 396.281817 
L 103.200162 396.281817 
L 102.761178 396.281817 
L 102.322194 396.281818 
L 101.883209 396.281818 
L 101.444225 396.281818 
L 101.005241 396.281818 
L 100.566257 396.281818 
L 100.127273 396.281818 
z
" style="fill:#1f77b4;fill-opacity:0.5;"/>
   </g>
   <g id="line2d_8">
    <path clip-path="url(#p31e09ecede)" d="M 100.127273 396.281818 
L 133.490088 396.174145 
L 137.879929 395.940764 
L 140.952836 395.568434 
L 143.147757 395.113029 
L 145.342678 394.417831 
L 147.098615 393.624726 
L 148.854551 392.555621 
L 150.171504 391.530106 
L 151.488456 390.275549 
L 152.805409 388.755203 
L 154.122361 386.929825 
L 155.439314 384.758219 
L 156.756266 382.198003 
L 158.073219 379.206524 
L 159.390172 375.741839 
L 160.707124 371.764004 
L 162.463061 365.598914 
L 164.218997 358.382575 
L 165.974934 350.06091 
L 167.730871 340.605223 
L 169.486808 330.016798 
L 171.681728 315.245111 
L 173.876658 298.908681 
L 176.510563 277.579143 
L 180.022445 247.172075 
L 186.168224 193.554803 
L 188.802129 172.55815 
L 190.99705 156.806062 
L 192.752986 145.626232 
L 194.508923 135.887765 
L 195.825884 129.608022 
L 197.142837 124.252034 
L 198.459789 119.848337 
L 199.776742 116.413675 
L 200.65471 114.665017 
L 201.532679 113.348304 
L 202.410647 112.45993 
L 203.288615 111.994525 
L 204.166584 111.944823 
L 205.044552 112.301531 
L 205.922529 113.053961 
L 206.800498 114.189792 
L 207.678466 115.695521 
L 208.556434 117.556009 
L 209.873387 120.977193 
L 211.190339 125.103315 
L 212.507292 129.873513 
L 214.263229 137.12616 
L 216.458149 147.410298 
L 219.092054 161.144472 
L 222.164944 178.465429 
L 234.895502 251.731578 
L 237.968392 267.510452 
L 241.041281 282.062434 
L 243.675186 293.497949 
L 246.309091 303.96154 
L 248.942996 313.467639 
L 251.576901 322.050498 
L 254.210806 329.758362 
L 256.405744 335.55426 
L 258.600665 340.817997 
L 260.795586 345.586783 
L 262.990507 349.897795 
L 265.185428 353.787671 
L 267.380349 357.291665 
L 269.57527 360.443432 
L 272.209175 363.805081 
L 274.84308 366.755796 
L 277.476985 369.341745 
L 280.11089 371.604477 
L 282.744795 373.581101 
L 285.378702 375.304559 
L 288.451609 377.033767 
L 291.524496 378.497529 
L 294.597385 379.729736 
L 298.109259 380.890703 
L 301.621133 381.821163 
L 305.571991 382.626832 
L 309.522848 383.206182 
L 313.912709 383.610531 
L 318.302549 383.780577 
L 322.692373 383.724112 
L 327.082215 383.438532 
L 331.033092 382.975053 
L 334.983949 382.298279 
L 338.934805 381.382842 
L 342.446678 380.341042 
L 345.958551 379.052197 
L 349.031443 377.691493 
L 352.104332 376.080559 
L 354.738235 374.472593 
L 357.372157 372.626396 
L 360.006063 370.511097 
L 362.639968 368.091683 
L 365.273873 365.328819 
L 367.468794 362.732588 
L 369.663714 359.839688 
L 371.858635 356.620077 
L 374.053556 353.041668 
L 376.248477 349.07047 
L 378.443398 344.67085 
L 380.638319 339.806053 
L 382.83324 334.43881 
L 385.028178 328.532097 
L 387.223099 322.050498 
L 389.41802 314.961061 
L 392.051925 305.611649 
L 394.68583 295.309274 
L 397.319735 284.03574 
L 399.95364 271.798107 
L 403.026529 256.357487 
L 406.099427 239.793567 
L 410.050285 217.220132 
L 419.707946 161.144472 
L 422.341851 147.410298 
L 424.536771 137.12616 
L 426.292708 129.873513 
L 428.048645 123.653291 
L 429.365597 119.755541 
L 430.68255 116.582367 
L 431.560518 114.897364 
L 432.438487 113.574807 
L 433.316455 112.629044 
L 434.194432 112.073001 
L 435.0724 111.918182 
L 435.950369 112.174748 
L 436.828337 112.850835 
L 437.706305 113.952865 
L 438.584274 115.485234 
L 439.462242 117.450339 
L 440.340211 119.848337 
L 441.657163 124.252034 
L 442.974116 129.608022 
L 444.291068 135.887713 
L 446.047005 145.62618 
L 447.80295 156.806062 
L 449.997871 172.55815 
L 452.631776 193.554803 
L 456.14365 223.831969 
L 462.728421 281.244455 
L 465.362326 302.291081 
L 467.557256 318.33066 
L 469.752159 332.768634 
L 471.508096 343.075843 
L 473.26405 352.246993 
L 475.019987 360.28858 
L 476.775923 367.23615 
L 478.53186 373.149304 
L 480.287797 378.106241 
L 481.604749 381.250865 
L 482.921702 383.9501 
L 484.238654 386.246498 
L 485.555607 388.182644 
L 486.872559 389.800196 
L 488.189512 391.139124 
L 489.945449 392.555621 
L 491.701385 393.624726 
L 493.45734 394.41784 
L 495.65226 395.113033 
L 497.847181 395.568437 
L 500.920071 395.940764 
L 504.870928 396.160335 
L 511.455691 396.264382 
L 536.038822 396.281817 
L 538.672727 396.281818 
L 538.672727 396.281818 
" style="fill:none;stroke:#1f77b4;stroke-linecap:round;stroke-width:1.5;"/>
   </g>
   <g id="patch_3">
    <path d="M 78.2 410.5 
L 78.2 97.7 
" style="fill:none;"/>
   </g>
   <g id="patch_4">
    <path d="M 560.6 410.5 
L 560.6 97.7 
" style="fill:none;"/>
   </g>
   <g id="patch_5">
    <path d="M 78.2 410.5 
L 560.6 410.5 
" style="fill:none;"/>
   </g>
   <g id="patch_6">
    <path d="M 78.2 97.7 
L 560.6 97.7 
" style="fill:none;"/>
   </g>
  </g>
  <g id="text_9">
   <!-- Variational posterior $q_\phi(\theta)$ -->
   <g style="fill:#262626;" transform="translate(85.6 38)scale(0.4 -0.4)">
    <defs>
     <path d="M 1803 0 
L 28 4581 
L 684 4581 
L 1875 1253 
Q 2019 853 2116 503 
Q 2222 878 2363 1253 
L 3600 4581 
L 4219 4581 
L 2425 0 
L 1803 0 
z
" id="ArialMT-56" transform="scale(0.015625)"/>
     <path d="M 422 0 
L 422 3319 
L 928 3319 
L 928 2847 
Q 1294 3394 1984 3394 
Q 2284 3394 2536 3286 
Q 2788 3178 2913 3003 
Q 3038 2828 3088 2588 
Q 3119 2431 3119 2041 
L 3119 0 
L 2556 0 
L 2556 2019 
Q 2556 2363 2490 2533 
Q 2425 2703 2258 2804 
Q 2091 2906 1866 2906 
Q 1506 2906 1245 2678 
Q 984 2450 984 1813 
L 984 0 
L 422 0 
z
" id="ArialMT-6e" transform="scale(0.015625)"/>
     <path d="M 197 991 
L 753 1078 
Q 800 744 1014 566 
Q 1228 388 1613 388 
Q 2000 388 2187 545 
Q 2375 703 2375 916 
Q 2375 1106 2209 1216 
Q 2094 1291 1634 1406 
Q 1016 1563 777 1677 
Q 538 1791 414 1992 
Q 291 2194 291 2438 
Q 291 2659 392 2848 
Q 494 3038 669 3163 
Q 800 3259 1026 3326 
Q 1253 3394 1513 3394 
Q 1903 3394 2198 3281 
Q 2494 3169 2634 2976 
Q 2775 2784 2828 2463 
L 2278 2388 
Q 2241 2644 2061 2787 
Q 1881 2931 1553 2931 
Q 1166 2931 1000 2803 
Q 834 2675 834 2503 
Q 834 2394 903 2306 
Q 972 2216 1119 2156 
Q 1203 2125 1616 2013 
Q 2213 1853 2448 1751 
Q 2684 1650 2818 1456 
Q 2953 1263 2953 975 
Q 2953 694 2789 445 
Q 2625 197 2315 61 
Q 2006 -75 1616 -75 
Q 969 -75 630 194 
Q 291 463 197 991 
z
" id="ArialMT-73" transform="scale(0.015625)"/>
     <path d="M 2669 525 
Q 2438 222 2123 65 
Q 1809 -91 1428 -91 
Q 897 -91 595 267 
Q 294 625 294 1253 
Q 294 1759 480 2231 
Q 666 2703 1013 3078 
Q 1238 3322 1530 3453 
Q 1822 3584 2144 3584 
Q 2531 3584 2781 3431 
Q 3031 3278 3144 2969 
L 3244 3494 
L 3822 3494 
L 2888 -1319 
L 2309 -1319 
L 2669 525 
z
M 891 1338 
Q 891 875 1084 633 
Q 1278 391 1644 391 
Q 2188 391 2572 911 
Q 2956 1431 2956 2175 
Q 2956 2625 2757 2864 
Q 2559 3103 2188 3103 
Q 1916 3103 1684 2976 
Q 1453 2850 1281 2606 
Q 1100 2350 995 2006 
Q 891 1663 891 1338 
z
" id="DejaVuSans-Oblique-71" transform="scale(0.015625)"/>
     <path d="M 2991 4863 
L 2738 3572 
Q 3363 3572 3684 3094 
Q 4016 2606 3850 1747 
Q 3681 888 3159 400 
Q 2653 -78 2028 -78 
L 1784 -1331 
L 1213 -1331 
L 1456 -78 
Q 834 -78 509 400 
Q 178 888 347 1747 
Q 513 2606 1034 3094 
Q 1544 3572 2166 3572 
L 2419 4863 
L 2991 4863 
z
M 2128 434 
Q 2481 434 2784 756 
Q 3116 1116 3244 1747 
Q 3369 2372 3169 2738 
Q 2991 3059 2638 3059 
L 2128 434 
z
M 1556 434 
L 2066 3059 
Q 1716 3059 1413 2738 
Q 1072 2372 953 1747 
Q 834 1116 1028 756 
Q 1203 434 1556 434 
z
" id="DejaVuSans-Oblique-3d5" transform="scale(0.015625)"/>
     <path d="M 1984 4856 
Q 1566 4138 1362 3434 
Q 1159 2731 1159 2009 
Q 1159 1288 1364 580 
Q 1569 -128 1984 -844 
L 1484 -844 
Q 1016 -109 783 600 
Q 550 1309 550 2009 
Q 550 2706 781 3412 
Q 1013 4119 1484 4856 
L 1984 4856 
z
" id="DejaVuSans-28" transform="scale(0.015625)"/>
     <path d="M 513 4856 
L 1013 4856 
Q 1481 4119 1714 3412 
Q 1947 2706 1947 2009 
Q 1947 1309 1714 600 
Q 1481 -109 1013 -844 
L 513 -844 
Q 928 -128 1133 580 
Q 1338 1288 1338 2009 
Q 1338 2731 1133 3434 
Q 928 4138 513 4856 
z
" id="DejaVuSans-29" transform="scale(0.015625)"/>
    </defs>
    <use transform="translate(0 0.234375)" xlink:href="#ArialMT-56"/>
    <use transform="translate(66.699219 0.234375)" xlink:href="#ArialMT-61"/>
    <use transform="translate(122.314453 0.234375)" xlink:href="#ArialMT-72"/>
    <use transform="translate(155.615234 0.234375)" xlink:href="#ArialMT-69"/>
    <use transform="translate(177.832031 0.234375)" xlink:href="#ArialMT-61"/>
    <use transform="translate(233.447266 0.234375)" xlink:href="#ArialMT-74"/>
    <use transform="translate(261.230469 0.234375)" xlink:href="#ArialMT-69"/>
    <use transform="translate(283.447266 0.234375)" xlink:href="#ArialMT-6f"/>
    <use transform="translate(339.0625 0.234375)" xlink:href="#ArialMT-6e"/>
    <use transform="translate(394.677734 0.234375)" xlink:href="#ArialMT-61"/>
    <use transform="translate(450.292969 0.234375)" xlink:href="#ArialMT-6c"/>
    <use transform="translate(472.509766 0.234375)" xlink:href="#ArialMT-20"/>
    <use transform="translate(500.292969 0.234375)" xlink:href="#ArialMT-70"/>
    <use transform="translate(555.908203 0.234375)" xlink:href="#ArialMT-6f"/>
    <use transform="translate(611.523438 0.234375)" xlink:href="#ArialMT-73"/>
    <use transform="translate(661.523438 0.234375)" xlink:href="#ArialMT-74"/>
    <use transform="translate(689.306641 0.234375)" xlink:href="#ArialMT-65"/>
    <use transform="translate(744.921875 0.234375)" xlink:href="#ArialMT-72"/>
    <use transform="translate(778.222656 0.234375)" xlink:href="#ArialMT-69"/>
    <use transform="translate(800.439453 0.234375)" xlink:href="#ArialMT-6f"/>
    <use transform="translate(856.054688 0.234375)" xlink:href="#ArialMT-72"/>
    <use transform="translate(889.355469 0.234375)" xlink:href="#ArialMT-20"/>
    <use transform="translate(917.138672 0.234375)" xlink:href="#DejaVuSans-Oblique-71"/>
    <use transform="translate(980.615234 -16.171875)scale(0.7)" xlink:href="#DejaVuSans-Oblique-3d5"/>
    <use transform="translate(1029.526367 0.234375)" xlink:href="#DejaVuSans-28"/>
    <use transform="translate(1068.540039 0.234375)" xlink:href="#DejaVuSans-Oblique-3b8"/>
    <use transform="translate(1129.72168 0.234375)" xlink:href="#DejaVuSans-29"/>
   </g>
  </g>
  <g id="text_10">
   <!-- $\phi^* = \arg \min  \ D(q_\phi(\theta)||p(\theta|x_{obs}))$ -->
   <g style="fill:#262626;" transform="translate(7.2 547.2)scale(0.4 -0.4)">
    <defs>
     <path d="M 3009 3897 
L 1888 3291 
L 3009 2681 
L 2828 2375 
L 1778 3009 
L 1778 1831 
L 1422 1831 
L 1422 3009 
L 372 2375 
L 191 2681 
L 1313 3291 
L 191 3897 
L 372 4206 
L 1422 3572 
L 1422 4750 
L 1778 4750 
L 1778 3572 
L 2828 4206 
L 3009 3897 
z
" id="DejaVuSans-2a" transform="scale(0.015625)"/>
     <path d="M 678 2906 
L 4684 2906 
L 4684 2381 
L 678 2381 
L 678 2906 
z
M 678 1631 
L 4684 1631 
L 4684 1100 
L 678 1100 
L 678 1631 
z
" id="DejaVuSans-3d" transform="scale(0.015625)"/>
     <path d="M 2194 1759 
Q 1497 1759 1228 1600 
Q 959 1441 959 1056 
Q 959 750 1161 570 
Q 1363 391 1709 391 
Q 2188 391 2477 730 
Q 2766 1069 2766 1631 
L 2766 1759 
L 2194 1759 
z
M 3341 1997 
L 3341 0 
L 2766 0 
L 2766 531 
Q 2569 213 2275 61 
Q 1981 -91 1556 -91 
Q 1019 -91 701 211 
Q 384 513 384 1019 
Q 384 1609 779 1909 
Q 1175 2209 1959 2209 
L 2766 2209 
L 2766 2266 
Q 2766 2663 2505 2880 
Q 2244 3097 1772 3097 
Q 1472 3097 1187 3025 
Q 903 2953 641 2809 
L 641 3341 
Q 956 3463 1253 3523 
Q 1550 3584 1831 3584 
Q 2591 3584 2966 3190 
Q 3341 2797 3341 1997 
z
" id="DejaVuSans-61" transform="scale(0.015625)"/>
     <path d="M 2631 2963 
Q 2534 3019 2420 3045 
Q 2306 3072 2169 3072 
Q 1681 3072 1420 2755 
Q 1159 2438 1159 1844 
L 1159 0 
L 581 0 
L 581 3500 
L 1159 3500 
L 1159 2956 
Q 1341 3275 1631 3429 
Q 1922 3584 2338 3584 
Q 2397 3584 2469 3576 
Q 2541 3569 2628 3553 
L 2631 2963 
z
" id="DejaVuSans-72" transform="scale(0.015625)"/>
     <path d="M 2906 1791 
Q 2906 2416 2648 2759 
Q 2391 3103 1925 3103 
Q 1463 3103 1205 2759 
Q 947 2416 947 1791 
Q 947 1169 1205 825 
Q 1463 481 1925 481 
Q 2391 481 2648 825 
Q 2906 1169 2906 1791 
z
M 3481 434 
Q 3481 -459 3084 -895 
Q 2688 -1331 1869 -1331 
Q 1566 -1331 1297 -1286 
Q 1028 -1241 775 -1147 
L 775 -588 
Q 1028 -725 1275 -790 
Q 1522 -856 1778 -856 
Q 2344 -856 2625 -561 
Q 2906 -266 2906 331 
L 2906 616 
Q 2728 306 2450 153 
Q 2172 0 1784 0 
Q 1141 0 747 490 
Q 353 981 353 1791 
Q 353 2603 747 3093 
Q 1141 3584 1784 3584 
Q 2172 3584 2450 3431 
Q 2728 3278 2906 2969 
L 2906 3500 
L 3481 3500 
L 3481 434 
z
" id="DejaVuSans-67" transform="scale(0.015625)"/>
     <path d="M 3328 2828 
Q 3544 3216 3844 3400 
Q 4144 3584 4550 3584 
Q 5097 3584 5394 3201 
Q 5691 2819 5691 2113 
L 5691 0 
L 5113 0 
L 5113 2094 
Q 5113 2597 4934 2840 
Q 4756 3084 4391 3084 
Q 3944 3084 3684 2787 
Q 3425 2491 3425 1978 
L 3425 0 
L 2847 0 
L 2847 2094 
Q 2847 2600 2669 2842 
Q 2491 3084 2119 3084 
Q 1678 3084 1418 2786 
Q 1159 2488 1159 1978 
L 1159 0 
L 581 0 
L 581 3500 
L 1159 3500 
L 1159 2956 
Q 1356 3278 1631 3431 
Q 1906 3584 2284 3584 
Q 2666 3584 2933 3390 
Q 3200 3197 3328 2828 
z
" id="DejaVuSans-6d" transform="scale(0.015625)"/>
     <path d="M 603 3500 
L 1178 3500 
L 1178 0 
L 603 0 
L 603 3500 
z
M 603 4863 
L 1178 4863 
L 1178 4134 
L 603 4134 
L 603 4863 
z
" id="DejaVuSans-69" transform="scale(0.015625)"/>
     <path d="M 3513 2113 
L 3513 0 
L 2938 0 
L 2938 2094 
Q 2938 2591 2744 2837 
Q 2550 3084 2163 3084 
Q 1697 3084 1428 2787 
Q 1159 2491 1159 1978 
L 1159 0 
L 581 0 
L 581 3500 
L 1159 3500 
L 1159 2956 
Q 1366 3272 1645 3428 
Q 1925 3584 2291 3584 
Q 2894 3584 3203 3211 
Q 3513 2838 3513 2113 
z
" id="DejaVuSans-6e" transform="scale(0.015625)"/>
     <path d="M 1081 4666 
L 2438 4666 
Q 3519 4666 4070 4208 
Q 4622 3750 4622 2847 
Q 4622 2250 4412 1698 
Q 4203 1147 3834 769 
Q 3463 381 2891 190 
Q 2319 0 1538 0 
L 172 0 
L 1081 4666 
z
M 1613 4147 
L 909 519 
L 1734 519 
Q 2794 519 3375 1128 
Q 3956 1738 3956 2847 
Q 3956 3519 3581 3833 
Q 3206 4147 2406 4147 
L 1613 4147 
z
" id="DejaVuSans-Oblique-44" transform="scale(0.015625)"/>
     <path d="M 1344 4891 
L 1344 -1509 
L 813 -1509 
L 813 4891 
L 1344 4891 
z
" id="DejaVuSans-7c" transform="scale(0.015625)"/>
     <path d="M 3175 2156 
Q 3175 2616 2975 2859 
Q 2775 3103 2400 3103 
Q 2144 3103 1911 2972 
Q 1678 2841 1497 2591 
Q 1319 2344 1212 1994 
Q 1106 1644 1106 1300 
Q 1106 863 1306 627 
Q 1506 391 1875 391 
Q 2147 391 2380 519 
Q 2613 647 2778 891 
Q 2956 1147 3065 1494 
Q 3175 1841 3175 2156 
z
M 1394 2969 
Q 1625 3272 1939 3428 
Q 2253 3584 2638 3584 
Q 3175 3584 3472 3232 
Q 3769 2881 3769 2247 
Q 3769 1728 3584 1258 
Q 3400 788 3053 416 
Q 2822 169 2531 39 
Q 2241 -91 1919 -91 
Q 1547 -91 1294 64 
Q 1041 219 916 525 
L 556 -1331 
L -19 -1331 
L 922 3500 
L 1497 3500 
L 1394 2969 
z
" id="DejaVuSans-Oblique-70" transform="scale(0.015625)"/>
     <path d="M 3841 3500 
L 2234 1784 
L 3219 0 
L 2559 0 
L 1819 1388 
L 531 0 
L -166 0 
L 1556 1844 
L 641 3500 
L 1300 3500 
L 1972 2234 
L 3144 3500 
L 3841 3500 
z
" id="DejaVuSans-Oblique-78" transform="scale(0.015625)"/>
     <path d="M 1625 -91 
Q 1009 -91 651 289 
Q 294 669 294 1325 
Q 294 1706 417 2101 
Q 541 2497 738 2766 
Q 1047 3184 1428 3384 
Q 1809 3584 2291 3584 
Q 2888 3584 3255 3212 
Q 3622 2841 3622 2241 
Q 3622 1825 3500 1412 
Q 3378 1000 3181 728 
Q 2875 309 2494 109 
Q 2113 -91 1625 -91 
z
M 891 1344 
Q 891 869 1089 633 
Q 1288 397 1691 397 
Q 2269 397 2648 901 
Q 3028 1406 3028 2181 
Q 3028 2634 2825 2865 
Q 2622 3097 2228 3097 
Q 1903 3097 1650 2945 
Q 1397 2794 1197 2484 
Q 1050 2253 970 1956 
Q 891 1659 891 1344 
z
" id="DejaVuSans-Oblique-6f" transform="scale(0.015625)"/>
     <path d="M 3169 2138 
Q 3169 2591 2961 2847 
Q 2753 3103 2388 3103 
Q 2122 3103 1889 2973 
Q 1656 2844 1484 2597 
Q 1303 2338 1198 1995 
Q 1094 1653 1094 1313 
Q 1094 881 1298 636 
Q 1503 391 1863 391 
Q 2134 391 2365 517 
Q 2597 644 2772 891 
Q 2950 1147 3059 1487 
Q 3169 1828 3169 2138 
z
M 1381 2969 
Q 1594 3256 1914 3420 
Q 2234 3584 2584 3584 
Q 3122 3584 3439 3221 
Q 3756 2859 3756 2241 
Q 3756 1734 3570 1259 
Q 3384 784 3041 416 
Q 2816 172 2522 40 
Q 2228 -91 1906 -91 
Q 1566 -91 1316 65 
Q 1066 222 909 531 
L 806 0 
L 231 0 
L 1178 4863 
L 1753 4863 
L 1381 2969 
z
" id="DejaVuSans-Oblique-62" transform="scale(0.015625)"/>
     <path d="M 3200 3397 
L 3091 2853 
Q 2863 2978 2609 3040 
Q 2356 3103 2088 3103 
Q 1634 3103 1373 2948 
Q 1113 2794 1113 2528 
Q 1113 2219 1719 2053 
Q 1766 2041 1788 2034 
L 1972 1978 
Q 2547 1819 2739 1644 
Q 2931 1469 2931 1166 
Q 2931 609 2489 259 
Q 2047 -91 1331 -91 
Q 1053 -91 747 -37 
Q 441 16 72 128 
L 184 722 
Q 500 559 806 475 
Q 1113 391 1394 391 
Q 1816 391 2080 572 
Q 2344 753 2344 1031 
Q 2344 1331 1650 1516 
L 1591 1531 
L 1394 1581 
Q 956 1697 753 1886 
Q 550 2075 550 2369 
Q 550 2928 970 3256 
Q 1391 3584 2113 3584 
Q 2397 3584 2667 3537 
Q 2938 3491 3200 3397 
z
" id="DejaVuSans-Oblique-73" transform="scale(0.015625)"/>
    </defs>
    <use transform="translate(0 0.765625)" xlink:href="#DejaVuSans-Oblique-3d5"/>
    <use transform="translate(87.052201 39.046875)scale(0.7)" xlink:href="#DejaVuSans-2a"/>
    <use transform="translate(157.906693 0.765625)" xlink:href="#DejaVuSans-3d"/>
    <use transform="translate(261.178177 0.765625)" xlink:href="#DejaVuSans-61"/>
    <use transform="translate(322.457474 0.765625)" xlink:href="#DejaVuSans-72"/>
    <use transform="translate(363.570755 0.765625)" xlink:href="#DejaVuSans-67"/>
    <use transform="translate(443.282994 0.765625)" xlink:href="#DejaVuSans-6d"/>
    <use transform="translate(540.695103 0.765625)" xlink:href="#DejaVuSans-69"/>
    <use transform="translate(568.478306 0.765625)" xlink:href="#DejaVuSans-6e"/>
    <use transform="translate(664.327591 0.765625)" xlink:href="#DejaVuSans-Oblique-44"/>
    <use transform="translate(741.329544 0.765625)" xlink:href="#DejaVuSans-28"/>
    <use transform="translate(780.343216 0.765625)" xlink:href="#DejaVuSans-Oblique-71"/>
    <use transform="translate(843.819779 -15.640625)scale(0.7)" xlink:href="#DejaVuSans-Oblique-3d5"/>
    <use transform="translate(892.730911 0.765625)" xlink:href="#DejaVuSans-28"/>
    <use transform="translate(931.744583 0.765625)" xlink:href="#DejaVuSans-Oblique-3b8"/>
    <use transform="translate(992.926224 0.765625)" xlink:href="#DejaVuSans-29"/>
    <use transform="translate(1031.939896 0.765625)" xlink:href="#DejaVuSans-7c"/>
    <use transform="translate(1065.631302 0.765625)" xlink:href="#DejaVuSans-7c"/>
    <use transform="translate(1099.322708 0.765625)" xlink:href="#DejaVuSans-Oblique-70"/>
    <use transform="translate(1162.799271 0.765625)" xlink:href="#DejaVuSans-28"/>
    <use transform="translate(1201.812943 0.765625)" xlink:href="#DejaVuSans-Oblique-3b8"/>
    <use transform="translate(1262.994583 0.765625)" xlink:href="#DejaVuSans-7c"/>
    <use transform="translate(1296.68599 0.765625)" xlink:href="#DejaVuSans-Oblique-78"/>
    <use transform="translate(1355.865677 -15.640625)scale(0.7)" xlink:href="#DejaVuSans-Oblique-6f"/>
    <use transform="translate(1398.692826 -15.640625)scale(0.7)" xlink:href="#DejaVuSans-Oblique-62"/>
    <use transform="translate(1443.126419 -15.640625)scale(0.7)" xlink:href="#DejaVuSans-Oblique-73"/>
    <use transform="translate(1482.330521 0.765625)" xlink:href="#DejaVuSans-29"/>
    <use transform="translate(1521.344193 0.765625)" xlink:href="#DejaVuSans-29"/>
   </g>
  </g>
 </g>
 <defs>
  <clipPath id="p31e09ecede">
   <rect height="312.8" width="482.4" x="78.2" y="97.7"/>
  </clipPath>
 </defs>
</svg>
