<?xml version="1.0" encoding="utf-8" standalone="no"?>
<!DOCTYPE svg PUBLIC "-//W3C//DTD SVG 1.1//EN"
  "http://www.w3.org/Graphics/SVG/1.1/DTD/svg11.dtd">
<svg height="261.045313pt" version="1.1" viewBox="0 0 237.6 261.045313" width="237.6pt" xmlns="http://www.w3.org/2000/svg" xmlns:xlink="http://www.w3.org/1999/xlink">
 <metadata>
  <rdf:RDF xmlns:cc="http://creativecommons.org/ns#" xmlns:dc="http://purl.org/dc/elements/1.1/" xmlns:rdf="http://www.w3.org/1999/02/22-rdf-syntax-ns#">
   <cc:Work>
    <dc:type rdf:resource="http://purl.org/dc/dcmitype/StillImage"/>
    <dc:date>2021-10-04T16:59:12.533489</dc:date>
    <dc:format>image/svg+xml</dc:format>
    <dc:creator>
     <cc:Agent>
      <dc:title>Matplotlib v3.4.2, https://matplotlib.org/</dc:title>
     </cc:Agent>
    </dc:creator>
   </cc:Work>
  </rdf:RDF>
 </metadata>
 <defs>
  <style type="text/css">*{stroke-linecap:butt;stroke-linejoin:round;}</style>
 </defs>
 <g id="figure_1">
  <g id="patch_1">
   <path d="M 0 261.045313 
L 237.6 261.045313 
L 237.6 0 
L 0 0 
z
" style="fill:none;"/>
  </g>
  <g id="axes_1">
   <g id="patch_2">
    <path d="M 7.2 217.8 
L 230.4 217.8 
L 230.4 54.72 
L 7.2 54.72 
z
" style="fill:none;"/>
   </g>
   <g id="matplotlib.axis_1">
    <g id="xtick_1">
     <g id="line2d_1"/>
     <g id="text_1">
      <!-- −4 -->
      <g style="fill:#262626;" transform="translate(11.644673 228.457813)scale(0.1 -0.1)">
       <defs>
        <path d="M 3381 1997 
L 356 1997 
L 356 2522 
L 3381 2522 
L 3381 1997 
z
" id="ArialMT-2212" transform="scale(0.015625)"/>
        <path d="M 2069 0 
L 2069 1097 
L 81 1097 
L 81 1613 
L 2172 4581 
L 2631 4581 
L 2631 1613 
L 3250 1613 
L 3250 1097 
L 2631 1097 
L 2631 0 
L 2069 0 
z
M 2069 1613 
L 2069 3678 
L 634 1613 
L 2069 1613 
z
" id="ArialMT-34" transform="scale(0.015625)"/>
       </defs>
       <use xlink:href="#ArialMT-2212"/>
       <use x="58.398438" xlink:href="#ArialMT-34"/>
      </g>
     </g>
    </g>
    <g id="xtick_2">
     <g id="line2d_2"/>
     <g id="text_2">
      <!-- −2 -->
      <g style="fill:#262626;" transform="translate(62.371946 228.457813)scale(0.1 -0.1)">
       <defs>
        <path d="M 3222 541 
L 3222 0 
L 194 0 
Q 188 203 259 391 
Q 375 700 629 1000 
Q 884 1300 1366 1694 
Q 2113 2306 2375 2664 
Q 2638 3022 2638 3341 
Q 2638 3675 2398 3904 
Q 2159 4134 1775 4134 
Q 1369 4134 1125 3890 
Q 881 3647 878 3216 
L 300 3275 
Q 359 3922 746 4261 
Q 1134 4600 1788 4600 
Q 2447 4600 2831 4234 
Q 3216 3869 3216 3328 
Q 3216 3053 3103 2787 
Q 2991 2522 2730 2228 
Q 2469 1934 1863 1422 
Q 1356 997 1212 845 
Q 1069 694 975 541 
L 3222 541 
z
" id="ArialMT-32" transform="scale(0.015625)"/>
       </defs>
       <use xlink:href="#ArialMT-2212"/>
       <use x="58.398438" xlink:href="#ArialMT-32"/>
      </g>
     </g>
    </g>
    <g id="xtick_3">
     <g id="line2d_3"/>
     <g id="text_3">
      <!-- 0 -->
      <g style="fill:#262626;" transform="translate(116.019531 228.457813)scale(0.1 -0.1)">
       <defs>
        <path d="M 266 2259 
Q 266 3072 433 3567 
Q 600 4063 929 4331 
Q 1259 4600 1759 4600 
Q 2128 4600 2406 4451 
Q 2684 4303 2865 4023 
Q 3047 3744 3150 3342 
Q 3253 2941 3253 2259 
Q 3253 1453 3087 958 
Q 2922 463 2592 192 
Q 2263 -78 1759 -78 
Q 1097 -78 719 397 
Q 266 969 266 2259 
z
M 844 2259 
Q 844 1131 1108 757 
Q 1372 384 1759 384 
Q 2147 384 2411 759 
Q 2675 1134 2675 2259 
Q 2675 3391 2411 3762 
Q 2147 4134 1753 4134 
Q 1366 4134 1134 3806 
Q 844 3388 844 2259 
z
" id="ArialMT-30" transform="scale(0.015625)"/>
       </defs>
       <use xlink:href="#ArialMT-30"/>
      </g>
     </g>
    </g>
    <g id="xtick_4">
     <g id="line2d_4"/>
     <g id="text_4">
      <!-- 2 -->
      <g style="fill:#262626;" transform="translate(166.746804 228.457813)scale(0.1 -0.1)">
       <use xlink:href="#ArialMT-32"/>
      </g>
     </g>
    </g>
    <g id="xtick_5">
     <g id="line2d_5"/>
     <g id="text_5">
      <!-- 4 -->
      <g style="fill:#262626;" transform="translate(217.474077 228.457813)scale(0.1 -0.1)">
       <use xlink:href="#ArialMT-34"/>
      </g>
     </g>
    </g>
    <g id="text_6">
     <!-- Simulator parameter $\theta$ -->
     <g style="fill:#262626;" transform="translate(19.3 249.845313)scale(0.2 -0.2)">
      <defs>
       <path d="M 288 1472 
L 859 1522 
Q 900 1178 1048 958 
Q 1197 738 1509 602 
Q 1822 466 2213 466 
Q 2559 466 2825 569 
Q 3091 672 3220 851 
Q 3350 1031 3350 1244 
Q 3350 1459 3225 1620 
Q 3100 1781 2813 1891 
Q 2628 1963 1997 2114 
Q 1366 2266 1113 2400 
Q 784 2572 623 2826 
Q 463 3081 463 3397 
Q 463 3744 659 4045 
Q 856 4347 1234 4503 
Q 1613 4659 2075 4659 
Q 2584 4659 2973 4495 
Q 3363 4331 3572 4012 
Q 3781 3694 3797 3291 
L 3216 3247 
Q 3169 3681 2898 3903 
Q 2628 4125 2100 4125 
Q 1550 4125 1298 3923 
Q 1047 3722 1047 3438 
Q 1047 3191 1225 3031 
Q 1400 2872 2139 2705 
Q 2878 2538 3153 2413 
Q 3553 2228 3743 1945 
Q 3934 1663 3934 1294 
Q 3934 928 3725 604 
Q 3516 281 3123 101 
Q 2731 -78 2241 -78 
Q 1619 -78 1198 103 
Q 778 284 539 648 
Q 300 1013 288 1472 
z
" id="ArialMT-53" transform="scale(0.015625)"/>
       <path d="M 425 3934 
L 425 4581 
L 988 4581 
L 988 3934 
L 425 3934 
z
M 425 0 
L 425 3319 
L 988 3319 
L 988 0 
L 425 0 
z
" id="ArialMT-69" transform="scale(0.015625)"/>
       <path d="M 422 0 
L 422 3319 
L 925 3319 
L 925 2853 
Q 1081 3097 1340 3245 
Q 1600 3394 1931 3394 
Q 2300 3394 2536 3241 
Q 2772 3088 2869 2813 
Q 3263 3394 3894 3394 
Q 4388 3394 4653 3120 
Q 4919 2847 4919 2278 
L 4919 0 
L 4359 0 
L 4359 2091 
Q 4359 2428 4304 2576 
Q 4250 2725 4106 2815 
Q 3963 2906 3769 2906 
Q 3419 2906 3187 2673 
Q 2956 2441 2956 1928 
L 2956 0 
L 2394 0 
L 2394 2156 
Q 2394 2531 2256 2718 
Q 2119 2906 1806 2906 
Q 1569 2906 1367 2781 
Q 1166 2656 1075 2415 
Q 984 2175 984 1722 
L 984 0 
L 422 0 
z
" id="ArialMT-6d" transform="scale(0.015625)"/>
       <path d="M 2597 0 
L 2597 488 
Q 2209 -75 1544 -75 
Q 1250 -75 995 37 
Q 741 150 617 320 
Q 494 491 444 738 
Q 409 903 409 1263 
L 409 3319 
L 972 3319 
L 972 1478 
Q 972 1038 1006 884 
Q 1059 663 1231 536 
Q 1403 409 1656 409 
Q 1909 409 2131 539 
Q 2353 669 2445 892 
Q 2538 1116 2538 1541 
L 2538 3319 
L 3100 3319 
L 3100 0 
L 2597 0 
z
" id="ArialMT-75" transform="scale(0.015625)"/>
       <path d="M 409 0 
L 409 4581 
L 972 4581 
L 972 0 
L 409 0 
z
" id="ArialMT-6c" transform="scale(0.015625)"/>
       <path d="M 2588 409 
Q 2275 144 1986 34 
Q 1697 -75 1366 -75 
Q 819 -75 525 192 
Q 231 459 231 875 
Q 231 1119 342 1320 
Q 453 1522 633 1644 
Q 813 1766 1038 1828 
Q 1203 1872 1538 1913 
Q 2219 1994 2541 2106 
Q 2544 2222 2544 2253 
Q 2544 2597 2384 2738 
Q 2169 2928 1744 2928 
Q 1347 2928 1158 2789 
Q 969 2650 878 2297 
L 328 2372 
Q 403 2725 575 2942 
Q 747 3159 1072 3276 
Q 1397 3394 1825 3394 
Q 2250 3394 2515 3294 
Q 2781 3194 2906 3042 
Q 3031 2891 3081 2659 
Q 3109 2516 3109 2141 
L 3109 1391 
Q 3109 606 3145 398 
Q 3181 191 3288 0 
L 2700 0 
Q 2613 175 2588 409 
z
M 2541 1666 
Q 2234 1541 1622 1453 
Q 1275 1403 1131 1340 
Q 988 1278 909 1158 
Q 831 1038 831 891 
Q 831 666 1001 516 
Q 1172 366 1500 366 
Q 1825 366 2078 508 
Q 2331 650 2450 897 
Q 2541 1088 2541 1459 
L 2541 1666 
z
" id="ArialMT-61" transform="scale(0.015625)"/>
       <path d="M 1650 503 
L 1731 6 
Q 1494 -44 1306 -44 
Q 1000 -44 831 53 
Q 663 150 594 308 
Q 525 466 525 972 
L 525 2881 
L 113 2881 
L 113 3319 
L 525 3319 
L 525 4141 
L 1084 4478 
L 1084 3319 
L 1650 3319 
L 1650 2881 
L 1084 2881 
L 1084 941 
Q 1084 700 1114 631 
Q 1144 563 1211 522 
Q 1278 481 1403 481 
Q 1497 481 1650 503 
z
" id="ArialMT-74" transform="scale(0.015625)"/>
       <path d="M 213 1659 
Q 213 2581 725 3025 
Q 1153 3394 1769 3394 
Q 2453 3394 2887 2945 
Q 3322 2497 3322 1706 
Q 3322 1066 3130 698 
Q 2938 331 2570 128 
Q 2203 -75 1769 -75 
Q 1072 -75 642 372 
Q 213 819 213 1659 
z
M 791 1659 
Q 791 1022 1069 705 
Q 1347 388 1769 388 
Q 2188 388 2466 706 
Q 2744 1025 2744 1678 
Q 2744 2294 2464 2611 
Q 2184 2928 1769 2928 
Q 1347 2928 1069 2612 
Q 791 2297 791 1659 
z
" id="ArialMT-6f" transform="scale(0.015625)"/>
       <path d="M 416 0 
L 416 3319 
L 922 3319 
L 922 2816 
Q 1116 3169 1280 3281 
Q 1444 3394 1641 3394 
Q 1925 3394 2219 3213 
L 2025 2691 
Q 1819 2813 1613 2813 
Q 1428 2813 1281 2702 
Q 1134 2591 1072 2394 
Q 978 2094 978 1738 
L 978 0 
L 416 0 
z
" id="ArialMT-72" transform="scale(0.015625)"/>
       <path id="ArialMT-20" transform="scale(0.015625)"/>
       <path d="M 422 -1272 
L 422 3319 
L 934 3319 
L 934 2888 
Q 1116 3141 1344 3267 
Q 1572 3394 1897 3394 
Q 2322 3394 2647 3175 
Q 2972 2956 3137 2557 
Q 3303 2159 3303 1684 
Q 3303 1175 3120 767 
Q 2938 359 2589 142 
Q 2241 -75 1856 -75 
Q 1575 -75 1351 44 
Q 1128 163 984 344 
L 984 -1272 
L 422 -1272 
z
M 931 1641 
Q 931 1000 1190 694 
Q 1450 388 1819 388 
Q 2194 388 2461 705 
Q 2728 1022 2728 1688 
Q 2728 2322 2467 2637 
Q 2206 2953 1844 2953 
Q 1484 2953 1207 2617 
Q 931 2281 931 1641 
z
" id="ArialMT-70" transform="scale(0.015625)"/>
       <path d="M 2694 1069 
L 3275 997 
Q 3138 488 2766 206 
Q 2394 -75 1816 -75 
Q 1088 -75 661 373 
Q 234 822 234 1631 
Q 234 2469 665 2931 
Q 1097 3394 1784 3394 
Q 2450 3394 2872 2941 
Q 3294 2488 3294 1666 
Q 3294 1616 3291 1516 
L 816 1516 
Q 847 969 1125 678 
Q 1403 388 1819 388 
Q 2128 388 2347 550 
Q 2566 713 2694 1069 
z
M 847 1978 
L 2700 1978 
Q 2663 2397 2488 2606 
Q 2219 2931 1791 2931 
Q 1403 2931 1139 2672 
Q 875 2413 847 1978 
z
" id="ArialMT-65" transform="scale(0.015625)"/>
       <path d="M 2913 2219 
L 925 2219 
Q 791 1284 928 888 
Q 1100 400 1566 400 
Q 2034 400 2391 891 
Q 2703 1322 2913 2219 
z
M 3009 2750 
Q 3094 3638 2984 3950 
Q 2813 4444 2353 4444 
Q 1875 4444 1525 3956 
Q 1250 3563 1034 2750 
L 3009 2750 
z
M 2444 4913 
Q 3194 4913 3494 4250 
Q 3794 3591 3566 2422 
Q 3341 1256 2781 594 
Q 2225 -72 1475 -72 
Q 722 -72 425 594 
Q 128 1256 353 2422 
Q 581 3591 1134 4250 
Q 1691 4913 2444 4913 
z
" id="DejaVuSans-Oblique-3b8" transform="scale(0.015625)"/>
      </defs>
      <use transform="translate(0 0.234375)" xlink:href="#ArialMT-53"/>
      <use transform="translate(66.699219 0.234375)" xlink:href="#ArialMT-69"/>
      <use transform="translate(88.916016 0.234375)" xlink:href="#ArialMT-6d"/>
      <use transform="translate(172.216797 0.234375)" xlink:href="#ArialMT-75"/>
      <use transform="translate(227.832031 0.234375)" xlink:href="#ArialMT-6c"/>
      <use transform="translate(250.048828 0.234375)" xlink:href="#ArialMT-61"/>
      <use transform="translate(305.664062 0.234375)" xlink:href="#ArialMT-74"/>
      <use transform="translate(333.447266 0.234375)" xlink:href="#ArialMT-6f"/>
      <use transform="translate(389.0625 0.234375)" xlink:href="#ArialMT-72"/>
      <use transform="translate(422.363281 0.234375)" xlink:href="#ArialMT-20"/>
      <use transform="translate(450.146484 0.234375)" xlink:href="#ArialMT-70"/>
      <use transform="translate(505.761719 0.234375)" xlink:href="#ArialMT-61"/>
      <use transform="translate(561.376953 0.234375)" xlink:href="#ArialMT-72"/>
      <use transform="translate(594.677734 0.234375)" xlink:href="#ArialMT-61"/>
      <use transform="translate(650.292969 0.234375)" xlink:href="#ArialMT-6d"/>
      <use transform="translate(733.59375 0.234375)" xlink:href="#ArialMT-65"/>
      <use transform="translate(789.208984 0.234375)" xlink:href="#ArialMT-74"/>
      <use transform="translate(816.992188 0.234375)" xlink:href="#ArialMT-65"/>
      <use transform="translate(872.607422 0.234375)" xlink:href="#ArialMT-72"/>
      <use transform="translate(905.908203 0.234375)" xlink:href="#ArialMT-20"/>
      <use transform="translate(933.691406 0.234375)" xlink:href="#DejaVuSans-Oblique-3b8"/>
     </g>
    </g>
   </g>
   <g id="matplotlib.axis_2">
    <g id="ytick_1"/>
    <g id="ytick_2"/>
    <g id="ytick_3"/>
    <g id="ytick_4"/>
    <g id="ytick_5"/>
   </g>
   <g id="PolyCollection_1">
    <path clip-path="url(#p88f92b63fe)" d="M 17.345455 210.337538 
L 17.345455 210.387273 
L 17.548567 210.387273 
L 17.751679 210.387273 
L 17.954791 210.387273 
L 18.157903 210.387273 
L 18.361015 210.387273 
L 18.564127 210.387273 
L 18.767239 210.387273 
L 18.970351 210.387273 
L 19.173463 210.387273 
L 19.376575 210.387273 
L 19.579687 210.387273 
L 19.7828 210.387273 
L 19.985912 210.387273 
L 20.189024 210.387273 
L 20.392136 210.387273 
L 20.595248 210.387273 
L 20.79836 210.387273 
L 21.001472 210.387273 
L 21.204584 210.387273 
L 21.407696 210.387273 
L 21.610808 210.387273 
L 21.81392 210.387273 
L 22.017032 210.387273 
L 22.220145 210.387273 
L 22.423257 210.387273 
L 22.626369 210.387273 
L 22.829481 210.387273 
L 23.032593 210.387273 
L 23.235705 210.387273 
L 23.438817 210.387273 
L 23.641929 210.387273 
L 23.845047 210.387273 
L 24.048159 210.387273 
L 24.251271 210.387273 
L 24.454383 210.387273 
L 24.657496 210.387273 
L 24.860608 210.387273 
L 25.06372 210.387273 
L 25.266832 210.387273 
L 25.469944 210.387273 
L 25.673056 210.387273 
L 25.876168 210.387273 
L 26.07928 210.387273 
L 26.282392 210.387273 
L 26.485504 210.387273 
L 26.688616 210.387273 
L 26.891728 210.387273 
L 27.094841 210.387273 
L 27.297953 210.387273 
L 27.501065 210.387273 
L 27.704177 210.387273 
L 27.907289 210.387273 
L 28.110401 210.387273 
L 28.313513 210.387273 
L 28.516625 210.387273 
L 28.719737 210.387273 
L 28.922849 210.387273 
L 29.125961 210.387273 
L 29.329073 210.387273 
L 29.532186 210.387273 
L 29.735298 210.387273 
L 29.93841 210.387273 
L 30.141522 210.387273 
L 30.344634 210.387273 
L 30.547746 210.387273 
L 30.750858 210.387273 
L 30.95397 210.387273 
L 31.157082 210.387273 
L 31.360194 210.387273 
L 31.563306 210.387273 
L 31.766418 210.387273 
L 31.969537 210.387273 
L 32.172649 210.387273 
L 32.375761 210.387273 
L 32.578873 210.387273 
L 32.781985 210.387273 
L 32.985097 210.387273 
L 33.188209 210.387273 
L 33.391321 210.387273 
L 33.594433 210.387273 
L 33.797545 210.387273 
L 34.000657 210.387273 
L 34.203769 210.387273 
L 34.406882 210.387273 
L 34.609994 210.387273 
L 34.813106 210.387273 
L 35.016218 210.387273 
L 35.21933 210.387273 
L 35.422442 210.387273 
L 35.625554 210.387273 
L 35.828666 210.387273 
L 36.031778 210.387273 
L 36.23489 210.387273 
L 36.438002 210.387273 
L 36.641114 210.387273 
L 36.844227 210.387273 
L 37.047339 210.387273 
L 37.250451 210.387273 
L 37.453563 210.387273 
L 37.656675 210.387273 
L 37.859787 210.387273 
L 38.062899 210.387273 
L 38.266011 210.387273 
L 38.469123 210.387273 
L 38.672235 210.387273 
L 38.875347 210.387273 
L 39.078459 210.387273 
L 39.281572 210.387273 
L 39.484684 210.387273 
L 39.687796 210.387273 
L 39.890908 210.387273 
L 40.09402 210.387273 
L 40.297132 210.387273 
L 40.500244 210.387273 
L 40.703356 210.387273 
L 40.906468 210.387273 
L 41.10958 210.387273 
L 41.312692 210.387273 
L 41.515804 210.387273 
L 41.718916 210.387273 
L 41.922029 210.387273 
L 42.125141 210.387273 
L 42.328253 210.387273 
L 42.531365 210.387273 
L 42.734477 210.387273 
L 42.937589 210.387273 
L 43.140701 210.387273 
L 43.343813 210.387273 
L 43.546925 210.387273 
L 43.750037 210.387273 
L 43.953149 210.387273 
L 44.156261 210.387273 
L 44.359374 210.387273 
L 44.562486 210.387273 
L 44.765598 210.387273 
L 44.96871 210.387273 
L 45.171822 210.387273 
L 45.374934 210.387273 
L 45.578046 210.387273 
L 45.781158 210.387273 
L 45.98427 210.387273 
L 46.187382 210.387273 
L 46.390494 210.387273 
L 46.593613 210.387273 
L 46.796725 210.387273 
L 46.999837 210.387273 
L 47.202949 210.387273 
L 47.406061 210.387273 
L 47.609173 210.387273 
L 47.812285 210.387273 
L 48.015397 210.387273 
L 48.218509 210.387273 
L 48.421621 210.387273 
L 48.624733 210.387273 
L 48.827845 210.387273 
L 49.030957 210.387273 
L 49.23407 210.387273 
L 49.437182 210.387273 
L 49.640294 210.387273 
L 49.843406 210.387273 
L 50.046518 210.387273 
L 50.24963 210.387273 
L 50.452742 210.387273 
L 50.655854 210.387273 
L 50.858966 210.387273 
L 51.062078 210.387273 
L 51.26519 210.387273 
L 51.468309 210.387273 
L 51.671421 210.387273 
L 51.874533 210.387273 
L 52.077645 210.387273 
L 52.280757 210.387273 
L 52.483869 210.387273 
L 52.686981 210.387273 
L 52.890093 210.387273 
L 53.093205 210.387273 
L 53.296317 210.387273 
L 53.499429 210.387273 
L 53.702541 210.387273 
L 53.905654 210.387273 
L 54.108766 210.387273 
L 54.311878 210.387273 
L 54.51499 210.387273 
L 54.718102 210.387273 
L 54.921214 210.387273 
L 55.124326 210.387273 
L 55.327438 210.387273 
L 55.53055 210.387273 
L 55.733662 210.387273 
L 55.936774 210.387273 
L 56.139886 210.387273 
L 56.342998 210.387273 
L 56.546111 210.387273 
L 56.749223 210.387273 
L 56.952335 210.387273 
L 57.155447 210.387273 
L 57.358559 210.387273 
L 57.561671 210.387273 
L 57.764783 210.387273 
L 57.967895 210.387273 
L 58.171007 210.387273 
L 58.374119 210.387273 
L 58.577231 210.387273 
L 58.780343 210.387273 
L 58.983456 210.387273 
L 59.186568 210.387273 
L 59.38968 210.387273 
L 59.592792 210.387273 
L 59.795904 210.387273 
L 59.999016 210.387273 
L 60.202128 210.387273 
L 60.40524 210.387273 
L 60.608352 210.387273 
L 60.811464 210.387273 
L 61.014576 210.387273 
L 61.217688 210.387273 
L 61.420801 210.387273 
L 61.623913 210.387273 
L 61.827025 210.387273 
L 62.030137 210.387273 
L 62.233249 210.387273 
L 62.436361 210.387273 
L 62.639473 210.387273 
L 62.842585 210.387273 
L 63.045697 210.387273 
L 63.248809 210.387273 
L 63.451921 210.387273 
L 63.655033 210.387273 
L 63.858146 210.387273 
L 64.061258 210.387273 
L 64.26437 210.387273 
L 64.467482 210.387273 
L 64.670594 210.387273 
L 64.873706 210.387273 
L 65.076818 210.387273 
L 65.27993 210.387273 
L 65.483042 210.387273 
L 65.686154 210.387273 
L 65.889266 210.387273 
L 66.092378 210.387273 
L 66.295491 210.387273 
L 66.498603 210.387273 
L 66.701715 210.387273 
L 66.904827 210.387273 
L 67.107939 210.387273 
L 67.311051 210.387273 
L 67.514163 210.387273 
L 67.717281 210.387273 
L 67.920393 210.387273 
L 68.123505 210.387273 
L 68.326617 210.387273 
L 68.529729 210.387273 
L 68.732842 210.387273 
L 68.935954 210.387273 
L 69.139066 210.387273 
L 69.342178 210.387273 
L 69.54529 210.387273 
L 69.748402 210.387273 
L 69.951514 210.387273 
L 70.154626 210.387273 
L 70.357738 210.387273 
L 70.56085 210.387273 
L 70.763962 210.387273 
L 70.967074 210.387273 
L 71.170187 210.387273 
L 71.373299 210.387273 
L 71.576411 210.387273 
L 71.779523 210.387273 
L 71.982635 210.387273 
L 72.185747 210.387273 
L 72.388859 210.387273 
L 72.591971 210.387273 
L 72.795083 210.387273 
L 72.998195 210.387273 
L 73.201307 210.387273 
L 73.404419 210.387273 
L 73.607532 210.387273 
L 73.810644 210.387273 
L 74.013756 210.387273 
L 74.216868 210.387273 
L 74.41998 210.387273 
L 74.623092 210.387273 
L 74.826204 210.387273 
L 75.029316 210.387273 
L 75.232428 210.387273 
L 75.43554 210.387273 
L 75.638652 210.387273 
L 75.84177 210.387273 
L 76.044883 210.387273 
L 76.247995 210.387273 
L 76.451107 210.387273 
L 76.654219 210.387273 
L 76.857331 210.387273 
L 77.060443 210.387273 
L 77.263555 210.387273 
L 77.466667 210.387273 
L 77.669779 210.387273 
L 77.872891 210.387273 
L 78.076003 210.387273 
L 78.279115 210.387273 
L 78.482228 210.387273 
L 78.68534 210.387273 
L 78.888452 210.387273 
L 79.091564 210.387273 
L 79.294676 210.387273 
L 79.497788 210.387273 
L 79.7009 210.387273 
L 79.904012 210.387273 
L 80.107124 210.387273 
L 80.310236 210.387273 
L 80.513348 210.387273 
L 80.71646 210.387273 
L 80.919573 210.387273 
L 81.122685 210.387273 
L 81.325797 210.387273 
L 81.528909 210.387273 
L 81.732021 210.387273 
L 81.935133 210.387273 
L 82.138245 210.387273 
L 82.341357 210.387273 
L 82.544469 210.387273 
L 82.747581 210.387273 
L 82.950693 210.387273 
L 83.153805 210.387273 
L 83.356917 210.387273 
L 83.56003 210.387273 
L 83.763142 210.387273 
L 83.966254 210.387273 
L 84.169366 210.387273 
L 84.372478 210.387273 
L 84.57559 210.387273 
L 84.778702 210.387273 
L 84.981814 210.387273 
L 85.184926 210.387273 
L 85.388038 210.387273 
L 85.591156 210.387273 
L 85.794269 210.387273 
L 85.997381 210.387273 
L 86.200493 210.387273 
L 86.403605 210.387273 
L 86.606717 210.387273 
L 86.809829 210.387273 
L 87.012941 210.387273 
L 87.216053 210.387273 
L 87.419165 210.387273 
L 87.622277 210.387273 
L 87.825389 210.387273 
L 88.028501 210.387273 
L 88.231614 210.387273 
L 88.434726 210.387273 
L 88.637838 210.387273 
L 88.84095 210.387273 
L 89.044062 210.387273 
L 89.247174 210.387273 
L 89.450286 210.387273 
L 89.653398 210.387273 
L 89.85651 210.387273 
L 90.059622 210.387273 
L 90.262734 210.387273 
L 90.465846 210.387273 
L 90.668958 210.387273 
L 90.872071 210.387273 
L 91.075183 210.387273 
L 91.278295 210.387273 
L 91.481407 210.387273 
L 91.684519 210.387273 
L 91.887631 210.387273 
L 92.090743 210.387273 
L 92.293855 210.387273 
L 92.496967 210.387273 
L 92.700079 210.387273 
L 92.903191 210.387273 
L 93.106303 210.387273 
L 93.309416 210.387273 
L 93.512529 210.387273 
L 93.71564 210.387273 
L 93.918752 210.387273 
L 94.121864 210.387273 
L 94.324976 210.387273 
L 94.528088 210.387273 
L 94.7312 210.387273 
L 94.934312 210.387273 
L 95.137426 210.387273 
L 95.340542 210.387273 
L 95.543655 210.387273 
L 95.746767 210.387273 
L 95.949879 210.387273 
L 96.152991 210.387273 
L 96.356103 210.387273 
L 96.559215 210.387273 
L 96.762329 210.387273 
L 96.965439 210.387273 
L 97.168551 210.387273 
L 97.371663 210.387273 
L 97.574775 210.387273 
L 97.777887 210.387273 
L 97.980999 210.387273 
L 98.184112 210.387273 
L 98.387225 210.387273 
L 98.590336 210.387273 
L 98.793448 210.387273 
L 98.99656 210.387273 
L 99.199672 210.387273 
L 99.402784 210.387273 
L 99.605896 210.387273 
L 99.809008 210.387273 
L 100.012122 210.387273 
L 100.215232 210.387273 
L 100.418344 210.387273 
L 100.621457 210.387273 
L 100.824569 210.387273 
L 101.027681 210.387273 
L 101.230793 210.387273 
L 101.433905 210.387273 
L 101.637018 210.387273 
L 101.840129 210.387273 
L 102.043241 210.387273 
L 102.246353 210.387273 
L 102.449465 210.387273 
L 102.652577 210.387273 
L 102.855689 210.387273 
L 103.058802 210.387273 
L 103.261915 210.387273 
L 103.465026 210.387273 
L 103.668138 210.387273 
L 103.87125 210.387273 
L 104.074362 210.387273 
L 104.277474 210.387273 
L 104.480586 210.387273 
L 104.683698 210.387273 
L 104.886812 210.387273 
L 105.089922 210.387273 
L 105.293034 210.387273 
L 105.496147 210.387273 
L 105.699259 210.387273 
L 105.902371 210.387273 
L 106.105483 210.387273 
L 106.308596 210.387273 
L 106.511708 210.387273 
L 106.714825 210.387273 
L 106.917937 210.387273 
L 107.121049 210.387273 
L 107.324161 210.387273 
L 107.527274 210.387273 
L 107.730386 210.387273 
L 107.933498 210.387273 
L 108.13661 210.387273 
L 108.339722 210.387273 
L 108.542834 210.387273 
L 108.745946 210.387273 
L 108.949058 210.387273 
L 109.152171 210.387273 
L 109.355283 210.387273 
L 109.558395 210.387273 
L 109.761507 210.387273 
L 109.964618 210.387273 
L 110.16773 210.387273 
L 110.370843 210.387273 
L 110.573955 210.387273 
L 110.777067 210.387273 
L 110.98018 210.387273 
L 111.183292 210.387273 
L 111.386404 210.387273 
L 111.589515 210.387273 
L 111.792627 210.387273 
L 111.995739 210.387273 
L 112.198851 210.387273 
L 112.401964 210.387273 
L 112.605076 210.387273 
L 112.808188 210.387273 
L 113.0113 210.387273 
L 113.214412 210.387273 
L 113.417524 210.387273 
L 113.620636 210.387273 
L 113.823748 210.387273 
L 114.02686 210.387273 
L 114.229973 210.387273 
L 114.433085 210.387273 
L 114.636197 210.387273 
L 114.839308 210.387273 
L 115.04242 210.387273 
L 115.245533 210.387273 
L 115.448645 210.387273 
L 115.651757 210.387273 
L 115.854869 210.387273 
L 116.057982 210.387273 
L 116.261094 210.387273 
L 116.464211 210.387273 
L 116.667323 210.387273 
L 116.870435 210.387273 
L 117.073548 210.387273 
L 117.27666 210.387273 
L 117.479772 210.387273 
L 117.682884 210.387273 
L 117.885996 210.387273 
L 118.089108 210.387273 
L 118.29222 210.387273 
L 118.495332 210.387273 
L 118.698444 210.387273 
L 118.901557 210.387273 
L 119.104669 210.387273 
L 119.307781 210.387273 
L 119.510893 210.387273 
L 119.714004 210.387273 
L 119.917117 210.387273 
L 120.120229 210.387273 
L 120.323341 210.387273 
L 120.526453 210.387273 
L 120.729565 210.387273 
L 120.932678 210.387273 
L 121.13579 210.387273 
L 121.338901 210.387273 
L 121.542013 210.387273 
L 121.745125 210.387273 
L 121.948238 210.387273 
L 122.15135 210.387273 
L 122.354462 210.387273 
L 122.557574 210.387273 
L 122.760686 210.387273 
L 122.963804 210.387273 
L 123.166916 210.387273 
L 123.370028 210.387273 
L 123.57314 210.387273 
L 123.776252 210.387273 
L 123.979365 210.387273 
L 124.182477 210.387273 
L 124.385589 210.387273 
L 124.5887 210.387273 
L 124.791812 210.387273 
L 124.994925 210.387273 
L 125.198037 210.387273 
L 125.401149 210.387273 
L 125.604262 210.387273 
L 125.807374 210.387273 
L 126.010486 210.387273 
L 126.213597 210.387273 
L 126.416709 210.387273 
L 126.619821 210.387273 
L 126.822933 210.387273 
L 127.026046 210.387273 
L 127.229158 210.387273 
L 127.43227 210.387273 
L 127.635382 210.387273 
L 127.838494 210.387273 
L 128.041606 210.387273 
L 128.244718 210.387273 
L 128.44783 210.387273 
L 128.650943 210.387273 
L 128.854055 210.387273 
L 129.057167 210.387273 
L 129.260279 210.387273 
L 129.46339 210.387273 
L 129.666502 210.387273 
L 129.869615 210.387273 
L 130.072727 210.387273 
L 130.275839 210.387273 
L 130.478952 210.387273 
L 130.682064 210.387273 
L 130.885176 210.387273 
L 131.088287 210.387273 
L 131.291399 210.387273 
L 131.494511 210.387273 
L 131.697623 210.387273 
L 131.900735 210.387273 
L 132.103847 210.387273 
L 132.30696 210.387273 
L 132.510073 210.387273 
L 132.71319 210.387273 
L 132.916302 210.387273 
L 133.119414 210.387273 
L 133.322526 210.387273 
L 133.525638 210.387273 
L 133.72875 210.387273 
L 133.931862 210.387273 
L 134.134976 210.387273 
L 134.338086 210.387273 
L 134.541198 210.387273 
L 134.744311 210.387273 
L 134.947423 210.387273 
L 135.150535 210.387273 
L 135.353647 210.387273 
L 135.556759 210.387273 
L 135.759872 210.387273 
L 135.962983 210.387273 
L 136.166095 210.387273 
L 136.369207 210.387273 
L 136.572319 210.387273 
L 136.775431 210.387273 
L 136.978543 210.387273 
L 137.181656 210.387273 
L 137.384769 210.387273 
L 137.58788 210.387273 
L 137.790992 210.387273 
L 137.994104 210.387273 
L 138.197216 210.387273 
L 138.400328 210.387273 
L 138.60344 210.387273 
L 138.806552 210.387273 
L 139.009666 210.387273 
L 139.212776 210.387273 
L 139.415888 210.387273 
L 139.619001 210.387273 
L 139.822113 210.387273 
L 140.025225 210.387273 
L 140.228337 210.387273 
L 140.431449 210.387273 
L 140.634562 210.387273 
L 140.837673 210.387273 
L 141.040785 210.387273 
L 141.243897 210.387273 
L 141.447009 210.387273 
L 141.650121 210.387273 
L 141.853233 210.387273 
L 142.056345 210.387273 
L 142.259459 210.387273 
L 142.462576 210.387273 
L 142.665688 210.387273 
L 142.8688 210.387273 
L 143.071912 210.387273 
L 143.275024 210.387273 
L 143.478136 210.387273 
L 143.681248 210.387273 
L 143.884362 210.387273 
L 144.087472 210.387273 
L 144.290584 210.387273 
L 144.493697 210.387273 
L 144.696809 210.387273 
L 144.899921 210.387273 
L 145.103033 210.387273 
L 145.306145 210.387273 
L 145.509257 210.387273 
L 145.712369 210.387273 
L 145.915481 210.387273 
L 146.118593 210.387273 
L 146.321705 210.387273 
L 146.524817 210.387273 
L 146.727929 210.387273 
L 146.931042 210.387273 
L 147.134154 210.387273 
L 147.337266 210.387273 
L 147.540378 210.387273 
L 147.74349 210.387273 
L 147.946602 210.387273 
L 148.149714 210.387273 
L 148.352826 210.387273 
L 148.555938 210.387273 
L 148.75905 210.387273 
L 148.962162 210.387273 
L 149.165274 210.387273 
L 149.368386 210.387273 
L 149.571499 210.387273 
L 149.774611 210.387273 
L 149.977723 210.387273 
L 150.180835 210.387273 
L 150.383947 210.387273 
L 150.587059 210.387273 
L 150.790171 210.387273 
L 150.993283 210.387273 
L 151.196395 210.387273 
L 151.399507 210.387273 
L 151.602619 210.387273 
L 151.805731 210.387273 
L 152.008844 210.387273 
L 152.211956 210.387273 
L 152.415068 210.387273 
L 152.61818 210.387273 
L 152.821292 210.387273 
L 153.024404 210.387273 
L 153.227516 210.387273 
L 153.430628 210.387273 
L 153.63374 210.387273 
L 153.836858 210.387273 
L 154.03997 210.387273 
L 154.243083 210.387273 
L 154.446195 210.387273 
L 154.649307 210.387273 
L 154.852419 210.387273 
L 155.055531 210.387273 
L 155.258643 210.387273 
L 155.461755 210.387273 
L 155.664867 210.387273 
L 155.867979 210.387273 
L 156.071091 210.387273 
L 156.274203 210.387273 
L 156.477315 210.387273 
L 156.680427 210.387273 
L 156.88354 210.387273 
L 157.086652 210.387273 
L 157.289764 210.387273 
L 157.492876 210.387273 
L 157.695988 210.387273 
L 157.8991 210.387273 
L 158.102212 210.387273 
L 158.305324 210.387273 
L 158.508436 210.387273 
L 158.711548 210.387273 
L 158.91466 210.387273 
L 159.117772 210.387273 
L 159.320885 210.387273 
L 159.523997 210.387273 
L 159.727109 210.387273 
L 159.930221 210.387273 
L 160.133333 210.387273 
L 160.336445 210.387273 
L 160.539557 210.387273 
L 160.742669 210.387273 
L 160.945781 210.387273 
L 161.148893 210.387273 
L 161.352005 210.387273 
L 161.555117 210.387273 
L 161.75823 210.387273 
L 161.961342 210.387273 
L 162.164454 210.387273 
L 162.367566 210.387273 
L 162.570678 210.387273 
L 162.77379 210.387273 
L 162.976902 210.387273 
L 163.180014 210.387273 
L 163.383126 210.387273 
L 163.586244 210.387273 
L 163.789356 210.387273 
L 163.992468 210.387273 
L 164.195581 210.387273 
L 164.398693 210.387273 
L 164.601805 210.387273 
L 164.804917 210.387273 
L 165.008029 210.387273 
L 165.211141 210.387273 
L 165.414253 210.387273 
L 165.617365 210.387273 
L 165.820477 210.387273 
L 166.023589 210.387273 
L 166.226701 210.387273 
L 166.429813 210.387273 
L 166.632926 210.387273 
L 166.836038 210.387273 
L 167.03915 210.387273 
L 167.242262 210.387273 
L 167.445374 210.387273 
L 167.648486 210.387273 
L 167.851598 210.387273 
L 168.05471 210.387273 
L 168.257822 210.387273 
L 168.460934 210.387273 
L 168.664046 210.387273 
L 168.867158 210.387273 
L 169.070271 210.387273 
L 169.273383 210.387273 
L 169.476495 210.387273 
L 169.679607 210.387273 
L 169.882719 210.387273 
L 170.085831 210.387273 
L 170.288943 210.387273 
L 170.492055 210.387273 
L 170.695167 210.387273 
L 170.898279 210.387273 
L 171.101391 210.387273 
L 171.304503 210.387273 
L 171.507616 210.387273 
L 171.710734 210.387273 
L 171.913846 210.387273 
L 172.116958 210.387273 
L 172.32007 210.387273 
L 172.523182 210.387273 
L 172.726294 210.387273 
L 172.929406 210.387273 
L 173.132518 210.387273 
L 173.33563 210.387273 
L 173.538742 210.387273 
L 173.741854 210.387273 
L 173.944967 210.387273 
L 174.148079 210.387273 
L 174.351191 210.387273 
L 174.554303 210.387273 
L 174.757415 210.387273 
L 174.960527 210.387273 
L 175.163639 210.387273 
L 175.366751 210.387273 
L 175.569863 210.387273 
L 175.772975 210.387273 
L 175.976087 210.387273 
L 176.179199 210.387273 
L 176.382312 210.387273 
L 176.585424 210.387273 
L 176.788536 210.387273 
L 176.991648 210.387273 
L 177.19476 210.387273 
L 177.397872 210.387273 
L 177.600984 210.387273 
L 177.804096 210.387273 
L 178.007208 210.387273 
L 178.21032 210.387273 
L 178.413432 210.387273 
L 178.616544 210.387273 
L 178.819657 210.387273 
L 179.022769 210.387273 
L 179.225881 210.387273 
L 179.428993 210.387273 
L 179.632105 210.387273 
L 179.835217 210.387273 
L 180.038329 210.387273 
L 180.241441 210.387273 
L 180.444553 210.387273 
L 180.647665 210.387273 
L 180.850777 210.387273 
L 181.053889 210.387273 
L 181.257002 210.387273 
L 181.460114 210.387273 
L 181.663226 210.387273 
L 181.866338 210.387273 
L 182.06945 210.387273 
L 182.272562 210.387273 
L 182.475674 210.387273 
L 182.678786 210.387273 
L 182.881898 210.387273 
L 183.08501 210.387273 
L 183.288122 210.387273 
L 183.491234 210.387273 
L 183.694346 210.387273 
L 183.897459 210.387273 
L 184.100571 210.387273 
L 184.303683 210.387273 
L 184.506795 210.387273 
L 184.709907 210.387273 
L 184.913019 210.387273 
L 185.116131 210.387273 
L 185.319243 210.387273 
L 185.522355 210.387273 
L 185.725467 210.387273 
L 185.928579 210.387273 
L 186.131691 210.387273 
L 186.334804 210.387273 
L 186.537916 210.387273 
L 186.741028 210.387273 
L 186.94414 210.387273 
L 187.147252 210.387273 
L 187.350364 210.387273 
L 187.553476 210.387273 
L 187.756588 210.387273 
L 187.959706 210.387273 
L 188.162818 210.387273 
L 188.36593 210.387273 
L 188.569043 210.387273 
L 188.772155 210.387273 
L 188.975267 210.387273 
L 189.178379 210.387273 
L 189.381491 210.387273 
L 189.584603 210.387273 
L 189.787715 210.387273 
L 189.990827 210.387273 
L 190.193939 210.387273 
L 190.397051 210.387273 
L 190.600163 210.387273 
L 190.803275 210.387273 
L 191.006387 210.387273 
L 191.2095 210.387273 
L 191.412612 210.387273 
L 191.615724 210.387273 
L 191.818836 210.387273 
L 192.021948 210.387273 
L 192.22506 210.387273 
L 192.428172 210.387273 
L 192.631284 210.387273 
L 192.834402 210.387273 
L 193.037514 210.387273 
L 193.240626 210.387273 
L 193.443739 210.387273 
L 193.646851 210.387273 
L 193.849963 210.387273 
L 194.053075 210.387273 
L 194.256187 210.387273 
L 194.459299 210.387273 
L 194.662411 210.387273 
L 194.865523 210.387273 
L 195.068635 210.387273 
L 195.271747 210.387273 
L 195.474859 210.387273 
L 195.677971 210.387273 
L 195.881084 210.387273 
L 196.084196 210.387273 
L 196.287308 210.387273 
L 196.49042 210.387273 
L 196.693532 210.387273 
L 196.896644 210.387273 
L 197.099756 210.387273 
L 197.302868 210.387273 
L 197.50598 210.387273 
L 197.709092 210.387273 
L 197.912204 210.387273 
L 198.115316 210.387273 
L 198.318428 210.387273 
L 198.521541 210.387273 
L 198.724653 210.387273 
L 198.927765 210.387273 
L 199.130877 210.387273 
L 199.333989 210.387273 
L 199.537101 210.387273 
L 199.740213 210.387273 
L 199.943325 210.387273 
L 200.146437 210.387273 
L 200.349549 210.387273 
L 200.552661 210.387273 
L 200.755773 210.387273 
L 200.958886 210.387273 
L 201.161998 210.387273 
L 201.36511 210.387273 
L 201.568222 210.387273 
L 201.771334 210.387273 
L 201.974446 210.387273 
L 202.177558 210.387273 
L 202.38067 210.387273 
L 202.583782 210.387273 
L 202.786894 210.387273 
L 202.990006 210.387273 
L 203.193118 210.387273 
L 203.396231 210.387273 
L 203.599343 210.387273 
L 203.802455 210.387273 
L 204.005567 210.387273 
L 204.208679 210.387273 
L 204.411791 210.387273 
L 204.614903 210.387273 
L 204.818015 210.387273 
L 205.021127 210.387273 
L 205.224239 210.387273 
L 205.427351 210.387273 
L 205.630463 210.387273 
L 205.833576 210.387273 
L 206.036688 210.387273 
L 206.2398 210.387273 
L 206.442912 210.387273 
L 206.646024 210.387273 
L 206.849136 210.387273 
L 207.052248 210.387273 
L 207.25536 210.387273 
L 207.458478 210.387273 
L 207.66159 210.387273 
L 207.864702 210.387273 
L 208.067814 210.387273 
L 208.270927 210.387273 
L 208.474039 210.387273 
L 208.677151 210.387273 
L 208.880263 210.387273 
L 209.083375 210.387273 
L 209.286487 210.387273 
L 209.489599 210.387273 
L 209.692711 210.387273 
L 209.895823 210.387273 
L 210.098935 210.387273 
L 210.302047 210.387273 
L 210.505159 210.387273 
L 210.708272 210.387273 
L 210.911384 210.387273 
L 211.114496 210.387273 
L 211.317608 210.387273 
L 211.52072 210.387273 
L 211.723832 210.387273 
L 211.926944 210.387273 
L 212.130056 210.387273 
L 212.333168 210.387273 
L 212.53628 210.387273 
L 212.739392 210.387273 
L 212.942504 210.387273 
L 213.145617 210.387273 
L 213.348729 210.387273 
L 213.551841 210.387273 
L 213.754953 210.387273 
L 213.958065 210.387273 
L 214.161177 210.387273 
L 214.364289 210.387273 
L 214.567401 210.387273 
L 214.770513 210.387273 
L 214.973625 210.387273 
L 215.176737 210.387273 
L 215.379849 210.387273 
L 215.582968 210.387273 
L 215.78608 210.387273 
L 215.989192 210.387273 
L 216.192304 210.387273 
L 216.395416 210.387273 
L 216.598528 210.387273 
L 216.80164 210.387273 
L 217.004752 210.387273 
L 217.207864 210.387273 
L 217.410976 210.387273 
L 217.614088 210.387273 
L 217.8172 210.387273 
L 218.020313 210.387273 
L 218.223425 210.387273 
L 218.426537 210.387273 
L 218.629649 210.387273 
L 218.832761 210.387273 
L 219.035873 210.387273 
L 219.238985 210.387273 
L 219.442097 210.387273 
L 219.645209 210.387273 
L 219.848321 210.387273 
L 220.051433 210.387273 
L 220.254545 210.387273 
L 220.254545 210.337538 
L 220.254545 210.337538 
L 220.051433 210.335921 
L 219.848321 210.334255 
L 219.645209 210.332538 
L 219.442097 210.330769 
L 219.238985 210.328946 
L 219.035873 210.327069 
L 218.832761 210.325135 
L 218.629649 210.323144 
L 218.426537 210.321092 
L 218.223425 210.31898 
L 218.020313 210.316804 
L 217.8172 210.314564 
L 217.614088 210.312257 
L 217.410976 210.309883 
L 217.207864 210.307438 
L 217.004752 210.304921 
L 216.80164 210.30233 
L 216.598528 210.299664 
L 216.395416 210.296919 
L 216.192304 210.294095 
L 215.989192 210.291188 
L 215.78608 210.288198 
L 215.582968 210.28512 
L 215.379849 210.281954 
L 215.176737 210.278696 
L 214.973625 210.275345 
L 214.770513 210.271898 
L 214.567401 210.268352 
L 214.364289 210.264706 
L 214.161177 210.260955 
L 213.958065 210.257099 
L 213.754953 210.253133 
L 213.551841 210.249055 
L 213.348729 210.244862 
L 213.145617 210.240551 
L 212.942504 210.23612 
L 212.739392 210.231565 
L 212.53628 210.226882 
L 212.333168 210.22207 
L 212.130056 210.217124 
L 211.926944 210.212041 
L 211.723832 210.206818 
L 211.52072 210.201452 
L 211.317608 210.195937 
L 211.114496 210.190272 
L 210.911384 210.184453 
L 210.708272 210.178474 
L 210.505159 210.172333 
L 210.302047 210.166026 
L 210.098935 210.159549 
L 209.895823 210.152896 
L 209.692711 210.146065 
L 209.489599 210.139051 
L 209.286487 210.131849 
L 209.083375 210.124455 
L 208.880263 210.116864 
L 208.677151 210.109072 
L 208.474039 210.101074 
L 208.270927 210.092864 
L 208.067814 210.084439 
L 207.864702 210.075792 
L 207.66159 210.066919 
L 207.458478 210.057815 
L 207.25536 210.048473 
L 207.052248 210.038889 
L 206.849136 210.029056 
L 206.646024 210.01897 
L 206.442912 210.008624 
L 206.2398 209.998013 
L 206.036688 209.987129 
L 205.833576 209.975968 
L 205.630463 209.964523 
L 205.427351 209.952787 
L 205.224239 209.940754 
L 205.021127 209.928417 
L 204.818015 209.915769 
L 204.614903 209.902804 
L 204.411791 209.889514 
L 204.208679 209.875893 
L 204.005567 209.861932 
L 203.802455 209.847625 
L 203.599343 209.832964 
L 203.396231 209.817941 
L 203.193118 209.802548 
L 202.990006 209.786778 
L 202.786894 209.770622 
L 202.583782 209.754072 
L 202.38067 209.737119 
L 202.177558 209.719756 
L 201.974446 209.701972 
L 201.771334 209.68376 
L 201.568222 209.66511 
L 201.36511 209.646013 
L 201.161998 209.626461 
L 200.958886 209.606442 
L 200.755773 209.585948 
L 200.552661 209.564969 
L 200.349549 209.543495 
L 200.146437 209.521515 
L 199.943325 209.49902 
L 199.740213 209.475999 
L 199.537101 209.452441 
L 199.333989 209.428336 
L 199.130877 209.403672 
L 198.927765 209.378439 
L 198.724653 209.352624 
L 198.521541 209.326217 
L 198.318428 209.299206 
L 198.115316 209.271579 
L 197.912204 209.243324 
L 197.709092 209.214428 
L 197.50598 209.18488 
L 197.302868 209.154665 
L 197.099756 209.123774 
L 196.896644 209.09219 
L 196.693532 209.059902 
L 196.49042 209.026897 
L 196.287308 208.993161 
L 196.084196 208.958679 
L 195.881084 208.923438 
L 195.677971 208.887425 
L 195.474859 208.850624 
L 195.271747 208.81302 
L 195.068635 208.7746 
L 194.865523 208.735349 
L 194.662411 208.69525 
L 194.459299 208.65429 
L 194.256187 208.612451 
L 194.053075 208.569719 
L 193.849963 208.526077 
L 193.646851 208.48151 
L 193.443739 208.436001 
L 193.240626 208.389533 
L 193.037514 208.342089 
L 192.834402 208.293653 
L 192.631284 208.244207 
L 192.428172 208.193734 
L 192.22506 208.142216 
L 192.021948 208.089637 
L 191.818836 208.035976 
L 191.615724 207.981217 
L 191.412612 207.92534 
L 191.2095 207.868327 
L 191.006387 207.810159 
L 190.803275 207.750817 
L 190.600163 207.690281 
L 190.397051 207.628532 
L 190.193939 207.565551 
L 189.990827 207.501316 
L 189.787715 207.435809 
L 189.584603 207.369008 
L 189.381491 207.300894 
L 189.178379 207.231444 
L 188.975267 207.160638 
L 188.772155 207.088457 
L 188.569043 207.014875 
L 188.36593 206.939874 
L 188.162818 206.863432 
L 187.959706 206.785525 
L 187.756588 206.706129 
L 187.553476 206.625226 
L 187.350364 206.542793 
L 187.147252 206.458805 
L 186.94414 206.37324 
L 186.741028 206.286074 
L 186.537916 206.197283 
L 186.334804 206.106845 
L 186.131691 206.014737 
L 185.928579 205.920931 
L 185.725467 205.825405 
L 185.522355 205.728135 
L 185.319243 205.629096 
L 185.116131 205.528264 
L 184.913019 205.425615 
L 184.709907 205.321121 
L 184.506795 205.214757 
L 184.303683 205.1065 
L 184.100571 204.996321 
L 183.897459 204.884198 
L 183.694346 204.770102 
L 183.491234 204.654009 
L 183.288122 204.535894 
L 183.08501 204.415724 
L 182.881898 204.293481 
L 182.678786 204.16913 
L 182.475674 204.042654 
L 182.272562 203.914014 
L 182.06945 203.783196 
L 181.866338 203.65016 
L 181.663226 203.514888 
L 181.460114 203.37735 
L 181.257002 203.237517 
L 181.053889 203.095363 
L 180.850777 202.950859 
L 180.647665 202.80398 
L 180.444553 202.654692 
L 180.241441 202.50297 
L 180.038329 202.348789 
L 179.835217 202.19212 
L 179.632105 202.032932 
L 179.428993 201.8712 
L 179.225881 201.706891 
L 179.022769 201.539976 
L 178.819657 201.370434 
L 178.616544 201.198234 
L 178.413432 201.023343 
L 178.21032 200.845734 
L 178.007208 200.665381 
L 177.804096 200.482253 
L 177.600984 200.296324 
L 177.397872 200.107568 
L 177.19476 199.915949 
L 176.991648 199.721441 
L 176.788536 199.524018 
L 176.585424 199.323648 
L 176.382312 199.120308 
L 176.179199 198.913963 
L 175.976087 198.704591 
L 175.772975 198.492166 
L 175.569863 198.276644 
L 175.366751 198.058018 
L 175.163639 197.836242 
L 174.960527 197.611304 
L 174.757415 197.383161 
L 174.554303 197.1518 
L 174.351191 196.917179 
L 174.148079 196.679281 
L 173.944967 196.438078 
L 173.741854 196.193539 
L 173.538742 195.945643 
L 173.33563 195.694356 
L 173.132518 195.439659 
L 172.929406 195.181518 
L 172.726294 194.919908 
L 172.523182 194.654809 
L 172.32007 194.386197 
L 172.116958 194.114038 
L 171.913846 193.838317 
L 171.710734 193.558997 
L 171.507616 193.276049 
L 171.304503 192.989473 
L 171.101391 192.699235 
L 170.898279 192.405305 
L 170.695167 192.107658 
L 170.492055 191.806279 
L 170.288943 191.50114 
L 170.085831 191.192225 
L 169.882719 190.879514 
L 169.679607 190.562973 
L 169.476495 190.242584 
L 169.273383 189.918334 
L 169.070271 189.590196 
L 168.867158 189.258156 
L 168.664046 188.922187 
L 168.460934 188.582279 
L 168.257822 188.23841 
L 168.05471 187.890554 
L 167.851598 187.538706 
L 167.648486 187.182839 
L 167.445374 186.822947 
L 167.242262 186.458999 
L 167.03915 186.090995 
L 166.836038 185.71891 
L 166.632926 185.34273 
L 166.429813 184.962452 
L 166.226701 184.578048 
L 166.023589 184.189519 
L 165.820477 183.796842 
L 165.617365 183.400007 
L 165.414253 182.999016 
L 165.211141 182.593832 
L 165.008029 182.184474 
L 164.804917 181.770926 
L 164.601805 181.353169 
L 164.398693 180.931204 
L 164.195581 180.505022 
L 163.992468 180.074618 
L 163.789356 179.639985 
L 163.586244 179.201122 
L 163.383126 178.758009 
L 163.180014 178.310674 
L 162.976902 177.859096 
L 162.77379 177.403277 
L 162.570678 176.943208 
L 162.367566 176.478913 
L 162.164454 176.010366 
L 161.961342 175.537574 
L 161.75823 175.060554 
L 161.555117 174.579293 
L 161.352005 174.093811 
L 161.148893 173.604107 
L 160.945781 173.110176 
L 160.742669 172.612044 
L 160.539557 172.109703 
L 160.336445 171.603176 
L 160.133333 171.09246 
L 159.930221 170.57758 
L 159.727109 170.058532 
L 159.523997 169.535345 
L 159.320885 169.008014 
L 159.117772 168.476576 
L 158.91466 167.941023 
L 158.711548 167.401384 
L 158.508436 166.857686 
L 158.305324 166.309929 
L 158.102212 165.758152 
L 157.8991 165.202354 
L 157.695988 164.642558 
L 157.492876 164.078819 
L 157.289764 163.51113 
L 157.086652 162.939522 
L 156.88354 162.364021 
L 156.680427 161.784672 
L 156.477315 161.201469 
L 156.274203 160.614467 
L 156.071091 160.023694 
L 155.867979 159.429171 
L 155.664867 158.830939 
L 155.461755 158.22903 
L 155.258643 157.623476 
L 155.055531 157.014307 
L 154.852419 156.401578 
L 154.649307 155.785309 
L 154.446195 155.165552 
L 154.243083 154.542345 
L 154.03997 153.915716 
L 153.836858 153.28572 
L 153.63374 152.652385 
L 153.430628 152.015788 
L 153.227516 151.375957 
L 153.024404 150.732925 
L 152.821292 150.086771 
L 152.61818 149.437509 
L 152.415068 148.785224 
L 152.211956 148.129938 
L 152.008844 147.471728 
L 151.805731 146.810627 
L 151.602619 146.146702 
L 151.399507 145.480009 
L 151.196395 144.81059 
L 150.993283 144.138531 
L 150.790171 143.463874 
L 150.587059 142.786675 
L 150.383947 142.107002 
L 150.180835 141.424919 
L 149.977723 140.740494 
L 149.774611 140.053787 
L 149.571499 139.36486 
L 149.368386 138.673784 
L 149.165274 137.980626 
L 148.962162 137.285458 
L 148.75905 136.588346 
L 148.555938 135.889368 
L 148.352826 135.188591 
L 148.149714 134.486091 
L 147.946602 133.781941 
L 147.74349 133.076207 
L 147.540378 132.368978 
L 147.337266 131.660332 
L 147.134154 130.95035 
L 146.931042 130.239101 
L 146.727929 129.526667 
L 146.524817 128.813125 
L 146.321705 128.098575 
L 146.118593 127.383084 
L 145.915481 126.666741 
L 145.712369 125.949638 
L 145.509257 125.231832 
L 145.306145 124.513456 
L 145.103033 123.794554 
L 144.899921 123.075253 
L 144.696809 122.355603 
L 144.493697 121.635732 
L 144.290584 120.915695 
L 144.087472 120.195607 
L 143.884362 119.475559 
L 143.681248 118.755621 
L 143.478136 118.035921 
L 143.275024 117.316532 
L 143.071912 116.597552 
L 142.8688 115.879082 
L 142.665688 115.16121 
L 142.462576 114.444046 
L 142.259459 113.727669 
L 142.056345 113.012189 
L 141.853233 112.297706 
L 141.650121 111.584319 
L 141.447009 110.872129 
L 141.243897 110.161234 
L 141.040785 109.451723 
L 140.837673 108.743719 
L 140.634562 108.03731 
L 140.431449 107.332595 
L 140.228337 106.629685 
L 140.025225 105.928681 
L 139.822113 105.22968 
L 139.619001 104.532796 
L 139.415888 103.838137 
L 139.212776 103.145771 
L 139.009666 102.455853 
L 138.806552 101.768448 
L 138.60344 101.083669 
L 138.400328 100.401636 
L 138.197216 99.722438 
L 137.994104 99.046187 
L 137.790992 98.373003 
L 137.58788 97.702953 
L 137.384769 97.036182 
L 137.181656 96.372756 
L 136.978543 95.712818 
L 136.775431 95.056457 
L 136.572319 94.403774 
L 136.369207 93.754889 
L 136.166095 93.109869 
L 135.962983 92.468859 
L 135.759872 91.831957 
L 135.556759 91.199242 
L 135.353647 90.570836 
L 135.150535 89.946848 
L 134.947423 89.327368 
L 134.744311 88.712506 
L 134.541198 88.102373 
L 134.338086 87.497047 
L 134.134976 86.89665 
L 133.931862 86.30128 
L 133.72875 85.711027 
L 133.525638 85.126013 
L 133.322526 84.546315 
L 133.119414 83.972033 
L 132.916302 83.403277 
L 132.71319 82.840159 
L 132.510073 82.282733 
L 132.30696 81.731133 
L 132.103847 81.185447 
L 131.900735 80.645763 
L 131.697623 80.112193 
L 131.494511 79.584804 
L 131.291399 79.063693 
L 131.088287 78.548985 
L 130.885176 78.040733 
L 130.682064 77.539037 
L 130.478952 77.043998 
L 130.275839 76.555692 
L 130.072727 76.07422 
L 129.869615 75.599648 
L 129.666502 75.132086 
L 129.46339 74.671602 
L 129.260279 74.218283 
L 129.057167 73.772218 
L 128.854055 73.333463 
L 128.650943 72.902117 
L 128.44783 72.47827 
L 128.244718 72.061975 
L 128.041606 71.653333 
L 127.838494 71.2524 
L 127.635382 70.859264 
L 127.43227 70.47398 
L 127.229158 70.096626 
L 127.026046 69.72729 
L 126.822933 69.366017 
L 126.619821 69.012873 
L 126.416709 68.667947 
L 126.213597 68.331283 
L 126.010486 68.002948 
L 125.807374 67.683019 
L 125.604262 67.371529 
L 125.401149 67.068556 
L 125.198037 66.774155 
L 124.994925 66.48837 
L 124.791812 66.211258 
L 124.5887 65.942884 
L 124.385589 65.683281 
L 124.182477 65.432516 
L 123.979365 65.190634 
L 123.776252 64.957667 
L 123.57314 64.73366 
L 123.370028 64.518679 
L 123.166916 64.312736 
L 122.963804 64.115886 
L 122.760686 63.928161 
L 122.557574 63.749596 
L 122.354462 63.580234 
L 122.15135 63.420108 
L 121.948238 63.26922 
L 121.745125 63.127646 
L 121.542013 62.995374 
L 121.338901 62.872451 
L 121.13579 62.758886 
L 120.932678 62.654712 
L 120.729565 62.559942 
L 120.526453 62.474608 
L 120.323341 62.398698 
L 120.120229 62.332247 
L 119.917117 62.275276 
L 119.714004 62.227775 
L 119.510893 62.189765 
L 119.307781 62.161246 
L 119.104669 62.142241 
L 118.901557 62.132727 
L 118.698444 62.132727 
L 118.495332 62.142241 
L 118.29222 62.161246 
L 118.089108 62.189765 
L 117.885996 62.227775 
L 117.682884 62.275276 
L 117.479772 62.332247 
L 117.27666 62.398698 
L 117.073548 62.474608 
L 116.870435 62.559942 
L 116.667323 62.654712 
L 116.464211 62.758886 
L 116.261094 62.872451 
L 116.057982 62.995374 
L 115.854869 63.127646 
L 115.651757 63.269231 
L 115.448645 63.420108 
L 115.245533 63.580234 
L 115.04242 63.749596 
L 114.839308 63.928161 
L 114.636197 64.115886 
L 114.433085 64.312736 
L 114.229973 64.518679 
L 114.02686 64.73366 
L 113.823748 64.957667 
L 113.620636 65.190634 
L 113.417524 65.432516 
L 113.214412 65.683281 
L 113.0113 65.942884 
L 112.808188 66.211258 
L 112.605076 66.48837 
L 112.401964 66.774144 
L 112.198851 67.068556 
L 111.995739 67.371529 
L 111.792627 67.683019 
L 111.589515 68.002948 
L 111.386404 68.331283 
L 111.183292 68.667947 
L 110.98018 69.012873 
L 110.777067 69.366017 
L 110.573955 69.72729 
L 110.370843 70.096626 
L 110.16773 70.47398 
L 109.964618 70.859264 
L 109.761507 71.2524 
L 109.558395 71.653333 
L 109.355283 72.061975 
L 109.152171 72.47827 
L 108.949058 72.902117 
L 108.745946 73.333463 
L 108.542834 73.772218 
L 108.339722 74.218283 
L 108.13661 74.671602 
L 107.933498 75.132086 
L 107.730386 75.599648 
L 107.527274 76.07422 
L 107.324161 76.555692 
L 107.121049 77.043998 
L 106.917937 77.539037 
L 106.714825 78.040733 
L 106.511708 78.549007 
L 106.308596 79.063715 
L 106.105483 79.584815 
L 105.902371 80.112205 
L 105.699259 80.645774 
L 105.496147 81.185469 
L 105.293034 81.731144 
L 105.089922 82.282733 
L 104.886812 82.840159 
L 104.683698 83.403277 
L 104.480586 83.972033 
L 104.277474 84.546315 
L 104.074362 85.126013 
L 103.87125 85.711027 
L 103.668138 86.30128 
L 103.465026 86.89665 
L 103.261915 87.497036 
L 103.058802 88.102373 
L 102.855689 88.712506 
L 102.652577 89.327368 
L 102.449465 89.946848 
L 102.246353 90.570836 
L 102.043241 91.199242 
L 101.840129 91.831946 
L 101.637018 92.468848 
L 101.433905 93.109869 
L 101.230793 93.754889 
L 101.027681 94.403774 
L 100.824569 95.056457 
L 100.621457 95.712818 
L 100.418344 96.372756 
L 100.215232 97.036182 
L 100.012122 97.702953 
L 99.809008 98.373003 
L 99.605896 99.046187 
L 99.402784 99.722438 
L 99.199672 100.401636 
L 98.99656 101.083669 
L 98.793448 101.768448 
L 98.590336 102.455842 
L 98.387225 103.14576 
L 98.184112 103.838137 
L 97.980999 104.532796 
L 97.777887 105.22968 
L 97.574775 105.928681 
L 97.371663 106.629685 
L 97.168551 107.332595 
L 96.965439 108.03731 
L 96.762329 108.743708 
L 96.559215 109.451723 
L 96.356103 110.161234 
L 96.152991 110.872129 
L 95.949879 111.584319 
L 95.746767 112.297706 
L 95.543655 113.012189 
L 95.340542 113.727658 
L 95.137426 114.444035 
L 94.934312 115.16121 
L 94.7312 115.879082 
L 94.528088 116.597552 
L 94.324976 117.316532 
L 94.121864 118.035921 
L 93.918752 118.755621 
L 93.71564 119.475559 
L 93.512529 120.195596 
L 93.309416 120.915695 
L 93.106303 121.635732 
L 92.903191 122.355603 
L 92.700079 123.075253 
L 92.496967 123.794554 
L 92.293855 124.513456 
L 92.090743 125.231832 
L 91.887631 125.949638 
L 91.684519 126.666741 
L 91.481407 127.383084 
L 91.278295 128.098575 
L 91.075183 128.813125 
L 90.872071 129.526667 
L 90.668958 130.239101 
L 90.465846 130.95035 
L 90.262734 131.660332 
L 90.059622 132.368978 
L 89.85651 133.076207 
L 89.653398 133.781941 
L 89.450286 134.486091 
L 89.247174 135.188591 
L 89.044062 135.889368 
L 88.84095 136.588346 
L 88.637838 137.285458 
L 88.434726 137.980626 
L 88.231614 138.673784 
L 88.028501 139.36486 
L 87.825389 140.053787 
L 87.622277 140.740494 
L 87.419165 141.424919 
L 87.216053 142.107002 
L 87.012941 142.786675 
L 86.809829 143.463874 
L 86.606717 144.138531 
L 86.403605 144.81059 
L 86.200493 145.480009 
L 85.997381 146.146702 
L 85.794269 146.810627 
L 85.591156 147.471728 
L 85.388038 148.12996 
L 85.184926 148.785241 
L 84.981814 149.437531 
L 84.778702 150.086787 
L 84.57559 150.732948 
L 84.372478 151.375968 
L 84.169366 152.015804 
L 83.966254 152.652407 
L 83.763142 153.28572 
L 83.56003 153.915716 
L 83.356917 154.542345 
L 83.153805 155.165552 
L 82.950693 155.785309 
L 82.747581 156.401578 
L 82.544469 157.014307 
L 82.341357 157.623476 
L 82.138245 158.22903 
L 81.935133 158.830939 
L 81.732021 159.429171 
L 81.528909 160.023694 
L 81.325797 160.614467 
L 81.122685 161.201469 
L 80.919573 161.784672 
L 80.71646 162.364021 
L 80.513348 162.939522 
L 80.310236 163.51113 
L 80.107124 164.078819 
L 79.904012 164.642558 
L 79.7009 165.202354 
L 79.497788 165.758152 
L 79.294676 166.309929 
L 79.091564 166.857686 
L 78.888452 167.401384 
L 78.68534 167.941023 
L 78.482228 168.476576 
L 78.279115 169.008014 
L 78.076003 169.535345 
L 77.872891 170.058532 
L 77.669779 170.57758 
L 77.466667 171.09246 
L 77.263555 171.603176 
L 77.060443 172.109703 
L 76.857331 172.612044 
L 76.654219 173.110176 
L 76.451107 173.604107 
L 76.247995 174.093811 
L 76.044883 174.579293 
L 75.84177 175.060554 
L 75.638652 175.537591 
L 75.43554 176.010374 
L 75.232428 176.478927 
L 75.029316 176.943224 
L 74.826204 177.403285 
L 74.623092 177.859113 
L 74.41998 178.310688 
L 74.216868 178.758026 
L 74.013756 179.201122 
L 73.810644 179.639985 
L 73.607532 180.074618 
L 73.404419 180.505022 
L 73.201307 180.931204 
L 72.998195 181.353169 
L 72.795083 181.770926 
L 72.591971 182.184474 
L 72.388859 182.593832 
L 72.185747 182.999016 
L 71.982635 183.400007 
L 71.779523 183.796842 
L 71.576411 184.189519 
L 71.373299 184.578048 
L 71.170187 184.962452 
L 70.967074 185.34273 
L 70.763962 185.71891 
L 70.56085 186.090995 
L 70.357738 186.458999 
L 70.154626 186.822947 
L 69.951514 187.182839 
L 69.748402 187.538706 
L 69.54529 187.890554 
L 69.342178 188.23841 
L 69.139066 188.582279 
L 68.935954 188.922187 
L 68.732842 189.258156 
L 68.529729 189.590196 
L 68.326617 189.918334 
L 68.123505 190.242584 
L 67.920393 190.562973 
L 67.717281 190.879514 
L 67.514163 191.192234 
L 67.311051 191.501149 
L 67.107939 191.806289 
L 66.904827 192.107666 
L 66.701715 192.405313 
L 66.498603 192.699243 
L 66.295491 192.989481 
L 66.092378 193.276058 
L 65.889266 193.558997 
L 65.686154 193.838317 
L 65.483042 194.114038 
L 65.27993 194.386197 
L 65.076818 194.654809 
L 64.873706 194.919908 
L 64.670594 195.181518 
L 64.467482 195.439659 
L 64.26437 195.694356 
L 64.061258 195.945643 
L 63.858146 196.193539 
L 63.655033 196.438078 
L 63.451921 196.679281 
L 63.248809 196.917179 
L 63.045697 197.1518 
L 62.842585 197.383161 
L 62.639473 197.611304 
L 62.436361 197.836242 
L 62.233249 198.058018 
L 62.030137 198.276644 
L 61.827025 198.492166 
L 61.623913 198.704591 
L 61.420801 198.913963 
L 61.217688 199.120308 
L 61.014576 199.323648 
L 60.811464 199.524018 
L 60.608352 199.721441 
L 60.40524 199.915949 
L 60.202128 200.107568 
L 59.999016 200.296324 
L 59.795904 200.482253 
L 59.592792 200.665381 
L 59.38968 200.845734 
L 59.186568 201.023343 
L 58.983456 201.198234 
L 58.780343 201.370434 
L 58.577231 201.539976 
L 58.374119 201.706891 
L 58.171007 201.8712 
L 57.967895 202.032932 
L 57.764783 202.19212 
L 57.561671 202.348789 
L 57.358559 202.50297 
L 57.155447 202.654692 
L 56.952335 202.80398 
L 56.749223 202.950859 
L 56.546111 203.095363 
L 56.342998 203.237517 
L 56.139886 203.37735 
L 55.936774 203.514888 
L 55.733662 203.65016 
L 55.53055 203.783196 
L 55.327438 203.914014 
L 55.124326 204.042654 
L 54.921214 204.16913 
L 54.718102 204.293481 
L 54.51499 204.415724 
L 54.311878 204.535894 
L 54.108766 204.654009 
L 53.905654 204.770102 
L 53.702541 204.884198 
L 53.499429 204.996321 
L 53.296317 205.1065 
L 53.093205 205.214757 
L 52.890093 205.321121 
L 52.686981 205.425615 
L 52.483869 205.528264 
L 52.280757 205.629096 
L 52.077645 205.728135 
L 51.874533 205.825405 
L 51.671421 205.920931 
L 51.468309 206.014737 
L 51.26519 206.106847 
L 51.062078 206.197285 
L 50.858966 206.286077 
L 50.655854 206.373242 
L 50.452742 206.458807 
L 50.24963 206.542795 
L 50.046518 206.62523 
L 49.843406 206.706132 
L 49.640294 206.785525 
L 49.437182 206.863432 
L 49.23407 206.939874 
L 49.030957 207.014875 
L 48.827845 207.088457 
L 48.624733 207.160638 
L 48.421621 207.231444 
L 48.218509 207.300894 
L 48.015397 207.369008 
L 47.812285 207.435809 
L 47.609173 207.501316 
L 47.406061 207.565551 
L 47.202949 207.628532 
L 46.999837 207.690281 
L 46.796725 207.750817 
L 46.593613 207.810159 
L 46.390494 207.868328 
L 46.187382 207.925341 
L 45.98427 207.981218 
L 45.781158 208.035978 
L 45.578046 208.089638 
L 45.374934 208.142219 
L 45.171822 208.193736 
L 44.96871 208.244208 
L 44.765598 208.293653 
L 44.562486 208.342089 
L 44.359374 208.389533 
L 44.156261 208.436001 
L 43.953149 208.48151 
L 43.750037 208.526077 
L 43.546925 208.569719 
L 43.343813 208.612451 
L 43.140701 208.65429 
L 42.937589 208.69525 
L 42.734477 208.735349 
L 42.531365 208.7746 
L 42.328253 208.81302 
L 42.125141 208.850624 
L 41.922029 208.887425 
L 41.718916 208.923438 
L 41.515804 208.958679 
L 41.312692 208.993161 
L 41.10958 209.026897 
L 40.906468 209.059902 
L 40.703356 209.09219 
L 40.500244 209.123774 
L 40.297132 209.154665 
L 40.09402 209.18488 
L 39.890908 209.214428 
L 39.687796 209.243324 
L 39.484684 209.271579 
L 39.281572 209.299206 
L 39.078459 209.326217 
L 38.875347 209.352624 
L 38.672235 209.378439 
L 38.469123 209.403672 
L 38.266011 209.428336 
L 38.062899 209.452441 
L 37.859787 209.475999 
L 37.656675 209.49902 
L 37.453563 209.521515 
L 37.250451 209.543495 
L 37.047339 209.564969 
L 36.844227 209.585948 
L 36.641114 209.606442 
L 36.438002 209.626461 
L 36.23489 209.646013 
L 36.031778 209.66511 
L 35.828666 209.68376 
L 35.625554 209.701972 
L 35.422442 209.719756 
L 35.21933 209.737119 
L 35.016218 209.754072 
L 34.813106 209.770622 
L 34.609994 209.786778 
L 34.406882 209.802548 
L 34.203769 209.817941 
L 34.000657 209.832964 
L 33.797545 209.847625 
L 33.594433 209.861932 
L 33.391321 209.875893 
L 33.188209 209.889514 
L 32.985097 209.902804 
L 32.781985 209.915769 
L 32.578873 209.928417 
L 32.375761 209.940754 
L 32.172649 209.952787 
L 31.969537 209.964523 
L 31.766418 209.975969 
L 31.563306 209.98713 
L 31.360194 209.998013 
L 31.157082 210.008625 
L 30.95397 210.01897 
L 30.750858 210.029057 
L 30.547746 210.038889 
L 30.344634 210.048473 
L 30.141522 210.057815 
L 29.93841 210.066919 
L 29.735298 210.075792 
L 29.532186 210.084439 
L 29.329073 210.092864 
L 29.125961 210.101074 
L 28.922849 210.109072 
L 28.719737 210.116864 
L 28.516625 210.124455 
L 28.313513 210.131849 
L 28.110401 210.139051 
L 27.907289 210.146065 
L 27.704177 210.152896 
L 27.501065 210.159549 
L 27.297953 210.166026 
L 27.094841 210.172333 
L 26.891728 210.178474 
L 26.688616 210.184453 
L 26.485504 210.190272 
L 26.282392 210.195937 
L 26.07928 210.201452 
L 25.876168 210.206818 
L 25.673056 210.212041 
L 25.469944 210.217124 
L 25.266832 210.22207 
L 25.06372 210.226882 
L 24.860608 210.231565 
L 24.657496 210.23612 
L 24.454383 210.240551 
L 24.251271 210.244862 
L 24.048159 210.249055 
L 23.845047 210.253133 
L 23.641929 210.257099 
L 23.438817 210.260955 
L 23.235705 210.264706 
L 23.032593 210.268353 
L 22.829481 210.271898 
L 22.626369 210.275345 
L 22.423257 210.278696 
L 22.220145 210.281954 
L 22.017032 210.28512 
L 21.81392 210.288198 
L 21.610808 210.291188 
L 21.407696 210.294095 
L 21.204584 210.296919 
L 21.001472 210.299664 
L 20.79836 210.30233 
L 20.595248 210.304921 
L 20.392136 210.307438 
L 20.189024 210.309883 
L 19.985912 210.312257 
L 19.7828 210.314564 
L 19.579687 210.316804 
L 19.376575 210.31898 
L 19.173463 210.321092 
L 18.970351 210.323144 
L 18.767239 210.325135 
L 18.564127 210.327069 
L 18.361015 210.328946 
L 18.157903 210.330769 
L 17.954791 210.332538 
L 17.751679 210.334255 
L 17.548567 210.335921 
L 17.345455 210.337538 
z
" style="fill:#1f77b4;fill-opacity:0.5;"/>
   </g>
   <g id="line2d_6">
    <path clip-path="url(#p88f92b63fe)" d="M 17.345455 210.337538 
L 27.907289 210.146065 
L 34.203769 209.817941 
L 38.875347 209.352624 
L 42.531365 208.7746 
L 45.781158 208.035978 
L 48.624733 207.160638 
L 51.26519 206.106847 
L 53.702541 204.884198 
L 55.936774 203.514888 
L 58.171007 201.8712 
L 60.202128 200.107568 
L 62.233249 198.058018 
L 64.26437 195.694356 
L 66.295491 192.989481 
L 68.326617 189.918334 
L 70.357738 186.458999 
L 72.591971 182.184474 
L 74.826204 177.403285 
L 77.060443 172.109703 
L 79.497788 165.758152 
L 82.138245 158.22903 
L 84.981814 149.437531 
L 88.434726 137.980626 
L 93.309416 120.915695 
L 99.199672 100.401636 
L 102.246353 90.570836 
L 104.683698 83.403277 
L 106.714825 78.040733 
L 108.542834 73.772218 
L 110.16773 70.47398 
L 111.792627 67.683019 
L 113.214412 65.683281 
L 114.433085 64.312736 
L 115.651757 63.269231 
L 116.667323 62.654712 
L 117.682884 62.275276 
L 118.698444 62.132727 
L 119.714004 62.227775 
L 120.729565 62.559942 
L 121.745125 63.127646 
L 122.760686 63.928161 
L 123.979365 65.190634 
L 125.198037 66.774155 
L 126.619821 69.012873 
L 128.041606 71.653333 
L 129.666502 75.132086 
L 131.494511 79.584804 
L 133.525638 85.126013 
L 135.962983 92.468859 
L 138.806552 101.768448 
L 142.8688 115.879082 
L 150.587059 142.786675 
L 154.03997 153.915716 
L 156.88354 162.364021 
L 159.523997 169.535345 
L 161.961342 175.537574 
L 164.398693 180.931204 
L 166.632926 185.34273 
L 168.867158 189.258156 
L 171.101391 192.699235 
L 173.132518 195.439659 
L 175.163639 197.836242 
L 177.19476 199.915949 
L 179.428993 201.8712 
L 181.663226 203.514888 
L 183.897459 204.884198 
L 186.334804 206.106845 
L 188.772155 207.088457 
L 191.615724 207.981217 
L 194.662411 208.69525 
L 198.115316 209.271579 
L 202.177558 209.719756 
L 207.25536 210.048473 
L 214.364289 210.264706 
L 220.254545 210.337538 
L 220.254545 210.337538 
" style="fill:none;stroke:#1f77b4;stroke-linecap:round;stroke-width:1.5;"/>
   </g>
   <g id="patch_3">
    <path d="M 7.2 217.8 
L 7.2 54.72 
" style="fill:none;"/>
   </g>
   <g id="patch_4">
    <path d="M 230.4 217.8 
L 230.4 54.72 
" style="fill:none;"/>
   </g>
   <g id="patch_5">
    <path d="M 7.2 217.8 
L 230.4 217.8 
" style="fill:none;"/>
   </g>
   <g id="patch_6">
    <path d="M 7.2 54.72 
L 230.4 54.72 
" style="fill:none;"/>
   </g>
  </g>
  <g id="text_7">
   <!-- Prior $p(\theta)$ -->
   <g style="fill:#262626;" transform="translate(48.9 30.3)scale(0.3 -0.3)">
    <defs>
     <path d="M 494 0 
L 494 4581 
L 2222 4581 
Q 2678 4581 2919 4538 
Q 3256 4481 3484 4323 
Q 3713 4166 3852 3881 
Q 3991 3597 3991 3256 
Q 3991 2672 3619 2267 
Q 3247 1863 2275 1863 
L 1100 1863 
L 1100 0 
L 494 0 
z
M 1100 2403 
L 2284 2403 
Q 2872 2403 3119 2622 
Q 3366 2841 3366 3238 
Q 3366 3525 3220 3729 
Q 3075 3934 2838 4000 
Q 2684 4041 2272 4041 
L 1100 4041 
L 1100 2403 
z
" id="ArialMT-50" transform="scale(0.015625)"/>
     <path d="M 3175 2156 
Q 3175 2616 2975 2859 
Q 2775 3103 2400 3103 
Q 2144 3103 1911 2972 
Q 1678 2841 1497 2591 
Q 1319 2344 1212 1994 
Q 1106 1644 1106 1300 
Q 1106 863 1306 627 
Q 1506 391 1875 391 
Q 2147 391 2380 519 
Q 2613 647 2778 891 
Q 2956 1147 3065 1494 
Q 3175 1841 3175 2156 
z
M 1394 2969 
Q 1625 3272 1939 3428 
Q 2253 3584 2638 3584 
Q 3175 3584 3472 3232 
Q 3769 2881 3769 2247 
Q 3769 1728 3584 1258 
Q 3400 788 3053 416 
Q 2822 169 2531 39 
Q 2241 -91 1919 -91 
Q 1547 -91 1294 64 
Q 1041 219 916 525 
L 556 -1331 
L -19 -1331 
L 922 3500 
L 1497 3500 
L 1394 2969 
z
" id="DejaVuSans-Oblique-70" transform="scale(0.015625)"/>
     <path d="M 1984 4856 
Q 1566 4138 1362 3434 
Q 1159 2731 1159 2009 
Q 1159 1288 1364 580 
Q 1569 -128 1984 -844 
L 1484 -844 
Q 1016 -109 783 600 
Q 550 1309 550 2009 
Q 550 2706 781 3412 
Q 1013 4119 1484 4856 
L 1984 4856 
z
" id="DejaVuSans-28" transform="scale(0.015625)"/>
     <path d="M 513 4856 
L 1013 4856 
Q 1481 4119 1714 3412 
Q 1947 2706 1947 2009 
Q 1947 1309 1714 600 
Q 1481 -109 1013 -844 
L 513 -844 
Q 928 -128 1133 580 
Q 1338 1288 1338 2009 
Q 1338 2731 1133 3434 
Q 928 4138 513 4856 
z
" id="DejaVuSans-29" transform="scale(0.015625)"/>
    </defs>
    <use transform="translate(0 0.234375)" xlink:href="#ArialMT-50"/>
    <use transform="translate(66.699219 0.234375)" xlink:href="#ArialMT-72"/>
    <use transform="translate(100 0.234375)" xlink:href="#ArialMT-69"/>
    <use transform="translate(122.216797 0.234375)" xlink:href="#ArialMT-6f"/>
    <use transform="translate(177.832031 0.234375)" xlink:href="#ArialMT-72"/>
    <use transform="translate(211.132812 0.234375)" xlink:href="#ArialMT-20"/>
    <use transform="translate(238.916016 0.234375)" xlink:href="#DejaVuSans-Oblique-70"/>
    <use transform="translate(302.392578 0.234375)" xlink:href="#DejaVuSans-28"/>
    <use transform="translate(341.40625 0.234375)" xlink:href="#DejaVuSans-Oblique-3b8"/>
    <use transform="translate(402.587891 0.234375)" xlink:href="#DejaVuSans-29"/>
   </g>
  </g>
 </g>
 <defs>
  <clipPath id="p88f92b63fe">
   <rect height="163.08" width="223.2" x="7.2" y="54.72"/>
  </clipPath>
 </defs>
</svg>
