<?xml version="1.0" encoding="utf-8" standalone="no"?>
<!DOCTYPE svg PUBLIC "-//W3C//DTD SVG 1.1//EN"
  "http://www.w3.org/Graphics/SVG/1.1/DTD/svg11.dtd">
<svg height="119.362797pt" version="1.1" viewBox="0 0 632.059125 119.362797" width="632.059125pt" xmlns="http://www.w3.org/2000/svg" xmlns:xlink="http://www.w3.org/1999/xlink">
 <metadata>
  <rdf:RDF xmlns:cc="http://creativecommons.org/ns#" xmlns:dc="http://purl.org/dc/elements/1.1/" xmlns:rdf="http://www.w3.org/1999/02/22-rdf-syntax-ns#">
   <cc:Work>
    <dc:type rdf:resource="http://purl.org/dc/dcmitype/StillImage"/>
    <dc:date>2021-10-05T15:55:40.056867</dc:date>
    <dc:format>image/svg+xml</dc:format>
    <dc:creator>
     <cc:Agent>
      <dc:title>Matplotlib v3.4.3, https://matplotlib.org/</dc:title>
     </cc:Agent>
    </dc:creator>
   </cc:Work>
  </rdf:RDF>
 </metadata>
 <defs>
  <style type="text/css">*{stroke-linecap:butt;stroke-linejoin:round;}</style>
 </defs>
 <g id="figure_1">
  <g id="patch_1">
   <path d="M 0 119.362797 
L 632.059125 119.362797 
L 632.059125 0 
L 0 0 
z
" style="fill:none;"/>
  </g>
  <g id="axes_1">
   <g id="patch_2">
    <path d="M 55.838125 91.516 
L 156.893526 91.516 
L 156.893526 34.416 
L 55.838125 34.416 
z
" style="fill:none;"/>
   </g>
   <g id="matplotlib.axis_1">
    <g id="xtick_1"/>
    <g id="xtick_2"/>
    <g id="xtick_3"/>
   </g>
   <g id="matplotlib.axis_2">
    <g id="ytick_1">
     <g id="line2d_1">
      <path clip-path="url(#p588b45b837)" d="M 55.838125 91.516 
L 156.893526 91.516 
" style="fill:none;stroke:#cccccc;stroke-linecap:round;"/>
     </g>
     <g id="text_1">
      <text style="fill:#262626;font-family:DejaVu Sans;font-size:11px;font-stretch:normal;font-style:normal;font-weight:normal;text-anchor:end;" transform="rotate(-0, 46.338125, 95.695141)" x="46.338125" y="95.695141">0.00</text>
     </g>
    </g>
    <g id="ytick_2">
     <g id="line2d_2">
      <path clip-path="url(#p588b45b837)" d="M 55.838125 79.057964 
L 156.893526 79.057964 
" style="fill:none;stroke:#cccccc;stroke-linecap:round;"/>
     </g>
     <g id="text_2">
      <text style="fill:#262626;font-family:DejaVu Sans;font-size:11px;font-stretch:normal;font-style:normal;font-weight:normal;text-anchor:end;" transform="rotate(-0, 46.338125, 83.237105)" x="46.338125" y="83.237105">0.02</text>
     </g>
    </g>
    <g id="ytick_3">
     <g id="line2d_3">
      <path clip-path="url(#p588b45b837)" d="M 55.838125 66.599929 
L 156.893526 66.599929 
" style="fill:none;stroke:#cccccc;stroke-linecap:round;"/>
     </g>
     <g id="text_3">
      <text style="fill:#262626;font-family:DejaVu Sans;font-size:11px;font-stretch:normal;font-style:normal;font-weight:normal;text-anchor:end;" transform="rotate(-0, 46.338125, 70.779069)" x="46.338125" y="70.779069">0.04</text>
     </g>
    </g>
    <g id="ytick_4">
     <g id="line2d_4">
      <path clip-path="url(#p588b45b837)" d="M 55.838125 54.141893 
L 156.893526 54.141893 
" style="fill:none;stroke:#cccccc;stroke-linecap:round;"/>
     </g>
     <g id="text_4">
      <text style="fill:#262626;font-family:DejaVu Sans;font-size:11px;font-stretch:normal;font-style:normal;font-weight:normal;text-anchor:end;" transform="rotate(-0, 46.338125, 58.321033)" x="46.338125" y="58.321033">0.06</text>
     </g>
    </g>
    <g id="ytick_5">
     <g id="line2d_5">
      <path clip-path="url(#p588b45b837)" d="M 55.838125 41.683857 
L 156.893526 41.683857 
" style="fill:none;stroke:#cccccc;stroke-linecap:round;"/>
     </g>
     <g id="text_5">
      <text style="fill:#262626;font-family:DejaVu Sans;font-size:11px;font-stretch:normal;font-style:normal;font-weight:normal;text-anchor:end;" transform="rotate(-0, 46.338125, 45.862998)" x="46.338125" y="45.862998">0.08</text>
     </g>
    </g>
    <g id="text_6">
     <text style="fill:#262626;font-family:DejaVu Sans;font-size:11px;font-stretch:normal;font-style:normal;font-weight:normal;text-anchor:middle;" transform="rotate(-90, 15.558281, 62.966)" x="15.558281" y="62.966">MMD</text>
    </g>
   </g>
   <g id="PathCollection_1">
    <defs>
     <path d="M 0 0.845987 
C 0.224358 0.845987 0.439558 0.756849 0.598203 0.598203 
C 0.756849 0.439558 0.845987 0.224358 0.845987 -0 
C 0.845987 -0.224358 0.756849 -0.439558 0.598203 -0.598203 
C 0.439558 -0.756849 0.224358 -0.845987 0 -0.845987 
C -0.224358 -0.845987 -0.439558 -0.756849 -0.598203 -0.598203 
C -0.756849 -0.439558 -0.845987 -0.224358 -0.845987 0 
C -0.845987 0.224358 -0.756849 0.439558 -0.598203 0.598203 
C -0.439558 0.756849 -0.224358 0.845987 0 0.845987 
z
" id="C0_0_7e4798e539"/>
    </defs>
    <g clip-path="url(#p588b45b837)">
     <use style="stroke:#000000;stroke-width:1.0125;" x="72.680692" xlink:href="#C0_0_7e4798e539" y="74.500567"/>
    </g>
    <g clip-path="url(#p588b45b837)">
     <use style="stroke:#000000;stroke-width:1.0125;" x="106.365826" xlink:href="#C0_0_7e4798e539" y="82.535927"/>
    </g>
    <g clip-path="url(#p588b45b837)">
     <use style="stroke:#000000;stroke-width:1.0125;" x="140.050959" xlink:href="#C0_0_7e4798e539" y="90.598942"/>
    </g>
   </g>
   <g id="line2d_6">
    <path clip-path="url(#p588b45b837)" d="M 72.680692 74.500567 
L 106.365826 82.535927 
L 140.050959 90.598942 
" style="fill:none;stroke:#000000;stroke-linecap:round;stroke-width:1.35;"/>
   </g>
   <g id="line2d_7">
    <path clip-path="url(#p588b45b837)" d="M 72.680692 81.349517 
L 72.680692 67.172717 
" style="fill:none;stroke:#000000;stroke-linecap:round;"/>
   </g>
   <g id="line2d_8">
    <path clip-path="url(#p588b45b837)" d="M 70.996435 81.349517 
L 74.364949 81.349517 
" style="fill:none;stroke:#000000;stroke-linecap:round;"/>
   </g>
   <g id="line2d_9">
    <path clip-path="url(#p588b45b837)" d="M 70.996435 67.172717 
L 74.364949 67.172717 
" style="fill:none;stroke:#000000;stroke-linecap:round;"/>
   </g>
   <g id="line2d_10">
    <path clip-path="url(#p588b45b837)" d="M 106.365826 86.162854 
L 106.365826 78.630574 
" style="fill:none;stroke:#000000;stroke-linecap:round;"/>
   </g>
   <g id="line2d_11">
    <path clip-path="url(#p588b45b837)" d="M 104.681569 86.162854 
L 108.050082 86.162854 
" style="fill:none;stroke:#000000;stroke-linecap:round;"/>
   </g>
   <g id="line2d_12">
    <path clip-path="url(#p588b45b837)" d="M 104.681569 78.630574 
L 108.050082 78.630574 
" style="fill:none;stroke:#000000;stroke-linecap:round;"/>
   </g>
   <g id="line2d_13">
    <path clip-path="url(#p588b45b837)" style="fill:none;stroke:#000000;stroke-linecap:round;"/>
   </g>
   <g id="line2d_14">
    <path clip-path="url(#p588b45b837)" style="fill:none;stroke:#000000;stroke-linecap:round;"/>
   </g>
   <g id="line2d_15">
    <path clip-path="url(#p588b45b837)" style="fill:none;stroke:#000000;stroke-linecap:round;"/>
   </g>
   <g id="patch_3">
    <path d="M 55.838125 91.516 
L 156.893526 91.516 
" style="fill:none;stroke:#cccccc;stroke-linecap:square;stroke-linejoin:miter;stroke-width:1.25;"/>
   </g>
   <g id="text_7">
    <text style="fill:#262626;font-family:DejaVu Sans;font-size:11px;font-stretch:normal;font-style:normal;font-weight:normal;text-anchor:middle;" transform="rotate(-0, 106.365826, 28.416)" x="106.365826" y="28.416">SNLE</text>
   </g>
  </g>
  <g id="axes_2">
   <g id="patch_4">
    <path d="M 156.893526 91.516 
L 257.948928 91.516 
L 257.948928 34.416 
L 156.893526 34.416 
z
" style="fill:none;"/>
   </g>
   <g id="matplotlib.axis_3">
    <g id="xtick_4"/>
    <g id="xtick_5"/>
    <g id="xtick_6"/>
   </g>
   <g id="matplotlib.axis_4">
    <g id="ytick_6">
     <g id="line2d_16">
      <path clip-path="url(#pcaa9e65857)" d="M 156.893526 91.516 
L 257.948928 91.516 
" style="fill:none;stroke:#cccccc;stroke-linecap:round;"/>
     </g>
    </g>
    <g id="ytick_7">
     <g id="line2d_17">
      <path clip-path="url(#pcaa9e65857)" d="M 156.893526 79.057964 
L 257.948928 79.057964 
" style="fill:none;stroke:#cccccc;stroke-linecap:round;"/>
     </g>
    </g>
    <g id="ytick_8">
     <g id="line2d_18">
      <path clip-path="url(#pcaa9e65857)" d="M 156.893526 66.599929 
L 257.948928 66.599929 
" style="fill:none;stroke:#cccccc;stroke-linecap:round;"/>
     </g>
    </g>
    <g id="ytick_9">
     <g id="line2d_19">
      <path clip-path="url(#pcaa9e65857)" d="M 156.893526 54.141893 
L 257.948928 54.141893 
" style="fill:none;stroke:#cccccc;stroke-linecap:round;"/>
     </g>
    </g>
    <g id="ytick_10">
     <g id="line2d_20">
      <path clip-path="url(#pcaa9e65857)" d="M 156.893526 41.683857 
L 257.948928 41.683857 
" style="fill:none;stroke:#cccccc;stroke-linecap:round;"/>
     </g>
    </g>
   </g>
   <g id="PathCollection_2">
    <defs>
     <path d="M 0 0.845987 
C 0.224358 0.845987 0.439558 0.756849 0.598203 0.598203 
C 0.756849 0.439558 0.845987 0.224358 0.845987 -0 
C 0.845987 -0.224358 0.756849 -0.439558 0.598203 -0.598203 
C 0.439558 -0.756849 0.224358 -0.845987 0 -0.845987 
C -0.224358 -0.845987 -0.439558 -0.756849 -0.598203 -0.598203 
C -0.756849 -0.439558 -0.845987 -0.224358 -0.845987 0 
C -0.845987 0.224358 -0.756849 0.439558 -0.598203 0.598203 
C -0.439558 0.756849 -0.224358 0.845987 0 0.845987 
z
" id="C1_0_7d560d2a0e"/>
    </defs>
    <g clip-path="url(#pcaa9e65857)">
     <use style="fill:#377eb8;stroke:#377eb8;stroke-width:1.0125;" x="173.736093" xlink:href="#C1_0_7d560d2a0e" y="72.26735"/>
    </g>
    <g clip-path="url(#pcaa9e65857)">
     <use style="fill:#377eb8;stroke:#377eb8;stroke-width:1.0125;" x="207.421227" xlink:href="#C1_0_7d560d2a0e" y="84.532194"/>
    </g>
    <g clip-path="url(#pcaa9e65857)">
     <use style="fill:#377eb8;stroke:#377eb8;stroke-width:1.0125;" x="241.106361" xlink:href="#C1_0_7d560d2a0e" y="89.877845"/>
    </g>
   </g>
   <g id="PathCollection_3">
    <defs>
     <path d="M 0 0.845987 
C 0.224358 0.845987 0.439558 0.756849 0.598203 0.598203 
C 0.756849 0.439558 0.845987 0.224358 0.845987 -0 
C 0.845987 -0.224358 0.756849 -0.439558 0.598203 -0.598203 
C 0.439558 -0.756849 0.224358 -0.845987 0 -0.845987 
C -0.224358 -0.845987 -0.439558 -0.756849 -0.598203 -0.598203 
C -0.756849 -0.439558 -0.845987 -0.224358 -0.845987 0 
C -0.845987 0.224358 -0.756849 0.439558 -0.598203 0.598203 
C -0.439558 0.756849 -0.224358 0.845987 0 0.845987 
z
" id="C2_0_73e60289d2"/>
    </defs>
    <g clip-path="url(#pcaa9e65857)">
     <use style="fill:#377eb8;stroke:#377eb8;stroke-width:1.0125;" x="173.736093" xlink:href="#C2_0_73e60289d2" y="73.307512"/>
    </g>
    <g clip-path="url(#pcaa9e65857)">
     <use style="fill:#377eb8;stroke:#377eb8;stroke-width:1.0125;" x="207.421227" xlink:href="#C2_0_73e60289d2" y="83.443613"/>
    </g>
    <g clip-path="url(#pcaa9e65857)">
     <use style="fill:#377eb8;stroke:#377eb8;stroke-width:1.0125;" x="241.106361" xlink:href="#C2_0_73e60289d2" y="90.027879"/>
    </g>
   </g>
   <g id="line2d_21">
    <path clip-path="url(#pcaa9e65857)" d="M 173.736093 72.26735 
L 207.421227 84.532194 
L 241.106361 89.877845 
" style="fill:none;stroke:#377eb8;stroke-linecap:round;stroke-width:1.35;"/>
   </g>
   <g id="line2d_22">
    <path clip-path="url(#pcaa9e65857)" d="M 173.736093 81.216764 
L 173.736093 59.971913 
" style="fill:none;stroke:#377eb8;stroke-linecap:round;"/>
   </g>
   <g id="line2d_23">
    <path clip-path="url(#pcaa9e65857)" d="M 172.051836 81.216764 
L 175.42035 81.216764 
" style="fill:none;stroke:#377eb8;stroke-linecap:round;"/>
   </g>
   <g id="line2d_24">
    <path clip-path="url(#pcaa9e65857)" d="M 172.051836 59.971913 
L 175.42035 59.971913 
" style="fill:none;stroke:#377eb8;stroke-linecap:round;"/>
   </g>
   <g id="line2d_25">
    <path clip-path="url(#pcaa9e65857)" d="M 207.421227 85.898833 
L 207.421227 83.30707 
" style="fill:none;stroke:#377eb8;stroke-linecap:round;"/>
   </g>
   <g id="line2d_26">
    <path clip-path="url(#pcaa9e65857)" d="M 205.73697 85.898833 
L 209.105484 85.898833 
" style="fill:none;stroke:#377eb8;stroke-linecap:round;"/>
   </g>
   <g id="line2d_27">
    <path clip-path="url(#pcaa9e65857)" d="M 205.73697 83.30707 
L 209.105484 83.30707 
" style="fill:none;stroke:#377eb8;stroke-linecap:round;"/>
   </g>
   <g id="line2d_28">
    <path clip-path="url(#pcaa9e65857)" d="M 241.106361 90.79678 
L 241.106361 88.506707 
" style="fill:none;stroke:#377eb8;stroke-linecap:round;"/>
   </g>
   <g id="line2d_29">
    <path clip-path="url(#pcaa9e65857)" d="M 239.422104 90.79678 
L 242.790617 90.79678 
" style="fill:none;stroke:#377eb8;stroke-linecap:round;"/>
   </g>
   <g id="line2d_30">
    <path clip-path="url(#pcaa9e65857)" d="M 239.422104 88.506707 
L 242.790617 88.506707 
" style="fill:none;stroke:#377eb8;stroke-linecap:round;"/>
   </g>
   <g id="line2d_31">
    <path clip-path="url(#pcaa9e65857)" d="M 173.736093 73.307512 
L 207.421227 83.443613 
L 241.106361 90.027879 
" style="fill:none;stroke:#377eb8;stroke-dasharray:1.35,2.2275;stroke-dashoffset:0;stroke-width:1.35;"/>
   </g>
   <g id="line2d_32">
    <path clip-path="url(#pcaa9e65857)" d="M 173.736093 80.057586 
L 173.736093 66.589034 
" style="fill:none;stroke:#377eb8;stroke-linecap:round;"/>
   </g>
   <g id="line2d_33">
    <path clip-path="url(#pcaa9e65857)" d="M 172.051836 80.057586 
L 175.42035 80.057586 
" style="fill:none;stroke:#377eb8;stroke-linecap:round;"/>
   </g>
   <g id="line2d_34">
    <path clip-path="url(#pcaa9e65857)" d="M 172.051836 66.589034 
L 175.42035 66.589034 
" style="fill:none;stroke:#377eb8;stroke-linecap:round;"/>
   </g>
   <g id="line2d_35">
    <path clip-path="url(#pcaa9e65857)" d="M 207.421227 86.175982 
L 207.421227 80.721703 
" style="fill:none;stroke:#377eb8;stroke-linecap:round;"/>
   </g>
   <g id="line2d_36">
    <path clip-path="url(#pcaa9e65857)" d="M 205.73697 86.175982 
L 209.105484 86.175982 
" style="fill:none;stroke:#377eb8;stroke-linecap:round;"/>
   </g>
   <g id="line2d_37">
    <path clip-path="url(#pcaa9e65857)" d="M 205.73697 80.721703 
L 209.105484 80.721703 
" style="fill:none;stroke:#377eb8;stroke-linecap:round;"/>
   </g>
   <g id="line2d_38">
    <path clip-path="url(#pcaa9e65857)" d="M 241.106361 90.440699 
L 241.106361 89.598123 
" style="fill:none;stroke:#377eb8;stroke-linecap:round;"/>
   </g>
   <g id="line2d_39">
    <path clip-path="url(#pcaa9e65857)" d="M 239.422104 90.440699 
L 242.790617 90.440699 
" style="fill:none;stroke:#377eb8;stroke-linecap:round;"/>
   </g>
   <g id="line2d_40">
    <path clip-path="url(#pcaa9e65857)" d="M 239.422104 89.598123 
L 242.790617 89.598123 
" style="fill:none;stroke:#377eb8;stroke-linecap:round;"/>
   </g>
   <g id="patch_5">
    <path d="M 156.893526 91.516 
L 257.948928 91.516 
" style="fill:none;stroke:#cccccc;stroke-linecap:square;stroke-linejoin:miter;stroke-width:1.25;"/>
   </g>
   <g id="text_8">
    <text style="fill:#262626;font-family:DejaVu Sans;font-size:11px;font-stretch:normal;font-style:normal;font-weight:normal;text-anchor:middle;" transform="rotate(-0, 207.421227, 28.416)" x="207.421227" y="28.416">SNPLA</text>
   </g>
  </g>
  <g id="axes_3">
   <g id="patch_6">
    <path d="M 257.948928 91.516 
L 359.004329 91.516 
L 359.004329 34.416 
L 257.948928 34.416 
z
" style="fill:none;"/>
   </g>
   <g id="matplotlib.axis_5">
    <g id="xtick_7"/>
    <g id="xtick_8"/>
    <g id="xtick_9"/>
   </g>
   <g id="matplotlib.axis_6">
    <g id="ytick_11">
     <g id="line2d_41">
      <path clip-path="url(#p2b2e48c050)" d="M 257.948928 91.516 
L 359.004329 91.516 
" style="fill:none;stroke:#cccccc;stroke-linecap:round;"/>
     </g>
    </g>
    <g id="ytick_12">
     <g id="line2d_42">
      <path clip-path="url(#p2b2e48c050)" d="M 257.948928 79.057964 
L 359.004329 79.057964 
" style="fill:none;stroke:#cccccc;stroke-linecap:round;"/>
     </g>
    </g>
    <g id="ytick_13">
     <g id="line2d_43">
      <path clip-path="url(#p2b2e48c050)" d="M 257.948928 66.599929 
L 359.004329 66.599929 
" style="fill:none;stroke:#cccccc;stroke-linecap:round;"/>
     </g>
    </g>
    <g id="ytick_14">
     <g id="line2d_44">
      <path clip-path="url(#p2b2e48c050)" d="M 257.948928 54.141893 
L 359.004329 54.141893 
" style="fill:none;stroke:#cccccc;stroke-linecap:round;"/>
     </g>
    </g>
    <g id="ytick_15">
     <g id="line2d_45">
      <path clip-path="url(#p2b2e48c050)" d="M 257.948928 41.683857 
L 359.004329 41.683857 
" style="fill:none;stroke:#cccccc;stroke-linecap:round;"/>
     </g>
    </g>
   </g>
   <g id="PathCollection_4">
    <defs>
     <path d="M 0 0.845987 
C 0.224358 0.845987 0.439558 0.756849 0.598203 0.598203 
C 0.756849 0.439558 0.845987 0.224358 0.845987 -0 
C 0.845987 -0.224358 0.756849 -0.439558 0.598203 -0.598203 
C 0.439558 -0.756849 0.224358 -0.845987 0 -0.845987 
C -0.224358 -0.845987 -0.439558 -0.756849 -0.598203 -0.598203 
C -0.756849 -0.439558 -0.845987 -0.224358 -0.845987 0 
C -0.845987 0.224358 -0.756849 0.439558 -0.598203 0.598203 
C -0.439558 0.756849 -0.224358 0.845987 0 0.845987 
z
" id="C3_0_38cbe023e1"/>
    </defs>
    <g clip-path="url(#p2b2e48c050)">
     <use style="fill:#984ea3;stroke:#984ea3;stroke-width:1.0125;" x="274.791494" xlink:href="#C3_0_38cbe023e1" y="68.048246"/>
    </g>
    <g clip-path="url(#p2b2e48c050)">
     <use style="fill:#984ea3;stroke:#984ea3;stroke-width:1.0125;" x="308.476628" xlink:href="#C3_0_38cbe023e1" y="83.965928"/>
    </g>
    <g clip-path="url(#p2b2e48c050)">
     <use style="fill:#984ea3;stroke:#984ea3;stroke-width:1.0125;" x="342.161762" xlink:href="#C3_0_38cbe023e1" y="90.282777"/>
    </g>
   </g>
   <g id="PathCollection_5">
    <defs>
     <path d="M 0 0.845987 
C 0.224358 0.845987 0.439558 0.756849 0.598203 0.598203 
C 0.756849 0.439558 0.845987 0.224358 0.845987 -0 
C 0.845987 -0.224358 0.756849 -0.439558 0.598203 -0.598203 
C 0.439558 -0.756849 0.224358 -0.845987 0 -0.845987 
C -0.224358 -0.845987 -0.439558 -0.756849 -0.598203 -0.598203 
C -0.756849 -0.439558 -0.845987 -0.224358 -0.845987 0 
C -0.845987 0.224358 -0.756849 0.439558 -0.598203 0.598203 
C -0.439558 0.756849 -0.224358 0.845987 0 0.845987 
z
" id="C4_0_3c204810a9"/>
    </defs>
    <g clip-path="url(#p2b2e48c050)">
     <use style="fill:#984ea3;stroke:#984ea3;stroke-width:1.0125;" x="274.791494" xlink:href="#C4_0_3c204810a9" y="70.727618"/>
    </g>
    <g clip-path="url(#p2b2e48c050)">
     <use style="fill:#984ea3;stroke:#984ea3;stroke-width:1.0125;" x="308.476628" xlink:href="#C4_0_3c204810a9" y="82.871644"/>
    </g>
    <g clip-path="url(#p2b2e48c050)">
     <use style="fill:#984ea3;stroke:#984ea3;stroke-width:1.0125;" x="342.161762" xlink:href="#C4_0_3c204810a9" y="87.86216"/>
    </g>
   </g>
   <g id="line2d_46">
    <path clip-path="url(#p2b2e48c050)" d="M 274.791494 68.048246 
L 308.476628 83.965928 
L 342.161762 90.282777 
" style="fill:none;stroke:#984ea3;stroke-linecap:round;stroke-width:1.35;"/>
   </g>
   <g id="line2d_47">
    <path clip-path="url(#p2b2e48c050)" d="M 274.791494 78.020796 
L 274.791494 55.820241 
" style="fill:none;stroke:#984ea3;stroke-linecap:round;"/>
   </g>
   <g id="line2d_48">
    <path clip-path="url(#p2b2e48c050)" d="M 273.107238 78.020796 
L 276.475751 78.020796 
" style="fill:none;stroke:#984ea3;stroke-linecap:round;"/>
   </g>
   <g id="line2d_49">
    <path clip-path="url(#p2b2e48c050)" d="M 273.107238 55.820241 
L 276.475751 55.820241 
" style="fill:none;stroke:#984ea3;stroke-linecap:round;"/>
   </g>
   <g id="line2d_50">
    <path clip-path="url(#p2b2e48c050)" d="M 308.476628 86.740976 
L 308.476628 80.494952 
" style="fill:none;stroke:#984ea3;stroke-linecap:round;"/>
   </g>
   <g id="line2d_51">
    <path clip-path="url(#p2b2e48c050)" d="M 306.792372 86.740976 
L 310.160885 86.740976 
" style="fill:none;stroke:#984ea3;stroke-linecap:round;"/>
   </g>
   <g id="line2d_52">
    <path clip-path="url(#p2b2e48c050)" d="M 306.792372 80.494952 
L 310.160885 80.494952 
" style="fill:none;stroke:#984ea3;stroke-linecap:round;"/>
   </g>
   <g id="line2d_53">
    <path clip-path="url(#p2b2e48c050)" d="M 342.161762 90.695073 
L 342.161762 89.744722 
" style="fill:none;stroke:#984ea3;stroke-linecap:round;"/>
   </g>
   <g id="line2d_54">
    <path clip-path="url(#p2b2e48c050)" d="M 340.477505 90.695073 
L 343.846019 90.695073 
" style="fill:none;stroke:#984ea3;stroke-linecap:round;"/>
   </g>
   <g id="line2d_55">
    <path clip-path="url(#p2b2e48c050)" d="M 340.477505 89.744722 
L 343.846019 89.744722 
" style="fill:none;stroke:#984ea3;stroke-linecap:round;"/>
   </g>
   <g id="line2d_56">
    <path clip-path="url(#p2b2e48c050)" d="M 274.791494 70.727618 
L 308.476628 82.871644 
L 342.161762 87.86216 
" style="fill:none;stroke:#984ea3;stroke-dasharray:1.35,2.2275;stroke-dashoffset:0;stroke-width:1.35;"/>
   </g>
   <g id="line2d_57">
    <path clip-path="url(#p2b2e48c050)" d="M 274.791494 77.673487 
L 274.791494 61.697371 
" style="fill:none;stroke:#984ea3;stroke-linecap:round;"/>
   </g>
   <g id="line2d_58">
    <path clip-path="url(#p2b2e48c050)" d="M 273.107238 77.673487 
L 276.475751 77.673487 
" style="fill:none;stroke:#984ea3;stroke-linecap:round;"/>
   </g>
   <g id="line2d_59">
    <path clip-path="url(#p2b2e48c050)" d="M 273.107238 61.697371 
L 276.475751 61.697371 
" style="fill:none;stroke:#984ea3;stroke-linecap:round;"/>
   </g>
   <g id="line2d_60">
    <path clip-path="url(#p2b2e48c050)" d="M 308.476628 85.631592 
L 308.476628 80.295421 
" style="fill:none;stroke:#984ea3;stroke-linecap:round;"/>
   </g>
   <g id="line2d_61">
    <path clip-path="url(#p2b2e48c050)" d="M 306.792372 85.631592 
L 310.160885 85.631592 
" style="fill:none;stroke:#984ea3;stroke-linecap:round;"/>
   </g>
   <g id="line2d_62">
    <path clip-path="url(#p2b2e48c050)" d="M 306.792372 80.295421 
L 310.160885 80.295421 
" style="fill:none;stroke:#984ea3;stroke-linecap:round;"/>
   </g>
   <g id="line2d_63">
    <path clip-path="url(#p2b2e48c050)" d="M 342.161762 90.265826 
L 342.161762 83.544786 
" style="fill:none;stroke:#984ea3;stroke-linecap:round;"/>
   </g>
   <g id="line2d_64">
    <path clip-path="url(#p2b2e48c050)" d="M 340.477505 90.265826 
L 343.846019 90.265826 
" style="fill:none;stroke:#984ea3;stroke-linecap:round;"/>
   </g>
   <g id="line2d_65">
    <path clip-path="url(#p2b2e48c050)" d="M 340.477505 83.544786 
L 343.846019 83.544786 
" style="fill:none;stroke:#984ea3;stroke-linecap:round;"/>
   </g>
   <g id="patch_7">
    <path d="M 257.948928 91.516 
L 359.004329 91.516 
" style="fill:none;stroke:#cccccc;stroke-linecap:square;stroke-linejoin:miter;stroke-width:1.25;"/>
   </g>
   <g id="text_9">
    <text style="fill:#262626;font-family:DejaVu Sans;font-size:11px;font-stretch:normal;font-style:normal;font-weight:normal;text-anchor:middle;" transform="rotate(-0, 308.476628, 28.416)" x="308.476628" y="28.416">SNVI+fKL</text>
   </g>
  </g>
  <g id="axes_4">
   <g id="patch_8">
    <path d="M 359.004329 91.516 
L 460.05973 91.516 
L 460.05973 34.416 
L 359.004329 34.416 
z
" style="fill:none;"/>
   </g>
   <g id="matplotlib.axis_7">
    <g id="xtick_10"/>
    <g id="xtick_11"/>
    <g id="xtick_12"/>
   </g>
   <g id="matplotlib.axis_8">
    <g id="ytick_16">
     <g id="line2d_66">
      <path clip-path="url(#p0fd75ec2a9)" d="M 359.004329 91.516 
L 460.05973 91.516 
" style="fill:none;stroke:#cccccc;stroke-linecap:round;"/>
     </g>
    </g>
    <g id="ytick_17">
     <g id="line2d_67">
      <path clip-path="url(#p0fd75ec2a9)" d="M 359.004329 79.057964 
L 460.05973 79.057964 
" style="fill:none;stroke:#cccccc;stroke-linecap:round;"/>
     </g>
    </g>
    <g id="ytick_18">
     <g id="line2d_68">
      <path clip-path="url(#p0fd75ec2a9)" d="M 359.004329 66.599929 
L 460.05973 66.599929 
" style="fill:none;stroke:#cccccc;stroke-linecap:round;"/>
     </g>
    </g>
    <g id="ytick_19">
     <g id="line2d_69">
      <path clip-path="url(#p0fd75ec2a9)" d="M 359.004329 54.141893 
L 460.05973 54.141893 
" style="fill:none;stroke:#cccccc;stroke-linecap:round;"/>
     </g>
    </g>
    <g id="ytick_20">
     <g id="line2d_70">
      <path clip-path="url(#p0fd75ec2a9)" d="M 359.004329 41.683857 
L 460.05973 41.683857 
" style="fill:none;stroke:#cccccc;stroke-linecap:round;"/>
     </g>
    </g>
   </g>
   <g id="PathCollection_6">
    <defs>
     <path d="M 0 0.845987 
C 0.224358 0.845987 0.439558 0.756849 0.598203 0.598203 
C 0.756849 0.439558 0.845987 0.224358 0.845987 -0 
C 0.845987 -0.224358 0.756849 -0.439558 0.598203 -0.598203 
C 0.439558 -0.756849 0.224358 -0.845987 0 -0.845987 
C -0.224358 -0.845987 -0.439558 -0.756849 -0.598203 -0.598203 
C -0.756849 -0.439558 -0.845987 -0.224358 -0.845987 0 
C -0.845987 0.224358 -0.756849 0.439558 -0.598203 0.598203 
C -0.439558 0.756849 -0.224358 0.845987 0 0.845987 
z
" id="C5_0_a5db995df0"/>
    </defs>
    <g clip-path="url(#p0fd75ec2a9)">
     <use style="fill:#4daf4a;stroke:#4daf4a;stroke-width:1.0125;" x="375.846896" xlink:href="#C5_0_a5db995df0" y="76.847192"/>
    </g>
    <g clip-path="url(#p0fd75ec2a9)">
     <use style="fill:#4daf4a;stroke:#4daf4a;stroke-width:1.0125;" x="409.53203" xlink:href="#C5_0_a5db995df0" y="84.594457"/>
    </g>
    <g clip-path="url(#p0fd75ec2a9)">
     <use style="fill:#4daf4a;stroke:#4daf4a;stroke-width:1.0125;" x="443.217163" xlink:href="#C5_0_a5db995df0" y="89.604555"/>
    </g>
   </g>
   <g id="PathCollection_7">
    <defs>
     <path d="M 0 0.845987 
C 0.224358 0.845987 0.439558 0.756849 0.598203 0.598203 
C 0.756849 0.439558 0.845987 0.224358 0.845987 -0 
C 0.845987 -0.224358 0.756849 -0.439558 0.598203 -0.598203 
C 0.439558 -0.756849 0.224358 -0.845987 0 -0.845987 
C -0.224358 -0.845987 -0.439558 -0.756849 -0.598203 -0.598203 
C -0.756849 -0.439558 -0.845987 -0.224358 -0.845987 0 
C -0.845987 0.224358 -0.756849 0.439558 -0.598203 0.598203 
C -0.439558 0.756849 -0.224358 0.845987 0 0.845987 
z
" id="C6_0_e71b9d6ab6"/>
    </defs>
    <g clip-path="url(#p0fd75ec2a9)">
     <use style="fill:#4daf4a;stroke:#4daf4a;stroke-width:1.0125;" x="375.846896" xlink:href="#C6_0_e71b9d6ab6" y="73.475271"/>
    </g>
    <g clip-path="url(#p0fd75ec2a9)">
     <use style="fill:#4daf4a;stroke:#4daf4a;stroke-width:1.0125;" x="409.53203" xlink:href="#C6_0_e71b9d6ab6" y="82.350681"/>
    </g>
    <g clip-path="url(#p0fd75ec2a9)">
     <use style="fill:#4daf4a;stroke:#4daf4a;stroke-width:1.0125;" x="443.217163" xlink:href="#C6_0_e71b9d6ab6" y="89.533804"/>
    </g>
   </g>
   <g id="line2d_71">
    <path clip-path="url(#p0fd75ec2a9)" d="M 375.846896 76.847192 
L 409.53203 84.594457 
L 443.217163 89.604555 
" style="fill:none;stroke:#4daf4a;stroke-linecap:round;stroke-width:1.35;"/>
   </g>
   <g id="line2d_72">
    <path clip-path="url(#p0fd75ec2a9)" d="M 375.846896 82.229861 
L 375.846896 70.671252 
" style="fill:none;stroke:#4daf4a;stroke-linecap:round;"/>
   </g>
   <g id="line2d_73">
    <path clip-path="url(#p0fd75ec2a9)" d="M 374.162639 82.229861 
L 377.531152 82.229861 
" style="fill:none;stroke:#4daf4a;stroke-linecap:round;"/>
   </g>
   <g id="line2d_74">
    <path clip-path="url(#p0fd75ec2a9)" d="M 374.162639 70.671252 
L 377.531152 70.671252 
" style="fill:none;stroke:#4daf4a;stroke-linecap:round;"/>
   </g>
   <g id="line2d_75">
    <path clip-path="url(#p0fd75ec2a9)" d="M 409.53203 86.904292 
L 409.53203 82.262907 
" style="fill:none;stroke:#4daf4a;stroke-linecap:round;"/>
   </g>
   <g id="line2d_76">
    <path clip-path="url(#p0fd75ec2a9)" d="M 407.847773 86.904292 
L 411.216286 86.904292 
" style="fill:none;stroke:#4daf4a;stroke-linecap:round;"/>
   </g>
   <g id="line2d_77">
    <path clip-path="url(#p0fd75ec2a9)" d="M 407.847773 82.262907 
L 411.216286 82.262907 
" style="fill:none;stroke:#4daf4a;stroke-linecap:round;"/>
   </g>
   <g id="line2d_78">
    <path clip-path="url(#p0fd75ec2a9)" d="M 443.217163 90.660854 
L 443.217163 88.266136 
" style="fill:none;stroke:#4daf4a;stroke-linecap:round;"/>
   </g>
   <g id="line2d_79">
    <path clip-path="url(#p0fd75ec2a9)" d="M 441.532907 90.660854 
L 444.90142 90.660854 
" style="fill:none;stroke:#4daf4a;stroke-linecap:round;"/>
   </g>
   <g id="line2d_80">
    <path clip-path="url(#p0fd75ec2a9)" d="M 441.532907 88.266136 
L 444.90142 88.266136 
" style="fill:none;stroke:#4daf4a;stroke-linecap:round;"/>
   </g>
   <g id="line2d_81">
    <path clip-path="url(#p0fd75ec2a9)" d="M 375.846896 73.475271 
L 409.53203 82.350681 
L 443.217163 89.533804 
" style="fill:none;stroke:#4daf4a;stroke-dasharray:1.35,2.2275;stroke-dashoffset:0;stroke-width:1.35;"/>
   </g>
   <g id="line2d_82">
    <path clip-path="url(#p0fd75ec2a9)" d="M 375.846896 77.516243 
L 375.846896 68.905532 
" style="fill:none;stroke:#4daf4a;stroke-linecap:round;"/>
   </g>
   <g id="line2d_83">
    <path clip-path="url(#p0fd75ec2a9)" d="M 374.162639 77.516243 
L 377.531152 77.516243 
" style="fill:none;stroke:#4daf4a;stroke-linecap:round;"/>
   </g>
   <g id="line2d_84">
    <path clip-path="url(#p0fd75ec2a9)" d="M 374.162639 68.905532 
L 377.531152 68.905532 
" style="fill:none;stroke:#4daf4a;stroke-linecap:round;"/>
   </g>
   <g id="line2d_85">
    <path clip-path="url(#p0fd75ec2a9)" d="M 409.53203 85.507398 
L 409.53203 79.139818 
" style="fill:none;stroke:#4daf4a;stroke-linecap:round;"/>
   </g>
   <g id="line2d_86">
    <path clip-path="url(#p0fd75ec2a9)" d="M 407.847773 85.507398 
L 411.216286 85.507398 
" style="fill:none;stroke:#4daf4a;stroke-linecap:round;"/>
   </g>
   <g id="line2d_87">
    <path clip-path="url(#p0fd75ec2a9)" d="M 407.847773 79.139818 
L 411.216286 79.139818 
" style="fill:none;stroke:#4daf4a;stroke-linecap:round;"/>
   </g>
   <g id="line2d_88">
    <path clip-path="url(#p0fd75ec2a9)" d="M 443.217163 90.786924 
L 443.217163 87.552577 
" style="fill:none;stroke:#4daf4a;stroke-linecap:round;"/>
   </g>
   <g id="line2d_89">
    <path clip-path="url(#p0fd75ec2a9)" d="M 441.532907 90.786924 
L 444.90142 90.786924 
" style="fill:none;stroke:#4daf4a;stroke-linecap:round;"/>
   </g>
   <g id="line2d_90">
    <path clip-path="url(#p0fd75ec2a9)" d="M 441.532907 87.552577 
L 444.90142 87.552577 
" style="fill:none;stroke:#4daf4a;stroke-linecap:round;"/>
   </g>
   <g id="patch_9">
    <path d="M 359.004329 91.516 
L 460.05973 91.516 
" style="fill:none;stroke:#cccccc;stroke-linecap:square;stroke-linejoin:miter;stroke-width:1.25;"/>
   </g>
   <g id="text_10">
    <text style="fill:#262626;font-family:DejaVu Sans;font-size:11px;font-stretch:normal;font-style:normal;font-weight:normal;text-anchor:middle;" transform="rotate(-0, 409.53203, 28.416)" x="409.53203" y="28.416">SNVI+IW</text>
   </g>
  </g>
  <g id="axes_5">
   <g id="patch_10">
    <path d="M 460.05973 91.516 
L 561.115132 91.516 
L 561.115132 34.416 
L 460.05973 34.416 
z
" style="fill:none;"/>
   </g>
   <g id="matplotlib.axis_9">
    <g id="xtick_13"/>
    <g id="xtick_14"/>
    <g id="xtick_15"/>
   </g>
   <g id="matplotlib.axis_10">
    <g id="ytick_21">
     <g id="line2d_91">
      <path clip-path="url(#pe5d63fe285)" d="M 460.05973 91.516 
L 561.115132 91.516 
" style="fill:none;stroke:#cccccc;stroke-linecap:round;"/>
     </g>
    </g>
    <g id="ytick_22">
     <g id="line2d_92">
      <path clip-path="url(#pe5d63fe285)" d="M 460.05973 79.057964 
L 561.115132 79.057964 
" style="fill:none;stroke:#cccccc;stroke-linecap:round;"/>
     </g>
    </g>
    <g id="ytick_23">
     <g id="line2d_93">
      <path clip-path="url(#pe5d63fe285)" d="M 460.05973 66.599929 
L 561.115132 66.599929 
" style="fill:none;stroke:#cccccc;stroke-linecap:round;"/>
     </g>
    </g>
    <g id="ytick_24">
     <g id="line2d_94">
      <path clip-path="url(#pe5d63fe285)" d="M 460.05973 54.141893 
L 561.115132 54.141893 
" style="fill:none;stroke:#cccccc;stroke-linecap:round;"/>
     </g>
    </g>
    <g id="ytick_25">
     <g id="line2d_95">
      <path clip-path="url(#pe5d63fe285)" d="M 460.05973 41.683857 
L 561.115132 41.683857 
" style="fill:none;stroke:#cccccc;stroke-linecap:round;"/>
     </g>
    </g>
   </g>
   <g id="PathCollection_8">
    <defs>
     <path d="M 0 0.845987 
C 0.224358 0.845987 0.439558 0.756849 0.598203 0.598203 
C 0.756849 0.439558 0.845987 0.224358 0.845987 -0 
C 0.845987 -0.224358 0.756849 -0.439558 0.598203 -0.598203 
C 0.439558 -0.756849 0.224358 -0.845987 0 -0.845987 
C -0.224358 -0.845987 -0.439558 -0.756849 -0.598203 -0.598203 
C -0.756849 -0.439558 -0.845987 -0.224358 -0.845987 0 
C -0.845987 0.224358 -0.756849 0.439558 -0.598203 0.598203 
C -0.439558 0.756849 -0.224358 0.845987 0 0.845987 
z
" id="C7_0_515b08b3cd"/>
    </defs>
    <g clip-path="url(#pe5d63fe285)">
     <use style="fill:#e41a1c;stroke:#e41a1c;stroke-width:1.0125;" x="476.902297" xlink:href="#C7_0_515b08b3cd" y="74.988364"/>
    </g>
    <g clip-path="url(#pe5d63fe285)">
     <use style="fill:#e41a1c;stroke:#e41a1c;stroke-width:1.0125;" x="510.587431" xlink:href="#C7_0_515b08b3cd" y="82.126807"/>
    </g>
    <g clip-path="url(#pe5d63fe285)">
     <use style="fill:#e41a1c;stroke:#e41a1c;stroke-width:1.0125;" x="544.272565" xlink:href="#C7_0_515b08b3cd" y="89.097908"/>
    </g>
   </g>
   <g id="PathCollection_9">
    <defs>
     <path d="M 0 0.845987 
C 0.224358 0.845987 0.439558 0.756849 0.598203 0.598203 
C 0.756849 0.439558 0.845987 0.224358 0.845987 -0 
C 0.845987 -0.224358 0.756849 -0.439558 0.598203 -0.598203 
C 0.439558 -0.756849 0.224358 -0.845987 0 -0.845987 
C -0.224358 -0.845987 -0.439558 -0.756849 -0.598203 -0.598203 
C -0.756849 -0.439558 -0.845987 -0.224358 -0.845987 0 
C -0.845987 0.224358 -0.756849 0.439558 -0.598203 0.598203 
C -0.439558 0.756849 -0.224358 0.845987 0 0.845987 
z
" id="C8_0_71bb98a927"/>
    </defs>
    <g clip-path="url(#pe5d63fe285)">
     <use style="fill:#e41a1c;stroke:#e41a1c;stroke-width:1.0125;" x="476.902297" xlink:href="#C8_0_71bb98a927" y="75.70358"/>
    </g>
    <g clip-path="url(#pe5d63fe285)">
     <use style="fill:#e41a1c;stroke:#e41a1c;stroke-width:1.0125;" x="510.587431" xlink:href="#C8_0_71bb98a927" y="81.511792"/>
    </g>
    <g clip-path="url(#pe5d63fe285)">
     <use style="fill:#e41a1c;stroke:#e41a1c;stroke-width:1.0125;" x="544.272565" xlink:href="#C8_0_71bb98a927" y="87.979373"/>
    </g>
   </g>
   <g id="line2d_96">
    <path clip-path="url(#pe5d63fe285)" d="M 476.902297 74.988364 
L 510.587431 82.126807 
L 544.272565 89.097908 
" style="fill:none;stroke:#e41a1c;stroke-linecap:round;stroke-width:1.35;"/>
   </g>
   <g id="line2d_97">
    <path clip-path="url(#pe5d63fe285)" d="M 476.902297 80.813616 
L 476.902297 69.385288 
" style="fill:none;stroke:#e41a1c;stroke-linecap:round;"/>
   </g>
   <g id="line2d_98">
    <path clip-path="url(#pe5d63fe285)" d="M 475.21804 80.813616 
L 478.586554 80.813616 
" style="fill:none;stroke:#e41a1c;stroke-linecap:round;"/>
   </g>
   <g id="line2d_99">
    <path clip-path="url(#pe5d63fe285)" d="M 475.21804 69.385288 
L 478.586554 69.385288 
" style="fill:none;stroke:#e41a1c;stroke-linecap:round;"/>
   </g>
   <g id="line2d_100">
    <path clip-path="url(#pe5d63fe285)" d="M 510.587431 84.828124 
L 510.587431 79.208081 
" style="fill:none;stroke:#e41a1c;stroke-linecap:round;"/>
   </g>
   <g id="line2d_101">
    <path clip-path="url(#pe5d63fe285)" d="M 508.903174 84.828124 
L 512.271688 84.828124 
" style="fill:none;stroke:#e41a1c;stroke-linecap:round;"/>
   </g>
   <g id="line2d_102">
    <path clip-path="url(#pe5d63fe285)" d="M 508.903174 79.208081 
L 512.271688 79.208081 
" style="fill:none;stroke:#e41a1c;stroke-linecap:round;"/>
   </g>
   <g id="line2d_103">
    <path clip-path="url(#pe5d63fe285)" d="M 544.272565 91.030874 
L 544.272565 85.755044 
" style="fill:none;stroke:#e41a1c;stroke-linecap:round;"/>
   </g>
   <g id="line2d_104">
    <path clip-path="url(#pe5d63fe285)" d="M 542.588308 91.030874 
L 545.956821 91.030874 
" style="fill:none;stroke:#e41a1c;stroke-linecap:round;"/>
   </g>
   <g id="line2d_105">
    <path clip-path="url(#pe5d63fe285)" d="M 542.588308 85.755044 
L 545.956821 85.755044 
" style="fill:none;stroke:#e41a1c;stroke-linecap:round;"/>
   </g>
   <g id="line2d_106">
    <path clip-path="url(#pe5d63fe285)" d="M 476.902297 75.70358 
L 510.587431 81.511792 
L 544.272565 87.979373 
" style="fill:none;stroke:#e41a1c;stroke-dasharray:1.35,2.2275;stroke-dashoffset:0;stroke-width:1.35;"/>
   </g>
   <g id="line2d_107">
    <path clip-path="url(#pe5d63fe285)" d="M 476.902297 82.438782 
L 476.902297 68.279705 
" style="fill:none;stroke:#e41a1c;stroke-linecap:round;"/>
   </g>
   <g id="line2d_108">
    <path clip-path="url(#pe5d63fe285)" d="M 475.21804 82.438782 
L 478.586554 82.438782 
" style="fill:none;stroke:#e41a1c;stroke-linecap:round;"/>
   </g>
   <g id="line2d_109">
    <path clip-path="url(#pe5d63fe285)" d="M 475.21804 68.279705 
L 478.586554 68.279705 
" style="fill:none;stroke:#e41a1c;stroke-linecap:round;"/>
   </g>
   <g id="line2d_110">
    <path clip-path="url(#pe5d63fe285)" d="M 510.587431 85.331781 
L 510.587431 77.305575 
" style="fill:none;stroke:#e41a1c;stroke-linecap:round;"/>
   </g>
   <g id="line2d_111">
    <path clip-path="url(#pe5d63fe285)" d="M 508.903174 85.331781 
L 512.271688 85.331781 
" style="fill:none;stroke:#e41a1c;stroke-linecap:round;"/>
   </g>
   <g id="line2d_112">
    <path clip-path="url(#pe5d63fe285)" d="M 508.903174 77.305575 
L 512.271688 77.305575 
" style="fill:none;stroke:#e41a1c;stroke-linecap:round;"/>
   </g>
   <g id="line2d_113">
    <path clip-path="url(#pe5d63fe285)" d="M 544.272565 90.80432 
L 544.272565 83.128886 
" style="fill:none;stroke:#e41a1c;stroke-linecap:round;"/>
   </g>
   <g id="line2d_114">
    <path clip-path="url(#pe5d63fe285)" d="M 542.588308 90.80432 
L 545.956821 90.80432 
" style="fill:none;stroke:#e41a1c;stroke-linecap:round;"/>
   </g>
   <g id="line2d_115">
    <path clip-path="url(#pe5d63fe285)" d="M 542.588308 83.128886 
L 545.956821 83.128886 
" style="fill:none;stroke:#e41a1c;stroke-linecap:round;"/>
   </g>
   <g id="patch_11">
    <path d="M 460.05973 91.516 
L 561.115132 91.516 
" style="fill:none;stroke:#cccccc;stroke-linecap:square;stroke-linejoin:miter;stroke-width:1.25;"/>
   </g>
   <g id="text_11">
    <!-- SNVI+$\alpha$ -->
    <g style="fill:#262626;" transform="translate(489.357431 28.416)">
     <text>
      <tspan style="font-family:DejaVu Sans;font-size:11px;font-style:book;font-weight:book;" x="0 6.982422 15.210938 22.73584 25.97998 35.196777" y="-0.828125">SNVI+α</tspan>
     </text>
    </g>
   </g>
  </g>
  <g id="axes_6">
   <g id="patch_12">
    <path d="M 607.363125 105.696 
L 624.859125 105.696 
L 624.859125 27.936 
L 607.363125 27.936 
z
" style="fill:none;"/>
   </g>
   <g id="matplotlib.axis_11"/>
   <g id="matplotlib.axis_12">
    <g id="ytick_26">
     <g id="line2d_116">
      <path clip-path="url(#p4ae0f33545)" d="M 607.363125 105.696 
L 624.859125 105.696 
" style="fill:none;stroke:#cccccc;stroke-linecap:round;"/>
     </g>
     <g id="text_12">
      <text style="fill:#262626;font-family:DejaVu Sans;font-size:11px;font-stretch:normal;font-style:normal;font-weight:normal;text-anchor:end;" transform="rotate(-0, 597.863125, 109.875141)" x="597.863125" y="109.875141">0</text>
     </g>
    </g>
    <g id="ytick_27">
     <g id="line2d_117">
      <path clip-path="url(#p4ae0f33545)" d="M 607.363125 100.94153 
L 624.859125 100.94153 
" style="fill:none;stroke:#cccccc;stroke-linecap:round;"/>
     </g>
    </g>
    <g id="ytick_28">
     <g id="line2d_118">
      <path clip-path="url(#p4ae0f33545)" d="M 607.363125 96.18706 
L 624.859125 96.18706 
" style="fill:none;stroke:#cccccc;stroke-linecap:round;"/>
     </g>
    </g>
    <g id="ytick_29">
     <g id="line2d_119">
      <path clip-path="url(#p4ae0f33545)" d="M 607.363125 91.432589 
L 624.859125 91.432589 
" style="fill:none;stroke:#cccccc;stroke-linecap:round;"/>
     </g>
    </g>
    <g id="ytick_30">
     <g id="line2d_120">
      <path clip-path="url(#p4ae0f33545)" d="M 607.363125 86.678119 
L 624.859125 86.678119 
" style="fill:none;stroke:#cccccc;stroke-linecap:round;"/>
     </g>
    </g>
    <g id="ytick_31">
     <g id="line2d_121">
      <path clip-path="url(#p4ae0f33545)" d="M 607.363125 81.923649 
L 624.859125 81.923649 
" style="fill:none;stroke:#cccccc;stroke-linecap:round;"/>
     </g>
    </g>
    <g id="ytick_32">
     <g id="line2d_122">
      <path clip-path="url(#p4ae0f33545)" d="M 607.363125 77.169179 
L 624.859125 77.169179 
" style="fill:none;stroke:#cccccc;stroke-linecap:round;"/>
     </g>
    </g>
    <g id="ytick_33">
     <g id="line2d_123">
      <path clip-path="url(#p4ae0f33545)" d="M 607.363125 72.414709 
L 624.859125 72.414709 
" style="fill:none;stroke:#cccccc;stroke-linecap:round;"/>
     </g>
    </g>
    <g id="ytick_34">
     <g id="line2d_124">
      <path clip-path="url(#p4ae0f33545)" d="M 607.363125 67.660238 
L 624.859125 67.660238 
" style="fill:none;stroke:#cccccc;stroke-linecap:round;"/>
     </g>
    </g>
    <g id="ytick_35">
     <g id="line2d_125">
      <path clip-path="url(#p4ae0f33545)" d="M 607.363125 62.905768 
L 624.859125 62.905768 
" style="fill:none;stroke:#cccccc;stroke-linecap:round;"/>
     </g>
    </g>
    <g id="ytick_36">
     <g id="line2d_126">
      <path clip-path="url(#p4ae0f33545)" d="M 607.363125 58.151298 
L 624.859125 58.151298 
" style="fill:none;stroke:#cccccc;stroke-linecap:round;"/>
     </g>
    </g>
    <g id="ytick_37">
     <g id="line2d_127">
      <path clip-path="url(#p4ae0f33545)" d="M 607.363125 53.396828 
L 624.859125 53.396828 
" style="fill:none;stroke:#cccccc;stroke-linecap:round;"/>
     </g>
    </g>
    <g id="ytick_38">
     <g id="line2d_128">
      <path clip-path="url(#p4ae0f33545)" d="M 607.363125 48.642358 
L 624.859125 48.642358 
" style="fill:none;stroke:#cccccc;stroke-linecap:round;"/>
     </g>
    </g>
    <g id="ytick_39">
     <g id="line2d_129">
      <path clip-path="url(#p4ae0f33545)" d="M 607.363125 43.887887 
L 624.859125 43.887887 
" style="fill:none;stroke:#cccccc;stroke-linecap:round;"/>
     </g>
    </g>
    <g id="ytick_40">
     <g id="line2d_130">
      <path clip-path="url(#p4ae0f33545)" d="M 607.363125 39.133417 
L 624.859125 39.133417 
" style="fill:none;stroke:#cccccc;stroke-linecap:round;"/>
     </g>
    </g>
    <g id="ytick_41">
     <g id="line2d_131">
      <path clip-path="url(#p4ae0f33545)" d="M 607.363125 34.378947 
L 624.859125 34.378947 
" style="fill:none;stroke:#cccccc;stroke-linecap:round;"/>
     </g>
    </g>
    <g id="ytick_42">
     <g id="line2d_132">
      <path clip-path="url(#p4ae0f33545)" d="M 607.363125 29.624477 
L 624.859125 29.624477 
" style="fill:none;stroke:#cccccc;stroke-linecap:round;"/>
     </g>
     <g id="text_13">
      <text style="fill:#262626;font-family:DejaVu Sans;font-size:11px;font-stretch:normal;font-style:normal;font-weight:normal;text-anchor:end;" transform="rotate(-0, 597.863125, 33.803617)" x="597.863125" y="33.803617">3200</text>
     </g>
    </g>
    <g id="text_14">
     <text style="fill:#262626;font-family:DejaVu Sans;font-size:11px;font-stretch:normal;font-style:normal;font-weight:normal;text-anchor:middle;" transform="rotate(-90, 582.580469, 66.816)" x="582.580469" y="66.816">Time [s] </text>
    </g>
   </g>
   <g id="EventCollection_1">
    <path clip-path="url(#p4ae0f33545)" d="M 624.859125 30.313235 
L 607.363125 30.313235 
" style="fill:none;stroke:#000000;stroke-width:4;"/>
   </g>
   <g id="EventCollection_2">
    <path clip-path="url(#p4ae0f33545)" d="M 624.859125 93.096016 
L 607.363125 93.096016 
" style="fill:none;stroke:#377eb8;stroke-width:4;"/>
   </g>
   <g id="EventCollection_3">
    <path clip-path="url(#p4ae0f33545)" d="M 624.859125 91.139432 
L 607.363125 91.139432 
" style="fill:none;stroke:#984ea3;stroke-width:4;"/>
   </g>
   <g id="EventCollection_4">
    <path clip-path="url(#p4ae0f33545)" d="M 624.859125 90.530977 
L 607.363125 90.530977 
" style="fill:none;stroke:#4daf4a;stroke-width:4;"/>
   </g>
   <g id="EventCollection_5">
    <path clip-path="url(#p4ae0f33545)" d="M 624.859125 95.29001 
L 607.363125 95.29001 
" style="fill:none;stroke:#e41a1c;stroke-width:4;"/>
   </g>
   <g id="patch_13">
    <path d="M 607.363125 105.696 
L 607.363125 27.936 
" style="fill:none;stroke:#cccccc;stroke-linecap:square;stroke-linejoin:miter;stroke-width:1.25;"/>
   </g>
   <g id="patch_14">
    <path d="M 624.859125 105.696 
L 624.859125 27.936 
" style="fill:none;stroke:#cccccc;stroke-linecap:square;stroke-linejoin:miter;stroke-width:1.25;"/>
   </g>
   <g id="patch_15">
    <path d="M 607.363125 105.696 
L 624.859125 105.696 
" style="fill:none;stroke:#cccccc;stroke-linecap:square;stroke-linejoin:miter;stroke-width:1.25;"/>
   </g>
   <g id="patch_16">
    <path d="M 607.363125 27.936 
L 624.859125 27.936 
" style="fill:none;stroke:#cccccc;stroke-linecap:square;stroke-linejoin:miter;stroke-width:1.25;"/>
   </g>
  </g>
  <g id="text_15">
   <text style="fill:#262626;font-family:DejaVu Sans;font-size:11px;font-stretch:normal;font-style:normal;font-weight:normal;text-anchor:middle;" transform="rotate(-0, 304.099125, 15.558281)" x="304.099125" y="15.558281">Bernoulli GLM</text>
  </g>
 </g>
 <defs>
  <clipPath id="p588b45b837">
   <rect height="57.1" width="101.055401" x="55.838125" y="34.416"/>
  </clipPath>
  <clipPath id="pcaa9e65857">
   <rect height="57.1" width="101.055401" x="156.893526" y="34.416"/>
  </clipPath>
  <clipPath id="p2b2e48c050">
   <rect height="57.1" width="101.055401" x="257.948928" y="34.416"/>
  </clipPath>
  <clipPath id="p0fd75ec2a9">
   <rect height="57.1" width="101.055401" x="359.004329" y="34.416"/>
  </clipPath>
  <clipPath id="pe5d63fe285">
   <rect height="57.1" width="101.055401" x="460.05973" y="34.416"/>
  </clipPath>
  <clipPath id="p4ae0f33545">
   <rect height="77.76" width="17.496" x="607.363125" y="27.936"/>
  </clipPath>
 </defs>
</svg>
