<?xml version="1.0" encoding="utf-8" standalone="no"?>
<!DOCTYPE svg PUBLIC "-//W3C//DTD SVG 1.1//EN"
  "http://www.w3.org/Graphics/SVG/1.1/DTD/svg11.dtd">
<svg height="105.106797pt" version="1.1" viewBox="0 0 632.060375 105.106797" width="632.060375pt" xmlns="http://www.w3.org/2000/svg" xmlns:xlink="http://www.w3.org/1999/xlink">
 <metadata>
  <rdf:RDF xmlns:cc="http://creativecommons.org/ns#" xmlns:dc="http://purl.org/dc/elements/1.1/" xmlns:rdf="http://www.w3.org/1999/02/22-rdf-syntax-ns#">
   <cc:Work>
    <dc:type rdf:resource="http://purl.org/dc/dcmitype/StillImage"/>
    <dc:date>2021-10-05T15:55:45.824675</dc:date>
    <dc:format>image/svg+xml</dc:format>
    <dc:creator>
     <cc:Agent>
      <dc:title>Matplotlib v3.4.3, https://matplotlib.org/</dc:title>
     </cc:Agent>
    </dc:creator>
   </cc:Work>
  </rdf:RDF>
 </metadata>
 <defs>
  <style type="text/css">*{stroke-linecap:butt;stroke-linejoin:round;}</style>
 </defs>
 <g id="figure_1">
  <g id="patch_1">
   <path d="M 0 105.106797 
L 632.060375 105.106797 
L 632.060375 0 
L 0 0 
z
" style="fill:none;"/>
  </g>
  <g id="axes_1">
   <g id="patch_2">
    <path d="M 48.839375 77.26 
L 151.714776 77.26 
L 151.714776 20.16 
L 48.839375 20.16 
z
" style="fill:none;"/>
   </g>
   <g id="matplotlib.axis_1">
    <g id="xtick_1"/>
    <g id="xtick_2"/>
    <g id="xtick_3"/>
   </g>
   <g id="matplotlib.axis_2">
    <g id="ytick_1">
     <g id="line2d_1">
      <path clip-path="url(#pe9e0e7b853)" d="M 48.839375 77.26 
L 151.714776 77.26 
" style="fill:none;stroke:#cccccc;stroke-linecap:round;"/>
     </g>
     <g id="text_1">
      <text style="fill:#262626;font-family:DejaVu Sans;font-size:11px;font-stretch:normal;font-style:normal;font-weight:normal;text-anchor:end;" transform="rotate(-0, 39.339375, 81.439141)" x="39.339375" y="81.439141">0.5</text>
     </g>
    </g>
    <g id="ytick_2">
     <g id="line2d_2">
      <path clip-path="url(#pe9e0e7b853)" d="M 48.839375 65.84 
L 151.714776 65.84 
" style="fill:none;stroke:#cccccc;stroke-linecap:round;"/>
     </g>
    </g>
    <g id="ytick_3">
     <g id="line2d_3">
      <path clip-path="url(#pe9e0e7b853)" d="M 48.839375 54.42 
L 151.714776 54.42 
" style="fill:none;stroke:#cccccc;stroke-linecap:round;"/>
     </g>
    </g>
    <g id="ytick_4">
     <g id="line2d_4">
      <path clip-path="url(#pe9e0e7b853)" d="M 48.839375 43 
L 151.714776 43 
" style="fill:none;stroke:#cccccc;stroke-linecap:round;"/>
     </g>
    </g>
    <g id="ytick_5">
     <g id="line2d_5">
      <path clip-path="url(#pe9e0e7b853)" d="M 48.839375 31.58 
L 151.714776 31.58 
" style="fill:none;stroke:#cccccc;stroke-linecap:round;"/>
     </g>
    </g>
    <g id="ytick_6">
     <g id="line2d_6">
      <path clip-path="url(#pe9e0e7b853)" d="M 48.839375 20.16 
L 151.714776 20.16 
" style="fill:none;stroke:#cccccc;stroke-linecap:round;"/>
     </g>
     <g id="text_2">
      <text style="fill:#262626;font-family:DejaVu Sans;font-size:11px;font-stretch:normal;font-style:normal;font-weight:normal;text-anchor:end;" transform="rotate(-0, 39.339375, 24.339141)" x="39.339375" y="24.339141">1.0</text>
     </g>
    </g>
    <g id="text_3">
     <text style="fill:#262626;font-family:DejaVu Sans;font-size:11px;font-stretch:normal;font-style:normal;font-weight:normal;text-anchor:middle;" transform="rotate(-90, 15.558281, 48.71)" x="15.558281" y="48.71">C2ST</text>
    </g>
   </g>
   <g id="PathCollection_1">
    <defs>
     <path d="M 0 0.845987 
C 0.224358 0.845987 0.439558 0.756849 0.598203 0.598203 
C 0.756849 0.439558 0.845987 0.224358 0.845987 -0 
C 0.845987 -0.224358 0.756849 -0.439558 0.598203 -0.598203 
C 0.439558 -0.756849 0.224358 -0.845987 0 -0.845987 
C -0.224358 -0.845987 -0.439558 -0.756849 -0.598203 -0.598203 
C -0.756849 -0.439558 -0.845987 -0.224358 -0.845987 0 
C -0.845987 0.224358 -0.756849 0.439558 -0.598203 0.598203 
C -0.439558 0.756849 -0.224358 0.845987 0 0.845987 
z
" id="C0_0_41cd0675d9"/>
    </defs>
    <g clip-path="url(#pe9e0e7b853)">
     <use style="stroke:#000000;stroke-width:1.0125;" x="65.985275" xlink:href="#C0_0_41cd0675d9" y="30.095972"/>
    </g>
    <g clip-path="url(#pe9e0e7b853)">
     <use style="stroke:#000000;stroke-width:1.0125;" x="100.277076" xlink:href="#C0_0_41cd0675d9" y="50.163194"/>
    </g>
    <g clip-path="url(#pe9e0e7b853)">
     <use style="stroke:#000000;stroke-width:1.0125;" x="134.568876" xlink:href="#C0_0_41cd0675d9" y="61.906381"/>
    </g>
   </g>
   <g id="line2d_7">
    <path clip-path="url(#pe9e0e7b853)" d="M 65.985275 30.095972 
L 100.277076 50.163194 
L 134.568876 61.906381 
" style="fill:none;stroke:#000000;stroke-linecap:round;stroke-width:1.35;"/>
   </g>
   <g id="line2d_8">
    <path clip-path="url(#pe9e0e7b853)" d="M 65.985275 33.117718 
L 65.985275 26.994243 
" style="fill:none;stroke:#000000;stroke-linecap:round;"/>
   </g>
   <g id="line2d_9">
    <path clip-path="url(#pe9e0e7b853)" d="M 64.270685 33.117718 
L 67.699865 33.117718 
" style="fill:none;stroke:#000000;stroke-linecap:round;"/>
   </g>
   <g id="line2d_10">
    <path clip-path="url(#pe9e0e7b853)" d="M 64.270685 26.994243 
L 67.699865 26.994243 
" style="fill:none;stroke:#000000;stroke-linecap:round;"/>
   </g>
   <g id="line2d_11">
    <path clip-path="url(#pe9e0e7b853)" d="M 100.277076 55.393112 
L 100.277076 44.357381 
" style="fill:none;stroke:#000000;stroke-linecap:round;"/>
   </g>
   <g id="line2d_12">
    <path clip-path="url(#pe9e0e7b853)" d="M 98.562486 55.393112 
L 101.991666 55.393112 
" style="fill:none;stroke:#000000;stroke-linecap:round;"/>
   </g>
   <g id="line2d_13">
    <path clip-path="url(#pe9e0e7b853)" d="M 98.562486 44.357381 
L 101.991666 44.357381 
" style="fill:none;stroke:#000000;stroke-linecap:round;"/>
   </g>
   <g id="line2d_14">
    <path clip-path="url(#pe9e0e7b853)" d="M 134.568876 65.627175 
L 134.568876 57.576289 
" style="fill:none;stroke:#000000;stroke-linecap:round;"/>
   </g>
   <g id="line2d_15">
    <path clip-path="url(#pe9e0e7b853)" d="M 132.854286 65.627175 
L 136.283466 65.627175 
" style="fill:none;stroke:#000000;stroke-linecap:round;"/>
   </g>
   <g id="line2d_16">
    <path clip-path="url(#pe9e0e7b853)" d="M 132.854286 57.576289 
L 136.283466 57.576289 
" style="fill:none;stroke:#000000;stroke-linecap:round;"/>
   </g>
   <g id="patch_3">
    <path d="M 48.839375 77.26 
L 151.714776 77.26 
" style="fill:none;stroke:#cccccc;stroke-linecap:square;stroke-linejoin:miter;stroke-width:1.25;"/>
   </g>
  </g>
  <g id="axes_2">
   <g id="patch_4">
    <path d="M 151.714776 77.26 
L 254.590178 77.26 
L 254.590178 20.16 
L 151.714776 20.16 
z
" style="fill:none;"/>
   </g>
   <g id="matplotlib.axis_3">
    <g id="xtick_4"/>
    <g id="xtick_5"/>
    <g id="xtick_6"/>
   </g>
   <g id="matplotlib.axis_4">
    <g id="ytick_7">
     <g id="line2d_17">
      <path clip-path="url(#p22bd42c70c)" d="M 151.714776 77.26 
L 254.590178 77.26 
" style="fill:none;stroke:#cccccc;stroke-linecap:round;"/>
     </g>
    </g>
    <g id="ytick_8">
     <g id="line2d_18">
      <path clip-path="url(#p22bd42c70c)" d="M 151.714776 65.84 
L 254.590178 65.84 
" style="fill:none;stroke:#cccccc;stroke-linecap:round;"/>
     </g>
    </g>
    <g id="ytick_9">
     <g id="line2d_19">
      <path clip-path="url(#p22bd42c70c)" d="M 151.714776 54.42 
L 254.590178 54.42 
" style="fill:none;stroke:#cccccc;stroke-linecap:round;"/>
     </g>
    </g>
    <g id="ytick_10">
     <g id="line2d_20">
      <path clip-path="url(#p22bd42c70c)" d="M 151.714776 43 
L 254.590178 43 
" style="fill:none;stroke:#cccccc;stroke-linecap:round;"/>
     </g>
    </g>
    <g id="ytick_11">
     <g id="line2d_21">
      <path clip-path="url(#p22bd42c70c)" d="M 151.714776 31.58 
L 254.590178 31.58 
" style="fill:none;stroke:#cccccc;stroke-linecap:round;"/>
     </g>
    </g>
    <g id="ytick_12">
     <g id="line2d_22">
      <path clip-path="url(#p22bd42c70c)" d="M 151.714776 20.16 
L 254.590178 20.16 
" style="fill:none;stroke:#cccccc;stroke-linecap:round;"/>
     </g>
    </g>
   </g>
   <g id="PathCollection_2">
    <defs>
     <path d="M 0 0.845987 
C 0.224358 0.845987 0.439558 0.756849 0.598203 0.598203 
C 0.756849 0.439558 0.845987 0.224358 0.845987 -0 
C 0.845987 -0.224358 0.756849 -0.439558 0.598203 -0.598203 
C 0.439558 -0.756849 0.224358 -0.845987 0 -0.845987 
C -0.224358 -0.845987 -0.439558 -0.756849 -0.598203 -0.598203 
C -0.756849 -0.439558 -0.845987 -0.224358 -0.845987 0 
C -0.845987 0.224358 -0.756849 0.439558 -0.598203 0.598203 
C -0.439558 0.756849 -0.224358 0.845987 0 0.845987 
z
" id="C1_0_0768d881f2"/>
    </defs>
    <g clip-path="url(#p22bd42c70c)">
     <use style="fill:#377eb8;stroke:#377eb8;stroke-width:1.0125;" x="168.860677" xlink:href="#C1_0_0768d881f2" y="28.071205"/>
    </g>
    <g clip-path="url(#p22bd42c70c)">
     <use style="fill:#377eb8;stroke:#377eb8;stroke-width:1.0125;" x="203.152477" xlink:href="#C1_0_0768d881f2" y="42.010457"/>
    </g>
    <g clip-path="url(#p22bd42c70c)">
     <use style="fill:#377eb8;stroke:#377eb8;stroke-width:1.0125;" x="237.444277" xlink:href="#C1_0_0768d881f2" y="51.683769"/>
    </g>
   </g>
   <g id="PathCollection_3">
    <defs>
     <path d="M 0 0.845987 
C 0.224358 0.845987 0.439558 0.756849 0.598203 0.598203 
C 0.756849 0.439558 0.845987 0.224358 0.845987 -0 
C 0.845987 -0.224358 0.756849 -0.439558 0.598203 -0.598203 
C 0.439558 -0.756849 0.224358 -0.845987 0 -0.845987 
C -0.224358 -0.845987 -0.439558 -0.756849 -0.598203 -0.598203 
C -0.756849 -0.439558 -0.845987 -0.224358 -0.845987 0 
C -0.845987 0.224358 -0.756849 0.439558 -0.598203 0.598203 
C -0.439558 0.756849 -0.224358 0.845987 0 0.845987 
z
" id="C2_0_0185bca6e0"/>
    </defs>
    <g clip-path="url(#p22bd42c70c)">
     <use style="fill:#377eb8;stroke:#377eb8;stroke-width:1.0125;" x="168.860677" xlink:href="#C2_0_0185bca6e0" y="26.472723"/>
    </g>
    <g clip-path="url(#p22bd42c70c)">
     <use style="fill:#377eb8;stroke:#377eb8;stroke-width:1.0125;" x="203.152477" xlink:href="#C2_0_0185bca6e0" y="41.185363"/>
    </g>
    <g clip-path="url(#p22bd42c70c)">
     <use style="fill:#377eb8;stroke:#377eb8;stroke-width:1.0125;" x="237.444277" xlink:href="#C2_0_0185bca6e0" y="52.573386"/>
    </g>
   </g>
   <g id="line2d_23">
    <path clip-path="url(#p22bd42c70c)" d="M 168.860677 28.071205 
L 203.152477 42.010457 
L 237.444277 51.683769 
" style="fill:none;stroke:#377eb8;stroke-linecap:round;stroke-width:1.35;"/>
   </g>
   <g id="line2d_24">
    <path clip-path="url(#p22bd42c70c)" d="M 168.860677 30.51931 
L 168.860677 25.674662 
" style="fill:none;stroke:#377eb8;stroke-linecap:round;"/>
   </g>
   <g id="line2d_25">
    <path clip-path="url(#p22bd42c70c)" d="M 167.146086 30.51931 
L 170.575267 30.51931 
" style="fill:none;stroke:#377eb8;stroke-linecap:round;"/>
   </g>
   <g id="line2d_26">
    <path clip-path="url(#p22bd42c70c)" d="M 167.146086 25.674662 
L 170.575267 25.674662 
" style="fill:none;stroke:#377eb8;stroke-linecap:round;"/>
   </g>
   <g id="line2d_27">
    <path clip-path="url(#p22bd42c70c)" d="M 203.152477 48.340263 
L 203.152477 35.702849 
" style="fill:none;stroke:#377eb8;stroke-linecap:round;"/>
   </g>
   <g id="line2d_28">
    <path clip-path="url(#p22bd42c70c)" d="M 201.437887 48.340263 
L 204.867067 48.340263 
" style="fill:none;stroke:#377eb8;stroke-linecap:round;"/>
   </g>
   <g id="line2d_29">
    <path clip-path="url(#p22bd42c70c)" d="M 201.437887 35.702849 
L 204.867067 35.702849 
" style="fill:none;stroke:#377eb8;stroke-linecap:round;"/>
   </g>
   <g id="line2d_30">
    <path clip-path="url(#p22bd42c70c)" d="M 237.444277 62.669552 
L 237.444277 39.460129 
" style="fill:none;stroke:#377eb8;stroke-linecap:round;"/>
   </g>
   <g id="line2d_31">
    <path clip-path="url(#p22bd42c70c)" d="M 235.729687 62.669552 
L 239.158867 62.669552 
" style="fill:none;stroke:#377eb8;stroke-linecap:round;"/>
   </g>
   <g id="line2d_32">
    <path clip-path="url(#p22bd42c70c)" d="M 235.729687 39.460129 
L 239.158867 39.460129 
" style="fill:none;stroke:#377eb8;stroke-linecap:round;"/>
   </g>
   <g id="line2d_33">
    <path clip-path="url(#p22bd42c70c)" d="M 168.860677 26.472723 
L 203.152477 41.185363 
L 237.444277 52.573386 
" style="fill:none;stroke:#377eb8;stroke-dasharray:1.35,2.2275;stroke-dashoffset:0;stroke-width:1.35;"/>
   </g>
   <g id="line2d_34">
    <path clip-path="url(#p22bd42c70c)" d="M 168.860677 27.914896 
L 168.860677 25.04462 
" style="fill:none;stroke:#377eb8;stroke-linecap:round;"/>
   </g>
   <g id="line2d_35">
    <path clip-path="url(#p22bd42c70c)" d="M 167.146086 27.914896 
L 170.575267 27.914896 
" style="fill:none;stroke:#377eb8;stroke-linecap:round;"/>
   </g>
   <g id="line2d_36">
    <path clip-path="url(#p22bd42c70c)" d="M 167.146086 25.04462 
L 170.575267 25.04462 
" style="fill:none;stroke:#377eb8;stroke-linecap:round;"/>
   </g>
   <g id="line2d_37">
    <path clip-path="url(#p22bd42c70c)" d="M 203.152477 47.256949 
L 203.152477 35.774024 
" style="fill:none;stroke:#377eb8;stroke-linecap:round;"/>
   </g>
   <g id="line2d_38">
    <path clip-path="url(#p22bd42c70c)" d="M 201.437887 47.256949 
L 204.867067 47.256949 
" style="fill:none;stroke:#377eb8;stroke-linecap:round;"/>
   </g>
   <g id="line2d_39">
    <path clip-path="url(#p22bd42c70c)" d="M 201.437887 35.774024 
L 204.867067 35.774024 
" style="fill:none;stroke:#377eb8;stroke-linecap:round;"/>
   </g>
   <g id="line2d_40">
    <path clip-path="url(#p22bd42c70c)" d="M 237.444277 61.225734 
L 237.444277 42.593691 
" style="fill:none;stroke:#377eb8;stroke-linecap:round;"/>
   </g>
   <g id="line2d_41">
    <path clip-path="url(#p22bd42c70c)" d="M 235.729687 61.225734 
L 239.158867 61.225734 
" style="fill:none;stroke:#377eb8;stroke-linecap:round;"/>
   </g>
   <g id="line2d_42">
    <path clip-path="url(#p22bd42c70c)" d="M 235.729687 42.593691 
L 239.158867 42.593691 
" style="fill:none;stroke:#377eb8;stroke-linecap:round;"/>
   </g>
   <g id="patch_5">
    <path d="M 151.714776 77.26 
L 254.590178 77.26 
" style="fill:none;stroke:#cccccc;stroke-linecap:square;stroke-linejoin:miter;stroke-width:1.25;"/>
   </g>
  </g>
  <g id="axes_3">
   <g id="patch_6">
    <path d="M 254.590178 77.26 
L 357.465579 77.26 
L 357.465579 20.16 
L 254.590178 20.16 
z
" style="fill:none;"/>
   </g>
   <g id="matplotlib.axis_5">
    <g id="xtick_7"/>
    <g id="xtick_8"/>
    <g id="xtick_9"/>
   </g>
   <g id="matplotlib.axis_6">
    <g id="ytick_13">
     <g id="line2d_43">
      <path clip-path="url(#p4b7543393b)" d="M 254.590178 77.26 
L 357.465579 77.26 
" style="fill:none;stroke:#cccccc;stroke-linecap:round;"/>
     </g>
    </g>
    <g id="ytick_14">
     <g id="line2d_44">
      <path clip-path="url(#p4b7543393b)" d="M 254.590178 65.84 
L 357.465579 65.84 
" style="fill:none;stroke:#cccccc;stroke-linecap:round;"/>
     </g>
    </g>
    <g id="ytick_15">
     <g id="line2d_45">
      <path clip-path="url(#p4b7543393b)" d="M 254.590178 54.42 
L 357.465579 54.42 
" style="fill:none;stroke:#cccccc;stroke-linecap:round;"/>
     </g>
    </g>
    <g id="ytick_16">
     <g id="line2d_46">
      <path clip-path="url(#p4b7543393b)" d="M 254.590178 43 
L 357.465579 43 
" style="fill:none;stroke:#cccccc;stroke-linecap:round;"/>
     </g>
    </g>
    <g id="ytick_17">
     <g id="line2d_47">
      <path clip-path="url(#p4b7543393b)" d="M 254.590178 31.58 
L 357.465579 31.58 
" style="fill:none;stroke:#cccccc;stroke-linecap:round;"/>
     </g>
    </g>
    <g id="ytick_18">
     <g id="line2d_48">
      <path clip-path="url(#p4b7543393b)" d="M 254.590178 20.16 
L 357.465579 20.16 
" style="fill:none;stroke:#cccccc;stroke-linecap:round;"/>
     </g>
    </g>
   </g>
   <g id="PathCollection_4">
    <defs>
     <path d="M 0 0.845987 
C 0.224358 0.845987 0.439558 0.756849 0.598203 0.598203 
C 0.756849 0.439558 0.845987 0.224358 0.845987 -0 
C 0.845987 -0.224358 0.756849 -0.439558 0.598203 -0.598203 
C 0.439558 -0.756849 0.224358 -0.845987 0 -0.845987 
C -0.224358 -0.845987 -0.439558 -0.756849 -0.598203 -0.598203 
C -0.756849 -0.439558 -0.845987 -0.224358 -0.845987 0 
C -0.845987 0.224358 -0.756849 0.439558 -0.598203 0.598203 
C -0.439558 0.756849 -0.224358 0.845987 0 0.845987 
z
" id="C3_0_5af8a83f32"/>
    </defs>
    <g clip-path="url(#p4b7543393b)">
     <use style="fill:#984ea3;stroke:#984ea3;stroke-width:1.0125;" x="271.736078" xlink:href="#C3_0_5af8a83f32" y="27.336898"/>
    </g>
    <g clip-path="url(#p4b7543393b)">
     <use style="fill:#984ea3;stroke:#984ea3;stroke-width:1.0125;" x="306.027878" xlink:href="#C3_0_5af8a83f32" y="44.61536"/>
    </g>
    <g clip-path="url(#p4b7543393b)">
     <use style="fill:#984ea3;stroke:#984ea3;stroke-width:1.0125;" x="340.319679" xlink:href="#C3_0_5af8a83f32" y="56.566389"/>
    </g>
   </g>
   <g id="PathCollection_5">
    <defs>
     <path d="M 0 0.845987 
C 0.224358 0.845987 0.439558 0.756849 0.598203 0.598203 
C 0.756849 0.439558 0.845987 0.224358 0.845987 -0 
C 0.845987 -0.224358 0.756849 -0.439558 0.598203 -0.598203 
C 0.439558 -0.756849 0.224358 -0.845987 0 -0.845987 
C -0.224358 -0.845987 -0.439558 -0.756849 -0.598203 -0.598203 
C -0.756849 -0.439558 -0.845987 -0.224358 -0.845987 0 
C -0.845987 0.224358 -0.756849 0.439558 -0.598203 0.598203 
C -0.439558 0.756849 -0.224358 0.845987 0 0.845987 
z
" id="C4_0_0feec1469c"/>
    </defs>
    <g clip-path="url(#p4b7543393b)">
     <use style="fill:#984ea3;stroke:#984ea3;stroke-width:1.0125;" x="271.736078" xlink:href="#C4_0_0feec1469c" y="26.015605"/>
    </g>
    <g clip-path="url(#p4b7543393b)">
     <use style="fill:#984ea3;stroke:#984ea3;stroke-width:1.0125;" x="306.027878" xlink:href="#C4_0_0feec1469c" y="40.518434"/>
    </g>
    <g clip-path="url(#p4b7543393b)">
     <use style="fill:#984ea3;stroke:#984ea3;stroke-width:1.0125;" x="340.319679" xlink:href="#C4_0_0feec1469c" y="50.921484"/>
    </g>
   </g>
   <g id="line2d_49">
    <path clip-path="url(#p4b7543393b)" d="M 271.736078 27.336898 
L 306.027878 44.61536 
L 340.319679 56.566389 
" style="fill:none;stroke:#984ea3;stroke-linecap:round;stroke-width:1.35;"/>
   </g>
   <g id="line2d_50">
    <path clip-path="url(#p4b7543393b)" d="M 271.736078 29.27333 
L 271.736078 25.472154 
" style="fill:none;stroke:#984ea3;stroke-linecap:round;"/>
   </g>
   <g id="line2d_51">
    <path clip-path="url(#p4b7543393b)" d="M 270.021488 29.27333 
L 273.450668 29.27333 
" style="fill:none;stroke:#984ea3;stroke-linecap:round;"/>
   </g>
   <g id="line2d_52">
    <path clip-path="url(#p4b7543393b)" d="M 270.021488 25.472154 
L 273.450668 25.472154 
" style="fill:none;stroke:#984ea3;stroke-linecap:round;"/>
   </g>
   <g id="line2d_53">
    <path clip-path="url(#p4b7543393b)" d="M 306.027878 52.376049 
L 306.027878 37.104326 
" style="fill:none;stroke:#984ea3;stroke-linecap:round;"/>
   </g>
   <g id="line2d_54">
    <path clip-path="url(#p4b7543393b)" d="M 304.313288 52.376049 
L 307.742468 52.376049 
" style="fill:none;stroke:#984ea3;stroke-linecap:round;"/>
   </g>
   <g id="line2d_55">
    <path clip-path="url(#p4b7543393b)" d="M 304.313288 37.104326 
L 307.742468 37.104326 
" style="fill:none;stroke:#984ea3;stroke-linecap:round;"/>
   </g>
   <g id="line2d_56">
    <path clip-path="url(#p4b7543393b)" d="M 340.319679 63.750811 
L 340.319679 46.67587 
" style="fill:none;stroke:#984ea3;stroke-linecap:round;"/>
   </g>
   <g id="line2d_57">
    <path clip-path="url(#p4b7543393b)" d="M 338.605089 63.750811 
L 342.034269 63.750811 
" style="fill:none;stroke:#984ea3;stroke-linecap:round;"/>
   </g>
   <g id="line2d_58">
    <path clip-path="url(#p4b7543393b)" d="M 338.605089 46.67587 
L 342.034269 46.67587 
" style="fill:none;stroke:#984ea3;stroke-linecap:round;"/>
   </g>
   <g id="line2d_59">
    <path clip-path="url(#p4b7543393b)" d="M 271.736078 26.015605 
L 306.027878 40.518434 
L 340.319679 50.921484 
" style="fill:none;stroke:#984ea3;stroke-dasharray:1.35,2.2275;stroke-dashoffset:0;stroke-width:1.35;"/>
   </g>
   <g id="line2d_60">
    <path clip-path="url(#p4b7543393b)" d="M 271.736078 27.877506 
L 271.736078 24.367115 
" style="fill:none;stroke:#984ea3;stroke-linecap:round;"/>
   </g>
   <g id="line2d_61">
    <path clip-path="url(#p4b7543393b)" d="M 270.021488 27.877506 
L 273.450668 27.877506 
" style="fill:none;stroke:#984ea3;stroke-linecap:round;"/>
   </g>
   <g id="line2d_62">
    <path clip-path="url(#p4b7543393b)" d="M 270.021488 24.367115 
L 273.450668 24.367115 
" style="fill:none;stroke:#984ea3;stroke-linecap:round;"/>
   </g>
   <g id="line2d_63">
    <path clip-path="url(#p4b7543393b)" d="M 306.027878 47.232265 
L 306.027878 33.974217 
" style="fill:none;stroke:#984ea3;stroke-linecap:round;"/>
   </g>
   <g id="line2d_64">
    <path clip-path="url(#p4b7543393b)" d="M 304.313288 47.232265 
L 307.742468 47.232265 
" style="fill:none;stroke:#984ea3;stroke-linecap:round;"/>
   </g>
   <g id="line2d_65">
    <path clip-path="url(#p4b7543393b)" d="M 304.313288 33.974217 
L 307.742468 33.974217 
" style="fill:none;stroke:#984ea3;stroke-linecap:round;"/>
   </g>
   <g id="line2d_66">
    <path clip-path="url(#p4b7543393b)" d="M 340.319679 58.545718 
L 340.319679 41.974655 
" style="fill:none;stroke:#984ea3;stroke-linecap:round;"/>
   </g>
   <g id="line2d_67">
    <path clip-path="url(#p4b7543393b)" d="M 338.605089 58.545718 
L 342.034269 58.545718 
" style="fill:none;stroke:#984ea3;stroke-linecap:round;"/>
   </g>
   <g id="line2d_68">
    <path clip-path="url(#p4b7543393b)" d="M 338.605089 41.974655 
L 342.034269 41.974655 
" style="fill:none;stroke:#984ea3;stroke-linecap:round;"/>
   </g>
   <g id="patch_7">
    <path d="M 254.590178 77.26 
L 357.465579 77.26 
" style="fill:none;stroke:#cccccc;stroke-linecap:square;stroke-linejoin:miter;stroke-width:1.25;"/>
   </g>
  </g>
  <g id="axes_4">
   <g id="patch_8">
    <path d="M 357.465579 77.26 
L 460.34098 77.26 
L 460.34098 20.16 
L 357.465579 20.16 
z
" style="fill:none;"/>
   </g>
   <g id="matplotlib.axis_7">
    <g id="xtick_10"/>
    <g id="xtick_11"/>
    <g id="xtick_12"/>
   </g>
   <g id="matplotlib.axis_8">
    <g id="ytick_19">
     <g id="line2d_69">
      <path clip-path="url(#p1ab7e39cbd)" d="M 357.465579 77.26 
L 460.34098 77.26 
" style="fill:none;stroke:#cccccc;stroke-linecap:round;"/>
     </g>
    </g>
    <g id="ytick_20">
     <g id="line2d_70">
      <path clip-path="url(#p1ab7e39cbd)" d="M 357.465579 65.84 
L 460.34098 65.84 
" style="fill:none;stroke:#cccccc;stroke-linecap:round;"/>
     </g>
    </g>
    <g id="ytick_21">
     <g id="line2d_71">
      <path clip-path="url(#p1ab7e39cbd)" d="M 357.465579 54.42 
L 460.34098 54.42 
" style="fill:none;stroke:#cccccc;stroke-linecap:round;"/>
     </g>
    </g>
    <g id="ytick_22">
     <g id="line2d_72">
      <path clip-path="url(#p1ab7e39cbd)" d="M 357.465579 43 
L 460.34098 43 
" style="fill:none;stroke:#cccccc;stroke-linecap:round;"/>
     </g>
    </g>
    <g id="ytick_23">
     <g id="line2d_73">
      <path clip-path="url(#p1ab7e39cbd)" d="M 357.465579 31.58 
L 460.34098 31.58 
" style="fill:none;stroke:#cccccc;stroke-linecap:round;"/>
     </g>
    </g>
    <g id="ytick_24">
     <g id="line2d_74">
      <path clip-path="url(#p1ab7e39cbd)" d="M 357.465579 20.16 
L 460.34098 20.16 
" style="fill:none;stroke:#cccccc;stroke-linecap:round;"/>
     </g>
    </g>
   </g>
   <g id="PathCollection_6">
    <defs>
     <path d="M 0 0.845987 
C 0.224358 0.845987 0.439558 0.756849 0.598203 0.598203 
C 0.756849 0.439558 0.845987 0.224358 0.845987 -0 
C 0.845987 -0.224358 0.756849 -0.439558 0.598203 -0.598203 
C 0.439558 -0.756849 0.224358 -0.845987 0 -0.845987 
C -0.224358 -0.845987 -0.439558 -0.756849 -0.598203 -0.598203 
C -0.756849 -0.439558 -0.845987 -0.224358 -0.845987 0 
C -0.845987 0.224358 -0.756849 0.439558 -0.598203 0.598203 
C -0.439558 0.756849 -0.224358 0.845987 0 0.845987 
z
" id="C5_0_9f06dbb825"/>
    </defs>
    <g clip-path="url(#p1ab7e39cbd)">
     <use style="fill:#4daf4a;stroke:#4daf4a;stroke-width:1.0125;" x="374.611479" xlink:href="#C5_0_9f06dbb825" y="27.197004"/>
    </g>
    <g clip-path="url(#p1ab7e39cbd)">
     <use style="fill:#4daf4a;stroke:#4daf4a;stroke-width:1.0125;" x="408.90328" xlink:href="#C5_0_9f06dbb825" y="36.865747"/>
    </g>
    <g clip-path="url(#p1ab7e39cbd)">
     <use style="fill:#4daf4a;stroke:#4daf4a;stroke-width:1.0125;" x="443.19508" xlink:href="#C5_0_9f06dbb825" y="41.957925"/>
    </g>
   </g>
   <g id="PathCollection_7">
    <defs>
     <path d="M 0 0.845987 
C 0.224358 0.845987 0.439558 0.756849 0.598203 0.598203 
C 0.756849 0.439558 0.845987 0.224358 0.845987 -0 
C 0.845987 -0.224358 0.756849 -0.439558 0.598203 -0.598203 
C 0.439558 -0.756849 0.224358 -0.845987 0 -0.845987 
C -0.224358 -0.845987 -0.439558 -0.756849 -0.598203 -0.598203 
C -0.756849 -0.439558 -0.845987 -0.224358 -0.845987 0 
C -0.845987 0.224358 -0.756849 0.439558 -0.598203 0.598203 
C -0.439558 0.756849 -0.224358 0.845987 0 0.845987 
z
" id="C6_0_2d5d222be1"/>
    </defs>
    <g clip-path="url(#p1ab7e39cbd)">
     <use style="fill:#4daf4a;stroke:#4daf4a;stroke-width:1.0125;" x="374.611479" xlink:href="#C6_0_2d5d222be1" y="24.917573"/>
    </g>
    <g clip-path="url(#p1ab7e39cbd)">
     <use style="fill:#4daf4a;stroke:#4daf4a;stroke-width:1.0125;" x="408.90328" xlink:href="#C6_0_2d5d222be1" y="28.094616"/>
    </g>
    <g clip-path="url(#p1ab7e39cbd)">
     <use style="fill:#4daf4a;stroke:#4daf4a;stroke-width:1.0125;" x="443.19508" xlink:href="#C6_0_2d5d222be1" y="26.664261"/>
    </g>
   </g>
   <g id="line2d_75">
    <path clip-path="url(#p1ab7e39cbd)" d="M 374.611479 27.197004 
L 408.90328 36.865747 
L 443.19508 41.957925 
" style="fill:none;stroke:#4daf4a;stroke-linecap:round;stroke-width:1.35;"/>
   </g>
   <g id="line2d_76">
    <path clip-path="url(#p1ab7e39cbd)" d="M 374.611479 29.487386 
L 374.611479 25.064905 
" style="fill:none;stroke:#4daf4a;stroke-linecap:round;"/>
   </g>
   <g id="line2d_77">
    <path clip-path="url(#p1ab7e39cbd)" d="M 372.896889 29.487386 
L 376.326069 29.487386 
" style="fill:none;stroke:#4daf4a;stroke-linecap:round;"/>
   </g>
   <g id="line2d_78">
    <path clip-path="url(#p1ab7e39cbd)" d="M 372.896889 25.064905 
L 376.326069 25.064905 
" style="fill:none;stroke:#4daf4a;stroke-linecap:round;"/>
   </g>
   <g id="line2d_79">
    <path clip-path="url(#p1ab7e39cbd)" d="M 408.90328 44.702137 
L 408.90328 28.945135 
" style="fill:none;stroke:#4daf4a;stroke-linecap:round;"/>
   </g>
   <g id="line2d_80">
    <path clip-path="url(#p1ab7e39cbd)" d="M 407.18869 44.702137 
L 410.61787 44.702137 
" style="fill:none;stroke:#4daf4a;stroke-linecap:round;"/>
   </g>
   <g id="line2d_81">
    <path clip-path="url(#p1ab7e39cbd)" d="M 407.18869 28.945135 
L 410.61787 28.945135 
" style="fill:none;stroke:#4daf4a;stroke-linecap:round;"/>
   </g>
   <g id="line2d_82">
    <path clip-path="url(#p1ab7e39cbd)" d="M 443.19508 53.784791 
L 443.19508 29.619557 
" style="fill:none;stroke:#4daf4a;stroke-linecap:round;"/>
   </g>
   <g id="line2d_83">
    <path clip-path="url(#p1ab7e39cbd)" d="M 441.48049 53.784791 
L 444.90967 53.784791 
" style="fill:none;stroke:#4daf4a;stroke-linecap:round;"/>
   </g>
   <g id="line2d_84">
    <path clip-path="url(#p1ab7e39cbd)" d="M 441.48049 29.619557 
L 444.90967 29.619557 
" style="fill:none;stroke:#4daf4a;stroke-linecap:round;"/>
   </g>
   <g id="line2d_85">
    <path clip-path="url(#p1ab7e39cbd)" d="M 374.611479 24.917573 
L 408.90328 28.094616 
L 443.19508 26.664261 
" style="fill:none;stroke:#4daf4a;stroke-dasharray:1.35,2.2275;stroke-dashoffset:0;stroke-width:1.35;"/>
   </g>
   <g id="line2d_86">
    <path clip-path="url(#p1ab7e39cbd)" d="M 374.611479 26.369382 
L 374.611479 23.457798 
" style="fill:none;stroke:#4daf4a;stroke-linecap:round;"/>
   </g>
   <g id="line2d_87">
    <path clip-path="url(#p1ab7e39cbd)" d="M 372.896889 26.369382 
L 376.326069 26.369382 
" style="fill:none;stroke:#4daf4a;stroke-linecap:round;"/>
   </g>
   <g id="line2d_88">
    <path clip-path="url(#p1ab7e39cbd)" d="M 372.896889 23.457798 
L 376.326069 23.457798 
" style="fill:none;stroke:#4daf4a;stroke-linecap:round;"/>
   </g>
   <g id="line2d_89">
    <path clip-path="url(#p1ab7e39cbd)" d="M 408.90328 31.224281 
L 408.90328 24.750298 
" style="fill:none;stroke:#4daf4a;stroke-linecap:round;"/>
   </g>
   <g id="line2d_90">
    <path clip-path="url(#p1ab7e39cbd)" d="M 407.18869 31.224281 
L 410.61787 31.224281 
" style="fill:none;stroke:#4daf4a;stroke-linecap:round;"/>
   </g>
   <g id="line2d_91">
    <path clip-path="url(#p1ab7e39cbd)" d="M 407.18869 24.750298 
L 410.61787 24.750298 
" style="fill:none;stroke:#4daf4a;stroke-linecap:round;"/>
   </g>
   <g id="line2d_92">
    <path clip-path="url(#p1ab7e39cbd)" d="M 443.19508 30.363642 
L 443.19508 22.818376 
" style="fill:none;stroke:#4daf4a;stroke-linecap:round;"/>
   </g>
   <g id="line2d_93">
    <path clip-path="url(#p1ab7e39cbd)" d="M 441.48049 30.363642 
L 444.90967 30.363642 
" style="fill:none;stroke:#4daf4a;stroke-linecap:round;"/>
   </g>
   <g id="line2d_94">
    <path clip-path="url(#p1ab7e39cbd)" d="M 441.48049 22.818376 
L 444.90967 22.818376 
" style="fill:none;stroke:#4daf4a;stroke-linecap:round;"/>
   </g>
   <g id="patch_9">
    <path d="M 357.465579 77.26 
L 460.34098 77.26 
" style="fill:none;stroke:#cccccc;stroke-linecap:square;stroke-linejoin:miter;stroke-width:1.25;"/>
   </g>
  </g>
  <g id="axes_5">
   <g id="patch_10">
    <path d="M 460.34098 77.26 
L 563.216382 77.26 
L 563.216382 20.16 
L 460.34098 20.16 
z
" style="fill:none;"/>
   </g>
   <g id="matplotlib.axis_9">
    <g id="xtick_13"/>
    <g id="xtick_14"/>
    <g id="xtick_15"/>
   </g>
   <g id="matplotlib.axis_10">
    <g id="ytick_25">
     <g id="line2d_95">
      <path clip-path="url(#pbe7e1a0da9)" d="M 460.34098 77.26 
L 563.216382 77.26 
" style="fill:none;stroke:#cccccc;stroke-linecap:round;"/>
     </g>
    </g>
    <g id="ytick_26">
     <g id="line2d_96">
      <path clip-path="url(#pbe7e1a0da9)" d="M 460.34098 65.84 
L 563.216382 65.84 
" style="fill:none;stroke:#cccccc;stroke-linecap:round;"/>
     </g>
    </g>
    <g id="ytick_27">
     <g id="line2d_97">
      <path clip-path="url(#pbe7e1a0da9)" d="M 460.34098 54.42 
L 563.216382 54.42 
" style="fill:none;stroke:#cccccc;stroke-linecap:round;"/>
     </g>
    </g>
    <g id="ytick_28">
     <g id="line2d_98">
      <path clip-path="url(#pbe7e1a0da9)" d="M 460.34098 43 
L 563.216382 43 
" style="fill:none;stroke:#cccccc;stroke-linecap:round;"/>
     </g>
    </g>
    <g id="ytick_29">
     <g id="line2d_99">
      <path clip-path="url(#pbe7e1a0da9)" d="M 460.34098 31.58 
L 563.216382 31.58 
" style="fill:none;stroke:#cccccc;stroke-linecap:round;"/>
     </g>
    </g>
    <g id="ytick_30">
     <g id="line2d_100">
      <path clip-path="url(#pbe7e1a0da9)" d="M 460.34098 20.16 
L 563.216382 20.16 
" style="fill:none;stroke:#cccccc;stroke-linecap:round;"/>
     </g>
    </g>
   </g>
   <g id="PathCollection_8">
    <defs>
     <path d="M 0 0.845987 
C 0.224358 0.845987 0.439558 0.756849 0.598203 0.598203 
C 0.756849 0.439558 0.845987 0.224358 0.845987 -0 
C 0.845987 -0.224358 0.756849 -0.439558 0.598203 -0.598203 
C 0.439558 -0.756849 0.224358 -0.845987 0 -0.845987 
C -0.224358 -0.845987 -0.439558 -0.756849 -0.598203 -0.598203 
C -0.756849 -0.439558 -0.845987 -0.224358 -0.845987 0 
C -0.845987 0.224358 -0.756849 0.439558 -0.598203 0.598203 
C -0.439558 0.756849 -0.224358 0.845987 0 0.845987 
z
" id="C7_0_f3969e9469"/>
    </defs>
    <g clip-path="url(#pbe7e1a0da9)">
     <use style="fill:#e41a1c;stroke:#e41a1c;stroke-width:1.0125;" x="477.48688" xlink:href="#C7_0_f3969e9469" y="27.909611"/>
    </g>
    <g clip-path="url(#pbe7e1a0da9)">
     <use style="fill:#e41a1c;stroke:#e41a1c;stroke-width:1.0125;" x="511.778681" xlink:href="#C7_0_f3969e9469" y="43.470361"/>
    </g>
    <g clip-path="url(#pbe7e1a0da9)">
     <use style="fill:#e41a1c;stroke:#e41a1c;stroke-width:1.0125;" x="546.070481" xlink:href="#C7_0_f3969e9469" y="53.637096"/>
    </g>
   </g>
   <g id="PathCollection_9">
    <defs>
     <path d="M 0 0.845987 
C 0.224358 0.845987 0.439558 0.756849 0.598203 0.598203 
C 0.756849 0.439558 0.845987 0.224358 0.845987 -0 
C 0.845987 -0.224358 0.756849 -0.439558 0.598203 -0.598203 
C 0.439558 -0.756849 0.224358 -0.845987 0 -0.845987 
C -0.224358 -0.845987 -0.439558 -0.756849 -0.598203 -0.598203 
C -0.756849 -0.439558 -0.845987 -0.224358 -0.845987 0 
C -0.845987 0.224358 -0.756849 0.439558 -0.598203 0.598203 
C -0.439558 0.756849 -0.224358 0.845987 0 0.845987 
z
" id="C8_0_87fa57f4e1"/>
    </defs>
    <g clip-path="url(#pbe7e1a0da9)">
     <use style="fill:#e41a1c;stroke:#e41a1c;stroke-width:1.0125;" x="477.48688" xlink:href="#C8_0_87fa57f4e1" y="27.376298"/>
    </g>
    <g clip-path="url(#pbe7e1a0da9)">
     <use style="fill:#e41a1c;stroke:#e41a1c;stroke-width:1.0125;" x="511.778681" xlink:href="#C8_0_87fa57f4e1" y="35.192146"/>
    </g>
    <g clip-path="url(#pbe7e1a0da9)">
     <use style="fill:#e41a1c;stroke:#e41a1c;stroke-width:1.0125;" x="546.070481" xlink:href="#C8_0_87fa57f4e1" y="49.576208"/>
    </g>
   </g>
   <g id="line2d_101">
    <path clip-path="url(#pbe7e1a0da9)" d="M 477.48688 27.909611 
L 511.778681 43.470361 
L 546.070481 53.637096 
" style="fill:none;stroke:#e41a1c;stroke-linecap:round;stroke-width:1.35;"/>
   </g>
   <g id="line2d_102">
    <path clip-path="url(#pbe7e1a0da9)" d="M 477.48688 29.608264 
L 477.48688 26.313038 
" style="fill:none;stroke:#e41a1c;stroke-linecap:round;"/>
   </g>
   <g id="line2d_103">
    <path clip-path="url(#pbe7e1a0da9)" d="M 475.77229 29.608264 
L 479.20147 29.608264 
" style="fill:none;stroke:#e41a1c;stroke-linecap:round;"/>
   </g>
   <g id="line2d_104">
    <path clip-path="url(#pbe7e1a0da9)" d="M 475.77229 26.313038 
L 479.20147 26.313038 
" style="fill:none;stroke:#e41a1c;stroke-linecap:round;"/>
   </g>
   <g id="line2d_105">
    <path clip-path="url(#pbe7e1a0da9)" d="M 511.778681 52.274698 
L 511.778681 36.061584 
" style="fill:none;stroke:#e41a1c;stroke-linecap:round;"/>
   </g>
   <g id="line2d_106">
    <path clip-path="url(#pbe7e1a0da9)" d="M 510.064091 52.274698 
L 513.493271 52.274698 
" style="fill:none;stroke:#e41a1c;stroke-linecap:round;"/>
   </g>
   <g id="line2d_107">
    <path clip-path="url(#pbe7e1a0da9)" d="M 510.064091 36.061584 
L 513.493271 36.061584 
" style="fill:none;stroke:#e41a1c;stroke-linecap:round;"/>
   </g>
   <g id="line2d_108">
    <path clip-path="url(#pbe7e1a0da9)" d="M 546.070481 62.992217 
L 546.070481 42.944232 
" style="fill:none;stroke:#e41a1c;stroke-linecap:round;"/>
   </g>
   <g id="line2d_109">
    <path clip-path="url(#pbe7e1a0da9)" d="M 544.355891 62.992217 
L 547.785071 62.992217 
" style="fill:none;stroke:#e41a1c;stroke-linecap:round;"/>
   </g>
   <g id="line2d_110">
    <path clip-path="url(#pbe7e1a0da9)" d="M 544.355891 42.944232 
L 547.785071 42.944232 
" style="fill:none;stroke:#e41a1c;stroke-linecap:round;"/>
   </g>
   <g id="line2d_111">
    <path clip-path="url(#pbe7e1a0da9)" d="M 477.48688 27.376298 
L 511.778681 35.192146 
L 546.070481 49.576208 
" style="fill:none;stroke:#e41a1c;stroke-dasharray:1.35,2.2275;stroke-dashoffset:0;stroke-width:1.35;"/>
   </g>
   <g id="line2d_112">
    <path clip-path="url(#pbe7e1a0da9)" d="M 477.48688 28.887328 
L 477.48688 26.001944 
" style="fill:none;stroke:#e41a1c;stroke-linecap:round;"/>
   </g>
   <g id="line2d_113">
    <path clip-path="url(#pbe7e1a0da9)" d="M 475.77229 28.887328 
L 479.20147 28.887328 
" style="fill:none;stroke:#e41a1c;stroke-linecap:round;"/>
   </g>
   <g id="line2d_114">
    <path clip-path="url(#pbe7e1a0da9)" d="M 475.77229 26.001944 
L 479.20147 26.001944 
" style="fill:none;stroke:#e41a1c;stroke-linecap:round;"/>
   </g>
   <g id="line2d_115">
    <path clip-path="url(#pbe7e1a0da9)" d="M 511.778681 37.872342 
L 511.778681 32.23463 
" style="fill:none;stroke:#e41a1c;stroke-linecap:round;"/>
   </g>
   <g id="line2d_116">
    <path clip-path="url(#pbe7e1a0da9)" d="M 510.064091 37.872342 
L 513.493271 37.872342 
" style="fill:none;stroke:#e41a1c;stroke-linecap:round;"/>
   </g>
   <g id="line2d_117">
    <path clip-path="url(#pbe7e1a0da9)" d="M 510.064091 32.23463 
L 513.493271 32.23463 
" style="fill:none;stroke:#e41a1c;stroke-linecap:round;"/>
   </g>
   <g id="line2d_118">
    <path clip-path="url(#pbe7e1a0da9)" d="M 546.070481 53.529276 
L 546.070481 45.337439 
" style="fill:none;stroke:#e41a1c;stroke-linecap:round;"/>
   </g>
   <g id="line2d_119">
    <path clip-path="url(#pbe7e1a0da9)" d="M 544.355891 53.529276 
L 547.785071 53.529276 
" style="fill:none;stroke:#e41a1c;stroke-linecap:round;"/>
   </g>
   <g id="line2d_120">
    <path clip-path="url(#pbe7e1a0da9)" d="M 544.355891 45.337439 
L 547.785071 45.337439 
" style="fill:none;stroke:#e41a1c;stroke-linecap:round;"/>
   </g>
   <g id="patch_11">
    <path d="M 460.34098 77.26 
L 563.216382 77.26 
" style="fill:none;stroke:#cccccc;stroke-linecap:square;stroke-linejoin:miter;stroke-width:1.25;"/>
   </g>
  </g>
  <g id="axes_6">
   <g id="patch_12">
    <path d="M 607.364375 91.44 
L 624.860375 91.44 
L 624.860375 13.68 
L 607.364375 13.68 
z
" style="fill:none;"/>
   </g>
   <g id="matplotlib.axis_11"/>
   <g id="matplotlib.axis_12">
    <g id="ytick_31">
     <g id="line2d_121">
      <path clip-path="url(#p84175ca76b)" d="M 607.364375 91.44 
L 624.860375 91.44 
" style="fill:none;stroke:#cccccc;stroke-linecap:round;"/>
     </g>
     <g id="text_4">
      <text style="fill:#262626;font-family:DejaVu Sans;font-size:11px;font-stretch:normal;font-style:normal;font-weight:normal;text-anchor:end;" transform="rotate(-0, 597.864375, 95.619141)" x="597.864375" y="95.619141">0</text>
     </g>
    </g>
    <g id="ytick_32">
     <g id="line2d_122">
      <path clip-path="url(#p84175ca76b)" d="M 607.364375 86.677237 
L 624.860375 86.677237 
" style="fill:none;stroke:#cccccc;stroke-linecap:round;"/>
     </g>
    </g>
    <g id="ytick_33">
     <g id="line2d_123">
      <path clip-path="url(#p84175ca76b)" d="M 607.364375 81.914474 
L 624.860375 81.914474 
" style="fill:none;stroke:#cccccc;stroke-linecap:round;"/>
     </g>
    </g>
    <g id="ytick_34">
     <g id="line2d_124">
      <path clip-path="url(#p84175ca76b)" d="M 607.364375 77.151711 
L 624.860375 77.151711 
" style="fill:none;stroke:#cccccc;stroke-linecap:round;"/>
     </g>
    </g>
    <g id="ytick_35">
     <g id="line2d_125">
      <path clip-path="url(#p84175ca76b)" d="M 607.364375 72.388949 
L 624.860375 72.388949 
" style="fill:none;stroke:#cccccc;stroke-linecap:round;"/>
     </g>
    </g>
    <g id="ytick_36">
     <g id="line2d_126">
      <path clip-path="url(#p84175ca76b)" d="M 607.364375 67.626186 
L 624.860375 67.626186 
" style="fill:none;stroke:#cccccc;stroke-linecap:round;"/>
     </g>
    </g>
    <g id="ytick_37">
     <g id="line2d_127">
      <path clip-path="url(#p84175ca76b)" d="M 607.364375 62.863423 
L 624.860375 62.863423 
" style="fill:none;stroke:#cccccc;stroke-linecap:round;"/>
     </g>
    </g>
    <g id="ytick_38">
     <g id="line2d_128">
      <path clip-path="url(#p84175ca76b)" d="M 607.364375 58.10066 
L 624.860375 58.10066 
" style="fill:none;stroke:#cccccc;stroke-linecap:round;"/>
     </g>
    </g>
    <g id="ytick_39">
     <g id="line2d_129">
      <path clip-path="url(#p84175ca76b)" d="M 607.364375 53.337897 
L 624.860375 53.337897 
" style="fill:none;stroke:#cccccc;stroke-linecap:round;"/>
     </g>
    </g>
    <g id="ytick_40">
     <g id="line2d_130">
      <path clip-path="url(#p84175ca76b)" d="M 607.364375 48.575134 
L 624.860375 48.575134 
" style="fill:none;stroke:#cccccc;stroke-linecap:round;"/>
     </g>
    </g>
    <g id="ytick_41">
     <g id="line2d_131">
      <path clip-path="url(#p84175ca76b)" d="M 607.364375 43.812372 
L 624.860375 43.812372 
" style="fill:none;stroke:#cccccc;stroke-linecap:round;"/>
     </g>
    </g>
    <g id="ytick_42">
     <g id="line2d_132">
      <path clip-path="url(#p84175ca76b)" d="M 607.364375 39.049609 
L 624.860375 39.049609 
" style="fill:none;stroke:#cccccc;stroke-linecap:round;"/>
     </g>
    </g>
    <g id="ytick_43">
     <g id="line2d_133">
      <path clip-path="url(#p84175ca76b)" d="M 607.364375 34.286846 
L 624.860375 34.286846 
" style="fill:none;stroke:#cccccc;stroke-linecap:round;"/>
     </g>
    </g>
    <g id="ytick_44">
     <g id="line2d_134">
      <path clip-path="url(#p84175ca76b)" d="M 607.364375 29.524083 
L 624.860375 29.524083 
" style="fill:none;stroke:#cccccc;stroke-linecap:round;"/>
     </g>
    </g>
    <g id="ytick_45">
     <g id="line2d_135">
      <path clip-path="url(#p84175ca76b)" d="M 607.364375 24.76132 
L 624.860375 24.76132 
" style="fill:none;stroke:#cccccc;stroke-linecap:round;"/>
     </g>
    </g>
    <g id="ytick_46">
     <g id="line2d_136">
      <path clip-path="url(#p84175ca76b)" d="M 607.364375 19.998557 
L 624.860375 19.998557 
" style="fill:none;stroke:#cccccc;stroke-linecap:round;"/>
     </g>
    </g>
    <g id="ytick_47">
     <g id="line2d_137">
      <path clip-path="url(#p84175ca76b)" d="M 607.364375 15.235795 
L 624.860375 15.235795 
" style="fill:none;stroke:#cccccc;stroke-linecap:round;"/>
     </g>
     <g id="text_5">
      <text style="fill:#262626;font-family:DejaVu Sans;font-size:11px;font-stretch:normal;font-style:normal;font-weight:normal;text-anchor:end;" transform="rotate(-0, 597.864375, 19.414935)" x="597.864375" y="19.414935">3200</text>
     </g>
    </g>
    <g id="text_6">
     <text style="fill:#262626;font-family:DejaVu Sans;font-size:11px;font-stretch:normal;font-style:normal;font-weight:normal;text-anchor:middle;" transform="rotate(-90, 582.581719, 52.56)" x="582.581719" y="52.56">Time [s] </text>
    </g>
   </g>
   <g id="EventCollection_1">
    <path clip-path="url(#p84175ca76b)" d="M 624.860375 16.061381 
L 607.364375 16.061381 
" style="fill:none;stroke:#000000;stroke-width:4;"/>
   </g>
   <g id="EventCollection_2">
    <path clip-path="url(#p84175ca76b)" d="M 624.860375 56.109551 
L 607.364375 56.109551 
" style="fill:none;stroke:#377eb8;stroke-width:4;"/>
   </g>
   <g id="EventCollection_3">
    <path clip-path="url(#p84175ca76b)" d="M 624.860375 52.955321 
L 607.364375 52.955321 
" style="fill:none;stroke:#984ea3;stroke-width:4;"/>
   </g>
   <g id="EventCollection_4">
    <path clip-path="url(#p84175ca76b)" d="M 624.860375 59.521513 
L 607.364375 59.521513 
" style="fill:none;stroke:#4daf4a;stroke-width:4;"/>
   </g>
   <g id="EventCollection_5">
    <path clip-path="url(#p84175ca76b)" d="M 624.860375 64.066711 
L 607.364375 64.066711 
" style="fill:none;stroke:#e41a1c;stroke-width:4;"/>
   </g>
   <g id="patch_13">
    <path d="M 607.364375 91.44 
L 607.364375 13.68 
" style="fill:none;stroke:#cccccc;stroke-linecap:square;stroke-linejoin:miter;stroke-width:1.25;"/>
   </g>
   <g id="patch_14">
    <path d="M 624.860375 91.44 
L 624.860375 13.68 
" style="fill:none;stroke:#cccccc;stroke-linecap:square;stroke-linejoin:miter;stroke-width:1.25;"/>
   </g>
   <g id="patch_15">
    <path d="M 607.364375 91.44 
L 624.860375 91.44 
" style="fill:none;stroke:#cccccc;stroke-linecap:square;stroke-linejoin:miter;stroke-width:1.25;"/>
   </g>
   <g id="patch_16">
    <path d="M 607.364375 13.68 
L 624.860375 13.68 
" style="fill:none;stroke:#cccccc;stroke-linecap:square;stroke-linejoin:miter;stroke-width:1.25;"/>
   </g>
  </g>
  <g id="text_7">
   <text style="fill:#262626;font-family:DejaVu Sans;font-size:11px;font-stretch:normal;font-style:normal;font-weight:normal;text-anchor:middle;" transform="rotate(-0, 304.100375, 15.558281)" x="304.100375" y="15.558281">Lotka volterra</text>
  </g>
 </g>
 <defs>
  <clipPath id="pe9e0e7b853">
   <rect height="57.1" width="102.875401" x="48.839375" y="20.16"/>
  </clipPath>
  <clipPath id="p22bd42c70c">
   <rect height="57.1" width="102.875401" x="151.714776" y="20.16"/>
  </clipPath>
  <clipPath id="p4b7543393b">
   <rect height="57.1" width="102.875401" x="254.590178" y="20.16"/>
  </clipPath>
  <clipPath id="p1ab7e39cbd">
   <rect height="57.1" width="102.875401" x="357.465579" y="20.16"/>
  </clipPath>
  <clipPath id="pbe7e1a0da9">
   <rect height="57.1" width="102.875401" x="460.34098" y="20.16"/>
  </clipPath>
  <clipPath id="p84175ca76b">
   <rect height="77.76" width="17.496" x="607.364375" y="13.68"/>
  </clipPath>
 </defs>
</svg>
