<?xml version="1.0" encoding="utf-8" standalone="no"?>
<!DOCTYPE svg PUBLIC "-//W3C//DTD SVG 1.1//EN"
  "http://www.w3.org/Graphics/SVG/1.1/DTD/svg11.dtd">
<svg height="119.362797pt" version="1.1" viewBox="0 0 632.060375 119.362797" width="632.060375pt" xmlns="http://www.w3.org/2000/svg" xmlns:xlink="http://www.w3.org/1999/xlink">
 <metadata>
  <rdf:RDF xmlns:cc="http://creativecommons.org/ns#" xmlns:dc="http://purl.org/dc/elements/1.1/" xmlns:rdf="http://www.w3.org/1999/02/22-rdf-syntax-ns#">
   <cc:Work>
    <dc:type rdf:resource="http://purl.org/dc/dcmitype/StillImage"/>
    <dc:date>2021-10-05T15:55:41.905581</dc:date>
    <dc:format>image/svg+xml</dc:format>
    <dc:creator>
     <cc:Agent>
      <dc:title>Matplotlib v3.4.3, https://matplotlib.org/</dc:title>
     </cc:Agent>
    </dc:creator>
   </cc:Work>
  </rdf:RDF>
 </metadata>
 <defs>
  <style type="text/css">*{stroke-linecap:butt;stroke-linejoin:round;}</style>
 </defs>
 <g id="figure_1">
  <g id="patch_1">
   <path d="M 0 119.362797 
L 632.060375 119.362797 
L 632.060375 0 
L 0 0 
z
" style="fill:none;"/>
  </g>
  <g id="axes_1">
   <g id="patch_2">
    <path d="M 48.839375 91.516 
L 151.714776 91.516 
L 151.714776 34.416 
L 48.839375 34.416 
z
" style="fill:none;"/>
   </g>
   <g id="matplotlib.axis_1">
    <g id="xtick_1"/>
    <g id="xtick_2"/>
    <g id="xtick_3"/>
   </g>
   <g id="matplotlib.axis_2">
    <g id="ytick_1">
     <g id="line2d_1">
      <path clip-path="url(#p9cd311d7b6)" d="M 48.839375 91.516 
L 151.714776 91.516 
" style="fill:none;stroke:#cccccc;stroke-linecap:round;"/>
     </g>
     <g id="text_1">
      <text style="fill:#262626;font-family:DejaVu Sans;font-size:11px;font-stretch:normal;font-style:normal;font-weight:normal;text-anchor:end;" transform="rotate(-0, 39.339375, 95.695141)" x="39.339375" y="95.695141">0.5</text>
     </g>
    </g>
    <g id="ytick_2">
     <g id="line2d_2">
      <path clip-path="url(#p9cd311d7b6)" d="M 48.839375 80.096 
L 151.714776 80.096 
" style="fill:none;stroke:#cccccc;stroke-linecap:round;"/>
     </g>
    </g>
    <g id="ytick_3">
     <g id="line2d_3">
      <path clip-path="url(#p9cd311d7b6)" d="M 48.839375 68.676 
L 151.714776 68.676 
" style="fill:none;stroke:#cccccc;stroke-linecap:round;"/>
     </g>
    </g>
    <g id="ytick_4">
     <g id="line2d_4">
      <path clip-path="url(#p9cd311d7b6)" d="M 48.839375 57.256 
L 151.714776 57.256 
" style="fill:none;stroke:#cccccc;stroke-linecap:round;"/>
     </g>
    </g>
    <g id="ytick_5">
     <g id="line2d_5">
      <path clip-path="url(#p9cd311d7b6)" d="M 48.839375 45.836 
L 151.714776 45.836 
" style="fill:none;stroke:#cccccc;stroke-linecap:round;"/>
     </g>
    </g>
    <g id="ytick_6">
     <g id="line2d_6">
      <path clip-path="url(#p9cd311d7b6)" d="M 48.839375 34.416 
L 151.714776 34.416 
" style="fill:none;stroke:#cccccc;stroke-linecap:round;"/>
     </g>
     <g id="text_2">
      <text style="fill:#262626;font-family:DejaVu Sans;font-size:11px;font-stretch:normal;font-style:normal;font-weight:normal;text-anchor:end;" transform="rotate(-0, 39.339375, 38.595141)" x="39.339375" y="38.595141">1.0</text>
     </g>
    </g>
    <g id="text_3">
     <text style="fill:#262626;font-family:DejaVu Sans;font-size:11px;font-stretch:normal;font-style:normal;font-weight:normal;text-anchor:middle;" transform="rotate(-90, 15.558281, 62.966)" x="15.558281" y="62.966">C2ST</text>
    </g>
   </g>
   <g id="PathCollection_1">
    <defs>
     <path d="M 0 0.845987 
C 0.224358 0.845987 0.439558 0.756849 0.598203 0.598203 
C 0.756849 0.439558 0.845987 0.224358 0.845987 -0 
C 0.845987 -0.224358 0.756849 -0.439558 0.598203 -0.598203 
C 0.439558 -0.756849 0.224358 -0.845987 0 -0.845987 
C -0.224358 -0.845987 -0.439558 -0.756849 -0.598203 -0.598203 
C -0.756849 -0.439558 -0.845987 -0.224358 -0.845987 0 
C -0.845987 0.224358 -0.756849 0.439558 -0.598203 0.598203 
C -0.439558 0.756849 -0.224358 0.845987 0 0.845987 
z
" id="C0_0_9b4004ad75"/>
    </defs>
    <g clip-path="url(#p9cd311d7b6)">
     <use style="stroke:#000000;stroke-width:1.0125;" x="65.985275" xlink:href="#C0_0_9b4004ad75" y="64.347249"/>
    </g>
    <g clip-path="url(#p9cd311d7b6)">
     <use style="stroke:#000000;stroke-width:1.0125;" x="100.277076" xlink:href="#C0_0_9b4004ad75" y="77.722924"/>
    </g>
    <g clip-path="url(#p9cd311d7b6)">
     <use style="stroke:#000000;stroke-width:1.0125;" x="134.568876" xlink:href="#C0_0_9b4004ad75" y="88.8894"/>
    </g>
   </g>
   <g id="line2d_7">
    <path clip-path="url(#p9cd311d7b6)" d="M 65.985275 64.347249 
L 100.277076 77.722924 
L 134.568876 88.8894 
" style="fill:none;stroke:#000000;stroke-linecap:round;stroke-width:1.35;"/>
   </g>
   <g id="line2d_8">
    <path clip-path="url(#p9cd311d7b6)" d="M 65.985275 68.472611 
L 65.985275 60.617991 
" style="fill:none;stroke:#000000;stroke-linecap:round;"/>
   </g>
   <g id="line2d_9">
    <path clip-path="url(#p9cd311d7b6)" d="M 64.270685 68.472611 
L 67.699865 68.472611 
" style="fill:none;stroke:#000000;stroke-linecap:round;"/>
   </g>
   <g id="line2d_10">
    <path clip-path="url(#p9cd311d7b6)" d="M 64.270685 60.617991 
L 67.699865 60.617991 
" style="fill:none;stroke:#000000;stroke-linecap:round;"/>
   </g>
   <g id="line2d_11">
    <path clip-path="url(#p9cd311d7b6)" d="M 100.277076 80.112188 
L 100.277076 74.778619 
" style="fill:none;stroke:#000000;stroke-linecap:round;"/>
   </g>
   <g id="line2d_12">
    <path clip-path="url(#p9cd311d7b6)" d="M 98.562486 80.112188 
L 101.991666 80.112188 
" style="fill:none;stroke:#000000;stroke-linecap:round;"/>
   </g>
   <g id="line2d_13">
    <path clip-path="url(#p9cd311d7b6)" d="M 98.562486 74.778619 
L 101.991666 74.778619 
" style="fill:none;stroke:#000000;stroke-linecap:round;"/>
   </g>
   <g id="line2d_14">
    <path clip-path="url(#p9cd311d7b6)" d="M 134.568876 89.39542 
L 134.568876 88.230908 
" style="fill:none;stroke:#000000;stroke-linecap:round;"/>
   </g>
   <g id="line2d_15">
    <path clip-path="url(#p9cd311d7b6)" d="M 132.854286 89.39542 
L 136.283466 89.39542 
" style="fill:none;stroke:#000000;stroke-linecap:round;"/>
   </g>
   <g id="line2d_16">
    <path clip-path="url(#p9cd311d7b6)" d="M 132.854286 88.230908 
L 136.283466 88.230908 
" style="fill:none;stroke:#000000;stroke-linecap:round;"/>
   </g>
   <g id="patch_3">
    <path d="M 48.839375 91.516 
L 151.714776 91.516 
" style="fill:none;stroke:#cccccc;stroke-linecap:square;stroke-linejoin:miter;stroke-width:1.25;"/>
   </g>
   <g id="text_4">
    <text style="fill:#262626;font-family:DejaVu Sans;font-size:11px;font-stretch:normal;font-style:normal;font-weight:normal;text-anchor:middle;" transform="rotate(-0, 100.277076, 28.416)" x="100.277076" y="28.416">SNLE</text>
   </g>
  </g>
  <g id="axes_2">
   <g id="patch_4">
    <path d="M 151.714776 91.516 
L 254.590178 91.516 
L 254.590178 34.416 
L 151.714776 34.416 
z
" style="fill:none;"/>
   </g>
   <g id="matplotlib.axis_3">
    <g id="xtick_4"/>
    <g id="xtick_5"/>
    <g id="xtick_6"/>
   </g>
   <g id="matplotlib.axis_4">
    <g id="ytick_7">
     <g id="line2d_17">
      <path clip-path="url(#p4a32816530)" d="M 151.714776 91.516 
L 254.590178 91.516 
" style="fill:none;stroke:#cccccc;stroke-linecap:round;"/>
     </g>
    </g>
    <g id="ytick_8">
     <g id="line2d_18">
      <path clip-path="url(#p4a32816530)" d="M 151.714776 80.096 
L 254.590178 80.096 
" style="fill:none;stroke:#cccccc;stroke-linecap:round;"/>
     </g>
    </g>
    <g id="ytick_9">
     <g id="line2d_19">
      <path clip-path="url(#p4a32816530)" d="M 151.714776 68.676 
L 254.590178 68.676 
" style="fill:none;stroke:#cccccc;stroke-linecap:round;"/>
     </g>
    </g>
    <g id="ytick_10">
     <g id="line2d_20">
      <path clip-path="url(#p4a32816530)" d="M 151.714776 57.256 
L 254.590178 57.256 
" style="fill:none;stroke:#cccccc;stroke-linecap:round;"/>
     </g>
    </g>
    <g id="ytick_11">
     <g id="line2d_21">
      <path clip-path="url(#p4a32816530)" d="M 151.714776 45.836 
L 254.590178 45.836 
" style="fill:none;stroke:#cccccc;stroke-linecap:round;"/>
     </g>
    </g>
    <g id="ytick_12">
     <g id="line2d_22">
      <path clip-path="url(#p4a32816530)" d="M 151.714776 34.416 
L 254.590178 34.416 
" style="fill:none;stroke:#cccccc;stroke-linecap:round;"/>
     </g>
    </g>
   </g>
   <g id="PathCollection_2">
    <defs>
     <path d="M 0 0.845987 
C 0.224358 0.845987 0.439558 0.756849 0.598203 0.598203 
C 0.756849 0.439558 0.845987 0.224358 0.845987 -0 
C 0.845987 -0.224358 0.756849 -0.439558 0.598203 -0.598203 
C 0.439558 -0.756849 0.224358 -0.845987 0 -0.845987 
C -0.224358 -0.845987 -0.439558 -0.756849 -0.598203 -0.598203 
C -0.756849 -0.439558 -0.845987 -0.224358 -0.845987 0 
C -0.845987 0.224358 -0.756849 0.439558 -0.598203 0.598203 
C -0.439558 0.756849 -0.224358 0.845987 0 0.845987 
z
" id="C1_0_10de42b18c"/>
    </defs>
    <g clip-path="url(#p4a32816530)">
     <use style="fill:#377eb8;stroke:#377eb8;stroke-width:1.0125;" x="168.860677" xlink:href="#C1_0_10de42b18c" y="62.154037"/>
    </g>
    <g clip-path="url(#p4a32816530)">
     <use style="fill:#377eb8;stroke:#377eb8;stroke-width:1.0125;" x="203.152477" xlink:href="#C1_0_10de42b18c" y="76.614042"/>
    </g>
    <g clip-path="url(#p4a32816530)">
     <use style="fill:#377eb8;stroke:#377eb8;stroke-width:1.0125;" x="237.444277" xlink:href="#C1_0_10de42b18c" y="89.025298"/>
    </g>
   </g>
   <g id="PathCollection_3">
    <defs>
     <path d="M 0 0.845987 
C 0.224358 0.845987 0.439558 0.756849 0.598203 0.598203 
C 0.756849 0.439558 0.845987 0.224358 0.845987 -0 
C 0.845987 -0.224358 0.756849 -0.439558 0.598203 -0.598203 
C 0.439558 -0.756849 0.224358 -0.845987 0 -0.845987 
C -0.224358 -0.845987 -0.439558 -0.756849 -0.598203 -0.598203 
C -0.756849 -0.439558 -0.845987 -0.224358 -0.845987 0 
C -0.845987 0.224358 -0.756849 0.439558 -0.598203 0.598203 
C -0.439558 0.756849 -0.224358 0.845987 0 0.845987 
z
" id="C2_0_84fe136688"/>
    </defs>
    <g clip-path="url(#p4a32816530)">
     <use style="fill:#377eb8;stroke:#377eb8;stroke-width:1.0125;" x="168.860677" xlink:href="#C2_0_84fe136688" y="62.873499"/>
    </g>
    <g clip-path="url(#p4a32816530)">
     <use style="fill:#377eb8;stroke:#377eb8;stroke-width:1.0125;" x="203.152477" xlink:href="#C2_0_84fe136688" y="76.365087"/>
    </g>
    <g clip-path="url(#p4a32816530)">
     <use style="fill:#377eb8;stroke:#377eb8;stroke-width:1.0125;" x="237.444277" xlink:href="#C2_0_84fe136688" y="89.028723"/>
    </g>
   </g>
   <g id="line2d_23">
    <path clip-path="url(#p4a32816530)" d="M 168.860677 62.154037 
L 203.152477 76.614042 
L 237.444277 89.025298 
" style="fill:none;stroke:#377eb8;stroke-linecap:round;stroke-width:1.35;"/>
   </g>
   <g id="line2d_24">
    <path clip-path="url(#p4a32816530)" d="M 168.860677 64.734257 
L 168.860677 59.181225 
" style="fill:none;stroke:#377eb8;stroke-linecap:round;"/>
   </g>
   <g id="line2d_25">
    <path clip-path="url(#p4a32816530)" d="M 167.146086 64.734257 
L 170.575267 64.734257 
" style="fill:none;stroke:#377eb8;stroke-linecap:round;"/>
   </g>
   <g id="line2d_26">
    <path clip-path="url(#p4a32816530)" d="M 167.146086 59.181225 
L 170.575267 59.181225 
" style="fill:none;stroke:#377eb8;stroke-linecap:round;"/>
   </g>
   <g id="line2d_27">
    <path clip-path="url(#p4a32816530)" d="M 203.152477 79.59509 
L 203.152477 73.162704 
" style="fill:none;stroke:#377eb8;stroke-linecap:round;"/>
   </g>
   <g id="line2d_28">
    <path clip-path="url(#p4a32816530)" d="M 201.437887 79.59509 
L 204.867067 79.59509 
" style="fill:none;stroke:#377eb8;stroke-linecap:round;"/>
   </g>
   <g id="line2d_29">
    <path clip-path="url(#p4a32816530)" d="M 201.437887 73.162704 
L 204.867067 73.162704 
" style="fill:none;stroke:#377eb8;stroke-linecap:round;"/>
   </g>
   <g id="line2d_30">
    <path clip-path="url(#p4a32816530)" d="M 237.444277 89.538884 
L 237.444277 88.566158 
" style="fill:none;stroke:#377eb8;stroke-linecap:round;"/>
   </g>
   <g id="line2d_31">
    <path clip-path="url(#p4a32816530)" d="M 235.729687 89.538884 
L 239.158867 89.538884 
" style="fill:none;stroke:#377eb8;stroke-linecap:round;"/>
   </g>
   <g id="line2d_32">
    <path clip-path="url(#p4a32816530)" d="M 235.729687 88.566158 
L 239.158867 88.566158 
" style="fill:none;stroke:#377eb8;stroke-linecap:round;"/>
   </g>
   <g id="line2d_33">
    <path clip-path="url(#p4a32816530)" d="M 168.860677 62.873499 
L 203.152477 76.365087 
L 237.444277 89.028723 
" style="fill:none;stroke:#377eb8;stroke-dasharray:1.35,2.2275;stroke-dashoffset:0;stroke-width:1.35;"/>
   </g>
   <g id="line2d_34">
    <path clip-path="url(#p4a32816530)" d="M 168.860677 66.677573 
L 168.860677 58.323444 
" style="fill:none;stroke:#377eb8;stroke-linecap:round;"/>
   </g>
   <g id="line2d_35">
    <path clip-path="url(#p4a32816530)" d="M 167.146086 66.677573 
L 170.575267 66.677573 
" style="fill:none;stroke:#377eb8;stroke-linecap:round;"/>
   </g>
   <g id="line2d_36">
    <path clip-path="url(#p4a32816530)" d="M 167.146086 58.323444 
L 170.575267 58.323444 
" style="fill:none;stroke:#377eb8;stroke-linecap:round;"/>
   </g>
   <g id="line2d_37">
    <path clip-path="url(#p4a32816530)" d="M 203.152477 79.962672 
L 203.152477 72.583525 
" style="fill:none;stroke:#377eb8;stroke-linecap:round;"/>
   </g>
   <g id="line2d_38">
    <path clip-path="url(#p4a32816530)" d="M 201.437887 79.962672 
L 204.867067 79.962672 
" style="fill:none;stroke:#377eb8;stroke-linecap:round;"/>
   </g>
   <g id="line2d_39">
    <path clip-path="url(#p4a32816530)" d="M 201.437887 72.583525 
L 204.867067 72.583525 
" style="fill:none;stroke:#377eb8;stroke-linecap:round;"/>
   </g>
   <g id="line2d_40">
    <path clip-path="url(#p4a32816530)" d="M 237.444277 89.585534 
L 237.444277 88.52166 
" style="fill:none;stroke:#377eb8;stroke-linecap:round;"/>
   </g>
   <g id="line2d_41">
    <path clip-path="url(#p4a32816530)" d="M 235.729687 89.585534 
L 239.158867 89.585534 
" style="fill:none;stroke:#377eb8;stroke-linecap:round;"/>
   </g>
   <g id="line2d_42">
    <path clip-path="url(#p4a32816530)" d="M 235.729687 88.52166 
L 239.158867 88.52166 
" style="fill:none;stroke:#377eb8;stroke-linecap:round;"/>
   </g>
   <g id="patch_5">
    <path d="M 151.714776 91.516 
L 254.590178 91.516 
" style="fill:none;stroke:#cccccc;stroke-linecap:square;stroke-linejoin:miter;stroke-width:1.25;"/>
   </g>
   <g id="text_5">
    <text style="fill:#262626;font-family:DejaVu Sans;font-size:11px;font-stretch:normal;font-style:normal;font-weight:normal;text-anchor:middle;" transform="rotate(-0, 203.152477, 28.416)" x="203.152477" y="28.416">SNVI+rKL</text>
   </g>
  </g>
  <g id="axes_3">
   <g id="patch_6">
    <path d="M 254.590178 91.516 
L 357.465579 91.516 
L 357.465579 34.416 
L 254.590178 34.416 
z
" style="fill:none;"/>
   </g>
   <g id="matplotlib.axis_5">
    <g id="xtick_7"/>
    <g id="xtick_8"/>
    <g id="xtick_9"/>
   </g>
   <g id="matplotlib.axis_6">
    <g id="ytick_13">
     <g id="line2d_43">
      <path clip-path="url(#pc9244b2b1e)" d="M 254.590178 91.516 
L 357.465579 91.516 
" style="fill:none;stroke:#cccccc;stroke-linecap:round;"/>
     </g>
    </g>
    <g id="ytick_14">
     <g id="line2d_44">
      <path clip-path="url(#pc9244b2b1e)" d="M 254.590178 80.096 
L 357.465579 80.096 
" style="fill:none;stroke:#cccccc;stroke-linecap:round;"/>
     </g>
    </g>
    <g id="ytick_15">
     <g id="line2d_45">
      <path clip-path="url(#pc9244b2b1e)" d="M 254.590178 68.676 
L 357.465579 68.676 
" style="fill:none;stroke:#cccccc;stroke-linecap:round;"/>
     </g>
    </g>
    <g id="ytick_16">
     <g id="line2d_46">
      <path clip-path="url(#pc9244b2b1e)" d="M 254.590178 57.256 
L 357.465579 57.256 
" style="fill:none;stroke:#cccccc;stroke-linecap:round;"/>
     </g>
    </g>
    <g id="ytick_17">
     <g id="line2d_47">
      <path clip-path="url(#pc9244b2b1e)" d="M 254.590178 45.836 
L 357.465579 45.836 
" style="fill:none;stroke:#cccccc;stroke-linecap:round;"/>
     </g>
    </g>
    <g id="ytick_18">
     <g id="line2d_48">
      <path clip-path="url(#pc9244b2b1e)" d="M 254.590178 34.416 
L 357.465579 34.416 
" style="fill:none;stroke:#cccccc;stroke-linecap:round;"/>
     </g>
    </g>
   </g>
   <g id="PathCollection_4">
    <defs>
     <path d="M 0 0.845987 
C 0.224358 0.845987 0.439558 0.756849 0.598203 0.598203 
C 0.756849 0.439558 0.845987 0.224358 0.845987 -0 
C 0.845987 -0.224358 0.756849 -0.439558 0.598203 -0.598203 
C 0.439558 -0.756849 0.224358 -0.845987 0 -0.845987 
C -0.224358 -0.845987 -0.439558 -0.756849 -0.598203 -0.598203 
C -0.756849 -0.439558 -0.845987 -0.224358 -0.845987 0 
C -0.845987 0.224358 -0.756849 0.439558 -0.598203 0.598203 
C -0.439558 0.756849 -0.224358 0.845987 0 0.845987 
z
" id="C3_0_3f4de5977b"/>
    </defs>
    <g clip-path="url(#pc9244b2b1e)">
     <use style="fill:#984ea3;stroke:#984ea3;stroke-width:1.0125;" x="271.736078" xlink:href="#C3_0_3f4de5977b" y="64.959361"/>
    </g>
    <g clip-path="url(#pc9244b2b1e)">
     <use style="fill:#984ea3;stroke:#984ea3;stroke-width:1.0125;" x="306.027878" xlink:href="#C3_0_3f4de5977b" y="75.398953"/>
    </g>
    <g clip-path="url(#pc9244b2b1e)">
     <use style="fill:#984ea3;stroke:#984ea3;stroke-width:1.0125;" x="340.319679" xlink:href="#C3_0_3f4de5977b" y="88.952781"/>
    </g>
   </g>
   <g id="PathCollection_5">
    <defs>
     <path d="M 0 0.845987 
C 0.224358 0.845987 0.439558 0.756849 0.598203 0.598203 
C 0.756849 0.439558 0.845987 0.224358 0.845987 -0 
C 0.845987 -0.224358 0.756849 -0.439558 0.598203 -0.598203 
C 0.439558 -0.756849 0.224358 -0.845987 0 -0.845987 
C -0.224358 -0.845987 -0.439558 -0.756849 -0.598203 -0.598203 
C -0.756849 -0.439558 -0.845987 -0.224358 -0.845987 0 
C -0.845987 0.224358 -0.756849 0.439558 -0.598203 0.598203 
C -0.439558 0.756849 -0.224358 0.845987 0 0.845987 
z
" id="C4_0_167262535a"/>
    </defs>
    <g clip-path="url(#pc9244b2b1e)">
     <use style="fill:#984ea3;stroke:#984ea3;stroke-width:1.0125;" x="271.736078" xlink:href="#C4_0_167262535a" y="63.871035"/>
    </g>
    <g clip-path="url(#pc9244b2b1e)">
     <use style="fill:#984ea3;stroke:#984ea3;stroke-width:1.0125;" x="306.027878" xlink:href="#C4_0_167262535a" y="75.307594"/>
    </g>
    <g clip-path="url(#pc9244b2b1e)">
     <use style="fill:#984ea3;stroke:#984ea3;stroke-width:1.0125;" x="340.319679" xlink:href="#C4_0_167262535a" y="88.734659"/>
    </g>
   </g>
   <g id="line2d_49">
    <path clip-path="url(#pc9244b2b1e)" d="M 271.736078 64.959361 
L 306.027878 75.398953 
L 340.319679 88.952781 
" style="fill:none;stroke:#984ea3;stroke-linecap:round;stroke-width:1.35;"/>
   </g>
   <g id="line2d_50">
    <path clip-path="url(#pc9244b2b1e)" d="M 271.736078 67.663689 
L 271.736078 62.33169 
" style="fill:none;stroke:#984ea3;stroke-linecap:round;"/>
   </g>
   <g id="line2d_51">
    <path clip-path="url(#pc9244b2b1e)" d="M 270.021488 67.663689 
L 273.450668 67.663689 
" style="fill:none;stroke:#984ea3;stroke-linecap:round;"/>
   </g>
   <g id="line2d_52">
    <path clip-path="url(#pc9244b2b1e)" d="M 270.021488 62.33169 
L 273.450668 62.33169 
" style="fill:none;stroke:#984ea3;stroke-linecap:round;"/>
   </g>
   <g id="line2d_53">
    <path clip-path="url(#pc9244b2b1e)" d="M 306.027878 78.584306 
L 306.027878 71.888674 
" style="fill:none;stroke:#984ea3;stroke-linecap:round;"/>
   </g>
   <g id="line2d_54">
    <path clip-path="url(#pc9244b2b1e)" d="M 304.313288 78.584306 
L 307.742468 78.584306 
" style="fill:none;stroke:#984ea3;stroke-linecap:round;"/>
   </g>
   <g id="line2d_55">
    <path clip-path="url(#pc9244b2b1e)" d="M 304.313288 71.888674 
L 307.742468 71.888674 
" style="fill:none;stroke:#984ea3;stroke-linecap:round;"/>
   </g>
   <g id="line2d_56">
    <path clip-path="url(#pc9244b2b1e)" d="M 340.319679 89.495901 
L 340.319679 88.503647 
" style="fill:none;stroke:#984ea3;stroke-linecap:round;"/>
   </g>
   <g id="line2d_57">
    <path clip-path="url(#pc9244b2b1e)" d="M 338.605089 89.495901 
L 342.034269 89.495901 
" style="fill:none;stroke:#984ea3;stroke-linecap:round;"/>
   </g>
   <g id="line2d_58">
    <path clip-path="url(#pc9244b2b1e)" d="M 338.605089 88.503647 
L 342.034269 88.503647 
" style="fill:none;stroke:#984ea3;stroke-linecap:round;"/>
   </g>
   <g id="line2d_59">
    <path clip-path="url(#pc9244b2b1e)" d="M 271.736078 63.871035 
L 306.027878 75.307594 
L 340.319679 88.734659 
" style="fill:none;stroke:#984ea3;stroke-dasharray:1.35,2.2275;stroke-dashoffset:0;stroke-width:1.35;"/>
   </g>
   <g id="line2d_60">
    <path clip-path="url(#pc9244b2b1e)" d="M 271.736078 66.740681 
L 271.736078 60.732261 
" style="fill:none;stroke:#984ea3;stroke-linecap:round;"/>
   </g>
   <g id="line2d_61">
    <path clip-path="url(#pc9244b2b1e)" d="M 270.021488 66.740681 
L 273.450668 66.740681 
" style="fill:none;stroke:#984ea3;stroke-linecap:round;"/>
   </g>
   <g id="line2d_62">
    <path clip-path="url(#pc9244b2b1e)" d="M 270.021488 60.732261 
L 273.450668 60.732261 
" style="fill:none;stroke:#984ea3;stroke-linecap:round;"/>
   </g>
   <g id="line2d_63">
    <path clip-path="url(#pc9244b2b1e)" d="M 306.027878 78.972742 
L 306.027878 71.479211 
" style="fill:none;stroke:#984ea3;stroke-linecap:round;"/>
   </g>
   <g id="line2d_64">
    <path clip-path="url(#pc9244b2b1e)" d="M 304.313288 78.972742 
L 307.742468 78.972742 
" style="fill:none;stroke:#984ea3;stroke-linecap:round;"/>
   </g>
   <g id="line2d_65">
    <path clip-path="url(#pc9244b2b1e)" d="M 304.313288 71.479211 
L 307.742468 71.479211 
" style="fill:none;stroke:#984ea3;stroke-linecap:round;"/>
   </g>
   <g id="line2d_66">
    <path clip-path="url(#pc9244b2b1e)" d="M 340.319679 89.019673 
L 340.319679 88.429402 
" style="fill:none;stroke:#984ea3;stroke-linecap:round;"/>
   </g>
   <g id="line2d_67">
    <path clip-path="url(#pc9244b2b1e)" d="M 338.605089 89.019673 
L 342.034269 89.019673 
" style="fill:none;stroke:#984ea3;stroke-linecap:round;"/>
   </g>
   <g id="line2d_68">
    <path clip-path="url(#pc9244b2b1e)" d="M 338.605089 88.429402 
L 342.034269 88.429402 
" style="fill:none;stroke:#984ea3;stroke-linecap:round;"/>
   </g>
   <g id="patch_7">
    <path d="M 254.590178 91.516 
L 357.465579 91.516 
" style="fill:none;stroke:#cccccc;stroke-linecap:square;stroke-linejoin:miter;stroke-width:1.25;"/>
   </g>
   <g id="text_6">
    <text style="fill:#262626;font-family:DejaVu Sans;font-size:11px;font-stretch:normal;font-style:normal;font-weight:normal;text-anchor:middle;" transform="rotate(-0, 306.027878, 28.416)" x="306.027878" y="28.416">SNVI+fKL</text>
   </g>
  </g>
  <g id="axes_4">
   <g id="patch_8">
    <path d="M 357.465579 91.516 
L 460.34098 91.516 
L 460.34098 34.416 
L 357.465579 34.416 
z
" style="fill:none;"/>
   </g>
   <g id="matplotlib.axis_7">
    <g id="xtick_10"/>
    <g id="xtick_11"/>
    <g id="xtick_12"/>
   </g>
   <g id="matplotlib.axis_8">
    <g id="ytick_19">
     <g id="line2d_69">
      <path clip-path="url(#p1b3bdfd83b)" d="M 357.465579 91.516 
L 460.34098 91.516 
" style="fill:none;stroke:#cccccc;stroke-linecap:round;"/>
     </g>
    </g>
    <g id="ytick_20">
     <g id="line2d_70">
      <path clip-path="url(#p1b3bdfd83b)" d="M 357.465579 80.096 
L 460.34098 80.096 
" style="fill:none;stroke:#cccccc;stroke-linecap:round;"/>
     </g>
    </g>
    <g id="ytick_21">
     <g id="line2d_71">
      <path clip-path="url(#p1b3bdfd83b)" d="M 357.465579 68.676 
L 460.34098 68.676 
" style="fill:none;stroke:#cccccc;stroke-linecap:round;"/>
     </g>
    </g>
    <g id="ytick_22">
     <g id="line2d_72">
      <path clip-path="url(#p1b3bdfd83b)" d="M 357.465579 57.256 
L 460.34098 57.256 
" style="fill:none;stroke:#cccccc;stroke-linecap:round;"/>
     </g>
    </g>
    <g id="ytick_23">
     <g id="line2d_73">
      <path clip-path="url(#p1b3bdfd83b)" d="M 357.465579 45.836 
L 460.34098 45.836 
" style="fill:none;stroke:#cccccc;stroke-linecap:round;"/>
     </g>
    </g>
    <g id="ytick_24">
     <g id="line2d_74">
      <path clip-path="url(#p1b3bdfd83b)" d="M 357.465579 34.416 
L 460.34098 34.416 
" style="fill:none;stroke:#cccccc;stroke-linecap:round;"/>
     </g>
    </g>
   </g>
   <g id="PathCollection_6">
    <defs>
     <path d="M 0 0.845987 
C 0.224358 0.845987 0.439558 0.756849 0.598203 0.598203 
C 0.756849 0.439558 0.845987 0.224358 0.845987 -0 
C 0.845987 -0.224358 0.756849 -0.439558 0.598203 -0.598203 
C 0.439558 -0.756849 0.224358 -0.845987 0 -0.845987 
C -0.224358 -0.845987 -0.439558 -0.756849 -0.598203 -0.598203 
C -0.756849 -0.439558 -0.845987 -0.224358 -0.845987 0 
C -0.845987 0.224358 -0.756849 0.439558 -0.598203 0.598203 
C -0.439558 0.756849 -0.224358 0.845987 0 0.845987 
z
" id="C5_0_317b51da5c"/>
    </defs>
    <g clip-path="url(#p1b3bdfd83b)">
     <use style="fill:#4daf4a;stroke:#4daf4a;stroke-width:1.0125;" x="374.611479" xlink:href="#C5_0_317b51da5c" y="60.964075"/>
    </g>
    <g clip-path="url(#p1b3bdfd83b)">
     <use style="fill:#4daf4a;stroke:#4daf4a;stroke-width:1.0125;" x="408.90328" xlink:href="#C5_0_317b51da5c" y="74.566435"/>
    </g>
    <g clip-path="url(#p1b3bdfd83b)">
     <use style="fill:#4daf4a;stroke:#4daf4a;stroke-width:1.0125;" x="443.19508" xlink:href="#C5_0_317b51da5c" y="88.713533"/>
    </g>
   </g>
   <g id="PathCollection_7">
    <defs>
     <path d="M 0 0.845987 
C 0.224358 0.845987 0.439558 0.756849 0.598203 0.598203 
C 0.756849 0.439558 0.845987 0.224358 0.845987 -0 
C 0.845987 -0.224358 0.756849 -0.439558 0.598203 -0.598203 
C 0.439558 -0.756849 0.224358 -0.845987 0 -0.845987 
C -0.224358 -0.845987 -0.439558 -0.756849 -0.598203 -0.598203 
C -0.756849 -0.439558 -0.845987 -0.224358 -0.845987 0 
C -0.845987 0.224358 -0.756849 0.439558 -0.598203 0.598203 
C -0.439558 0.756849 -0.224358 0.845987 0 0.845987 
z
" id="C6_0_ea6367a534"/>
    </defs>
    <g clip-path="url(#p1b3bdfd83b)">
     <use style="fill:#4daf4a;stroke:#4daf4a;stroke-width:1.0125;" x="374.611479" xlink:href="#C6_0_ea6367a534" y="61.284406"/>
    </g>
    <g clip-path="url(#p1b3bdfd83b)">
     <use style="fill:#4daf4a;stroke:#4daf4a;stroke-width:1.0125;" x="408.90328" xlink:href="#C6_0_ea6367a534" y="75.757541"/>
    </g>
    <g clip-path="url(#p1b3bdfd83b)">
     <use style="fill:#4daf4a;stroke:#4daf4a;stroke-width:1.0125;" x="443.19508" xlink:href="#C6_0_ea6367a534" y="88.433171"/>
    </g>
   </g>
   <g id="line2d_75">
    <path clip-path="url(#p1b3bdfd83b)" d="M 374.611479 60.964075 
L 408.90328 74.566435 
L 443.19508 88.713533 
" style="fill:none;stroke:#4daf4a;stroke-linecap:round;stroke-width:1.35;"/>
   </g>
   <g id="line2d_76">
    <path clip-path="url(#p1b3bdfd83b)" d="M 374.611479 64.778026 
L 374.611479 57.236986 
" style="fill:none;stroke:#4daf4a;stroke-linecap:round;"/>
   </g>
   <g id="line2d_77">
    <path clip-path="url(#p1b3bdfd83b)" d="M 372.896889 64.778026 
L 376.326069 64.778026 
" style="fill:none;stroke:#4daf4a;stroke-linecap:round;"/>
   </g>
   <g id="line2d_78">
    <path clip-path="url(#p1b3bdfd83b)" d="M 372.896889 57.236986 
L 376.326069 57.236986 
" style="fill:none;stroke:#4daf4a;stroke-linecap:round;"/>
   </g>
   <g id="line2d_79">
    <path clip-path="url(#p1b3bdfd83b)" d="M 408.90328 77.796653 
L 408.90328 71.193794 
" style="fill:none;stroke:#4daf4a;stroke-linecap:round;"/>
   </g>
   <g id="line2d_80">
    <path clip-path="url(#p1b3bdfd83b)" d="M 407.18869 77.796653 
L 410.61787 77.796653 
" style="fill:none;stroke:#4daf4a;stroke-linecap:round;"/>
   </g>
   <g id="line2d_81">
    <path clip-path="url(#p1b3bdfd83b)" d="M 407.18869 71.193794 
L 410.61787 71.193794 
" style="fill:none;stroke:#4daf4a;stroke-linecap:round;"/>
   </g>
   <g id="line2d_82">
    <path clip-path="url(#p1b3bdfd83b)" d="M 443.19508 89.071635 
L 443.19508 88.315503 
" style="fill:none;stroke:#4daf4a;stroke-linecap:round;"/>
   </g>
   <g id="line2d_83">
    <path clip-path="url(#p1b3bdfd83b)" d="M 441.48049 89.071635 
L 444.90967 89.071635 
" style="fill:none;stroke:#4daf4a;stroke-linecap:round;"/>
   </g>
   <g id="line2d_84">
    <path clip-path="url(#p1b3bdfd83b)" d="M 441.48049 88.315503 
L 444.90967 88.315503 
" style="fill:none;stroke:#4daf4a;stroke-linecap:round;"/>
   </g>
   <g id="line2d_85">
    <path clip-path="url(#p1b3bdfd83b)" d="M 374.611479 61.284406 
L 408.90328 75.757541 
L 443.19508 88.433171 
" style="fill:none;stroke:#4daf4a;stroke-dasharray:1.35,2.2275;stroke-dashoffset:0;stroke-width:1.35;"/>
   </g>
   <g id="line2d_86">
    <path clip-path="url(#p1b3bdfd83b)" d="M 374.611479 65.370168 
L 374.611479 57.270418 
" style="fill:none;stroke:#4daf4a;stroke-linecap:round;"/>
   </g>
   <g id="line2d_87">
    <path clip-path="url(#p1b3bdfd83b)" d="M 372.896889 65.370168 
L 376.326069 65.370168 
" style="fill:none;stroke:#4daf4a;stroke-linecap:round;"/>
   </g>
   <g id="line2d_88">
    <path clip-path="url(#p1b3bdfd83b)" d="M 372.896889 57.270418 
L 376.326069 57.270418 
" style="fill:none;stroke:#4daf4a;stroke-linecap:round;"/>
   </g>
   <g id="line2d_89">
    <path clip-path="url(#p1b3bdfd83b)" d="M 408.90328 78.932272 
L 408.90328 72.316682 
" style="fill:none;stroke:#4daf4a;stroke-linecap:round;"/>
   </g>
   <g id="line2d_90">
    <path clip-path="url(#p1b3bdfd83b)" d="M 407.18869 78.932272 
L 410.61787 78.932272 
" style="fill:none;stroke:#4daf4a;stroke-linecap:round;"/>
   </g>
   <g id="line2d_91">
    <path clip-path="url(#p1b3bdfd83b)" d="M 407.18869 72.316682 
L 410.61787 72.316682 
" style="fill:none;stroke:#4daf4a;stroke-linecap:round;"/>
   </g>
   <g id="line2d_92">
    <path clip-path="url(#p1b3bdfd83b)" d="M 443.19508 88.9084 
L 443.19508 87.802573 
" style="fill:none;stroke:#4daf4a;stroke-linecap:round;"/>
   </g>
   <g id="line2d_93">
    <path clip-path="url(#p1b3bdfd83b)" d="M 441.48049 88.9084 
L 444.90967 88.9084 
" style="fill:none;stroke:#4daf4a;stroke-linecap:round;"/>
   </g>
   <g id="line2d_94">
    <path clip-path="url(#p1b3bdfd83b)" d="M 441.48049 87.802573 
L 444.90967 87.802573 
" style="fill:none;stroke:#4daf4a;stroke-linecap:round;"/>
   </g>
   <g id="patch_9">
    <path d="M 357.465579 91.516 
L 460.34098 91.516 
" style="fill:none;stroke:#cccccc;stroke-linecap:square;stroke-linejoin:miter;stroke-width:1.25;"/>
   </g>
   <g id="text_7">
    <text style="fill:#262626;font-family:DejaVu Sans;font-size:11px;font-stretch:normal;font-style:normal;font-weight:normal;text-anchor:middle;" transform="rotate(-0, 408.90328, 28.416)" x="408.90328" y="28.416">SNVI+IW</text>
   </g>
  </g>
  <g id="axes_5">
   <g id="patch_10">
    <path d="M 460.34098 91.516 
L 563.216382 91.516 
L 563.216382 34.416 
L 460.34098 34.416 
z
" style="fill:none;"/>
   </g>
   <g id="matplotlib.axis_9">
    <g id="xtick_13"/>
    <g id="xtick_14"/>
    <g id="xtick_15"/>
   </g>
   <g id="matplotlib.axis_10">
    <g id="ytick_25">
     <g id="line2d_95">
      <path clip-path="url(#pa30b32dbe4)" d="M 460.34098 91.516 
L 563.216382 91.516 
" style="fill:none;stroke:#cccccc;stroke-linecap:round;"/>
     </g>
    </g>
    <g id="ytick_26">
     <g id="line2d_96">
      <path clip-path="url(#pa30b32dbe4)" d="M 460.34098 80.096 
L 563.216382 80.096 
" style="fill:none;stroke:#cccccc;stroke-linecap:round;"/>
     </g>
    </g>
    <g id="ytick_27">
     <g id="line2d_97">
      <path clip-path="url(#pa30b32dbe4)" d="M 460.34098 68.676 
L 563.216382 68.676 
" style="fill:none;stroke:#cccccc;stroke-linecap:round;"/>
     </g>
    </g>
    <g id="ytick_28">
     <g id="line2d_98">
      <path clip-path="url(#pa30b32dbe4)" d="M 460.34098 57.256 
L 563.216382 57.256 
" style="fill:none;stroke:#cccccc;stroke-linecap:round;"/>
     </g>
    </g>
    <g id="ytick_29">
     <g id="line2d_99">
      <path clip-path="url(#pa30b32dbe4)" d="M 460.34098 45.836 
L 563.216382 45.836 
" style="fill:none;stroke:#cccccc;stroke-linecap:round;"/>
     </g>
    </g>
    <g id="ytick_30">
     <g id="line2d_100">
      <path clip-path="url(#pa30b32dbe4)" d="M 460.34098 34.416 
L 563.216382 34.416 
" style="fill:none;stroke:#cccccc;stroke-linecap:round;"/>
     </g>
    </g>
   </g>
   <g id="PathCollection_8">
    <defs>
     <path d="M 0 0.845987 
C 0.224358 0.845987 0.439558 0.756849 0.598203 0.598203 
C 0.756849 0.439558 0.845987 0.224358 0.845987 -0 
C 0.845987 -0.224358 0.756849 -0.439558 0.598203 -0.598203 
C 0.439558 -0.756849 0.224358 -0.845987 0 -0.845987 
C -0.224358 -0.845987 -0.439558 -0.756849 -0.598203 -0.598203 
C -0.756849 -0.439558 -0.845987 -0.224358 -0.845987 0 
C -0.845987 0.224358 -0.756849 0.439558 -0.598203 0.598203 
C -0.439558 0.756849 -0.224358 0.845987 0 0.845987 
z
" id="C7_0_366c7b9ff8"/>
    </defs>
    <g clip-path="url(#pa30b32dbe4)">
     <use style="fill:#e41a1c;stroke:#e41a1c;stroke-width:1.0125;" x="477.48688" xlink:href="#C7_0_366c7b9ff8" y="63.886453"/>
    </g>
    <g clip-path="url(#pa30b32dbe4)">
     <use style="fill:#e41a1c;stroke:#e41a1c;stroke-width:1.0125;" x="511.778681" xlink:href="#C7_0_366c7b9ff8" y="73.930342"/>
    </g>
    <g clip-path="url(#pa30b32dbe4)">
     <use style="fill:#e41a1c;stroke:#e41a1c;stroke-width:1.0125;" x="546.070481" xlink:href="#C7_0_366c7b9ff8" y="89.19146"/>
    </g>
   </g>
   <g id="PathCollection_9">
    <defs>
     <path d="M 0 0.845987 
C 0.224358 0.845987 0.439558 0.756849 0.598203 0.598203 
C 0.756849 0.439558 0.845987 0.224358 0.845987 -0 
C 0.845987 -0.224358 0.756849 -0.439558 0.598203 -0.598203 
C 0.439558 -0.756849 0.224358 -0.845987 0 -0.845987 
C -0.224358 -0.845987 -0.439558 -0.756849 -0.598203 -0.598203 
C -0.756849 -0.439558 -0.845987 -0.224358 -0.845987 0 
C -0.845987 0.224358 -0.756849 0.439558 -0.598203 0.598203 
C -0.439558 0.756849 -0.224358 0.845987 0 0.845987 
z
" id="C8_0_a98705ed82"/>
    </defs>
    <g clip-path="url(#pa30b32dbe4)">
     <use style="fill:#e41a1c;stroke:#e41a1c;stroke-width:1.0125;" x="477.48688" xlink:href="#C8_0_a98705ed82" y="63.515874"/>
    </g>
    <g clip-path="url(#pa30b32dbe4)">
     <use style="fill:#e41a1c;stroke:#e41a1c;stroke-width:1.0125;" x="511.778681" xlink:href="#C8_0_a98705ed82" y="78.007852"/>
    </g>
    <g clip-path="url(#pa30b32dbe4)">
     <use style="fill:#e41a1c;stroke:#e41a1c;stroke-width:1.0125;" x="546.070481" xlink:href="#C8_0_a98705ed82" y="89.539768"/>
    </g>
   </g>
   <g id="line2d_101">
    <path clip-path="url(#pa30b32dbe4)" d="M 477.48688 63.886453 
L 511.778681 73.930342 
L 546.070481 89.19146 
" style="fill:none;stroke:#e41a1c;stroke-linecap:round;stroke-width:1.35;"/>
   </g>
   <g id="line2d_102">
    <path clip-path="url(#pa30b32dbe4)" d="M 477.48688 67.056459 
L 477.48688 60.538638 
" style="fill:none;stroke:#e41a1c;stroke-linecap:round;"/>
   </g>
   <g id="line2d_103">
    <path clip-path="url(#pa30b32dbe4)" d="M 475.77229 67.056459 
L 479.20147 67.056459 
" style="fill:none;stroke:#e41a1c;stroke-linecap:round;"/>
   </g>
   <g id="line2d_104">
    <path clip-path="url(#pa30b32dbe4)" d="M 475.77229 60.538638 
L 479.20147 60.538638 
" style="fill:none;stroke:#e41a1c;stroke-linecap:round;"/>
   </g>
   <g id="line2d_105">
    <path clip-path="url(#pa30b32dbe4)" d="M 511.778681 77.677001 
L 511.778681 70.005545 
" style="fill:none;stroke:#e41a1c;stroke-linecap:round;"/>
   </g>
   <g id="line2d_106">
    <path clip-path="url(#pa30b32dbe4)" d="M 510.064091 77.677001 
L 513.493271 77.677001 
" style="fill:none;stroke:#e41a1c;stroke-linecap:round;"/>
   </g>
   <g id="line2d_107">
    <path clip-path="url(#pa30b32dbe4)" d="M 510.064091 70.005545 
L 513.493271 70.005545 
" style="fill:none;stroke:#e41a1c;stroke-linecap:round;"/>
   </g>
   <g id="line2d_108">
    <path clip-path="url(#pa30b32dbe4)" d="M 546.070481 89.590032 
L 546.070481 88.772332 
" style="fill:none;stroke:#e41a1c;stroke-linecap:round;"/>
   </g>
   <g id="line2d_109">
    <path clip-path="url(#pa30b32dbe4)" d="M 544.355891 89.590032 
L 547.785071 89.590032 
" style="fill:none;stroke:#e41a1c;stroke-linecap:round;"/>
   </g>
   <g id="line2d_110">
    <path clip-path="url(#pa30b32dbe4)" d="M 544.355891 88.772332 
L 547.785071 88.772332 
" style="fill:none;stroke:#e41a1c;stroke-linecap:round;"/>
   </g>
   <g id="line2d_111">
    <path clip-path="url(#pa30b32dbe4)" d="M 477.48688 63.515874 
L 511.778681 78.007852 
L 546.070481 89.539768 
" style="fill:none;stroke:#e41a1c;stroke-dasharray:1.35,2.2275;stroke-dashoffset:0;stroke-width:1.35;"/>
   </g>
   <g id="line2d_112">
    <path clip-path="url(#pa30b32dbe4)" d="M 477.48688 66.970423 
L 477.48688 59.131036 
" style="fill:none;stroke:#e41a1c;stroke-linecap:round;"/>
   </g>
   <g id="line2d_113">
    <path clip-path="url(#pa30b32dbe4)" d="M 475.77229 66.970423 
L 479.20147 66.970423 
" style="fill:none;stroke:#e41a1c;stroke-linecap:round;"/>
   </g>
   <g id="line2d_114">
    <path clip-path="url(#pa30b32dbe4)" d="M 475.77229 59.131036 
L 479.20147 59.131036 
" style="fill:none;stroke:#e41a1c;stroke-linecap:round;"/>
   </g>
   <g id="line2d_115">
    <path clip-path="url(#pa30b32dbe4)" d="M 511.778681 80.898012 
L 511.778681 74.478715 
" style="fill:none;stroke:#e41a1c;stroke-linecap:round;"/>
   </g>
   <g id="line2d_116">
    <path clip-path="url(#pa30b32dbe4)" d="M 510.064091 80.898012 
L 513.493271 80.898012 
" style="fill:none;stroke:#e41a1c;stroke-linecap:round;"/>
   </g>
   <g id="line2d_117">
    <path clip-path="url(#pa30b32dbe4)" d="M 510.064091 74.478715 
L 513.493271 74.478715 
" style="fill:none;stroke:#e41a1c;stroke-linecap:round;"/>
   </g>
   <g id="line2d_118">
    <path clip-path="url(#pa30b32dbe4)" d="M 546.070481 89.892105 
L 546.070481 89.226232 
" style="fill:none;stroke:#e41a1c;stroke-linecap:round;"/>
   </g>
   <g id="line2d_119">
    <path clip-path="url(#pa30b32dbe4)" d="M 544.355891 89.892105 
L 547.785071 89.892105 
" style="fill:none;stroke:#e41a1c;stroke-linecap:round;"/>
   </g>
   <g id="line2d_120">
    <path clip-path="url(#pa30b32dbe4)" d="M 544.355891 89.226232 
L 547.785071 89.226232 
" style="fill:none;stroke:#e41a1c;stroke-linecap:round;"/>
   </g>
   <g id="patch_11">
    <path d="M 460.34098 91.516 
L 563.216382 91.516 
" style="fill:none;stroke:#cccccc;stroke-linecap:square;stroke-linejoin:miter;stroke-width:1.25;"/>
   </g>
   <g id="text_8">
    <!-- SNVI+$\alpha$ -->
    <g style="fill:#262626;" transform="translate(490.548681 28.416)">
     <text>
      <tspan style="font-family:DejaVu Sans;font-size:11px;font-style:book;font-weight:book;" x="0 6.982422 15.210938 22.73584 25.97998 35.196777" y="-0.828125">SNVI+α</tspan>
     </text>
    </g>
   </g>
  </g>
  <g id="axes_6">
   <g id="patch_12">
    <path d="M 607.364375 105.696 
L 624.860375 105.696 
L 624.860375 27.936 
L 607.364375 27.936 
z
" style="fill:none;"/>
   </g>
   <g id="matplotlib.axis_11"/>
   <g id="matplotlib.axis_12">
    <g id="ytick_31">
     <g id="line2d_121">
      <path clip-path="url(#pb376a9e799)" d="M 607.364375 105.696 
L 624.860375 105.696 
" style="fill:none;stroke:#cccccc;stroke-linecap:round;"/>
     </g>
     <g id="text_9">
      <text style="fill:#262626;font-family:DejaVu Sans;font-size:11px;font-stretch:normal;font-style:normal;font-weight:normal;text-anchor:end;" transform="rotate(-0, 597.864375, 109.875141)" x="597.864375" y="109.875141">0</text>
     </g>
    </g>
    <g id="ytick_32">
     <g id="line2d_122">
      <path clip-path="url(#pb376a9e799)" d="M 607.364375 100.277919 
L 624.860375 100.277919 
" style="fill:none;stroke:#cccccc;stroke-linecap:round;"/>
     </g>
    </g>
    <g id="ytick_33">
     <g id="line2d_123">
      <path clip-path="url(#pb376a9e799)" d="M 607.364375 94.859838 
L 624.860375 94.859838 
" style="fill:none;stroke:#cccccc;stroke-linecap:round;"/>
     </g>
    </g>
    <g id="ytick_34">
     <g id="line2d_124">
      <path clip-path="url(#pb376a9e799)" d="M 607.364375 89.441757 
L 624.860375 89.441757 
" style="fill:none;stroke:#cccccc;stroke-linecap:round;"/>
     </g>
    </g>
    <g id="ytick_35">
     <g id="line2d_125">
      <path clip-path="url(#pb376a9e799)" d="M 607.364375 84.023676 
L 624.860375 84.023676 
" style="fill:none;stroke:#cccccc;stroke-linecap:round;"/>
     </g>
    </g>
    <g id="ytick_36">
     <g id="line2d_126">
      <path clip-path="url(#pb376a9e799)" d="M 607.364375 78.605595 
L 624.860375 78.605595 
" style="fill:none;stroke:#cccccc;stroke-linecap:round;"/>
     </g>
    </g>
    <g id="ytick_37">
     <g id="line2d_127">
      <path clip-path="url(#pb376a9e799)" d="M 607.364375 73.187514 
L 624.860375 73.187514 
" style="fill:none;stroke:#cccccc;stroke-linecap:round;"/>
     </g>
    </g>
    <g id="ytick_38">
     <g id="line2d_128">
      <path clip-path="url(#pb376a9e799)" d="M 607.364375 67.769433 
L 624.860375 67.769433 
" style="fill:none;stroke:#cccccc;stroke-linecap:round;"/>
     </g>
    </g>
    <g id="ytick_39">
     <g id="line2d_129">
      <path clip-path="url(#pb376a9e799)" d="M 607.364375 62.351351 
L 624.860375 62.351351 
" style="fill:none;stroke:#cccccc;stroke-linecap:round;"/>
     </g>
    </g>
    <g id="ytick_40">
     <g id="line2d_130">
      <path clip-path="url(#pb376a9e799)" d="M 607.364375 56.93327 
L 624.860375 56.93327 
" style="fill:none;stroke:#cccccc;stroke-linecap:round;"/>
     </g>
    </g>
    <g id="ytick_41">
     <g id="line2d_131">
      <path clip-path="url(#pb376a9e799)" d="M 607.364375 51.515189 
L 624.860375 51.515189 
" style="fill:none;stroke:#cccccc;stroke-linecap:round;"/>
     </g>
    </g>
    <g id="ytick_42">
     <g id="line2d_132">
      <path clip-path="url(#pb376a9e799)" d="M 607.364375 46.097108 
L 624.860375 46.097108 
" style="fill:none;stroke:#cccccc;stroke-linecap:round;"/>
     </g>
    </g>
    <g id="ytick_43">
     <g id="line2d_133">
      <path clip-path="url(#pb376a9e799)" d="M 607.364375 40.679027 
L 624.860375 40.679027 
" style="fill:none;stroke:#cccccc;stroke-linecap:round;"/>
     </g>
    </g>
    <g id="ytick_44">
     <g id="line2d_134">
      <path clip-path="url(#pb376a9e799)" d="M 607.364375 35.260946 
L 624.860375 35.260946 
" style="fill:none;stroke:#cccccc;stroke-linecap:round;"/>
     </g>
    </g>
    <g id="ytick_45">
     <g id="line2d_135">
      <path clip-path="url(#pb376a9e799)" d="M 607.364375 29.842865 
L 624.860375 29.842865 
" style="fill:none;stroke:#cccccc;stroke-linecap:round;"/>
     </g>
     <g id="text_10">
      <text style="fill:#262626;font-family:DejaVu Sans;font-size:11px;font-stretch:normal;font-style:normal;font-weight:normal;text-anchor:end;" transform="rotate(-0, 597.864375, 34.022006)" x="597.864375" y="34.022006">2800</text>
     </g>
    </g>
    <g id="text_11">
     <text style="fill:#262626;font-family:DejaVu Sans;font-size:11px;font-stretch:normal;font-style:normal;font-weight:normal;text-anchor:middle;" transform="rotate(-90, 582.581719, 66.816)" x="582.581719" y="66.816">Time [s] </text>
    </g>
   </g>
   <g id="EventCollection_1">
    <path clip-path="url(#pb376a9e799)" d="M 624.860375 30.645041 
L 607.364375 30.645041 
" style="fill:none;stroke:#000000;stroke-width:4;"/>
   </g>
   <g id="EventCollection_2">
    <path clip-path="url(#pb376a9e799)" d="M 624.860375 79.198118 
L 607.364375 79.198118 
" style="fill:none;stroke:#377eb8;stroke-width:4;"/>
   </g>
   <g id="EventCollection_3">
    <path clip-path="url(#pb376a9e799)" d="M 624.860375 85.044738 
L 607.364375 85.044738 
" style="fill:none;stroke:#984ea3;stroke-width:4;"/>
   </g>
   <g id="EventCollection_4">
    <path clip-path="url(#pb376a9e799)" d="M 624.860375 78.900591 
L 607.364375 78.900591 
" style="fill:none;stroke:#4daf4a;stroke-width:4;"/>
   </g>
   <g id="EventCollection_5">
    <path clip-path="url(#pb376a9e799)" d="M 624.860375 77.524659 
L 607.364375 77.524659 
" style="fill:none;stroke:#e41a1c;stroke-width:4;"/>
   </g>
   <g id="patch_13">
    <path d="M 607.364375 105.696 
L 607.364375 27.936 
" style="fill:none;stroke:#cccccc;stroke-linecap:square;stroke-linejoin:miter;stroke-width:1.25;"/>
   </g>
   <g id="patch_14">
    <path d="M 624.860375 105.696 
L 624.860375 27.936 
" style="fill:none;stroke:#cccccc;stroke-linecap:square;stroke-linejoin:miter;stroke-width:1.25;"/>
   </g>
   <g id="patch_15">
    <path d="M 607.364375 105.696 
L 624.860375 105.696 
" style="fill:none;stroke:#cccccc;stroke-linecap:square;stroke-linejoin:miter;stroke-width:1.25;"/>
   </g>
   <g id="patch_16">
    <path d="M 607.364375 27.936 
L 624.860375 27.936 
" style="fill:none;stroke:#cccccc;stroke-linecap:square;stroke-linejoin:miter;stroke-width:1.25;"/>
   </g>
  </g>
  <g id="text_12">
   <text style="fill:#262626;font-family:DejaVu Sans;font-size:11px;font-stretch:normal;font-style:normal;font-weight:normal;text-anchor:middle;" transform="rotate(-0, 304.100375, 15.558281)" x="304.100375" y="15.558281">Bernoulli GLM</text>
  </g>
 </g>
 <defs>
  <clipPath id="p9cd311d7b6">
   <rect height="57.1" width="102.875401" x="48.839375" y="34.416"/>
  </clipPath>
  <clipPath id="p4a32816530">
   <rect height="57.1" width="102.875401" x="151.714776" y="34.416"/>
  </clipPath>
  <clipPath id="pc9244b2b1e">
   <rect height="57.1" width="102.875401" x="254.590178" y="34.416"/>
  </clipPath>
  <clipPath id="p1b3bdfd83b">
   <rect height="57.1" width="102.875401" x="357.465579" y="34.416"/>
  </clipPath>
  <clipPath id="pa30b32dbe4">
   <rect height="57.1" width="102.875401" x="460.34098" y="34.416"/>
  </clipPath>
  <clipPath id="pb376a9e799">
   <rect height="77.76" width="17.496" x="607.364375" y="27.936"/>
  </clipPath>
 </defs>
</svg>
