<?xml version="1.0" encoding="UTF-8" standalone="no"?>
<svg
   height="233pt"
   version="1.1"
   viewBox="0 0 634.99999 233"
   width="635pt"
   id="svg220"
   sodipodi:docname="APPENDIX_snple_comparission.svg"
   inkscape:version="1.1 (c68e22c387, 2021-05-23)"
   xmlns:inkscape="http://www.inkscape.org/namespaces/inkscape"
   xmlns:sodipodi="http://sodipodi.sourceforge.net/DTD/sodipodi-0.dtd"
   xmlns:xlink="http://www.w3.org/1999/xlink"
   xmlns="http://www.w3.org/2000/svg"
   xmlns:svg="http://www.w3.org/2000/svg"
   xmlns:rdf="http://www.w3.org/1999/02/22-rdf-syntax-ns#"
   xmlns:cc="http://creativecommons.org/ns#"
   xmlns:dc="http://purl.org/dc/elements/1.1/">
  <sodipodi:namedview
     id="namedview222"
     pagecolor="#ffffff"
     bordercolor="#666666"
     borderopacity="1.0"
     inkscape:pageshadow="2"
     inkscape:pageopacity="0.0"
     inkscape:pagecheckerboard="0"
     inkscape:document-units="pt"
     showgrid="false"
     inkscape:zoom="1.0266506"
     inkscape:cx="428.0911"
     inkscape:cy="215.75012"
     inkscape:window-width="1920"
     inkscape:window-height="1017"
     inkscape:window-x="1912"
     inkscape:window-y="-8"
     inkscape:window-maximized="1"
     inkscape:current-layer="svg220" />
  <metadata
     id="metadata2">
    <rdf:RDF>
      <cc:Work>
        <dc:type
           rdf:resource="http://purl.org/dc/dcmitype/StillImage" />
        <dc:date>2021-10-04T23:30:04.996716</dc:date>
        <dc:format>image/svg+xml</dc:format>
        <dc:creator>
          <cc:Agent>
            <dc:title>Matplotlib v3.4.3, https://matplotlib.org/</dc:title>
          </cc:Agent>
        </dc:creator>
      </cc:Work>
    </rdf:RDF>
  </metadata>
  <defs
     id="defs6">
    <style
       type="text/css"
       id="style4">*{stroke-linecap:butt;stroke-linejoin:round;}</style>
    <style
       type="text/css"
       id="style17720">*{stroke-linecap:butt;stroke-linejoin:round;}</style>
    <path
       d="M 794,531 H 1825 V 4091 L 703,3866 v 575 l 1116,225 h 631 V 531 H 3481 V 0 H 794 Z"
       id="DejaVuSans-31"
       transform="scale(0.015625)" />
    <path
       d="m 2034,4250 q -487,0 -733,-480 -245,-479 -245,-1442 0,-959 245,-1439 246,-480 733,-480 491,0 736,480 246,480 246,1439 0,963 -246,1442 -245,480 -736,480 z m 0,500 q 785,0 1199,-621 414,-620 414,-1801 0,-1178 -414,-1799 -414,-620 -1199,-620 -784,0 -1198,620 -414,621 -414,1799 0,1181 414,1801 414,621 1198,621 z"
       id="DejaVuSans-30"
       transform="scale(0.015625)" />
    <path
       d="m 2597,2516 q 453,-97 707,-404 255,-306 255,-756 0,-690 -475,-1069 -475,-378 -1350,-378 -293,0 -604,58 -311,58 -642,174 v 609 q 262,-153 574,-231 313,-78 654,-78 593,0 904,234 311,234 311,681 0,413 -289,645 -289,233 -804,233 h -544 v 519 h 569 q 465,0 712,186 247,186 247,536 0,359 -255,551 -254,193 -729,193 -260,0 -557,-57 -297,-56 -653,-174 v 562 q 360,100 674,150 314,50 592,50 719,0 1137,-327 419,-326 419,-882 0,-388 -222,-655 -222,-267 -631,-370 z"
       id="DejaVuSans-33"
       transform="scale(0.015625)" />
    <path
       d="M 2419,4116 825,1625 h 1594 z m -166,550 h 794 V 1625 h 666 V 1100 H 3047 V 0 H 2419 V 1100 H 313 v 609 z"
       id="DejaVuSans-34"
       transform="scale(0.015625)" />
    <path
       d="M 691,4666 H 3169 V 4134 H 1269 V 2991 q 137,47 274,70 138,23 276,23 781,0 1237,-428 457,-428 457,-1159 Q 3513,744 3044,326 2575,-91 1722,-91 1428,-91 1123,-41 819,9 494,109 v 635 q 281,-153 581,-228 300,-75 634,-75 541,0 856,284 316,284 316,772 0,487 -316,771 -315,285 -856,285 -253,0 -505,-56 -251,-56 -513,-175 z"
       id="DejaVuSans-35"
       transform="scale(0.015625)" />
    <path
       d="m 628,4666 h 850 L 3547,763 v 3903 h 612 V 0 H 3309 L 1241,3903 V 0 H 628 Z"
       id="DejaVuSans-4e"
       transform="scale(0.015625)" />
    <path
       d="m 544,1381 v 2119 h 575 V 1403 q 0,-497 193,-746 194,-248 582,-248 465,0 735,297 271,297 271,810 v 1984 h 575 V 0 H 2900 V 538 Q 2691,219 2414,64 2138,-91 1772,-91 1169,-91 856,284 544,659 544,1381 Z m 1447,2203 z"
       id="DejaVuSans-75"
       transform="scale(0.015625)" />
    <path
       d="m 3328,2828 q 216,388 516,572 300,184 706,184 547,0 844,-383 297,-382 297,-1088 V 0 h -578 v 2094 q 0,503 -179,746 -178,244 -543,244 -447,0 -707,-297 -259,-296 -259,-809 V 0 h -578 v 2094 q 0,506 -178,748 -178,242 -550,242 -441,0 -701,-298 -259,-298 -259,-808 V 0 H 581 v 3500 h 578 v -544 q 197,322 472,475 275,153 653,153 382,0 649,-194 267,-193 395,-562 z"
       id="DejaVuSans-6d"
       transform="scale(0.015625)" />
    <path
       d="m 3116,1747 q 0,634 -261,995 -261,361 -717,361 -457,0 -718,-361 -261,-361 -261,-995 0,-634 261,-995 261,-361 718,-361 456,0 717,361 261,361 261,995 z M 1159,2969 q 182,312 458,463 277,152 661,152 638,0 1036,-506 399,-506 399,-1331 Q 3713,922 3314,415 2916,-91 2278,-91 1894,-91 1617,61 1341,213 1159,525 V 0 H 581 v 4863 h 578 z"
       id="DejaVuSans-62"
       transform="scale(0.015625)" />
    <path
       d="M 3597,1894 V 1613 H 953 q 38,-594 358,-905 320,-311 892,-311 331,0 642,81 311,81 618,244 V 178 Q 3153,47 2828,-22 2503,-91 2169,-91 1331,-91 842,396 353,884 353,1716 q 0,859 464,1363 464,505 1252,505 706,0 1117,-455 411,-454 411,-1235 z m -575,169 q -6,471 -264,752 -258,282 -683,282 -481,0 -770,-272 -289,-272 -333,-766 z"
       id="DejaVuSans-65"
       transform="scale(0.015625)" />
    <path
       d="m 2631,2963 q -97,56 -211,82 -114,27 -251,27 -488,0 -749,-317 -261,-317 -261,-911 V 0 H 581 v 3500 h 578 v -544 q 182,319 472,473 291,155 707,155 59,0 131,-8 72,-7 159,-23 z"
       id="DejaVuSans-72"
       transform="scale(0.015625)" />
    <path
       id="DejaVuSans-20"
       transform="scale(0.015625)"
       d="" />
    <path
       d="m 1959,3097 q -462,0 -731,-361 -269,-361 -269,-989 0,-628 267,-989 268,-361 733,-361 460,0 728,362 269,363 269,988 0,622 -269,986 -268,364 -728,364 z m 0,487 q 750,0 1178,-488 429,-487 429,-1349 Q 3566,888 3137,398 2709,-91 1959,-91 1206,-91 779,398 353,888 353,1747 q 0,862 426,1349 427,488 1180,488 z"
       id="DejaVuSans-6f"
       transform="scale(0.015625)" />
    <path
       d="m 2375,4863 v -479 h -550 q -309,0 -430,-125 -120,-125 -120,-450 v -309 h 947 V 3053 H 1275 V 0 H 697 V 3053 H 147 v 447 h 550 v 244 q 0,584 272,851 272,268 862,268 z"
       id="DejaVuSans-66"
       transform="scale(0.015625)" />
    <path
       d="m 3425,4513 v -616 q -359,172 -678,256 -319,85 -616,85 -515,0 -795,-200 -280,-200 -280,-569 0,-310 186,-468 186,-157 705,-254 l 381,-78 q 706,-135 1042,-474 336,-339 336,-907 0,-679 -455,-1029 -454,-350 -1332,-350 -331,0 -705,75 -373,75 -773,222 v 650 q 384,-215 753,-325 369,-109 725,-109 540,0 834,212 294,213 294,607 0,343 -211,537 -211,194 -692,291 l -385,75 q -706,140 -1022,440 -315,300 -315,835 0,619 436,975 436,356 1201,356 329,0 669,-60 341,-59 697,-177 z"
       id="DejaVuSans-53"
       transform="scale(0.015625)" />
    <path
       d="m 603,3500 h 575 V 0 H 603 Z m 0,1363 h 575 V 4134 H 603 Z"
       id="DejaVuSans-69"
       transform="scale(0.015625)" />
    <path
       d="m 603,4863 h 575 V 0 H 603 Z"
       id="DejaVuSans-6c"
       transform="scale(0.015625)" />
    <path
       d="m 2194,1759 q -697,0 -966,-159 -269,-159 -269,-544 0,-306 202,-486 202,-179 548,-179 479,0 768,339 289,339 289,901 v 128 z m 1147,238 V 0 H 2766 V 531 Q 2569,213 2275,61 1981,-91 1556,-91 q -537,0 -855,302 -317,302 -317,808 0,590 395,890 396,300 1180,300 h 807 v 57 q 0,397 -261,614 -261,217 -733,217 -300,0 -585,-72 -284,-72 -546,-216 v 532 q 315,122 612,182 297,61 578,61 760,0 1135,-394 375,-393 375,-1193 z"
       id="DejaVuSans-61"
       transform="scale(0.015625)" />
    <path
       d="M 1172,4494 V 3500 H 2356 V 3053 H 1172 V 1153 q 0,-428 117,-550 117,-122 477,-122 h 590 V 0 H 1766 Q 1100,0 847,248 594,497 594,1153 V 3053 H 172 v 447 h 422 v 994 z"
       id="DejaVuSans-74"
       transform="scale(0.015625)" />
    <path
       d="M 3513,2113 V 0 h -575 v 2094 q 0,497 -194,743 -194,247 -581,247 -466,0 -735,-297 -269,-296 -269,-809 V 0 H 581 v 3500 h 578 v -544 q 207,316 486,472 280,156 646,156 603,0 912,-373 310,-373 310,-1098 z"
       id="DejaVuSans-6e"
       transform="scale(0.015625)" />
    <path
       d="m 2834,3397 v -544 q -243,125 -506,187 -262,63 -544,63 -428,0 -642,-131 -214,-131 -214,-394 0,-200 153,-314 153,-114 616,-217 l 197,-44 q 612,-131 870,-370 258,-239 258,-667 0,-488 -386,-773 Q 2250,-91 1575,-91 1294,-91 989,-36 684,19 347,128 v 594 q 319,-166 628,-249 309,-82 613,-82 406,0 624,139 219,139 219,392 0,234 -158,359 -157,125 -692,241 l -200,47 q -534,112 -772,345 -237,233 -237,639 0,494 350,762 350,269 994,269 318,0 599,-47 282,-46 519,-140 z"
       id="DejaVuSans-73"
       transform="scale(0.015625)" />
    <path
       d="m 684,794 h 660 V 0 H 684 Z"
       id="DejaVuSans-2e"
       transform="scale(0.015625)" />
    <path
       d="m 2113,2584 q -425,0 -674,-291 -248,-290 -248,-796 0,-503 248,-796 249,-292 674,-292 425,0 673,292 248,293 248,796 0,506 -248,796 -248,291 -673,291 z m 1253,1979 v -575 q -238,112 -480,171 -242,60 -480,60 -625,0 -955,-422 -329,-422 -376,-1275 184,272 462,417 279,145 613,145 703,0 1111,-427 408,-426 408,-1160 0,-719 -425,-1154 -425,-434 -1131,-434 -810,0 -1238,620 -428,621 -428,1799 0,1106 525,1764 525,658 1409,658 238,0 480,-47 242,-47 505,-140 z"
       id="DejaVuSans-36"
       transform="scale(0.015625)" />
    <path
       d="M 525,4666 H 3525 V 4397 L 1831,0 H 1172 L 2766,4134 H 525 Z"
       id="DejaVuSans-37"
       transform="scale(0.015625)" />
    <path
       d="m 2034,2216 q -450,0 -708,-241 -257,-241 -257,-662 0,-422 257,-663 258,-241 708,-241 450,0 709,242 260,243 260,662 0,421 -258,662 -257,241 -711,241 z m -631,268 q -406,100 -633,378 -226,279 -226,679 0,559 398,884 399,325 1092,325 697,0 1094,-325 397,-325 397,-884 0,-400 -227,-679 -226,-278 -629,-378 456,-106 710,-416 255,-309 255,-755 Q 3634,634 3220,271 2806,-91 2034,-91 1263,-91 848,271 434,634 434,1313 q 0,446 256,755 257,310 713,416 z m -231,997 q 0,-362 226,-565 227,-203 636,-203 407,0 636,203 230,203 230,565 0,363 -230,566 -229,203 -636,203 -409,0 -636,-203 -226,-203 -226,-566 z"
       id="DejaVuSans-38"
       transform="scale(0.015625)" />
    <path
       d="m 703,97 v 575 q 238,-113 481,-172 244,-59 479,-59 625,0 954,420 330,420 377,1277 -181,-269 -460,-413 -278,-144 -615,-144 -700,0 -1108,423 -408,424 -408,1159 0,718 425,1152 425,435 1131,435 810,0 1236,-621 427,-620 427,-1801 Q 3622,1225 3098,567 2575,-91 1691,-91 1453,-91 1209,-44 966,3 703,97 Z m 1256,1978 q 425,0 673,290 249,291 249,798 0,503 -249,795 -248,292 -673,292 -425,0 -673,-292 -248,-292 -248,-795 0,-507 248,-798 248,-290 673,-290 z"
       id="DejaVuSans-39"
       transform="scale(0.015625)" />
    <path
       d="m 4122,4306 v -665 q -319,297 -680,443 -361,147 -767,147 -800,0 -1225,-489 -425,-489 -425,-1414 0,-922 425,-1411 425,-489 1225,-489 406,0 767,147 361,147 680,444 V 359 Q 3791,134 3420,21 3050,-91 2638,-91 1578,-91 968,557 359,1206 359,2328 q 0,1125 609,1773 610,649 1670,649 418,0 788,-111 371,-111 696,-333 z"
       id="DejaVuSans-43"
       transform="scale(0.015625)" />
    <path
       d="M 1228,531 H 3431 V 0 H 469 v 531 q 359,372 979,998 621,627 780,809 303,340 423,576 121,236 121,464 0,372 -261,606 -261,235 -680,235 -297,0 -627,-103 -329,-103 -704,-313 v 638 q 381,153 712,231 332,78 607,78 725,0 1156,-363 431,-362 431,-968 0,-288 -108,-546 -107,-257 -392,-607 -78,-91 -497,-524 Q 1991,1309 1228,531 Z"
       id="DejaVuSans-32"
       transform="scale(0.015625)" />
    <path
       d="M -19,4666 H 3928 V 4134 H 2272 V 0 H 1638 V 4134 H -19 Z"
       id="DejaVuSans-54"
       transform="scale(0.015625)" />
    <path
       d="m 0,1.691974 c 0.448717,0 0.879116,-0.178277 1.196406,-0.495568 C 1.513697,0.879116 1.691974,0.448717 1.691974,0 c 0,-0.448717 -0.178277,-0.879116 -0.495568,-1.196406 C 0.879116,-1.513697 0.448717,-1.691974 0,-1.691974 c -0.448717,0 -0.879116,0.178277 -1.196406,0.495568 -0.317291,0.31729 -0.495568,0.747689 -0.495568,1.196406 0,0.448717 0.178277,0.879116 0.495568,1.196406 C -0.879116,1.513697 -0.448717,1.691974 0,1.691974 Z"
       id="C0_0_bf0890a713" />
    <path
       d="m 0,1.691974 c 0.448717,0 0.879116,-0.178277 1.196406,-0.495568 C 1.513697,0.879116 1.691974,0.448717 1.691974,0 c 0,-0.448717 -0.178277,-0.879116 -0.495568,-1.196406 C 0.879116,-1.513697 0.448717,-1.691974 0,-1.691974 c -0.448717,0 -0.879116,0.178277 -1.196406,0.495568 -0.317291,0.31729 -0.495568,0.747689 -0.495568,1.196406 0,0.448717 0.178277,0.879116 0.495568,1.196406 C -0.879116,1.513697 -0.448717,1.691974 0,1.691974 Z"
       id="C1_0_dd429813f9" />
    <path
       d="M 1259,4147 V 2394 h 794 q 441,0 681,228 241,228 241,650 0,419 -241,647 -240,228 -681,228 z m -631,519 h 1425 q 785,0 1186,-355 402,-355 402,-1039 0,-691 -402,-1044 -401,-353 -1186,-353 H 1259 V 0 H 628 Z"
       id="DejaVuSans-50"
       transform="scale(0.015625)" />
    <path
       d="m 628,4666 h 631 V 531 H 3531 V 0 H 628 Z"
       id="DejaVuSans-4c"
       transform="scale(0.015625)" />
    <path
       d="M 2188,4044 1331,1722 h 1716 z m -357,622 h 716 L 4325,0 H 3669 L 3244,1197 H 1141 L 716,0 H 50 Z"
       id="DejaVuSans-41"
       transform="scale(0.015625)" />
    <clipPath
       id="pf3a60d4e1e">
      <rect
         height="163.08"
         width="195.3"
         x="31.5"
         y="25.92"
         id="rect18069" />
    </clipPath>
    <style
       type="text/css"
       id="style18370">*{stroke-linecap:butt;stroke-linejoin:round;}</style>
    <path
       d="m 628,4666 h 850 L 3547,763 v 3903 h 612 V 0 H 3309 L 1241,3903 V 0 H 628 Z"
       id="DejaVuSans-4e-6"
       transform="scale(0.015625)" />
    <path
       id="DejaVuSans-20-0"
       transform="scale(0.015625)"
       d="" />
    <path
       d="M 678,2906 H 4684 V 2381 H 678 Z m 0,-1275 H 4684 V 1100 H 678 Z"
       id="DejaVuSans-3d"
       transform="scale(0.015625)" />
    <path
       d="M 794,531 H 1825 V 4091 L 703,3866 v 575 l 1116,225 h 631 V 531 H 3481 V 0 H 794 Z"
       id="DejaVuSans-31-4"
       transform="scale(0.015625)" />
    <path
       d="m 2034,4250 q -487,0 -733,-480 -245,-479 -245,-1442 0,-959 245,-1439 246,-480 733,-480 491,0 736,480 246,480 246,1439 0,963 -246,1442 -245,480 -736,480 z m 0,500 q 785,0 1199,-621 414,-620 414,-1801 0,-1178 -414,-1799 -414,-620 -1199,-620 -784,0 -1198,620 -414,621 -414,1799 0,1181 414,1801 414,621 1198,621 z"
       id="DejaVuSans-30-5"
       transform="scale(0.015625)" />
    <path
       d="M -19,4666 H 3928 V 4134 H 2272 V 0 H 1638 V 4134 H -19 Z"
       id="DejaVuSans-54-0"
       transform="scale(0.015625)" />
    <path
       d="m 2631,2963 q -97,56 -211,82 -114,27 -251,27 -488,0 -749,-317 -261,-317 -261,-911 V 0 H 581 v 3500 h 578 v -544 q 182,319 472,473 291,155 707,155 59,0 131,-8 72,-7 159,-23 z"
       id="DejaVuSans-72-3"
       transform="scale(0.015625)" />
    <path
       d="m 544,1381 v 2119 h 575 V 1403 q 0,-497 193,-746 194,-248 582,-248 465,0 735,297 271,297 271,810 v 1984 h 575 V 0 H 2900 V 538 Q 2691,219 2414,64 2138,-91 1772,-91 1169,-91 856,284 544,659 544,1381 Z m 1447,2203 z"
       id="DejaVuSans-75-5"
       transform="scale(0.015625)" />
    <path
       d="M 3597,1894 V 1613 H 953 q 38,-594 358,-905 320,-311 892,-311 331,0 642,81 311,81 618,244 V 178 Q 3153,47 2828,-22 2503,-91 2169,-91 1331,-91 842,396 353,884 353,1716 q 0,859 464,1363 464,505 1252,505 706,0 1117,-455 411,-454 411,-1235 z m -575,169 q -6,471 -264,752 -258,282 -683,282 -481,0 -770,-272 -289,-272 -333,-766 z"
       id="DejaVuSans-65-3"
       transform="scale(0.015625)" />
    <path
       d="M 3809,666 V 1919 H 2778 v 519 H 4434 V 434 Q 4069,175 3628,42 3188,-91 2688,-91 1594,-91 976,548 359,1188 359,2328 q 0,1144 617,1783 618,639 1712,639 456,0 867,-113 411,-112 758,-331 v -672 q -350,297 -744,447 -394,150 -828,150 -857,0 -1287,-478 -429,-478 -429,-1425 0,-944 429,-1422 430,-478 1287,-478 334,0 596,58 263,58 472,180 z"
       id="DejaVuSans-47"
       transform="scale(0.015625)" />
    <path
       d="m 2194,1759 q -697,0 -966,-159 -269,-159 -269,-544 0,-306 202,-486 202,-179 548,-179 479,0 768,339 289,339 289,901 v 128 z m 1147,238 V 0 H 2766 V 531 Q 2569,213 2275,61 1981,-91 1556,-91 q -537,0 -855,302 -317,302 -317,808 0,590 395,890 396,300 1180,300 h 807 v 57 q 0,397 -261,614 -261,217 -733,217 -300,0 -585,-72 -284,-72 -546,-216 v 532 q 315,122 612,182 297,61 578,61 760,0 1135,-394 375,-393 375,-1193 z"
       id="DejaVuSans-61-8"
       transform="scale(0.015625)" />
    <path
       d="m 2906,2969 v 1894 h 575 V 0 H 2906 V 525 Q 2725,213 2448,61 2172,-91 1784,-91 1150,-91 751,415 353,922 353,1747 q 0,825 398,1331 399,506 1033,506 388,0 664,-152 277,-151 458,-463 z M 947,1747 q 0,-634 261,-995 261,-361 717,-361 456,0 718,361 263,361 263,995 0,634 -263,995 -262,361 -718,361 -456,0 -717,-361 -261,-361 -261,-995 z"
       id="DejaVuSans-64"
       transform="scale(0.015625)" />
    <path
       d="m 603,3500 h 575 V 0 H 603 Z m 0,1363 h 575 V 4134 H 603 Z"
       id="DejaVuSans-69-9"
       transform="scale(0.015625)" />
    <path
       d="M 3513,2113 V 0 h -575 v 2094 q 0,497 -194,743 -194,247 -581,247 -466,0 -735,-297 -269,-296 -269,-809 V 0 H 581 v 3500 h 578 v -544 q 207,316 486,472 280,156 646,156 603,0 912,-373 310,-373 310,-1098 z"
       id="DejaVuSans-6e-6"
       transform="scale(0.015625)" />
    <path
       d="M 1172,4494 V 3500 H 2356 V 3053 H 1172 V 1153 q 0,-428 117,-550 117,-122 477,-122 h 590 V 0 H 1766 Q 1100,0 847,248 594,497 594,1153 V 3053 H 172 v 447 h 422 v 994 z"
       id="DejaVuSans-74-1"
       transform="scale(0.015625)" />
    <path
       d="m 2375,4863 v -479 h -550 q -309,0 -430,-125 -120,-125 -120,-450 v -309 h 947 V 3053 H 1275 V 0 H 697 V 3053 H 147 v 447 h 550 v 244 q 0,584 272,851 272,268 862,268 z"
       id="DejaVuSans-66-2"
       transform="scale(0.015625)" />
    <path
       d="M 1831,0 50,4666 H 709 L 2188,738 3669,4666 h 656 L 2547,0 Z"
       id="DejaVuSans-56"
       transform="scale(0.015625)" />
    <path
       d="M 1259,2228 V 519 h 1013 q 509,0 754,211 246,211 246,645 0,438 -246,645 -245,208 -754,208 z m 0,1919 V 2741 h 935 q 462,0 688,173 227,174 227,530 0,353 -227,528 -226,175 -688,175 z m -631,519 h 1613 q 722,0 1112,-300 391,-300 391,-853 0,-429 -200,-682 -200,-253 -588,-315 466,-100 724,-418 258,-317 258,-792 0,-625 -425,-966 Q 3088,0 2303,0 H 628 Z"
       id="DejaVuSans-42"
       transform="scale(0.015625)" />
    <style
       type="text/css"
       id="style18724">*{stroke-linecap:butt;stroke-linejoin:round;}</style>
    <path
       id="DejaVuSans-20-2"
       transform="scale(0.015625)"
       d="" />
    <path
       d="m 2522,4238 q -688,0 -1093,-513 -404,-512 -404,-1397 0,-881 404,-1394 405,-512 1093,-512 687,0 1089,512 402,513 402,1394 0,885 -402,1397 -402,513 -1089,513 z m 0,512 q 981,0 1568,-658 588,-658 588,-1764 0,-1103 -588,-1761 -587,-658 -1568,-658 -984,0 -1574,656 -589,657 -589,1763 0,1106 589,1764 590,658 1574,658 z"
       id="DejaVuSans-4f"
       transform="scale(0.015625)" />
    <path
       d="m 2631,2963 q -97,56 -211,82 -114,27 -251,27 -488,0 -749,-317 -261,-317 -261,-911 V 0 H 581 v 3500 h 578 v -544 q 182,319 472,473 291,155 707,155 59,0 131,-8 72,-7 159,-23 z"
       id="DejaVuSans-72-4"
       transform="scale(0.015625)" />
    <path
       d="m 603,3500 h 575 V 0 H 603 Z m 0,1363 h 575 V 4134 H 603 Z"
       id="DejaVuSans-69-7"
       transform="scale(0.015625)" />
    <path
       d="m 2906,1791 q 0,625 -258,968 -257,344 -723,344 -462,0 -720,-344 -258,-343 -258,-968 0,-622 258,-966 258,-344 720,-344 466,0 723,344 258,344 258,966 z M 3481,434 q 0,-893 -397,-1329 -396,-436 -1215,-436 -303,0 -572,45 -269,45 -522,139 v 559 q 253,-137 500,-202 247,-66 503,-66 566,0 847,295 281,295 281,892 V 616 Q 2728,306 2450,153 2172,0 1784,0 1141,0 747,490 353,981 353,1791 q 0,812 394,1302 394,491 1037,491 388,0 666,-153 278,-153 456,-462 v 531 h 575 z"
       id="DejaVuSans-67"
       transform="scale(0.015625)" />
    <path
       d="M 3513,2113 V 0 h -575 v 2094 q 0,497 -194,743 -194,247 -581,247 -466,0 -735,-297 -269,-296 -269,-809 V 0 H 581 v 3500 h 578 v -544 q 207,316 486,472 280,156 646,156 603,0 912,-373 310,-373 310,-1098 z"
       id="DejaVuSans-6e-9"
       transform="scale(0.015625)" />
    <path
       d="m 2194,1759 q -697,0 -966,-159 -269,-159 -269,-544 0,-306 202,-486 202,-179 548,-179 479,0 768,339 289,339 289,901 v 128 z m 1147,238 V 0 H 2766 V 531 Q 2569,213 2275,61 1981,-91 1556,-91 q -537,0 -855,302 -317,302 -317,808 0,590 395,890 396,300 1180,300 h 807 v 57 q 0,397 -261,614 -261,217 -733,217 -300,0 -585,-72 -284,-72 -546,-216 v 532 q 315,122 612,182 297,61 578,61 760,0 1135,-394 375,-393 375,-1193 z"
       id="DejaVuSans-61-6"
       transform="scale(0.015625)" />
    <path
       d="m 603,4863 h 575 V 0 H 603 Z"
       id="DejaVuSans-6c-6"
       transform="scale(0.015625)" />
    <path
       d="m 3425,4513 v -616 q -359,172 -678,256 -319,85 -616,85 -515,0 -795,-200 -280,-200 -280,-569 0,-310 186,-468 186,-157 705,-254 l 381,-78 q 706,-135 1042,-474 336,-339 336,-907 0,-679 -455,-1029 -454,-350 -1332,-350 -331,0 -705,75 -373,75 -773,222 v 650 q 384,-215 753,-325 369,-109 725,-109 540,0 834,212 294,213 294,607 0,343 -211,537 -211,194 -692,291 l -385,75 q -706,140 -1022,440 -315,300 -315,835 0,619 436,975 436,356 1201,356 329,0 669,-60 341,-59 697,-177 z"
       id="DejaVuSans-53-5"
       transform="scale(0.015625)" />
    <path
       d="m 628,4666 h 850 L 3547,763 v 3903 h 612 V 0 H 3309 L 1241,3903 V 0 H 628 Z"
       id="DejaVuSans-4e-4"
       transform="scale(0.015625)" />
    <path
       d="M 1259,4147 V 2394 h 794 q 441,0 681,228 241,228 241,650 0,419 -241,647 -240,228 -681,228 z m -631,519 h 1425 q 785,0 1186,-355 402,-355 402,-1039 0,-691 -402,-1044 -401,-353 -1186,-353 H 1259 V 0 H 628 Z"
       id="DejaVuSans-50-4"
       transform="scale(0.015625)" />
    <path
       d="m 628,4666 h 631 V 531 H 3531 V 0 H 628 Z"
       id="DejaVuSans-4c-8"
       transform="scale(0.015625)" />
    <path
       d="M 2188,4044 1331,1722 h 1716 z m -357,622 h 716 L 4325,0 H 3669 L 3244,1197 H 1141 L 716,0 H 50 Z"
       id="DejaVuSans-41-0"
       transform="scale(0.015625)" />
    <path
       d="m 544,1381 v 2119 h 575 V 1403 q 0,-497 193,-746 194,-248 582,-248 465,0 735,297 271,297 271,810 v 1984 h 575 V 0 H 2900 V 538 Q 2691,219 2414,64 2138,-91 1772,-91 1169,-91 856,284 544,659 544,1381 Z m 1447,2203 z"
       id="DejaVuSans-75-1"
       transform="scale(0.015625)" />
    <path
       d="m 1984,4856 q -418,-718 -622,-1422 -203,-703 -203,-1425 0,-721 205,-1429 205,-708 620,-1424 h -500 q -468,735 -701,1444 -233,709 -233,1409 0,697 231,1403 232,707 703,1444 z"
       id="DejaVuSans-28"
       transform="scale(0.015625)" />
    <path
       d="M 1831,0 50,4666 H 709 L 2188,738 3669,4666 h 656 L 2547,0 Z"
       id="DejaVuSans-56-0"
       transform="scale(0.015625)" />
    <path
       d="m 628,4666 h 631 V 0 H 628 Z"
       id="DejaVuSans-49"
       transform="scale(0.015625)" />
    <path
       d="M 2944,4013 V 2272 H 4684 V 1741 H 2944 V 0 H 2419 V 1741 H 678 v 531 h 1741 v 1741 z"
       id="DejaVuSans-2b"
       transform="scale(0.015625)" />
    <path
       d="m 628,4666 h 631 V 2694 l 2094,1972 h 813 L 1850,2491 4331,0 H 3500 L 1259,2247 V 0 H 628 Z"
       id="DejaVuSans-4b"
       transform="scale(0.015625)" />
    <path
       d="m 513,4856 h 500 q 468,-737 701,-1444 233,-706 233,-1403 0,-700 -233,-1409 -233,-709 -701,-1444 H 513 q 415,716 620,1424 205,708 205,1429 0,722 -205,1425 -205,704 -620,1422 z"
       id="DejaVuSans-29"
       transform="scale(0.015625)" />
    <style
       type="text/css"
       id="style19062">*{stroke-linecap:butt;stroke-linejoin:round;}</style>
    <path
       id="DejaVuSans-20-8"
       transform="scale(0.015625)"
       d="" />
    <path
       d="m 2522,4238 q -688,0 -1093,-513 -404,-512 -404,-1397 0,-881 404,-1394 405,-512 1093,-512 687,0 1089,512 402,513 402,1394 0,885 -402,1397 -402,513 -1089,513 z m 0,512 q 981,0 1568,-658 588,-658 588,-1764 0,-1103 -588,-1761 -587,-658 -1568,-658 -984,0 -1574,656 -589,657 -589,1763 0,1106 589,1764 590,658 1574,658 z"
       id="DejaVuSans-4f-7"
       transform="scale(0.015625)" />
    <path
       d="m 2631,2963 q -97,56 -211,82 -114,27 -251,27 -488,0 -749,-317 -261,-317 -261,-911 V 0 H 581 v 3500 h 578 v -544 q 182,319 472,473 291,155 707,155 59,0 131,-8 72,-7 159,-23 z"
       id="DejaVuSans-72-2"
       transform="scale(0.015625)" />
    <path
       d="m 603,3500 h 575 V 0 H 603 Z m 0,1363 h 575 V 4134 H 603 Z"
       id="DejaVuSans-69-79"
       transform="scale(0.015625)" />
    <path
       d="m 2906,1791 q 0,625 -258,968 -257,344 -723,344 -462,0 -720,-344 -258,-343 -258,-968 0,-622 258,-966 258,-344 720,-344 466,0 723,344 258,344 258,966 z M 3481,434 q 0,-893 -397,-1329 -396,-436 -1215,-436 -303,0 -572,45 -269,45 -522,139 v 559 q 253,-137 500,-202 247,-66 503,-66 566,0 847,295 281,295 281,892 V 616 Q 2728,306 2450,153 2172,0 1784,0 1141,0 747,490 353,981 353,1791 q 0,812 394,1302 394,491 1037,491 388,0 666,-153 278,-153 456,-462 v 531 h 575 z"
       id="DejaVuSans-67-6"
       transform="scale(0.015625)" />
    <path
       d="M 3513,2113 V 0 h -575 v 2094 q 0,497 -194,743 -194,247 -581,247 -466,0 -735,-297 -269,-296 -269,-809 V 0 H 581 v 3500 h 578 v -544 q 207,316 486,472 280,156 646,156 603,0 912,-373 310,-373 310,-1098 z"
       id="DejaVuSans-6e-4"
       transform="scale(0.015625)" />
    <path
       d="m 2194,1759 q -697,0 -966,-159 -269,-159 -269,-544 0,-306 202,-486 202,-179 548,-179 479,0 768,339 289,339 289,901 v 128 z m 1147,238 V 0 H 2766 V 531 Q 2569,213 2275,61 1981,-91 1556,-91 q -537,0 -855,302 -317,302 -317,808 0,590 395,890 396,300 1180,300 h 807 v 57 q 0,397 -261,614 -261,217 -733,217 -300,0 -585,-72 -284,-72 -546,-216 v 532 q 315,122 612,182 297,61 578,61 760,0 1135,-394 375,-393 375,-1193 z"
       id="DejaVuSans-61-1"
       transform="scale(0.015625)" />
    <path
       d="m 603,4863 h 575 V 0 H 603 Z"
       id="DejaVuSans-6c-4"
       transform="scale(0.015625)" />
    <path
       d="m 3425,4513 v -616 q -359,172 -678,256 -319,85 -616,85 -515,0 -795,-200 -280,-200 -280,-569 0,-310 186,-468 186,-157 705,-254 l 381,-78 q 706,-135 1042,-474 336,-339 336,-907 0,-679 -455,-1029 -454,-350 -1332,-350 -331,0 -705,75 -373,75 -773,222 v 650 q 384,-215 753,-325 369,-109 725,-109 540,0 834,212 294,213 294,607 0,343 -211,537 -211,194 -692,291 l -385,75 q -706,140 -1022,440 -315,300 -315,835 0,619 436,975 436,356 1201,356 329,0 669,-60 341,-59 697,-177 z"
       id="DejaVuSans-53-9"
       transform="scale(0.015625)" />
    <path
       d="m 628,4666 h 850 L 3547,763 v 3903 h 612 V 0 H 3309 L 1241,3903 V 0 H 628 Z"
       id="DejaVuSans-4e-8"
       transform="scale(0.015625)" />
    <path
       d="M 1259,4147 V 2394 h 794 q 441,0 681,228 241,228 241,650 0,419 -241,647 -240,228 -681,228 z m -631,519 h 1425 q 785,0 1186,-355 402,-355 402,-1039 0,-691 -402,-1044 -401,-353 -1186,-353 H 1259 V 0 H 628 Z"
       id="DejaVuSans-50-3"
       transform="scale(0.015625)" />
    <path
       d="m 628,4666 h 631 V 531 H 3531 V 0 H 628 Z"
       id="DejaVuSans-4c-6"
       transform="scale(0.015625)" />
    <path
       d="M 2188,4044 1331,1722 h 1716 z m -357,622 h 716 L 4325,0 H 3669 L 3244,1197 H 1141 L 716,0 H 50 Z"
       id="DejaVuSans-41-3"
       transform="scale(0.015625)" />
    <path
       d="m 544,1381 v 2119 h 575 V 1403 q 0,-497 193,-746 194,-248 582,-248 465,0 735,297 271,297 271,810 v 1984 h 575 V 0 H 2900 V 538 Q 2691,219 2414,64 2138,-91 1772,-91 1169,-91 856,284 544,659 544,1381 Z m 1447,2203 z"
       id="DejaVuSans-75-14"
       transform="scale(0.015625)" />
    <path
       d="m 1984,4856 q -418,-718 -622,-1422 -203,-703 -203,-1425 0,-721 205,-1429 205,-708 620,-1424 h -500 q -468,735 -701,1444 -233,709 -233,1409 0,697 231,1403 232,707 703,1444 z"
       id="DejaVuSans-28-7"
       transform="scale(0.015625)" />
    <path
       d="M 1831,0 50,4666 H 709 L 2188,738 3669,4666 h 656 L 2547,0 Z"
       id="DejaVuSans-56-07"
       transform="scale(0.015625)" />
    <path
       d="m 628,4666 h 631 V 0 H 628 Z"
       id="DejaVuSans-49-6"
       transform="scale(0.015625)" />
    <path
       d="M 2944,4013 V 2272 H 4684 V 1741 H 2944 V 0 H 2419 V 1741 H 678 v 531 h 1741 v 1741 z"
       id="DejaVuSans-2b-3"
       transform="scale(0.015625)" />
    <path
       d="m 628,4666 h 631 V 2694 l 2094,1972 h 813 L 1850,2491 4331,0 H 3500 L 1259,2247 V 0 H 628 Z"
       id="DejaVuSans-4b-1"
       transform="scale(0.015625)" />
    <path
       d="m 513,4856 h 500 q 468,-737 701,-1444 233,-706 233,-1403 0,-700 -233,-1409 -233,-709 -701,-1444 H 513 q 415,716 620,1424 205,708 205,1429 0,722 -205,1425 -205,704 -620,1422 z"
       id="DejaVuSans-29-3"
       transform="scale(0.015625)" />
    <style
       type="text/css"
       id="style19400">*{stroke-linecap:butt;stroke-linejoin:round;}</style>
    <path
       id="DejaVuSans-20-85"
       transform="scale(0.015625)"
       d="" />
    <path
       d="m 2522,4238 q -688,0 -1093,-513 -404,-512 -404,-1397 0,-881 404,-1394 405,-512 1093,-512 687,0 1089,512 402,513 402,1394 0,885 -402,1397 -402,513 -1089,513 z m 0,512 q 981,0 1568,-658 588,-658 588,-1764 0,-1103 -588,-1761 -587,-658 -1568,-658 -984,0 -1574,656 -589,657 -589,1763 0,1106 589,1764 590,658 1574,658 z"
       id="DejaVuSans-4f-9"
       transform="scale(0.015625)" />
    <path
       d="m 2631,2963 q -97,56 -211,82 -114,27 -251,27 -488,0 -749,-317 -261,-317 -261,-911 V 0 H 581 v 3500 h 578 v -544 q 182,319 472,473 291,155 707,155 59,0 131,-8 72,-7 159,-23 z"
       id="DejaVuSans-72-37"
       transform="scale(0.015625)" />
    <path
       d="m 603,3500 h 575 V 0 H 603 Z m 0,1363 h 575 V 4134 H 603 Z"
       id="DejaVuSans-69-1"
       transform="scale(0.015625)" />
    <path
       d="m 2906,1791 q 0,625 -258,968 -257,344 -723,344 -462,0 -720,-344 -258,-343 -258,-968 0,-622 258,-966 258,-344 720,-344 466,0 723,344 258,344 258,966 z M 3481,434 q 0,-893 -397,-1329 -396,-436 -1215,-436 -303,0 -572,45 -269,45 -522,139 v 559 q 253,-137 500,-202 247,-66 503,-66 566,0 847,295 281,295 281,892 V 616 Q 2728,306 2450,153 2172,0 1784,0 1141,0 747,490 353,981 353,1791 q 0,812 394,1302 394,491 1037,491 388,0 666,-153 278,-153 456,-462 v 531 h 575 z"
       id="DejaVuSans-67-3"
       transform="scale(0.015625)" />
    <path
       d="M 3513,2113 V 0 h -575 v 2094 q 0,497 -194,743 -194,247 -581,247 -466,0 -735,-297 -269,-296 -269,-809 V 0 H 581 v 3500 h 578 v -544 q 207,316 486,472 280,156 646,156 603,0 912,-373 310,-373 310,-1098 z"
       id="DejaVuSans-6e-3"
       transform="scale(0.015625)" />
    <path
       d="m 2194,1759 q -697,0 -966,-159 -269,-159 -269,-544 0,-306 202,-486 202,-179 548,-179 479,0 768,339 289,339 289,901 v 128 z m 1147,238 V 0 H 2766 V 531 Q 2569,213 2275,61 1981,-91 1556,-91 q -537,0 -855,302 -317,302 -317,808 0,590 395,890 396,300 1180,300 h 807 v 57 q 0,397 -261,614 -261,217 -733,217 -300,0 -585,-72 -284,-72 -546,-216 v 532 q 315,122 612,182 297,61 578,61 760,0 1135,-394 375,-393 375,-1193 z"
       id="DejaVuSans-61-65"
       transform="scale(0.015625)" />
    <path
       d="m 603,4863 h 575 V 0 H 603 Z"
       id="DejaVuSans-6c-2"
       transform="scale(0.015625)" />
    <path
       d="m 3425,4513 v -616 q -359,172 -678,256 -319,85 -616,85 -515,0 -795,-200 -280,-200 -280,-569 0,-310 186,-468 186,-157 705,-254 l 381,-78 q 706,-135 1042,-474 336,-339 336,-907 0,-679 -455,-1029 -454,-350 -1332,-350 -331,0 -705,75 -373,75 -773,222 v 650 q 384,-215 753,-325 369,-109 725,-109 540,0 834,212 294,213 294,607 0,343 -211,537 -211,194 -692,291 l -385,75 q -706,140 -1022,440 -315,300 -315,835 0,619 436,975 436,356 1201,356 329,0 669,-60 341,-59 697,-177 z"
       id="DejaVuSans-53-8"
       transform="scale(0.015625)" />
    <path
       d="m 628,4666 h 850 L 3547,763 v 3903 h 612 V 0 H 3309 L 1241,3903 V 0 H 628 Z"
       id="DejaVuSans-4e-80"
       transform="scale(0.015625)" />
    <path
       d="M 1259,4147 V 2394 h 794 q 441,0 681,228 241,228 241,650 0,419 -241,647 -240,228 -681,228 z m -631,519 h 1425 q 785,0 1186,-355 402,-355 402,-1039 0,-691 -402,-1044 -401,-353 -1186,-353 H 1259 V 0 H 628 Z"
       id="DejaVuSans-50-9"
       transform="scale(0.015625)" />
    <path
       d="m 628,4666 h 631 V 531 H 3531 V 0 H 628 Z"
       id="DejaVuSans-4c-64"
       transform="scale(0.015625)" />
    <path
       d="M 2188,4044 1331,1722 h 1716 z m -357,622 h 716 L 4325,0 H 3669 L 3244,1197 H 1141 L 716,0 H 50 Z"
       id="DejaVuSans-41-6"
       transform="scale(0.015625)" />
    <path
       d="m 544,1381 v 2119 h 575 V 1403 q 0,-497 193,-746 194,-248 582,-248 465,0 735,297 271,297 271,810 v 1984 h 575 V 0 H 2900 V 538 Q 2691,219 2414,64 2138,-91 1772,-91 1169,-91 856,284 544,659 544,1381 Z m 1447,2203 z"
       id="DejaVuSans-75-0"
       transform="scale(0.015625)" />
    <path
       d="m 1984,4856 q -418,-718 -622,-1422 -203,-703 -203,-1425 0,-721 205,-1429 205,-708 620,-1424 h -500 q -468,735 -701,1444 -233,709 -233,1409 0,697 231,1403 232,707 703,1444 z"
       id="DejaVuSans-28-0"
       transform="scale(0.015625)" />
    <path
       d="M 1831,0 50,4666 H 709 L 2188,738 3669,4666 h 656 L 2547,0 Z"
       id="DejaVuSans-56-8"
       transform="scale(0.015625)" />
    <path
       d="m 628,4666 h 631 V 0 H 628 Z"
       id="DejaVuSans-49-65"
       transform="scale(0.015625)" />
    <path
       d="M 2944,4013 V 2272 H 4684 V 1741 H 2944 V 0 H 2419 V 1741 H 678 v 531 h 1741 v 1741 z"
       id="DejaVuSans-2b-8"
       transform="scale(0.015625)" />
    <path
       d="m 628,4666 h 631 V 2694 l 2094,1972 h 813 L 1850,2491 4331,0 H 3500 L 1259,2247 V 0 H 628 Z"
       id="DejaVuSans-4b-10"
       transform="scale(0.015625)" />
    <path
       d="m 513,4856 h 500 q 468,-737 701,-1444 233,-706 233,-1403 0,-700 -233,-1409 -233,-709 -701,-1444 H 513 q 415,716 620,1424 205,708 205,1429 0,722 -205,1425 -205,704 -620,1422 z"
       id="DejaVuSans-29-4"
       transform="scale(0.015625)" />
    <style
       type="text/css"
       id="style19738">*{stroke-linecap:butt;stroke-linejoin:round;}</style>
    <path
       id="DejaVuSans-20-852"
       transform="scale(0.015625)"
       d="" />
    <path
       d="m 2522,4238 q -688,0 -1093,-513 -404,-512 -404,-1397 0,-881 404,-1394 405,-512 1093,-512 687,0 1089,512 402,513 402,1394 0,885 -402,1397 -402,513 -1089,513 z m 0,512 q 981,0 1568,-658 588,-658 588,-1764 0,-1103 -588,-1761 -587,-658 -1568,-658 -984,0 -1574,656 -589,657 -589,1763 0,1106 589,1764 590,658 1574,658 z"
       id="DejaVuSans-4f-1"
       transform="scale(0.015625)" />
    <path
       d="m 2631,2963 q -97,56 -211,82 -114,27 -251,27 -488,0 -749,-317 -261,-317 -261,-911 V 0 H 581 v 3500 h 578 v -544 q 182,319 472,473 291,155 707,155 59,0 131,-8 72,-7 159,-23 z"
       id="DejaVuSans-72-8"
       transform="scale(0.015625)" />
    <path
       d="m 603,3500 h 575 V 0 H 603 Z m 0,1363 h 575 V 4134 H 603 Z"
       id="DejaVuSans-69-0"
       transform="scale(0.015625)" />
    <path
       d="m 2906,1791 q 0,625 -258,968 -257,344 -723,344 -462,0 -720,-344 -258,-343 -258,-968 0,-622 258,-966 258,-344 720,-344 466,0 723,344 258,344 258,966 z M 3481,434 q 0,-893 -397,-1329 -396,-436 -1215,-436 -303,0 -572,45 -269,45 -522,139 v 559 q 253,-137 500,-202 247,-66 503,-66 566,0 847,295 281,295 281,892 V 616 Q 2728,306 2450,153 2172,0 1784,0 1141,0 747,490 353,981 353,1791 q 0,812 394,1302 394,491 1037,491 388,0 666,-153 278,-153 456,-462 v 531 h 575 z"
       id="DejaVuSans-67-4"
       transform="scale(0.015625)" />
    <path
       d="M 3513,2113 V 0 h -575 v 2094 q 0,497 -194,743 -194,247 -581,247 -466,0 -735,-297 -269,-296 -269,-809 V 0 H 581 v 3500 h 578 v -544 q 207,316 486,472 280,156 646,156 603,0 912,-373 310,-373 310,-1098 z"
       id="DejaVuSans-6e-37"
       transform="scale(0.015625)" />
    <path
       d="m 2194,1759 q -697,0 -966,-159 -269,-159 -269,-544 0,-306 202,-486 202,-179 548,-179 479,0 768,339 289,339 289,901 v 128 z m 1147,238 V 0 H 2766 V 531 Q 2569,213 2275,61 1981,-91 1556,-91 q -537,0 -855,302 -317,302 -317,808 0,590 395,890 396,300 1180,300 h 807 v 57 q 0,397 -261,614 -261,217 -733,217 -300,0 -585,-72 -284,-72 -546,-216 v 532 q 315,122 612,182 297,61 578,61 760,0 1135,-394 375,-393 375,-1193 z"
       id="DejaVuSans-61-4"
       transform="scale(0.015625)" />
    <path
       d="m 603,4863 h 575 V 0 H 603 Z"
       id="DejaVuSans-6c-1"
       transform="scale(0.015625)" />
    <path
       d="m 3425,4513 v -616 q -359,172 -678,256 -319,85 -616,85 -515,0 -795,-200 -280,-200 -280,-569 0,-310 186,-468 186,-157 705,-254 l 381,-78 q 706,-135 1042,-474 336,-339 336,-907 0,-679 -455,-1029 -454,-350 -1332,-350 -331,0 -705,75 -373,75 -773,222 v 650 q 384,-215 753,-325 369,-109 725,-109 540,0 834,212 294,213 294,607 0,343 -211,537 -211,194 -692,291 l -385,75 q -706,140 -1022,440 -315,300 -315,835 0,619 436,975 436,356 1201,356 329,0 669,-60 341,-59 697,-177 z"
       id="DejaVuSans-53-93"
       transform="scale(0.015625)" />
    <path
       d="m 628,4666 h 850 L 3547,763 v 3903 h 612 V 0 H 3309 L 1241,3903 V 0 H 628 Z"
       id="DejaVuSans-4e-7"
       transform="scale(0.015625)" />
    <path
       d="M 1259,4147 V 2394 h 794 q 441,0 681,228 241,228 241,650 0,419 -241,647 -240,228 -681,228 z m -631,519 h 1425 q 785,0 1186,-355 402,-355 402,-1039 0,-691 -402,-1044 -401,-353 -1186,-353 H 1259 V 0 H 628 Z"
       id="DejaVuSans-50-5"
       transform="scale(0.015625)" />
    <path
       d="m 628,4666 h 631 V 531 H 3531 V 0 H 628 Z"
       id="DejaVuSans-4c-4"
       transform="scale(0.015625)" />
    <path
       d="M 2188,4044 1331,1722 h 1716 z m -357,622 h 716 L 4325,0 H 3669 L 3244,1197 H 1141 L 716,0 H 50 Z"
       id="DejaVuSans-41-9"
       transform="scale(0.015625)" />
    <path
       d="m 544,1381 v 2119 h 575 V 1403 q 0,-497 193,-746 194,-248 582,-248 465,0 735,297 271,297 271,810 v 1984 h 575 V 0 H 2900 V 538 Q 2691,219 2414,64 2138,-91 1772,-91 1169,-91 856,284 544,659 544,1381 Z m 1447,2203 z"
       id="DejaVuSans-75-3"
       transform="scale(0.015625)" />
    <path
       d="m 1984,4856 q -418,-718 -622,-1422 -203,-703 -203,-1425 0,-721 205,-1429 205,-708 620,-1424 h -500 q -468,735 -701,1444 -233,709 -233,1409 0,697 231,1403 232,707 703,1444 z"
       id="DejaVuSans-28-6"
       transform="scale(0.015625)" />
    <path
       d="M 1831,0 50,4666 H 709 L 2188,738 3669,4666 h 656 L 2547,0 Z"
       id="DejaVuSans-56-9"
       transform="scale(0.015625)" />
    <path
       d="m 628,4666 h 631 V 0 H 628 Z"
       id="DejaVuSans-49-3"
       transform="scale(0.015625)" />
    <path
       d="M 2944,4013 V 2272 H 4684 V 1741 H 2944 V 0 H 2419 V 1741 H 678 v 531 h 1741 v 1741 z"
       id="DejaVuSans-2b-7"
       transform="scale(0.015625)" />
    <path
       d="m 628,4666 h 631 V 2694 l 2094,1972 h 813 L 1850,2491 4331,0 H 3500 L 1259,2247 V 0 H 628 Z"
       id="DejaVuSans-4b-2"
       transform="scale(0.015625)" />
    <path
       d="m 513,4856 h 500 q 468,-737 701,-1444 233,-706 233,-1403 0,-700 -233,-1409 -233,-709 -701,-1444 H 513 q 415,716 620,1424 205,708 205,1429 0,722 -205,1425 -205,704 -620,1422 z"
       id="DejaVuSans-29-2"
       transform="scale(0.015625)" />
  </defs>
  <g
     id="figure_1"
     transform="translate(159.67473,0.051412)">
    <g
       id="patch_1">
      <path
         d="M 0,216 H 252 V 0 H 0 Z"
         style="fill:#ffffff"
         id="path17724" />
    </g>
    <g
       id="axes_1">
      <g
         id="patch_2">
        <path
           d="M 31.5,189 H 226.8 V 25.92 H 31.5 Z"
           style="fill:#ffffff"
           id="path17727" />
      </g>
      <g
         id="matplotlib.axis_1">
        <g
           id="xtick_1">
          <g
             id="text_1">
            <!-- $10^3$ -->
            <g
               style="fill:#262626"
               transform="matrix(0.15,0,0,-0.15,50.85,207.39766)"
               id="g17741">
              <defs
                 id="defs17733">
                <path
                   d="M 794,531 H 1825 V 4091 L 703,3866 v 575 l 1116,225 h 631 V 531 H 3481 V 0 H 794 Z"
                   id="path18119"
                   transform="scale(0.015625)" />
                <path
                   d="m 2034,4250 q -487,0 -733,-480 -245,-479 -245,-1442 0,-959 245,-1439 246,-480 733,-480 491,0 736,480 246,480 246,1439 0,963 -246,1442 -245,480 -736,480 z m 0,500 q 785,0 1199,-621 414,-620 414,-1801 0,-1178 -414,-1799 -414,-620 -1199,-620 -784,0 -1198,620 -414,621 -414,1799 0,1181 414,1801 414,621 1198,621 z"
                   id="path18121"
                   transform="scale(0.015625)" />
                <path
                   d="m 2597,2516 q 453,-97 707,-404 255,-306 255,-756 0,-690 -475,-1069 -475,-378 -1350,-378 -293,0 -604,58 -311,58 -642,174 v 609 q 262,-153 574,-231 313,-78 654,-78 593,0 904,234 311,234 311,681 0,413 -289,645 -289,233 -804,233 h -544 v 519 h 569 q 465,0 712,186 247,186 247,536 0,359 -255,551 -254,193 -729,193 -260,0 -557,-57 -297,-56 -653,-174 v 562 q 360,100 674,150 314,50 592,50 719,0 1137,-327 419,-326 419,-882 0,-388 -222,-655 -222,-267 -631,-370 z"
                   id="path18123"
                   transform="scale(0.015625)" />
              </defs>
              <use
                 transform="translate(0,0.765625)"
                 xlink:href="#DejaVuSans-31"
                 id="use17735"
                 x="0"
                 y="0"
                 width="100%"
                 height="100%" />
              <use
                 transform="translate(63.623047,0.765625)"
                 xlink:href="#DejaVuSans-30"
                 id="use17737"
                 x="0"
                 y="0"
                 width="100%"
                 height="100%" />
              <use
                 transform="matrix(0.7,0,0,0.7,128.20312,39.046875)"
                 xlink:href="#DejaVuSans-33"
                 id="use17739"
                 x="0"
                 y="0"
                 width="100%"
                 height="100%" />
            </g>
          </g>
        </g>
        <g
           id="xtick_2">
          <g
             id="text_2">
            <!-- $10^4$ -->
            <g
               style="fill:#262626"
               transform="matrix(0.15,0,0,-0.15,115.95,207.39766)"
               id="g17754">
              <defs
                 id="defs17746">
                <path
                   d="M 2419,4116 825,1625 h 1594 z m -166,550 h 794 V 1625 h 666 V 1100 H 3047 V 0 H 2419 V 1100 H 313 v 609 z"
                   id="path18132"
                   transform="scale(0.015625)" />
              </defs>
              <use
                 transform="translate(0,0.684375)"
                 xlink:href="#DejaVuSans-31"
                 id="use17748"
                 x="0"
                 y="0"
                 width="100%"
                 height="100%" />
              <use
                 transform="translate(63.623047,0.684375)"
                 xlink:href="#DejaVuSans-30"
                 id="use17750"
                 x="0"
                 y="0"
                 width="100%"
                 height="100%" />
              <use
                 transform="matrix(0.7,0,0,0.7,128.20312,38.965625)"
                 xlink:href="#DejaVuSans-34"
                 id="use17752"
                 x="0"
                 y="0"
                 width="100%"
                 height="100%" />
            </g>
          </g>
        </g>
        <g
           id="xtick_3">
          <g
             id="text_3">
            <!-- $10^5$ -->
            <g
               style="fill:#262626"
               transform="matrix(0.15,0,0,-0.15,181.05,207.39766)"
               id="g17767">
              <defs
                 id="defs17759">
                <path
                   d="M 691,4666 H 3169 V 4134 H 1269 V 2991 q 137,47 274,70 138,23 276,23 781,0 1237,-428 457,-428 457,-1159 Q 3513,744 3044,326 2575,-91 1722,-91 1428,-91 1123,-41 819,9 494,109 v 635 q 281,-153 581,-228 300,-75 634,-75 541,0 856,284 316,284 316,772 0,487 -316,771 -315,285 -856,285 -253,0 -505,-56 -251,-56 -513,-175 z"
                   id="path18141"
                   transform="scale(0.015625)" />
              </defs>
              <use
                 transform="translate(0,0.684375)"
                 xlink:href="#DejaVuSans-31"
                 id="use17761"
                 x="0"
                 y="0"
                 width="100%"
                 height="100%" />
              <use
                 transform="translate(63.623047,0.684375)"
                 xlink:href="#DejaVuSans-30"
                 id="use17763"
                 x="0"
                 y="0"
                 width="100%"
                 height="100%" />
              <use
                 transform="matrix(0.7,0,0,0.7,128.20312,38.965625)"
                 xlink:href="#DejaVuSans-35"
                 id="use17765"
                 x="0"
                 y="0"
                 width="100%"
                 height="100%" />
            </g>
          </g>
        </g>
        <g
           id="text_4">
          <!-- Number of Simulations -->
          <g
             style="fill:#262626"
             transform="matrix(0.15,0,0,-0.15,43.168359,225.91484)"
             id="g17831">
            <defs
               id="defs17787">
              <path
                 d="m 628,4666 h 850 L 3547,763 v 3903 h 612 V 0 H 3309 L 1241,3903 V 0 H 628 Z"
                 id="path18150"
                 transform="scale(0.015625)" />
              <path
                 d="m 544,1381 v 2119 h 575 V 1403 q 0,-497 193,-746 194,-248 582,-248 465,0 735,297 271,297 271,810 v 1984 h 575 V 0 H 2900 V 538 Q 2691,219 2414,64 2138,-91 1772,-91 1169,-91 856,284 544,659 544,1381 Z m 1447,2203 z"
                 id="path18152"
                 transform="scale(0.015625)" />
              <path
                 d="m 3328,2828 q 216,388 516,572 300,184 706,184 547,0 844,-383 297,-382 297,-1088 V 0 h -578 v 2094 q 0,503 -179,746 -178,244 -543,244 -447,0 -707,-297 -259,-296 -259,-809 V 0 h -578 v 2094 q 0,506 -178,748 -178,242 -550,242 -441,0 -701,-298 -259,-298 -259,-808 V 0 H 581 v 3500 h 578 v -544 q 197,322 472,475 275,153 653,153 382,0 649,-194 267,-193 395,-562 z"
                 id="path18154"
                 transform="scale(0.015625)" />
              <path
                 d="m 3116,1747 q 0,634 -261,995 -261,361 -717,361 -457,0 -718,-361 -261,-361 -261,-995 0,-634 261,-995 261,-361 718,-361 456,0 717,361 261,361 261,995 z M 1159,2969 q 182,312 458,463 277,152 661,152 638,0 1036,-506 399,-506 399,-1331 Q 3713,922 3314,415 2916,-91 2278,-91 1894,-91 1617,61 1341,213 1159,525 V 0 H 581 v 4863 h 578 z"
                 id="path18156"
                 transform="scale(0.015625)" />
              <path
                 d="M 3597,1894 V 1613 H 953 q 38,-594 358,-905 320,-311 892,-311 331,0 642,81 311,81 618,244 V 178 Q 3153,47 2828,-22 2503,-91 2169,-91 1331,-91 842,396 353,884 353,1716 q 0,859 464,1363 464,505 1252,505 706,0 1117,-455 411,-454 411,-1235 z m -575,169 q -6,471 -264,752 -258,282 -683,282 -481,0 -770,-272 -289,-272 -333,-766 z"
                 id="path18158"
                 transform="scale(0.015625)" />
              <path
                 d="m 2631,2963 q -97,56 -211,82 -114,27 -251,27 -488,0 -749,-317 -261,-317 -261,-911 V 0 H 581 v 3500 h 578 v -544 q 182,319 472,473 291,155 707,155 59,0 131,-8 72,-7 159,-23 z"
                 id="path18160"
                 transform="scale(0.015625)" />
              <path
                 id="path18162"
                 transform="scale(0.015625)"
                 d="" />
              <path
                 d="m 1959,3097 q -462,0 -731,-361 -269,-361 -269,-989 0,-628 267,-989 268,-361 733,-361 460,0 728,362 269,363 269,988 0,622 -269,986 -268,364 -728,364 z m 0,487 q 750,0 1178,-488 429,-487 429,-1349 Q 3566,888 3137,398 2709,-91 1959,-91 1206,-91 779,398 353,888 353,1747 q 0,862 426,1349 427,488 1180,488 z"
                 id="path18164"
                 transform="scale(0.015625)" />
              <path
                 d="m 2375,4863 v -479 h -550 q -309,0 -430,-125 -120,-125 -120,-450 v -309 h 947 V 3053 H 1275 V 0 H 697 V 3053 H 147 v 447 h 550 v 244 q 0,584 272,851 272,268 862,268 z"
                 id="path18166"
                 transform="scale(0.015625)" />
              <path
                 d="m 3425,4513 v -616 q -359,172 -678,256 -319,85 -616,85 -515,0 -795,-200 -280,-200 -280,-569 0,-310 186,-468 186,-157 705,-254 l 381,-78 q 706,-135 1042,-474 336,-339 336,-907 0,-679 -455,-1029 -454,-350 -1332,-350 -331,0 -705,75 -373,75 -773,222 v 650 q 384,-215 753,-325 369,-109 725,-109 540,0 834,212 294,213 294,607 0,343 -211,537 -211,194 -692,291 l -385,75 q -706,140 -1022,440 -315,300 -315,835 0,619 436,975 436,356 1201,356 329,0 669,-60 341,-59 697,-177 z"
                 id="path18168"
                 transform="scale(0.015625)" />
              <path
                 d="m 603,3500 h 575 V 0 H 603 Z m 0,1363 h 575 V 4134 H 603 Z"
                 id="path18170"
                 transform="scale(0.015625)" />
              <path
                 d="m 603,4863 h 575 V 0 H 603 Z"
                 id="path18172"
                 transform="scale(0.015625)" />
              <path
                 d="m 2194,1759 q -697,0 -966,-159 -269,-159 -269,-544 0,-306 202,-486 202,-179 548,-179 479,0 768,339 289,339 289,901 v 128 z m 1147,238 V 0 H 2766 V 531 Q 2569,213 2275,61 1981,-91 1556,-91 q -537,0 -855,302 -317,302 -317,808 0,590 395,890 396,300 1180,300 h 807 v 57 q 0,397 -261,614 -261,217 -733,217 -300,0 -585,-72 -284,-72 -546,-216 v 532 q 315,122 612,182 297,61 578,61 760,0 1135,-394 375,-393 375,-1193 z"
                 id="path18174"
                 transform="scale(0.015625)" />
              <path
                 d="M 1172,4494 V 3500 H 2356 V 3053 H 1172 V 1153 q 0,-428 117,-550 117,-122 477,-122 h 590 V 0 H 1766 Q 1100,0 847,248 594,497 594,1153 V 3053 H 172 v 447 h 422 v 994 z"
                 id="path18176"
                 transform="scale(0.015625)" />
              <path
                 d="M 3513,2113 V 0 h -575 v 2094 q 0,497 -194,743 -194,247 -581,247 -466,0 -735,-297 -269,-296 -269,-809 V 0 H 581 v 3500 h 578 v -544 q 207,316 486,472 280,156 646,156 603,0 912,-373 310,-373 310,-1098 z"
                 id="path18178"
                 transform="scale(0.015625)" />
              <path
                 d="m 2834,3397 v -544 q -243,125 -506,187 -262,63 -544,63 -428,0 -642,-131 -214,-131 -214,-394 0,-200 153,-314 153,-114 616,-217 l 197,-44 q 612,-131 870,-370 258,-239 258,-667 0,-488 -386,-773 Q 2250,-91 1575,-91 1294,-91 989,-36 684,19 347,128 v 594 q 319,-166 628,-249 309,-82 613,-82 406,0 624,139 219,139 219,392 0,234 -158,359 -157,125 -692,241 l -200,47 q -534,112 -772,345 -237,233 -237,639 0,494 350,762 350,269 994,269 318,0 599,-47 282,-46 519,-140 z"
                 id="path18180"
                 transform="scale(0.015625)" />
            </defs>
            <use
               xlink:href="#DejaVuSans-4e"
               id="use17789"
               x="0"
               y="0"
               width="100%"
               height="100%" />
            <use
               x="74.804688"
               xlink:href="#DejaVuSans-75"
               id="use17791"
               y="0"
               width="100%"
               height="100%" />
            <use
               x="138.18359"
               xlink:href="#DejaVuSans-6d"
               id="use17793"
               y="0"
               width="100%"
               height="100%" />
            <use
               x="235.5957"
               xlink:href="#DejaVuSans-62"
               id="use17795"
               y="0"
               width="100%"
               height="100%" />
            <use
               x="299.07227"
               xlink:href="#DejaVuSans-65"
               id="use17797"
               y="0"
               width="100%"
               height="100%" />
            <use
               x="360.5957"
               xlink:href="#DejaVuSans-72"
               id="use17799"
               y="0"
               width="100%"
               height="100%" />
            <use
               x="401.70898"
               xlink:href="#DejaVuSans-20"
               id="use17801"
               y="0"
               width="100%"
               height="100%" />
            <use
               x="433.49609"
               xlink:href="#DejaVuSans-6f"
               id="use17803"
               y="0"
               width="100%"
               height="100%" />
            <use
               x="494.67773"
               xlink:href="#DejaVuSans-66"
               id="use17805"
               y="0"
               width="100%"
               height="100%" />
            <use
               x="529.88281"
               xlink:href="#DejaVuSans-20"
               id="use17807"
               y="0"
               width="100%"
               height="100%" />
            <use
               x="561.66992"
               xlink:href="#DejaVuSans-53"
               id="use17809"
               y="0"
               width="100%"
               height="100%" />
            <use
               x="625.14648"
               xlink:href="#DejaVuSans-69"
               id="use17811"
               y="0"
               width="100%"
               height="100%" />
            <use
               x="652.92969"
               xlink:href="#DejaVuSans-6d"
               id="use17813"
               y="0"
               width="100%"
               height="100%" />
            <use
               x="750.3418"
               xlink:href="#DejaVuSans-75"
               id="use17815"
               y="0"
               width="100%"
               height="100%" />
            <use
               x="813.7207"
               xlink:href="#DejaVuSans-6c"
               id="use17817"
               y="0"
               width="100%"
               height="100%" />
            <use
               x="841.50391"
               xlink:href="#DejaVuSans-61"
               id="use17819"
               y="0"
               width="100%"
               height="100%" />
            <use
               x="902.7832"
               xlink:href="#DejaVuSans-74"
               id="use17821"
               y="0"
               width="100%"
               height="100%" />
            <use
               x="941.99219"
               xlink:href="#DejaVuSans-69"
               id="use17823"
               y="0"
               width="100%"
               height="100%" />
            <use
               x="969.77539"
               xlink:href="#DejaVuSans-6f"
               id="use17825"
               y="0"
               width="100%"
               height="100%" />
            <use
               x="1030.957"
               xlink:href="#DejaVuSans-6e"
               id="use17827"
               y="0"
               width="100%"
               height="100%" />
            <use
               x="1094.3359"
               xlink:href="#DejaVuSans-73"
               id="use17829"
               y="0"
               width="100%"
               height="100%" />
          </g>
        </g>
      </g>
      <g
         id="matplotlib.axis_2">
        <g
           id="ytick_1">
          <g
             id="line2d_1">
            <path
               clip-path="url(#pf3a60d4e1e)"
               d="M 31.5,189 H 226.8"
               style="fill:none;stroke:#cccccc;stroke-width:0.8;stroke-linecap:round"
               id="path17835" />
          </g>
          <g
             id="text_5">
            <!-- 0.5 -->
            <g
               style="fill:#262626"
               transform="matrix(0.15,0,0,-0.15,0.645312,194.69883)"
               id="g17847">
              <defs
                 id="defs17839">
                <path
                   d="m 684,794 h 660 V 0 H 684 Z"
                   id="path18209"
                   transform="scale(0.015625)" />
              </defs>
              <use
                 xlink:href="#DejaVuSans-30"
                 id="use17841"
                 x="0"
                 y="0"
                 width="100%"
                 height="100%" />
              <use
                 x="63.623047"
                 xlink:href="#DejaVuSans-2e"
                 id="use17843"
                 y="0"
                 width="100%"
                 height="100%" />
              <use
                 x="95.410156"
                 xlink:href="#DejaVuSans-35"
                 id="use17845"
                 y="0"
                 width="100%"
                 height="100%" />
            </g>
          </g>
        </g>
        <g
           id="ytick_2">
          <g
             id="line2d_2">
            <path
               clip-path="url(#pf3a60d4e1e)"
               d="M 31.5,156.384 H 226.8"
               style="fill:none;stroke:#cccccc;stroke-width:0.8;stroke-linecap:round"
               id="path17851" />
          </g>
          <g
             id="text_6">
            <!-- 0.6 -->
            <g
               style="fill:#262626"
               transform="matrix(0.15,0,0,-0.15,0.645312,162.08283)"
               id="g17863">
              <defs
                 id="defs17855">
                <path
                   d="m 2113,2584 q -425,0 -674,-291 -248,-290 -248,-796 0,-503 248,-796 249,-292 674,-292 425,0 673,292 248,293 248,796 0,506 -248,796 -248,291 -673,291 z m 1253,1979 v -575 q -238,112 -480,171 -242,60 -480,60 -625,0 -955,-422 -329,-422 -376,-1275 184,272 462,417 279,145 613,145 703,0 1111,-427 408,-426 408,-1160 0,-719 -425,-1154 -425,-434 -1131,-434 -810,0 -1238,620 -428,621 -428,1799 0,1106 525,1764 525,658 1409,658 238,0 480,-47 242,-47 505,-140 z"
                   id="path18220"
                   transform="scale(0.015625)" />
              </defs>
              <use
                 xlink:href="#DejaVuSans-30"
                 id="use17857"
                 x="0"
                 y="0"
                 width="100%"
                 height="100%" />
              <use
                 x="63.623047"
                 xlink:href="#DejaVuSans-2e"
                 id="use17859"
                 y="0"
                 width="100%"
                 height="100%" />
              <use
                 x="95.410156"
                 xlink:href="#DejaVuSans-36"
                 id="use17861"
                 y="0"
                 width="100%"
                 height="100%" />
            </g>
          </g>
        </g>
        <g
           id="ytick_3">
          <g
             id="line2d_3">
            <path
               clip-path="url(#pf3a60d4e1e)"
               d="M 31.5,123.768 H 226.8"
               style="fill:none;stroke:#cccccc;stroke-width:0.8;stroke-linecap:round"
               id="path17867" />
          </g>
          <g
             id="text_7">
            <!-- 0.7 -->
            <g
               style="fill:#262626"
               transform="matrix(0.15,0,0,-0.15,0.645312,129.46683)"
               id="g17879">
              <defs
                 id="defs17871">
                <path
                   d="M 525,4666 H 3525 V 4397 L 1831,0 H 1172 L 2766,4134 H 525 Z"
                   id="path18231"
                   transform="scale(0.015625)" />
              </defs>
              <use
                 xlink:href="#DejaVuSans-30"
                 id="use17873"
                 x="0"
                 y="0"
                 width="100%"
                 height="100%" />
              <use
                 x="63.623047"
                 xlink:href="#DejaVuSans-2e"
                 id="use17875"
                 y="0"
                 width="100%"
                 height="100%" />
              <use
                 x="95.410156"
                 xlink:href="#DejaVuSans-37"
                 id="use17877"
                 y="0"
                 width="100%"
                 height="100%" />
            </g>
          </g>
        </g>
        <g
           id="ytick_4">
          <g
             id="line2d_4">
            <path
               clip-path="url(#pf3a60d4e1e)"
               d="M 31.5,91.152 H 226.8"
               style="fill:none;stroke:#cccccc;stroke-width:0.8;stroke-linecap:round"
               id="path17883" />
          </g>
          <g
             id="text_8">
            <!-- 0.8 -->
            <g
               style="fill:#262626"
               transform="matrix(0.15,0,0,-0.15,0.645312,96.850828)"
               id="g17895">
              <defs
                 id="defs17887">
                <path
                   d="m 2034,2216 q -450,0 -708,-241 -257,-241 -257,-662 0,-422 257,-663 258,-241 708,-241 450,0 709,242 260,243 260,662 0,421 -258,662 -257,241 -711,241 z m -631,268 q -406,100 -633,378 -226,279 -226,679 0,559 398,884 399,325 1092,325 697,0 1094,-325 397,-325 397,-884 0,-400 -227,-679 -226,-278 -629,-378 456,-106 710,-416 255,-309 255,-755 Q 3634,634 3220,271 2806,-91 2034,-91 1263,-91 848,271 434,634 434,1313 q 0,446 256,755 257,310 713,416 z m -231,997 q 0,-362 226,-565 227,-203 636,-203 407,0 636,203 230,203 230,565 0,363 -230,566 -229,203 -636,203 -409,0 -636,-203 -226,-203 -226,-566 z"
                   id="path18242"
                   transform="scale(0.015625)" />
              </defs>
              <use
                 xlink:href="#DejaVuSans-30"
                 id="use17889"
                 x="0"
                 y="0"
                 width="100%"
                 height="100%" />
              <use
                 x="63.623047"
                 xlink:href="#DejaVuSans-2e"
                 id="use17891"
                 y="0"
                 width="100%"
                 height="100%" />
              <use
                 x="95.410156"
                 xlink:href="#DejaVuSans-38"
                 id="use17893"
                 y="0"
                 width="100%"
                 height="100%" />
            </g>
          </g>
        </g>
        <g
           id="ytick_5">
          <g
             id="line2d_5">
            <path
               clip-path="url(#pf3a60d4e1e)"
               d="M 31.5,58.536 H 226.8"
               style="fill:none;stroke:#cccccc;stroke-width:0.8;stroke-linecap:round"
               id="path17899" />
          </g>
          <g
             id="text_9">
            <!-- 0.9 -->
            <g
               style="fill:#262626"
               transform="matrix(0.15,0,0,-0.15,0.645312,64.234828)"
               id="g17911">
              <defs
                 id="defs17903">
                <path
                   d="m 703,97 v 575 q 238,-113 481,-172 244,-59 479,-59 625,0 954,420 330,420 377,1277 -181,-269 -460,-413 -278,-144 -615,-144 -700,0 -1108,423 -408,424 -408,1159 0,718 425,1152 425,435 1131,435 810,0 1236,-621 427,-620 427,-1801 Q 3622,1225 3098,567 2575,-91 1691,-91 1453,-91 1209,-44 966,3 703,97 Z m 1256,1978 q 425,0 673,290 249,291 249,798 0,503 -249,795 -248,292 -673,292 -425,0 -673,-292 -248,-292 -248,-795 0,-507 248,-798 248,-290 673,-290 z"
                   id="path18253"
                   transform="scale(0.015625)" />
              </defs>
              <use
                 xlink:href="#DejaVuSans-30"
                 id="use17905"
                 x="0"
                 y="0"
                 width="100%"
                 height="100%" />
              <use
                 x="63.623047"
                 xlink:href="#DejaVuSans-2e"
                 id="use17907"
                 y="0"
                 width="100%"
                 height="100%" />
              <use
                 x="95.410156"
                 xlink:href="#DejaVuSans-39"
                 id="use17909"
                 y="0"
                 width="100%"
                 height="100%" />
            </g>
          </g>
        </g>
        <g
           id="ytick_6">
          <g
             id="line2d_6">
            <path
               clip-path="url(#pf3a60d4e1e)"
               d="M 31.5,25.92 H 226.8"
               style="fill:none;stroke:#cccccc;stroke-width:0.8;stroke-linecap:round"
               id="path17915" />
          </g>
          <g
             id="text_10">
            <!-- 1.0 -->
            <g
               style="fill:#262626"
               transform="matrix(0.15,0,0,-0.15,0.645312,31.618828)"
               id="g17924">
              <use
                 xlink:href="#DejaVuSans-31"
                 id="use17918"
                 x="0"
                 y="0"
                 width="100%"
                 height="100%" />
              <use
                 x="63.623047"
                 xlink:href="#DejaVuSans-2e"
                 id="use17920"
                 y="0"
                 width="100%"
                 height="100%" />
              <use
                 x="95.410156"
                 xlink:href="#DejaVuSans-30"
                 id="use17922"
                 y="0"
                 width="100%"
                 height="100%" />
            </g>
          </g>
        </g>
        <g
           id="text_11">
          <!-- C2ST -->
          <g
             style="fill:#262626"
             transform="matrix(0,-0.15,-0.15,0,-6.474219,126.81117)"
             id="g17941">
            <defs
               id="defs17931">
              <path
                 d="m 4122,4306 v -665 q -319,297 -680,443 -361,147 -767,147 -800,0 -1225,-489 -425,-489 -425,-1414 0,-922 425,-1411 425,-489 1225,-489 406,0 767,147 361,147 680,444 V 359 Q 3791,134 3420,21 3050,-91 2638,-91 1578,-91 968,557 359,1206 359,2328 q 0,1125 609,1773 610,649 1670,649 418,0 788,-111 371,-111 696,-333 z"
                 id="path18270"
                 transform="scale(0.015625)" />
              <path
                 d="M 1228,531 H 3431 V 0 H 469 v 531 q 359,372 979,998 621,627 780,809 303,340 423,576 121,236 121,464 0,372 -261,606 -261,235 -680,235 -297,0 -627,-103 -329,-103 -704,-313 v 638 q 381,153 712,231 332,78 607,78 725,0 1156,-363 431,-362 431,-968 0,-288 -108,-546 -107,-257 -392,-607 -78,-91 -497,-524 Q 1991,1309 1228,531 Z"
                 id="path18272"
                 transform="scale(0.015625)" />
              <path
                 d="M -19,4666 H 3928 V 4134 H 2272 V 0 H 1638 V 4134 H -19 Z"
                 id="path18274"
                 transform="scale(0.015625)" />
            </defs>
            <use
               xlink:href="#DejaVuSans-43"
               id="use17933"
               x="0"
               y="0"
               width="100%"
               height="100%" />
            <use
               x="69.824219"
               xlink:href="#DejaVuSans-32"
               id="use17935"
               y="0"
               width="100%"
               height="100%" />
            <use
               x="133.44727"
               xlink:href="#DejaVuSans-53"
               id="use17937"
               y="0"
               width="100%"
               height="100%" />
            <use
               x="196.92383"
               xlink:href="#DejaVuSans-54"
               id="use17939"
               y="0"
               width="100%"
               height="100%" />
          </g>
        </g>
      </g>
      <g
         id="PathCollection_1">
        <defs
           id="defs17946">
          <path
             d="m 0,1.691974 c 0.448717,0 0.879116,-0.178277 1.196406,-0.495568 C 1.513697,0.879116 1.691974,0.448717 1.691974,0 c 0,-0.448717 -0.178277,-0.879116 -0.495568,-1.196406 C 0.879116,-1.513697 0.448717,-1.691974 0,-1.691974 c -0.448717,0 -0.879116,0.178277 -1.196406,0.495568 -0.317291,0.31729 -0.495568,0.747689 -0.495568,1.196406 0,0.448717 0.178277,0.879116 0.495568,1.196406 C -0.879116,1.513697 -0.448717,1.691974 0,1.691974 Z"
             id="path18284" />
        </defs>
        <g
           clip-path="url(#pf3a60d4e1e)"
           id="g17950">
          <use
             style="fill:#0000ff;stroke:#0000ff;stroke-width:2.025"
             x="64.050003"
             xlink:href="#C0_0_bf0890a713"
             y="98.45472"
             id="use17948"
             width="100%"
             height="100%" />
        </g>
        <g
           clip-path="url(#pf3a60d4e1e)"
           id="g17954">
          <use
             style="fill:#0000ff;stroke:#0000ff;stroke-width:2.025"
             x="129.14999"
             xlink:href="#C0_0_bf0890a713"
             y="108.11884"
             id="use17952"
             width="100%"
             height="100%" />
        </g>
        <g
           clip-path="url(#pf3a60d4e1e)"
           id="g17958">
          <use
             style="fill:#0000ff;stroke:#0000ff;stroke-width:2.025"
             x="194.25"
             xlink:href="#C0_0_bf0890a713"
             y="107.36541"
             id="use17956"
             width="100%"
             height="100%" />
        </g>
      </g>
      <g
         id="PathCollection_2">
        <defs
           id="defs17962">
          <path
             d="m 0,1.691974 c 0.448717,0 0.879116,-0.178277 1.196406,-0.495568 C 1.513697,0.879116 1.691974,0.448717 1.691974,0 c 0,-0.448717 -0.178277,-0.879116 -0.495568,-1.196406 C 0.879116,-1.513697 0.448717,-1.691974 0,-1.691974 c -0.448717,0 -0.879116,0.178277 -1.196406,0.495568 -0.317291,0.31729 -0.495568,0.747689 -0.495568,1.196406 0,0.448717 0.178277,0.879116 0.495568,1.196406 C -0.879116,1.513697 -0.448717,1.691974 0,1.691974 Z"
             id="path18294" />
        </defs>
        <g
           clip-path="url(#pf3a60d4e1e)"
           id="g17966">
          <use
             style="fill:#377eb8;stroke:#377eb8;stroke-width:2.025"
             x="64.050003"
             xlink:href="#C1_0_dd429813f9"
             y="118.35538"
             id="use17964"
             width="100%"
             height="100%" />
        </g>
        <g
           clip-path="url(#pf3a60d4e1e)"
           id="g17970">
          <use
             style="fill:#377eb8;stroke:#377eb8;stroke-width:2.025"
             x="129.14999"
             xlink:href="#C1_0_dd429813f9"
             y="118.68317"
             id="use17968"
             width="100%"
             height="100%" />
        </g>
        <g
           clip-path="url(#pf3a60d4e1e)"
           id="g17974">
          <use
             style="fill:#377eb8;stroke:#377eb8;stroke-width:2.025"
             x="194.25"
             xlink:href="#C1_0_dd429813f9"
             y="112.39969"
             id="use17972"
             width="100%"
             height="100%" />
        </g>
      </g>
      <g
         id="line2d_7">
        <path
           clip-path="url(#pf3a60d4e1e)"
           d="m 64.05,98.454723 65.1,9.664117 65.1,-0.75343"
           style="fill:none;stroke:#0000ff;stroke-width:2.7;stroke-linecap:round"
           id="path17977" />
      </g>
      <g
         id="line2d_8">
        <path
           clip-path="url(#pf3a60d4e1e)"
           d="M 64.05,104.17724 V 91.704434"
           style="fill:none;stroke:#0000ff;stroke-linecap:round"
           id="path17980" />
      </g>
      <g
         id="line2d_9">
        <path
           clip-path="url(#pf3a60d4e1e)"
           d="m 60.795,104.17724 h 6.51"
           style="fill:none;stroke:#0000ff;stroke-linecap:round"
           id="path17983" />
      </g>
      <g
         id="line2d_10">
        <path
           clip-path="url(#pf3a60d4e1e)"
           d="m 60.795,91.704434 h 6.51"
           style="fill:none;stroke:#0000ff;stroke-linecap:round"
           id="path17986" />
      </g>
      <g
         id="line2d_11">
        <path
           clip-path="url(#pf3a60d4e1e)"
           d="M 129.15,117.78773 V 100.79309"
           style="fill:none;stroke:#0000ff;stroke-linecap:round"
           id="path17989" />
      </g>
      <g
         id="line2d_12">
        <path
           clip-path="url(#pf3a60d4e1e)"
           d="m 125.895,117.78773 h 6.51"
           style="fill:none;stroke:#0000ff;stroke-linecap:round"
           id="path17992" />
      </g>
      <g
         id="line2d_13">
        <path
           clip-path="url(#pf3a60d4e1e)"
           d="m 125.895,100.79309 h 6.51"
           style="fill:none;stroke:#0000ff;stroke-linecap:round"
           id="path17995" />
      </g>
      <g
         id="line2d_14">
        <path
           clip-path="url(#pf3a60d4e1e)"
           d="m 194.25,107.86623 v -1.03254"
           style="fill:none;stroke:#0000ff;stroke-linecap:round"
           id="path17998" />
      </g>
      <g
         id="line2d_15">
        <path
           clip-path="url(#pf3a60d4e1e)"
           d="m 190.995,107.86623 h 6.51"
           style="fill:none;stroke:#0000ff;stroke-linecap:round"
           id="path18001" />
      </g>
      <g
         id="line2d_16">
        <path
           clip-path="url(#pf3a60d4e1e)"
           d="m 190.995,106.83369 h 6.51"
           style="fill:none;stroke:#0000ff;stroke-linecap:round"
           id="path18004" />
      </g>
      <g
         id="line2d_17">
        <path
           clip-path="url(#pf3a60d4e1e)"
           d="m 64.05,118.35537 65.1,0.3278 65.1,-6.28348"
           style="fill:none;stroke:#377eb8;stroke-width:2.7;stroke-linecap:round"
           id="path18007" />
      </g>
      <g
         id="line2d_18">
        <path
           clip-path="url(#pf3a60d4e1e)"
           d="M 64.05,128.63165 V 109.23223"
           style="fill:none;stroke:#377eb8;stroke-linecap:round"
           id="path18010" />
      </g>
      <g
         id="line2d_19">
        <path
           clip-path="url(#pf3a60d4e1e)"
           d="m 60.795,128.63165 h 6.51"
           style="fill:none;stroke:#377eb8;stroke-linecap:round"
           id="path18013" />
      </g>
      <g
         id="line2d_20">
        <path
           clip-path="url(#pf3a60d4e1e)"
           d="m 60.795,109.23223 h 6.51"
           style="fill:none;stroke:#377eb8;stroke-linecap:round"
           id="path18016" />
      </g>
      <g
         id="line2d_21">
        <path
           clip-path="url(#pf3a60d4e1e)"
           d="M 129.15,129.06353 V 107.42396"
           style="fill:none;stroke:#377eb8;stroke-linecap:round"
           id="path18019" />
      </g>
      <g
         id="line2d_22">
        <path
           clip-path="url(#pf3a60d4e1e)"
           d="m 125.895,129.06353 h 6.51"
           style="fill:none;stroke:#377eb8;stroke-linecap:round"
           id="path18022" />
      </g>
      <g
         id="line2d_23">
        <path
           clip-path="url(#pf3a60d4e1e)"
           d="m 125.895,107.42396 h 6.51"
           style="fill:none;stroke:#377eb8;stroke-linecap:round"
           id="path18025" />
      </g>
      <g
         id="line2d_24">
        <path
           clip-path="url(#pf3a60d4e1e)"
           d="M 194.25,122.99843 V 106.82884"
           style="fill:none;stroke:#377eb8;stroke-linecap:round"
           id="path18028" />
      </g>
      <g
         id="line2d_25">
        <path
           clip-path="url(#pf3a60d4e1e)"
           d="m 190.995,122.99843 h 6.51"
           style="fill:none;stroke:#377eb8;stroke-linecap:round"
           id="path18031" />
      </g>
      <g
         id="line2d_26">
        <path
           clip-path="url(#pf3a60d4e1e)"
           d="m 190.995,106.82884 h 6.51"
           style="fill:none;stroke:#377eb8;stroke-linecap:round"
           id="path18034" />
      </g>
      <g
         id="patch_3">
        <path
           d="M 31.5,189 V 25.92"
           style="fill:none;stroke:#cccccc;stroke-width:0.8;stroke-linecap:square;stroke-linejoin:miter"
           id="path18037" />
      </g>
      <g
         id="patch_4">
        <path
           d="M 226.8,189 V 25.92"
           style="fill:none;stroke:#cccccc;stroke-width:0.8;stroke-linecap:square;stroke-linejoin:miter"
           id="path18040" />
      </g>
      <g
         id="patch_5">
        <path
           d="M 31.5,189 H 226.8"
           style="fill:none;stroke:#cccccc;stroke-width:0.8;stroke-linecap:square;stroke-linejoin:miter"
           id="path18043" />
      </g>
      <g
         id="patch_6">
        <path
           d="M 31.5,25.92 H 226.8"
           style="fill:none;stroke:#cccccc;stroke-width:0.8;stroke-linecap:square;stroke-linejoin:miter"
           id="path18046" />
      </g>
      <g
         id="text_12">
        <!-- SNPLA -->
        <g
           style="fill:#262626"
           transform="matrix(0.15,0,0,-0.15,104.77734,19.92)"
           id="g18064">
          <defs
             id="defs18052">
            <path
               d="M 1259,4147 V 2394 h 794 q 441,0 681,228 241,228 241,650 0,419 -241,647 -240,228 -681,228 z m -631,519 h 1425 q 785,0 1186,-355 402,-355 402,-1039 0,-691 -402,-1044 -401,-353 -1186,-353 H 1259 V 0 H 628 Z"
               id="path18352"
               transform="scale(0.015625)" />
            <path
               d="m 628,4666 h 631 V 531 H 3531 V 0 H 628 Z"
               id="path18354"
               transform="scale(0.015625)" />
            <path
               d="M 2188,4044 1331,1722 h 1716 z m -357,622 h 716 L 4325,0 H 3669 L 3244,1197 H 1141 L 716,0 H 50 Z"
               id="path18356"
               transform="scale(0.015625)" />
          </defs>
          <use
             xlink:href="#DejaVuSans-53"
             id="use18054"
             x="0"
             y="0"
             width="100%"
             height="100%" />
          <use
             x="63.476562"
             xlink:href="#DejaVuSans-4e"
             id="use18056"
             y="0"
             width="100%"
             height="100%" />
          <use
             x="138.28125"
             xlink:href="#DejaVuSans-50"
             id="use18058"
             y="0"
             width="100%"
             height="100%" />
          <use
             x="198.58398"
             xlink:href="#DejaVuSans-4c"
             id="use18060"
             y="0"
             width="100%"
             height="100%" />
          <use
             x="256.54688"
             xlink:href="#DejaVuSans-41"
             id="use18062"
             y="0"
             width="100%"
             height="100%" />
        </g>
      </g>
    </g>
  </g>
  <g
     id="figure_1-9"
     transform="translate(191.17473,-128.56459)">
    <g
       id="patch_1-1">
      <path
         d="M 0,288 H 432 V 0 H 0 Z"
         style="fill:none"
         id="path19742" />
    </g>
    <g
       id="axes_1-1">
      <g
         id="legend_1">
        <g
           id="line2d_1-8">
          <path
             d="m 209.29266,216.37378 h 30"
             style="fill:none;stroke:#0000ff;stroke-width:1.5;stroke-linecap:round"
             id="path19745" />
        </g>
        <g
           id="line2d_2-1" />
        <g
           id="text_1-6">
          <!--  Original  -->
          <g
             style="fill:#262626"
             transform="matrix(0.15,0,0,-0.15,251.29266,211.66566)"
             id="g19779">
            <defs
               id="defs19757">
              <path
                 id="path19900"
                 transform="scale(0.015625)"
                 d="" />
              <path
                 d="m 2522,4238 q -688,0 -1093,-513 -404,-512 -404,-1397 0,-881 404,-1394 405,-512 1093,-512 687,0 1089,512 402,513 402,1394 0,885 -402,1397 -402,513 -1089,513 z m 0,512 q 981,0 1568,-658 588,-658 588,-1764 0,-1103 -588,-1761 -587,-658 -1568,-658 -984,0 -1574,656 -589,657 -589,1763 0,1106 589,1764 590,658 1574,658 z"
                 id="path19902"
                 transform="scale(0.015625)" />
              <path
                 d="m 2631,2963 q -97,56 -211,82 -114,27 -251,27 -488,0 -749,-317 -261,-317 -261,-911 V 0 H 581 v 3500 h 578 v -544 q 182,319 472,473 291,155 707,155 59,0 131,-8 72,-7 159,-23 z"
                 id="path19904"
                 transform="scale(0.015625)" />
              <path
                 d="m 603,3500 h 575 V 0 H 603 Z m 0,1363 h 575 V 4134 H 603 Z"
                 id="path19906"
                 transform="scale(0.015625)" />
              <path
                 d="m 2906,1791 q 0,625 -258,968 -257,344 -723,344 -462,0 -720,-344 -258,-343 -258,-968 0,-622 258,-966 258,-344 720,-344 466,0 723,344 258,344 258,966 z M 3481,434 q 0,-893 -397,-1329 -396,-436 -1215,-436 -303,0 -572,45 -269,45 -522,139 v 559 q 253,-137 500,-202 247,-66 503,-66 566,0 847,295 281,295 281,892 V 616 Q 2728,306 2450,153 2172,0 1784,0 1141,0 747,490 353,981 353,1791 q 0,812 394,1302 394,491 1037,491 388,0 666,-153 278,-153 456,-462 v 531 h 575 z"
                 id="path19908"
                 transform="scale(0.015625)" />
              <path
                 d="M 3513,2113 V 0 h -575 v 2094 q 0,497 -194,743 -194,247 -581,247 -466,0 -735,-297 -269,-296 -269,-809 V 0 H 581 v 3500 h 578 v -544 q 207,316 486,472 280,156 646,156 603,0 912,-373 310,-373 310,-1098 z"
                 id="path19910"
                 transform="scale(0.015625)" />
              <path
                 d="m 2194,1759 q -697,0 -966,-159 -269,-159 -269,-544 0,-306 202,-486 202,-179 548,-179 479,0 768,339 289,339 289,901 v 128 z m 1147,238 V 0 H 2766 V 531 Q 2569,213 2275,61 1981,-91 1556,-91 q -537,0 -855,302 -317,302 -317,808 0,590 395,890 396,300 1180,300 h 807 v 57 q 0,397 -261,614 -261,217 -733,217 -300,0 -585,-72 -284,-72 -546,-216 v 532 q 315,122 612,182 297,61 578,61 760,0 1135,-394 375,-393 375,-1193 z"
                 id="path19912"
                 transform="scale(0.015625)" />
              <path
                 d="m 603,4863 h 575 V 0 H 603 Z"
                 id="path19914"
                 transform="scale(0.015625)" />
            </defs>
            <use
               xlink:href="#DejaVuSans-20-852"
               id="use19759"
               x="0"
               y="0"
               width="100%"
               height="100%" />
            <use
               x="31.787109"
               xlink:href="#DejaVuSans-4f-1"
               id="use19761"
               y="0"
               width="100%"
               height="100%" />
            <use
               x="110.49805"
               xlink:href="#DejaVuSans-72-8"
               id="use19763"
               y="0"
               width="100%"
               height="100%" />
            <use
               x="151.61133"
               xlink:href="#DejaVuSans-69-0"
               id="use19765"
               y="0"
               width="100%"
               height="100%" />
            <use
               x="179.39453"
               xlink:href="#DejaVuSans-67-4"
               id="use19767"
               y="0"
               width="100%"
               height="100%" />
            <use
               x="242.87109"
               xlink:href="#DejaVuSans-69-0"
               id="use19769"
               y="0"
               width="100%"
               height="100%" />
            <use
               x="270.6543"
               xlink:href="#DejaVuSans-6e-37"
               id="use19771"
               y="0"
               width="100%"
               height="100%" />
            <use
               x="334.0332"
               xlink:href="#DejaVuSans-61-4"
               id="use19773"
               y="0"
               width="100%"
               height="100%" />
            <use
               x="395.3125"
               xlink:href="#DejaVuSans-6c-1"
               id="use19775"
               y="0"
               width="100%"
               height="100%" />
            <use
               x="423.0957"
               xlink:href="#DejaVuSans-20-852"
               id="use19777"
               y="0"
               width="100%"
               height="100%" />
          </g>
          <!--  SNPLA -->
          <g
             style="fill:#262626"
             transform="matrix(0.15,0,0,-0.15,251.29266,228.46237)"
             id="g19800">
            <defs
               id="defs19786">
              <path
                 d="m 3425,4513 v -616 q -359,172 -678,256 -319,85 -616,85 -515,0 -795,-200 -280,-200 -280,-569 0,-310 186,-468 186,-157 705,-254 l 381,-78 q 706,-135 1042,-474 336,-339 336,-907 0,-679 -455,-1029 -454,-350 -1332,-350 -331,0 -705,75 -373,75 -773,222 v 650 q 384,-215 753,-325 369,-109 725,-109 540,0 834,212 294,213 294,607 0,343 -211,537 -211,194 -692,291 l -385,75 q -706,140 -1022,440 -315,300 -315,835 0,619 436,975 436,356 1201,356 329,0 669,-60 341,-59 697,-177 z"
                 id="path19928"
                 transform="scale(0.015625)" />
              <path
                 d="m 628,4666 h 850 L 3547,763 v 3903 h 612 V 0 H 3309 L 1241,3903 V 0 H 628 Z"
                 id="path19930"
                 transform="scale(0.015625)" />
              <path
                 d="M 1259,4147 V 2394 h 794 q 441,0 681,228 241,228 241,650 0,419 -241,647 -240,228 -681,228 z m -631,519 h 1425 q 785,0 1186,-355 402,-355 402,-1039 0,-691 -402,-1044 -401,-353 -1186,-353 H 1259 V 0 H 628 Z"
                 id="path19932"
                 transform="scale(0.015625)" />
              <path
                 d="m 628,4666 h 631 V 531 H 3531 V 0 H 628 Z"
                 id="path19934"
                 transform="scale(0.015625)" />
              <path
                 d="M 2188,4044 1331,1722 h 1716 z m -357,622 h 716 L 4325,0 H 3669 L 3244,1197 H 1141 L 716,0 H 50 Z"
                 id="path19936"
                 transform="scale(0.015625)" />
            </defs>
            <use
               xlink:href="#DejaVuSans-20-852"
               id="use19788"
               x="0"
               y="0"
               width="100%"
               height="100%" />
            <use
               x="31.787109"
               xlink:href="#DejaVuSans-53-93"
               id="use19790"
               y="0"
               width="100%"
               height="100%" />
            <use
               x="95.263672"
               xlink:href="#DejaVuSans-4e-7"
               id="use19792"
               y="0"
               width="100%"
               height="100%" />
            <use
               x="170.06836"
               xlink:href="#DejaVuSans-50-5"
               id="use19794"
               y="0"
               width="100%"
               height="100%" />
            <use
               x="230.37109"
               xlink:href="#DejaVuSans-4c-4"
               id="use19796"
               y="0"
               width="100%"
               height="100%" />
            <use
               x="288.33398"
               xlink:href="#DejaVuSans-41-9"
               id="use19798"
               y="0"
               width="100%"
               height="100%" />
          </g>
        </g>
        <g
           id="line2d_3-9">
          <path
             d="m 209.29266,255.18769 h 30"
             style="fill:none;stroke:#377eb8;stroke-width:1.5;stroke-linecap:round"
             id="path19803" />
        </g>
        <g
           id="line2d_4-1" />
        <g
           id="text_2-1">
          <!--  Our SNPLA  -->
          <g
             style="fill:#262626"
             transform="matrix(0.15,0,0,-0.15,251.29266,250.47956)"
             id="g19832">
            <defs
               id="defs19808">
              <path
                 d="m 544,1381 v 2119 h 575 V 1403 q 0,-497 193,-746 194,-248 582,-248 465,0 735,297 271,297 271,810 v 1984 h 575 V 0 H 2900 V 538 Q 2691,219 2414,64 2138,-91 1772,-91 1169,-91 856,284 544,659 544,1381 Z m 1447,2203 z"
                 id="path19950"
                 transform="scale(0.015625)" />
            </defs>
            <use
               xlink:href="#DejaVuSans-20-852"
               id="use19810"
               x="0"
               y="0"
               width="100%"
               height="100%" />
            <use
               x="31.787109"
               xlink:href="#DejaVuSans-4f-1"
               id="use19812"
               y="0"
               width="100%"
               height="100%" />
            <use
               x="110.49805"
               xlink:href="#DejaVuSans-75-3"
               id="use19814"
               y="0"
               width="100%"
               height="100%" />
            <use
               x="173.87695"
               xlink:href="#DejaVuSans-72-8"
               id="use19816"
               y="0"
               width="100%"
               height="100%" />
            <use
               x="214.99023"
               xlink:href="#DejaVuSans-20-852"
               id="use19818"
               y="0"
               width="100%"
               height="100%" />
            <use
               x="246.77734"
               xlink:href="#DejaVuSans-53-93"
               id="use19820"
               y="0"
               width="100%"
               height="100%" />
            <use
               x="310.25391"
               xlink:href="#DejaVuSans-4e-7"
               id="use19822"
               y="0"
               width="100%"
               height="100%" />
            <use
               x="385.05859"
               xlink:href="#DejaVuSans-50-5"
               id="use19824"
               y="0"
               width="100%"
               height="100%" />
            <use
               x="445.36133"
               xlink:href="#DejaVuSans-4c-4"
               id="use19826"
               y="0"
               width="100%"
               height="100%" />
            <use
               x="503.32422"
               xlink:href="#DejaVuSans-41-9"
               id="use19828"
               y="0"
               width="100%"
               height="100%" />
            <use
               x="571.73242"
               xlink:href="#DejaVuSans-20-852"
               id="use19830"
               y="0"
               width="100%"
               height="100%" />
          </g>
          <!--  (SNVI+rKL) -->
          <g
             style="fill:#262626"
             transform="matrix(0.15,0,0,-0.15,251.29266,267.27628)"
             id="g19864">
            <defs
               id="defs19840">
              <path
                 d="m 1984,4856 q -418,-718 -622,-1422 -203,-703 -203,-1425 0,-721 205,-1429 205,-708 620,-1424 h -500 q -468,735 -701,1444 -233,709 -233,1409 0,697 231,1403 232,707 703,1444 z"
                 id="path19965"
                 transform="scale(0.015625)" />
              <path
                 d="M 1831,0 50,4666 H 709 L 2188,738 3669,4666 h 656 L 2547,0 Z"
                 id="path19967"
                 transform="scale(0.015625)" />
              <path
                 d="m 628,4666 h 631 V 0 H 628 Z"
                 id="path19969"
                 transform="scale(0.015625)" />
              <path
                 d="M 2944,4013 V 2272 H 4684 V 1741 H 2944 V 0 H 2419 V 1741 H 678 v 531 h 1741 v 1741 z"
                 id="path19971"
                 transform="scale(0.015625)" />
              <path
                 d="m 628,4666 h 631 V 2694 l 2094,1972 h 813 L 1850,2491 4331,0 H 3500 L 1259,2247 V 0 H 628 Z"
                 id="path19973"
                 transform="scale(0.015625)" />
              <path
                 d="m 513,4856 h 500 q 468,-737 701,-1444 233,-706 233,-1403 0,-700 -233,-1409 -233,-709 -701,-1444 H 513 q 415,716 620,1424 205,708 205,1429 0,722 -205,1425 -205,704 -620,1422 z"
                 id="path19975"
                 transform="scale(0.015625)" />
            </defs>
            <use
               xlink:href="#DejaVuSans-20-852"
               id="use19842"
               x="0"
               y="0"
               width="100%"
               height="100%" />
            <use
               x="31.787109"
               xlink:href="#DejaVuSans-28-6"
               id="use19844"
               y="0"
               width="100%"
               height="100%" />
            <use
               x="70.800781"
               xlink:href="#DejaVuSans-53-93"
               id="use19846"
               y="0"
               width="100%"
               height="100%" />
            <use
               x="134.27734"
               xlink:href="#DejaVuSans-4e-7"
               id="use19848"
               y="0"
               width="100%"
               height="100%" />
            <use
               x="209.08203"
               xlink:href="#DejaVuSans-56-9"
               id="use19850"
               y="0"
               width="100%"
               height="100%" />
            <use
               x="277.49023"
               xlink:href="#DejaVuSans-49-3"
               id="use19852"
               y="0"
               width="100%"
               height="100%" />
            <use
               x="306.98242"
               xlink:href="#DejaVuSans-2b-7"
               id="use19854"
               y="0"
               width="100%"
               height="100%" />
            <use
               x="390.77148"
               xlink:href="#DejaVuSans-72-8"
               id="use19856"
               y="0"
               width="100%"
               height="100%" />
            <use
               x="431.88477"
               xlink:href="#DejaVuSans-4b-2"
               id="use19858"
               y="0"
               width="100%"
               height="100%" />
            <use
               x="497.46094"
               xlink:href="#DejaVuSans-4c-4"
               id="use19860"
               y="0"
               width="100%"
               height="100%" />
            <use
               x="553.17383"
               xlink:href="#DejaVuSans-29-2"
               id="use19862"
               y="0"
               width="100%"
               height="100%" />
          </g>
        </g>
      </g>
    </g>
  </g>
</svg>
