<?xml version="1.0" encoding="utf-8" standalone="no"?>
<!DOCTYPE svg PUBLIC "-//W3C//DTD SVG 1.1//EN"
  "http://www.w3.org/Graphics/SVG/1.1/DTD/svg11.dtd">
<svg height="172.8pt" version="1.1" viewBox="0 0 252 172.8" width="252pt" xmlns="http://www.w3.org/2000/svg" xmlns:xlink="http://www.w3.org/1999/xlink">
 <metadata>
  <rdf:RDF xmlns:cc="http://creativecommons.org/ns#" xmlns:dc="http://purl.org/dc/elements/1.1/" xmlns:rdf="http://www.w3.org/1999/02/22-rdf-syntax-ns#">
   <cc:Work>
    <dc:type rdf:resource="http://purl.org/dc/dcmitype/StillImage"/>
    <dc:date>2021-10-05T16:46:21.648392</dc:date>
    <dc:format>image/svg+xml</dc:format>
    <dc:creator>
     <cc:Agent>
      <dc:title>Matplotlib v3.4.3, https://matplotlib.org/</dc:title>
     </cc:Agent>
    </dc:creator>
   </cc:Work>
  </rdf:RDF>
 </metadata>
 <defs>
  <style type="text/css">*{stroke-linecap:butt;stroke-linejoin:round;}</style>
 </defs>
 <g id="figure_1">
  <g id="patch_1">
   <path d="M 0 172.8 
L 252 172.8 
L 252 0 
L 0 0 
z
" style="fill:#ffffff;"/>
  </g>
  <g id="axes_1">
   <g id="patch_2">
    <path d="M 31.5 151.2 
L 226.8 151.2 
L 226.8 20.736 
L 31.5 20.736 
z
" style="fill:#ffffff;"/>
   </g>
   <g id="matplotlib.axis_1">
    <g id="xtick_1">
     <g id="line2d_1">
      <path clip-path="url(#pa19dbcf2ea)" d="M 61.264973 151.2 
L 61.264973 20.736 
" style="fill:none;stroke:#cccccc;stroke-linecap:round;stroke-width:0.8;"/>
     </g>
     <g id="text_1">
      <!-- 0 -->
      <g style="fill:#262626;" transform="translate(57.765598 166.558281)scale(0.11 -0.11)">
       <defs>
        <path d="M 2034 4250 
Q 1547 4250 1301 3770 
Q 1056 3291 1056 2328 
Q 1056 1369 1301 889 
Q 1547 409 2034 409 
Q 2525 409 2770 889 
Q 3016 1369 3016 2328 
Q 3016 3291 2770 3770 
Q 2525 4250 2034 4250 
z
M 2034 4750 
Q 2819 4750 3233 4129 
Q 3647 3509 3647 2328 
Q 3647 1150 3233 529 
Q 2819 -91 2034 -91 
Q 1250 -91 836 529 
Q 422 1150 422 2328 
Q 422 3509 836 4129 
Q 1250 4750 2034 4750 
z
" id="DejaVuSans-30" transform="scale(0.015625)"/>
       </defs>
       <use xlink:href="#DejaVuSans-30"/>
      </g>
     </g>
    </g>
    <g id="xtick_2">
     <g id="line2d_2">
      <path clip-path="url(#pa19dbcf2ea)" d="M 113.484225 151.2 
L 113.484225 20.736 
" style="fill:none;stroke:#cccccc;stroke-linecap:round;stroke-width:0.8;"/>
     </g>
     <g id="text_2">
      <!-- 5 -->
      <g style="fill:#262626;" transform="translate(109.98485 166.558281)scale(0.11 -0.11)">
       <defs>
        <path d="M 691 4666 
L 3169 4666 
L 3169 4134 
L 1269 4134 
L 1269 2991 
Q 1406 3038 1543 3061 
Q 1681 3084 1819 3084 
Q 2600 3084 3056 2656 
Q 3513 2228 3513 1497 
Q 3513 744 3044 326 
Q 2575 -91 1722 -91 
Q 1428 -91 1123 -41 
Q 819 9 494 109 
L 494 744 
Q 775 591 1075 516 
Q 1375 441 1709 441 
Q 2250 441 2565 725 
Q 2881 1009 2881 1497 
Q 2881 1984 2565 2268 
Q 2250 2553 1709 2553 
Q 1456 2553 1204 2497 
Q 953 2441 691 2322 
L 691 4666 
z
" id="DejaVuSans-35" transform="scale(0.015625)"/>
       </defs>
       <use xlink:href="#DejaVuSans-35"/>
      </g>
     </g>
    </g>
    <g id="xtick_3">
     <g id="line2d_3">
      <path clip-path="url(#pa19dbcf2ea)" d="M 165.703476 151.2 
L 165.703476 20.736 
" style="fill:none;stroke:#cccccc;stroke-linecap:round;stroke-width:0.8;"/>
     </g>
     <g id="text_3">
      <!-- 10 -->
      <g style="fill:#262626;" transform="translate(158.704726 166.558281)scale(0.11 -0.11)">
       <defs>
        <path d="M 794 531 
L 1825 531 
L 1825 4091 
L 703 3866 
L 703 4441 
L 1819 4666 
L 2450 4666 
L 2450 531 
L 3481 531 
L 3481 0 
L 794 0 
L 794 531 
z
" id="DejaVuSans-31" transform="scale(0.015625)"/>
       </defs>
       <use xlink:href="#DejaVuSans-31"/>
       <use x="63.623047" xlink:href="#DejaVuSans-30"/>
      </g>
     </g>
    </g>
    <g id="xtick_4">
     <g id="line2d_4">
      <path clip-path="url(#pa19dbcf2ea)" d="M 217.922727 151.2 
L 217.922727 20.736 
" style="fill:none;stroke:#cccccc;stroke-linecap:round;stroke-width:0.8;"/>
     </g>
     <g id="text_4">
      <!-- 15 -->
      <g style="fill:#262626;" transform="translate(210.923977 166.558281)scale(0.11 -0.11)">
       <use xlink:href="#DejaVuSans-31"/>
       <use x="63.623047" xlink:href="#DejaVuSans-35"/>
      </g>
     </g>
    </g>
    <g id="text_5">
     <!-- $\mu$ of $q_\mu$ -->
     <g style="fill:#262626;" transform="translate(110.725 181.205937)scale(0.11 -0.11)">
      <defs>
       <path d="M -84 -1331 
L 856 3500 
L 1434 3500 
L 1009 1322 
Q 997 1256 987 1175 
Q 978 1094 978 1013 
Q 978 722 1161 565 
Q 1344 409 1684 409 
Q 2147 409 2431 671 
Q 2716 934 2816 1459 
L 3213 3500 
L 3788 3500 
L 3266 809 
Q 3253 750 3248 706 
Q 3244 663 3244 628 
Q 3244 531 3283 486 
Q 3322 441 3406 441 
Q 3438 441 3492 456 
Q 3547 472 3647 513 
L 3559 50 
Q 3422 -19 3297 -55 
Q 3172 -91 3053 -91 
Q 2847 -91 2730 40 
Q 2613 172 2613 403 
Q 2438 153 2195 31 
Q 1953 -91 1625 -91 
Q 1334 -91 1117 43 
Q 900 178 831 397 
L 494 -1331 
L -84 -1331 
z
" id="DejaVuSans-Oblique-3bc" transform="scale(0.015625)"/>
       <path id="DejaVuSans-20" transform="scale(0.015625)"/>
       <path d="M 1959 3097 
Q 1497 3097 1228 2736 
Q 959 2375 959 1747 
Q 959 1119 1226 758 
Q 1494 397 1959 397 
Q 2419 397 2687 759 
Q 2956 1122 2956 1747 
Q 2956 2369 2687 2733 
Q 2419 3097 1959 3097 
z
M 1959 3584 
Q 2709 3584 3137 3096 
Q 3566 2609 3566 1747 
Q 3566 888 3137 398 
Q 2709 -91 1959 -91 
Q 1206 -91 779 398 
Q 353 888 353 1747 
Q 353 2609 779 3096 
Q 1206 3584 1959 3584 
z
" id="DejaVuSans-6f" transform="scale(0.015625)"/>
       <path d="M 2375 4863 
L 2375 4384 
L 1825 4384 
Q 1516 4384 1395 4259 
Q 1275 4134 1275 3809 
L 1275 3500 
L 2222 3500 
L 2222 3053 
L 1275 3053 
L 1275 0 
L 697 0 
L 697 3053 
L 147 3053 
L 147 3500 
L 697 3500 
L 697 3744 
Q 697 4328 969 4595 
Q 1241 4863 1831 4863 
L 2375 4863 
z
" id="DejaVuSans-66" transform="scale(0.015625)"/>
       <path d="M 2669 525 
Q 2438 222 2123 65 
Q 1809 -91 1428 -91 
Q 897 -91 595 267 
Q 294 625 294 1253 
Q 294 1759 480 2231 
Q 666 2703 1013 3078 
Q 1238 3322 1530 3453 
Q 1822 3584 2144 3584 
Q 2531 3584 2781 3431 
Q 3031 3278 3144 2969 
L 3244 3494 
L 3822 3494 
L 2888 -1319 
L 2309 -1319 
L 2669 525 
z
M 891 1338 
Q 891 875 1084 633 
Q 1278 391 1644 391 
Q 2188 391 2572 911 
Q 2956 1431 2956 2175 
Q 2956 2625 2757 2864 
Q 2559 3103 2188 3103 
Q 1916 3103 1684 2976 
Q 1453 2850 1281 2606 
Q 1100 2350 995 2006 
Q 891 1663 891 1338 
z
" id="DejaVuSans-Oblique-71" transform="scale(0.015625)"/>
      </defs>
      <use transform="translate(0 0.015625)" xlink:href="#DejaVuSans-Oblique-3bc"/>
      <use transform="translate(63.623047 0.015625)" xlink:href="#DejaVuSans-20"/>
      <use transform="translate(95.410156 0.015625)" xlink:href="#DejaVuSans-6f"/>
      <use transform="translate(156.591797 0.015625)" xlink:href="#DejaVuSans-66"/>
      <use transform="translate(191.796875 0.015625)" xlink:href="#DejaVuSans-20"/>
      <use transform="translate(223.583984 0.015625)" xlink:href="#DejaVuSans-Oblique-71"/>
      <use transform="translate(287.060547 -16.390625)scale(0.7)" xlink:href="#DejaVuSans-Oblique-3bc"/>
     </g>
    </g>
   </g>
   <g id="matplotlib.axis_2">
    <g id="ytick_1">
     <g id="line2d_5">
      <path clip-path="url(#pa19dbcf2ea)" d="M 31.5 151.2 
L 226.8 151.2 
" style="fill:none;stroke:#cccccc;stroke-linecap:round;stroke-width:0.8;"/>
     </g>
     <g id="text_6">
      <!-- 0.00 -->
      <g style="fill:#262626;" transform="translate(0.007812 155.379141)scale(0.11 -0.11)">
       <defs>
        <path d="M 684 794 
L 1344 794 
L 1344 0 
L 684 0 
L 684 794 
z
" id="DejaVuSans-2e" transform="scale(0.015625)"/>
       </defs>
       <use xlink:href="#DejaVuSans-30"/>
       <use x="63.623047" xlink:href="#DejaVuSans-2e"/>
       <use x="95.410156" xlink:href="#DejaVuSans-30"/>
       <use x="159.033203" xlink:href="#DejaVuSans-30"/>
      </g>
     </g>
    </g>
    <g id="ytick_2">
     <g id="line2d_6">
      <path clip-path="url(#pa19dbcf2ea)" d="M 31.5 129.456 
L 226.8 129.456 
" style="fill:none;stroke:#cccccc;stroke-linecap:round;stroke-width:0.8;"/>
     </g>
     <g id="text_7">
      <!-- 0.25 -->
      <g style="fill:#262626;" transform="translate(0.007812 133.635141)scale(0.11 -0.11)">
       <defs>
        <path d="M 1228 531 
L 3431 531 
L 3431 0 
L 469 0 
L 469 531 
Q 828 903 1448 1529 
Q 2069 2156 2228 2338 
Q 2531 2678 2651 2914 
Q 2772 3150 2772 3378 
Q 2772 3750 2511 3984 
Q 2250 4219 1831 4219 
Q 1534 4219 1204 4116 
Q 875 4013 500 3803 
L 500 4441 
Q 881 4594 1212 4672 
Q 1544 4750 1819 4750 
Q 2544 4750 2975 4387 
Q 3406 4025 3406 3419 
Q 3406 3131 3298 2873 
Q 3191 2616 2906 2266 
Q 2828 2175 2409 1742 
Q 1991 1309 1228 531 
z
" id="DejaVuSans-32" transform="scale(0.015625)"/>
       </defs>
       <use xlink:href="#DejaVuSans-30"/>
       <use x="63.623047" xlink:href="#DejaVuSans-2e"/>
       <use x="95.410156" xlink:href="#DejaVuSans-32"/>
       <use x="159.033203" xlink:href="#DejaVuSans-35"/>
      </g>
     </g>
    </g>
    <g id="ytick_3">
     <g id="line2d_7">
      <path clip-path="url(#pa19dbcf2ea)" d="M 31.5 107.712 
L 226.8 107.712 
" style="fill:none;stroke:#cccccc;stroke-linecap:round;stroke-width:0.8;"/>
     </g>
     <g id="text_8">
      <!-- 0.50 -->
      <g style="fill:#262626;" transform="translate(0.007812 111.891141)scale(0.11 -0.11)">
       <use xlink:href="#DejaVuSans-30"/>
       <use x="63.623047" xlink:href="#DejaVuSans-2e"/>
       <use x="95.410156" xlink:href="#DejaVuSans-35"/>
       <use x="159.033203" xlink:href="#DejaVuSans-30"/>
      </g>
     </g>
    </g>
    <g id="ytick_4">
     <g id="line2d_8">
      <path clip-path="url(#pa19dbcf2ea)" d="M 31.5 85.968 
L 226.8 85.968 
" style="fill:none;stroke:#cccccc;stroke-linecap:round;stroke-width:0.8;"/>
     </g>
     <g id="text_9">
      <!-- 0.75 -->
      <g style="fill:#262626;" transform="translate(0.007812 90.147141)scale(0.11 -0.11)">
       <defs>
        <path d="M 525 4666 
L 3525 4666 
L 3525 4397 
L 1831 0 
L 1172 0 
L 2766 4134 
L 525 4134 
L 525 4666 
z
" id="DejaVuSans-37" transform="scale(0.015625)"/>
       </defs>
       <use xlink:href="#DejaVuSans-30"/>
       <use x="63.623047" xlink:href="#DejaVuSans-2e"/>
       <use x="95.410156" xlink:href="#DejaVuSans-37"/>
       <use x="159.033203" xlink:href="#DejaVuSans-35"/>
      </g>
     </g>
    </g>
    <g id="ytick_5">
     <g id="line2d_9">
      <path clip-path="url(#pa19dbcf2ea)" d="M 31.5 64.224 
L 226.8 64.224 
" style="fill:none;stroke:#cccccc;stroke-linecap:round;stroke-width:0.8;"/>
     </g>
     <g id="text_10">
      <!-- 1.00 -->
      <g style="fill:#262626;" transform="translate(0.007812 68.403141)scale(0.11 -0.11)">
       <use xlink:href="#DejaVuSans-31"/>
       <use x="63.623047" xlink:href="#DejaVuSans-2e"/>
       <use x="95.410156" xlink:href="#DejaVuSans-30"/>
       <use x="159.033203" xlink:href="#DejaVuSans-30"/>
      </g>
     </g>
    </g>
    <g id="ytick_6">
     <g id="line2d_10">
      <path clip-path="url(#pa19dbcf2ea)" d="M 31.5 42.48 
L 226.8 42.48 
" style="fill:none;stroke:#cccccc;stroke-linecap:round;stroke-width:0.8;"/>
     </g>
     <g id="text_11">
      <!-- 1.25 -->
      <g style="fill:#262626;" transform="translate(0.007812 46.659141)scale(0.11 -0.11)">
       <use xlink:href="#DejaVuSans-31"/>
       <use x="63.623047" xlink:href="#DejaVuSans-2e"/>
       <use x="95.410156" xlink:href="#DejaVuSans-32"/>
       <use x="159.033203" xlink:href="#DejaVuSans-35"/>
      </g>
     </g>
    </g>
    <g id="ytick_7">
     <g id="line2d_11">
      <path clip-path="url(#pa19dbcf2ea)" d="M 31.5 20.736 
L 226.8 20.736 
" style="fill:none;stroke:#cccccc;stroke-linecap:round;stroke-width:0.8;"/>
     </g>
     <g id="text_12">
      <!-- 1.50 -->
      <g style="fill:#262626;" transform="translate(0.007812 24.915141)scale(0.11 -0.11)">
       <use xlink:href="#DejaVuSans-31"/>
       <use x="63.623047" xlink:href="#DejaVuSans-2e"/>
       <use x="95.410156" xlink:href="#DejaVuSans-35"/>
       <use x="159.033203" xlink:href="#DejaVuSans-30"/>
      </g>
     </g>
    </g>
   </g>
   <g id="patch_3">
    <path clip-path="url(#pa19dbcf2ea)" d="M 85.661837 151.2 
L 88.368393 151.2 
L 88.368393 149.186303 
L 85.661837 149.186303 
z
" style="fill:#a52a2a;opacity:0.5;stroke:#ffffff;stroke-linejoin:miter;"/>
   </g>
   <g id="patch_4">
    <path clip-path="url(#pa19dbcf2ea)" d="M 88.368396 151.2 
L 91.07495 151.2 
L 91.07495 145.494519 
L 88.368396 145.494519 
z
" style="fill:#a52a2a;opacity:0.5;stroke:#ffffff;stroke-linejoin:miter;"/>
   </g>
   <g id="patch_5">
    <path clip-path="url(#pa19dbcf2ea)" d="M 91.07495 151.2 
L 93.781504 151.2 
L 93.781504 137.104105 
L 91.07495 137.104105 
z
" style="fill:#a52a2a;opacity:0.5;stroke:#ffffff;stroke-linejoin:miter;"/>
   </g>
   <g id="patch_6">
    <path clip-path="url(#pa19dbcf2ea)" d="M 93.781504 151.2 
L 96.48806 151.2 
L 96.48806 121.66577 
L 93.781504 121.66577 
z
" style="fill:#a52a2a;opacity:0.5;stroke:#ffffff;stroke-linejoin:miter;"/>
   </g>
   <g id="patch_7">
    <path clip-path="url(#pa19dbcf2ea)" d="M 96.488058 151.2 
L 99.194614 151.2 
L 99.194614 88.104146 
L 96.488058 88.104146 
z
" style="fill:#a52a2a;opacity:0.5;stroke:#ffffff;stroke-linejoin:miter;"/>
   </g>
   <g id="patch_8">
    <path clip-path="url(#pa19dbcf2ea)" d="M 99.194617 151.2 
L 101.901171 151.2 
L 101.901171 62.932846 
L 99.194617 62.932846 
z
" style="fill:#a52a2a;opacity:0.5;stroke:#ffffff;stroke-linejoin:miter;"/>
   </g>
   <g id="patch_9">
    <path clip-path="url(#pa19dbcf2ea)" d="M 101.901168 151.2 
L 104.607725 151.2 
L 104.607725 65.282162 
L 101.901168 65.282162 
z
" style="fill:#a52a2a;opacity:0.5;stroke:#ffffff;stroke-linejoin:miter;"/>
   </g>
   <g id="patch_10">
    <path clip-path="url(#pa19dbcf2ea)" d="M 104.607725 151.2 
L 107.314284 151.2 
L 107.314284 109.583624 
L 104.607725 109.583624 
z
" style="fill:#a52a2a;opacity:0.5;stroke:#ffffff;stroke-linejoin:miter;"/>
   </g>
   <g id="patch_11">
    <path clip-path="url(#pa19dbcf2ea)" d="M 107.314284 151.2 
L 110.020838 151.2 
L 110.020838 146.501368 
L 107.314284 146.501368 
z
" style="fill:#a52a2a;opacity:0.5;stroke:#ffffff;stroke-linejoin:miter;"/>
   </g>
   <g id="patch_12">
    <path clip-path="url(#pa19dbcf2ea)" d="M 110.020833 151.2 
L 112.727387 151.2 
L 112.727387 150.528767 
L 110.020833 150.528767 
z
" style="fill:#a52a2a;opacity:0.5;stroke:#ffffff;stroke-linejoin:miter;"/>
   </g>
   <g id="patch_13">
    <path clip-path="url(#pa19dbcf2ea)" d="M 139.246175 151.2 
L 142.57057 151.2 
L 142.57057 150.926758 
L 139.246175 150.926758 
z
" style="fill:#006400;opacity:0.5;stroke:#ffffff;stroke-linejoin:miter;"/>
   </g>
   <g id="patch_14">
    <path clip-path="url(#pa19dbcf2ea)" d="M 142.570565 151.2 
L 145.894965 151.2 
L 145.894965 151.2 
L 142.570565 151.2 
z
" style="fill:#006400;opacity:0.5;stroke:#ffffff;stroke-linejoin:miter;"/>
   </g>
   <g id="patch_15">
    <path clip-path="url(#pa19dbcf2ea)" d="M 145.894965 151.2 
L 149.219364 151.2 
L 149.219364 150.926758 
L 145.894965 150.926758 
z
" style="fill:#006400;opacity:0.5;stroke:#ffffff;stroke-linejoin:miter;"/>
   </g>
   <g id="patch_16">
    <path clip-path="url(#pa19dbcf2ea)" d="M 149.219364 151.2 
L 152.543754 151.2 
L 152.543754 148.194333 
L 149.219364 148.194333 
z
" style="fill:#006400;opacity:0.5;stroke:#ffffff;stroke-linejoin:miter;"/>
   </g>
   <g id="patch_17">
    <path clip-path="url(#pa19dbcf2ea)" d="M 152.543754 151.2 
L 155.868154 151.2 
L 155.868154 144.915443 
L 152.543754 144.915443 
z
" style="fill:#006400;opacity:0.5;stroke:#ffffff;stroke-linejoin:miter;"/>
   </g>
   <g id="patch_18">
    <path clip-path="url(#pa19dbcf2ea)" d="M 155.868154 151.2 
L 159.192553 151.2 
L 159.192553 120.050456 
L 155.868154 120.050456 
z
" style="fill:#006400;opacity:0.5;stroke:#ffffff;stroke-linejoin:miter;"/>
   </g>
   <g id="patch_19">
    <path clip-path="url(#pa19dbcf2ea)" d="M 159.192563 151.2 
L 162.516953 151.2 
L 162.516953 82.889392 
L 159.192563 82.889392 
z
" style="fill:#006400;opacity:0.5;stroke:#ffffff;stroke-linejoin:miter;"/>
   </g>
   <g id="patch_20">
    <path clip-path="url(#pa19dbcf2ea)" d="M 162.516943 151.2 
L 165.841343 151.2 
L 165.841343 55.292194 
L 162.516943 55.292194 
z
" style="fill:#006400;opacity:0.5;stroke:#ffffff;stroke-linejoin:miter;"/>
   </g>
   <g id="patch_21">
    <path clip-path="url(#pa19dbcf2ea)" d="M 165.841343 151.2 
L 169.165732 151.2 
L 169.165732 95.731786 
L 165.841343 95.731786 
z
" style="fill:#006400;opacity:0.5;stroke:#ffffff;stroke-linejoin:miter;"/>
   </g>
   <g id="patch_22">
    <path clip-path="url(#pa19dbcf2ea)" d="M 169.165732 151.2 
L 172.490132 151.2 
L 172.490132 138.630886 
L 169.165732 138.630886 
z
" style="fill:#006400;opacity:0.5;stroke:#ffffff;stroke-linejoin:miter;"/>
   </g>
   <g id="line2d_12">
    <path clip-path="url(#pa19dbcf2ea)" d="M 40.377273 151.2 
L 91.959383 151.088957 
L 95.350841 150.839849 
L 97.659163 150.456057 
L 99.505821 149.927995 
L 101.086134 149.248526 
L 102.524395 148.38988 
L 103.891633 147.312043 
L 105.223354 145.974707 
L 106.572839 144.294287 
L 107.957831 142.203618 
L 109.431607 139.563945 
L 111.082941 136.128267 
L 113.107163 131.367516 
L 118.398544 118.640635 
L 119.765783 116.072154 
L 120.884429 114.411567 
L 121.843271 113.360243 
L 122.695576 112.742211 
L 123.459102 112.454863 
L 124.169352 112.418942 
L 124.879607 112.606749 
L 125.625369 113.041126 
L 126.442161 113.785889 
L 127.365491 114.945623 
L 128.430871 116.661053 
L 129.709326 119.16751 
L 131.360664 122.932353 
L 138.214605 139.153995 
L 139.812672 142.061872 
L 141.286448 144.298596 
L 142.689194 146.037593 
L 144.074191 147.408996 
L 145.476932 148.488517 
L 146.932959 149.330298 
L 148.513278 149.984888 
L 150.306651 150.480267 
L 152.45517 150.833891 
L 155.296179 151.061912 
L 159.841798 151.176063 
L 173.585198 151.199972 
L 217.922727 151.2 
L 217.922727 151.2 
" style="fill:none;stroke:#a52a2a;stroke-linecap:round;stroke-opacity:0.8;stroke-width:2;"/>
   </g>
   <g id="line2d_13">
    <path clip-path="url(#pa19dbcf2ea)" d="M 40.377273 151.2 
L 154.621447 151.088999 
L 158.012907 150.839971 
L 160.321224 150.45629 
L 162.167874 149.928368 
L 163.748192 149.249059 
L 165.186461 148.390594 
L 166.553694 147.312974 
L 167.88542 145.975868 
L 169.234895 144.295725 
L 170.619887 142.205339 
L 172.093673 139.565947 
L 173.744996 136.130587 
L 175.769223 131.370077 
L 181.0606 118.642794 
L 182.427843 116.073898 
L 183.546484 114.412907 
L 184.505337 113.361178 
L 185.357636 112.742776 
L 186.121153 112.455081 
L 186.831412 112.41883 
L 187.541662 112.606308 
L 188.28743 113.040356 
L 189.104222 113.784767 
L 190.027547 114.94413 
L 191.092922 116.659179 
L 192.371381 119.165291 
L 194.022725 122.929849 
L 200.876661 139.151933 
L 202.474728 142.060133 
L 203.948504 144.297161 
L 205.351245 146.036426 
L 206.736247 147.408079 
L 208.138998 148.487822 
L 209.595015 149.329783 
L 211.175324 149.984527 
L 212.968717 150.480041 
L 215.117235 150.833767 
L 217.922727 151.060087 
L 217.922727 151.060087 
" style="fill:none;stroke:#006400;stroke-linecap:round;stroke-opacity:0.8;stroke-width:2;"/>
   </g>
   <g id="line2d_14">
    <path clip-path="url(#pa19dbcf2ea)" d="M 40.377273 150.911117 
L 42.863157 150.558574 
L 44.780841 150.06923 
L 46.414421 149.427088 
L 47.888196 148.608825 
L 49.27319 147.581526 
L 50.604913 146.313785 
L 51.936637 144.734637 
L 53.303874 142.76134 
L 54.759892 140.254485 
L 56.357962 137.039651 
L 58.257888 132.686089 
L 64.703432 117.42395 
L 65.964131 115.266181 
L 67.011753 113.889207 
L 67.917326 113.045164 
L 68.716361 112.587116 
L 69.44437 112.412863 
L 70.154623 112.469475 
L 70.882632 112.758746 
L 71.66391 113.32357 
L 72.516214 114.226433 
L 73.492811 115.600744 
L 74.646972 117.635548 
L 76.049722 120.588329 
L 78.020672 125.309055 
L 82.584048 136.390885 
L 84.35968 140.028418 
L 85.922235 142.739234 
L 87.378254 144.83209 
L 88.781003 146.467177 
L 90.165995 147.746442 
L 91.586502 148.756647 
L 93.078032 149.542766 
L 94.711614 150.147992 
L 96.576027 150.596695 
L 98.884349 150.913194 
L 102.06273 151.106778 
L 107.691485 151.19041 
L 136.634292 151.2 
L 217.922727 151.2 
L 217.922727 151.2 
" style="fill:none;stroke:#000000;stroke-linecap:round;stroke-opacity:0.8;stroke-width:2;"/>
   </g>
   <g id="line2d_15">
    <path clip-path="url(#pa19dbcf2ea)" d="M 40.377273 151.2 
L 81.199054 151.089037 
L 83.649425 150.844291 
L 85.229738 150.473407 
L 86.454924 149.961297 
L 87.484792 149.287339 
L 88.390365 148.427694 
L 89.242668 147.305749 
L 90.059457 145.854942 
L 90.87625 143.930739 
L 91.69304 141.409586 
L 92.527586 138.070254 
L 93.379891 133.695554 
L 94.267705 127.919878 
L 95.208791 120.267545 
L 96.238659 110.004193 
L 97.517113 94.851901 
L 100.074023 63.976476 
L 100.766519 58.490221 
L 101.24594 56.209081 
L 101.583309 55.499357 
L 101.77863 55.457531 
L 101.956193 55.665831 
L 102.204782 56.364077 
L 102.542151 58.085316 
L 102.968304 61.537147 
L 103.51875 68.009893 
L 104.246758 79.531206 
L 105.525218 104.160297 
L 106.76816 126.43013 
L 107.567189 136.983555 
L 108.241931 143.144697 
L 108.845644 146.747793 
L 109.396095 148.79569 
L 109.911023 149.940243 
L 110.425962 150.585874 
L 110.994162 150.945751 
L 111.72217 151.129037 
L 113.089409 151.196035 
L 125.625369 151.2 
L 217.922727 151.2 
L 217.922727 151.2 
" style="fill:none;stroke:#a52a2a;stroke-dasharray:7.4,3.2;stroke-dashoffset:0;stroke-opacity:0.8;stroke-width:2;"/>
   </g>
   <g id="line2d_16">
    <path clip-path="url(#pa19dbcf2ea)" d="M 40.377273 151.2 
L 143.861111 151.089094 
L 146.311493 150.84446 
L 147.891792 150.473745 
L 149.116985 149.96185 
L 150.146853 149.28817 
L 151.052429 148.428867 
L 151.904728 147.307336 
L 152.721511 145.857052 
L 153.538313 143.933599 
L 154.355095 141.413251 
L 155.171888 138.155073 
L 156.024198 133.803755 
L 156.912005 128.056359 
L 157.853098 120.43671 
L 158.900714 110.015917 
L 160.179174 94.865286 
L 162.736084 63.986669 
L 163.428585 58.496815 
L 163.908001 56.213125 
L 164.245367 55.500218 
L 164.440683 55.456557 
L 164.63601 55.69787 
L 164.884592 56.428237 
L 165.221968 58.194443 
L 165.648118 61.701039 
L 166.198569 68.239386 
L 166.926568 79.827663 
L 168.222786 104.836728 
L 169.44797 126.686298 
L 170.247013 137.166342 
L 170.921746 143.26703 
L 171.525463 146.825573 
L 172.075914 148.843075 
L 172.590848 149.967871 
L 173.105772 150.600774 
L 173.673971 150.952624 
L 174.419739 151.133482 
L 175.840248 151.196782 
L 190.96863 151.2 
L 217.922727 151.2 
L 217.922727 151.2 
" style="fill:none;stroke:#006400;stroke-dasharray:7.4,3.2;stroke-dashoffset:0;stroke-opacity:0.8;stroke-width:2;"/>
   </g>
   <g id="patch_23">
    <path d="M 31.5 151.2 
L 31.5 20.736 
" style="fill:none;stroke:#cccccc;stroke-linecap:square;stroke-linejoin:miter;stroke-width:0.8;"/>
   </g>
   <g id="patch_24">
    <path d="M 226.8 151.2 
L 226.8 20.736 
" style="fill:none;stroke:#cccccc;stroke-linecap:square;stroke-linejoin:miter;stroke-width:0.8;"/>
   </g>
   <g id="patch_25">
    <path d="M 31.5 151.2 
L 226.8 151.2 
" style="fill:none;stroke:#cccccc;stroke-linecap:square;stroke-linejoin:miter;stroke-width:0.8;"/>
   </g>
   <g id="patch_26">
    <path d="M 31.5 20.736 
L 226.8 20.736 
" style="fill:none;stroke:#cccccc;stroke-linecap:square;stroke-linejoin:miter;stroke-width:0.8;"/>
   </g>
   <g id="legend_1">
    <g id="line2d_17">
     <path d="M 21.84 3.28464 
L 32.34 3.28464 
" style="fill:none;stroke:#a52a2a;stroke-linecap:round;stroke-opacity:0.8;stroke-width:2;"/>
    </g>
    <g id="line2d_18"/>
    <g id="text_13">
     <!-- $q_{\mu=6}( \theta )$ -->
     <g style="fill:#262626;" transform="translate(34.44 6.95964)scale(0.105 -0.105)">
      <defs>
       <path d="M 678 2906 
L 4684 2906 
L 4684 2381 
L 678 2381 
L 678 2906 
z
M 678 1631 
L 4684 1631 
L 4684 1100 
L 678 1100 
L 678 1631 
z
" id="DejaVuSans-3d" transform="scale(0.015625)"/>
       <path d="M 2113 2584 
Q 1688 2584 1439 2293 
Q 1191 2003 1191 1497 
Q 1191 994 1439 701 
Q 1688 409 2113 409 
Q 2538 409 2786 701 
Q 3034 994 3034 1497 
Q 3034 2003 2786 2293 
Q 2538 2584 2113 2584 
z
M 3366 4563 
L 3366 3988 
Q 3128 4100 2886 4159 
Q 2644 4219 2406 4219 
Q 1781 4219 1451 3797 
Q 1122 3375 1075 2522 
Q 1259 2794 1537 2939 
Q 1816 3084 2150 3084 
Q 2853 3084 3261 2657 
Q 3669 2231 3669 1497 
Q 3669 778 3244 343 
Q 2819 -91 2113 -91 
Q 1303 -91 875 529 
Q 447 1150 447 2328 
Q 447 3434 972 4092 
Q 1497 4750 2381 4750 
Q 2619 4750 2861 4703 
Q 3103 4656 3366 4563 
z
" id="DejaVuSans-36" transform="scale(0.015625)"/>
       <path d="M 1984 4856 
Q 1566 4138 1362 3434 
Q 1159 2731 1159 2009 
Q 1159 1288 1364 580 
Q 1569 -128 1984 -844 
L 1484 -844 
Q 1016 -109 783 600 
Q 550 1309 550 2009 
Q 550 2706 781 3412 
Q 1013 4119 1484 4856 
L 1984 4856 
z
" id="DejaVuSans-28" transform="scale(0.015625)"/>
       <path d="M 2913 2219 
L 925 2219 
Q 791 1284 928 888 
Q 1100 400 1566 400 
Q 2034 400 2391 891 
Q 2703 1322 2913 2219 
z
M 3009 2750 
Q 3094 3638 2984 3950 
Q 2813 4444 2353 4444 
Q 1875 4444 1525 3956 
Q 1250 3563 1034 2750 
L 3009 2750 
z
M 2444 4913 
Q 3194 4913 3494 4250 
Q 3794 3591 3566 2422 
Q 3341 1256 2781 594 
Q 2225 -72 1475 -72 
Q 722 -72 425 594 
Q 128 1256 353 2422 
Q 581 3591 1134 4250 
Q 1691 4913 2444 4913 
z
" id="DejaVuSans-Oblique-3b8" transform="scale(0.015625)"/>
       <path d="M 513 4856 
L 1013 4856 
Q 1481 4119 1714 3412 
Q 1947 2706 1947 2009 
Q 1947 1309 1714 600 
Q 1481 -109 1013 -844 
L 513 -844 
Q 928 -128 1133 580 
Q 1338 1288 1338 2009 
Q 1338 2731 1133 3434 
Q 928 4138 513 4856 
z
" id="DejaVuSans-29" transform="scale(0.015625)"/>
      </defs>
      <use transform="translate(0 0.234375)" xlink:href="#DejaVuSans-Oblique-71"/>
      <use transform="translate(63.476562 -16.171875)scale(0.7)" xlink:href="#DejaVuSans-Oblique-3bc"/>
      <use transform="translate(121.650391 -16.171875)scale(0.7)" xlink:href="#DejaVuSans-3d"/>
      <use transform="translate(193.94043 -16.171875)scale(0.7)" xlink:href="#DejaVuSans-36"/>
      <use transform="translate(241.210938 0.234375)" xlink:href="#DejaVuSans-28"/>
      <use transform="translate(280.224609 0.234375)" xlink:href="#DejaVuSans-Oblique-3b8"/>
      <use transform="translate(341.40625 0.234375)" xlink:href="#DejaVuSans-29"/>
     </g>
    </g>
    <g id="line2d_19">
     <path d="M 95.445 3.28464 
L 105.945 3.28464 
" style="fill:none;stroke:#006400;stroke-linecap:round;stroke-opacity:0.8;stroke-width:2;"/>
    </g>
    <g id="line2d_20"/>
    <g id="text_14">
     <!-- $q_{\mu=12}( \theta )$ -->
     <g style="fill:#262626;" transform="translate(108.045 6.95964)scale(0.105 -0.105)">
      <use transform="translate(0 0.234375)" xlink:href="#DejaVuSans-Oblique-71"/>
      <use transform="translate(63.476562 -16.171875)scale(0.7)" xlink:href="#DejaVuSans-Oblique-3bc"/>
      <use transform="translate(121.650391 -16.171875)scale(0.7)" xlink:href="#DejaVuSans-3d"/>
      <use transform="translate(193.94043 -16.171875)scale(0.7)" xlink:href="#DejaVuSans-31"/>
      <use transform="translate(238.476562 -16.171875)scale(0.7)" xlink:href="#DejaVuSans-32"/>
      <use transform="translate(285.74707 0.234375)" xlink:href="#DejaVuSans-28"/>
      <use transform="translate(324.760742 0.234375)" xlink:href="#DejaVuSans-Oblique-3b8"/>
      <use transform="translate(385.942383 0.234375)" xlink:href="#DejaVuSans-29"/>
     </g>
    </g>
    <g id="line2d_21">
     <path d="M 173.67 3.28464 
L 184.17 3.28464 
" style="fill:none;stroke:#000000;stroke-linecap:round;stroke-opacity:0.8;stroke-width:2;"/>
    </g>
    <g id="line2d_22"/>
    <g id="text_15">
     <!-- $p(\theta|x=1)$ -->
     <g style="fill:#262626;" transform="translate(186.27 6.95964)scale(0.105 -0.105)">
      <defs>
       <path d="M 3175 2156 
Q 3175 2616 2975 2859 
Q 2775 3103 2400 3103 
Q 2144 3103 1911 2972 
Q 1678 2841 1497 2591 
Q 1319 2344 1212 1994 
Q 1106 1644 1106 1300 
Q 1106 863 1306 627 
Q 1506 391 1875 391 
Q 2147 391 2380 519 
Q 2613 647 2778 891 
Q 2956 1147 3065 1494 
Q 3175 1841 3175 2156 
z
M 1394 2969 
Q 1625 3272 1939 3428 
Q 2253 3584 2638 3584 
Q 3175 3584 3472 3232 
Q 3769 2881 3769 2247 
Q 3769 1728 3584 1258 
Q 3400 788 3053 416 
Q 2822 169 2531 39 
Q 2241 -91 1919 -91 
Q 1547 -91 1294 64 
Q 1041 219 916 525 
L 556 -1331 
L -19 -1331 
L 922 3500 
L 1497 3500 
L 1394 2969 
z
" id="DejaVuSans-Oblique-70" transform="scale(0.015625)"/>
       <path d="M 1344 4891 
L 1344 -1509 
L 813 -1509 
L 813 4891 
L 1344 4891 
z
" id="DejaVuSans-7c" transform="scale(0.015625)"/>
       <path d="M 3841 3500 
L 2234 1784 
L 3219 0 
L 2559 0 
L 1819 1388 
L 531 0 
L -166 0 
L 1556 1844 
L 641 3500 
L 1300 3500 
L 1972 2234 
L 3144 3500 
L 3841 3500 
z
" id="DejaVuSans-Oblique-78" transform="scale(0.015625)"/>
      </defs>
      <use transform="translate(0 0.234375)" xlink:href="#DejaVuSans-Oblique-70"/>
      <use transform="translate(63.476562 0.234375)" xlink:href="#DejaVuSans-28"/>
      <use transform="translate(102.490234 0.234375)" xlink:href="#DejaVuSans-Oblique-3b8"/>
      <use transform="translate(163.671875 0.234375)" xlink:href="#DejaVuSans-7c"/>
      <use transform="translate(197.363281 0.234375)" xlink:href="#DejaVuSans-Oblique-78"/>
      <use transform="translate(276.025391 0.234375)" xlink:href="#DejaVuSans-3d"/>
      <use transform="translate(379.296875 0.234375)" xlink:href="#DejaVuSans-31"/>
      <use transform="translate(442.919922 0.234375)" xlink:href="#DejaVuSans-29"/>
     </g>
    </g>
   </g>
  </g>
 </g>
 <defs>
  <clipPath id="pa19dbcf2ea">
   <rect height="130.464" width="195.3" x="31.5" y="20.736"/>
  </clipPath>
 </defs>
</svg>
